<svg viewBox="0 0 576 435" preserveAspectRatio="none" version="1.1" xmlns="http://www.w3.org/2000/svg" xmlns:xlink="http://www.w3.org/1999/xlink" id="BJNISOxbm"><style>@-webkit-keyframes SyQ4Urdg-Q_H1l2zOBWQ_Animation{0%{-webkit-transform: rotate(0deg);transform: rotate(0deg);}21.43%{-webkit-transform: rotate(-1deg);transform: rotate(-1deg);}35.71%{-webkit-transform: rotate(0deg);transform: rotate(0deg);}50%{-webkit-transform: rotate(-1deg);transform: rotate(-1deg);}71.43%{-webkit-transform: rotate(0deg);transform: rotate(0deg);}85.71%{-webkit-transform: rotate(-1deg);transform: rotate(-1deg);}100%{-webkit-transform: rotate(0deg);transform: rotate(0deg);}}@keyframes SyQ4Urdg-Q_H1l2zOBWQ_Animation{0%{-webkit-transform: rotate(0deg);transform: rotate(0deg);}21.43%{-webkit-transform: rotate(-1deg);transform: rotate(-1deg);}35.71%{-webkit-transform: rotate(0deg);transform: rotate(0deg);}50%{-webkit-transform: rotate(-1deg);transform: rotate(-1deg);}71.43%{-webkit-transform: rotate(0deg);transform: rotate(0deg);}85.71%{-webkit-transform: rotate(-1deg);transform: rotate(-1deg);}100%{-webkit-transform: rotate(0deg);transform: rotate(0deg);}}@-webkit-keyframes BJNVLH_xWm_HkdIfuSWm_Animation{0%{-webkit-transform: rotate(0deg);transform: rotate(0deg);}21.43%{-webkit-transform: rotate(-1deg);transform: rotate(-1deg);}35.71%{-webkit-transform: rotate(0deg);transform: rotate(0deg);}50%{-webkit-transform: rotate(-1deg);transform: rotate(-1deg);}71.43%{-webkit-transform: rotate(0deg);transform: rotate(0deg);}85.71%{-webkit-transform: rotate(-1deg);transform: rotate(-1deg);}100%{-webkit-transform: rotate(0deg);transform: rotate(0deg);}}@keyframes BJNVLH_xWm_HkdIfuSWm_Animation{0%{-webkit-transform: rotate(0deg);transform: rotate(0deg);}21.43%{-webkit-transform: rotate(-1deg);transform: rotate(-1deg);}35.71%{-webkit-transform: rotate(0deg);transform: rotate(0deg);}50%{-webkit-transform: rotate(-1deg);transform: rotate(-1deg);}71.43%{-webkit-transform: rotate(0deg);transform: rotate(0deg);}85.71%{-webkit-transform: rotate(-1deg);transform: rotate(-1deg);}100%{-webkit-transform: rotate(0deg);transform: rotate(0deg);}}@-webkit-keyframes SkAxVIB_l-m_BkvCW_SZQ_Animation{0%{-webkit-transform: rotate(0deg);transform: rotate(0deg);}21.43%{-webkit-transform: rotate(-2deg);transform: rotate(-2deg);}35.71%{-webkit-transform: rotate(0deg);transform: rotate(0deg);}50%{-webkit-transform: rotate(-2deg);transform: rotate(-2deg);}71.43%{-webkit-transform: rotate(0deg);transform: rotate(0deg);}85.71%{-webkit-transform: rotate(-2deg);transform: rotate(-2deg);}100%{-webkit-transform: rotate(0deg);transform: rotate(0deg);}}@keyframes SkAxVIB_l-m_BkvCW_SZQ_Animation{0%{-webkit-transform: rotate(0deg);transform: rotate(0deg);}21.43%{-webkit-transform: rotate(-2deg);transform: rotate(-2deg);}35.71%{-webkit-transform: rotate(0deg);transform: rotate(0deg);}50%{-webkit-transform: rotate(-2deg);transform: rotate(-2deg);}71.43%{-webkit-transform: rotate(0deg);transform: rotate(0deg);}85.71%{-webkit-transform: rotate(-2deg);transform: rotate(-2deg);}100%{-webkit-transform: rotate(0deg);transform: rotate(0deg);}}@-webkit-keyframes ByblVIr_x-7_HkjTl_HZQ_Animation{0%{-webkit-transform: rotate(0deg);transform: rotate(0deg);}7.14%{-webkit-transform: rotate(0deg);transform: rotate(0deg);}21.43%{-webkit-transform: rotate(-2deg);transform: rotate(-2deg);}35.71%{-webkit-transform: rotate(0deg);transform: rotate(0deg);}50%{-webkit-transform: rotate(-2deg);transform: rotate(-2deg);}71.43%{-webkit-transform: rotate(0deg);transform: rotate(0deg);}85.71%{-webkit-transform: rotate(-2deg);transform: rotate(-2deg);}100%{-webkit-transform: rotate(0deg);transform: rotate(0deg);}}@keyframes ByblVIr_x-7_HkjTl_HZQ_Animation{0%{-webkit-transform: rotate(0deg);transform: rotate(0deg);}7.14%{-webkit-transform: rotate(0deg);transform: rotate(0deg);}21.43%{-webkit-transform: rotate(-2deg);transform: rotate(-2deg);}35.71%{-webkit-transform: rotate(0deg);transform: rotate(0deg);}50%{-webkit-transform: rotate(-2deg);transform: rotate(-2deg);}71.43%{-webkit-transform: rotate(0deg);transform: rotate(0deg);}85.71%{-webkit-transform: rotate(-2deg);transform: rotate(-2deg);}100%{-webkit-transform: rotate(0deg);transform: rotate(0deg);}}@-webkit-keyframes SkG4IHul-m_HJZUNYeZQ_Animation{0%{-webkit-transform: rotate(0deg);transform: rotate(0deg);}7.14%{-webkit-transform: rotate(0deg);transform: rotate(0deg);}21.43%{-webkit-transform: rotate(-1deg);transform: rotate(-1deg);}35.71%{-webkit-transform: rotate(0deg);transform: rotate(0deg);}50%{-webkit-transform: rotate(-1deg);transform: rotate(-1deg);}71.43%{-webkit-transform: rotate(0deg);transform: rotate(0deg);}85.71%{-webkit-transform: rotate(-1deg);transform: rotate(-1deg);}100%{-webkit-transform: rotate(0deg);transform: rotate(0deg);}}@keyframes SkG4IHul-m_HJZUNYeZQ_Animation{0%{-webkit-transform: rotate(0deg);transform: rotate(0deg);}7.14%{-webkit-transform: rotate(0deg);transform: rotate(0deg);}21.43%{-webkit-transform: rotate(-1deg);transform: rotate(-1deg);}35.71%{-webkit-transform: rotate(0deg);transform: rotate(0deg);}50%{-webkit-transform: rotate(-1deg);transform: rotate(-1deg);}71.43%{-webkit-transform: rotate(0deg);transform: rotate(0deg);}85.71%{-webkit-transform: rotate(-1deg);transform: rotate(-1deg);}100%{-webkit-transform: rotate(0deg);transform: rotate(0deg);}}@-webkit-keyframes ryae4Lr_xbQ_SJmJRtxWX_Animation{0%{-webkit-transform: rotate(0deg);transform: rotate(0deg);}7.14%{-webkit-transform: rotate(0deg);transform: rotate(0deg);}21.43%{-webkit-transform: rotate(-10deg);transform: rotate(-10deg);}35.71%{-webkit-transform: rotate(0deg);transform: rotate(0deg);}50%{-webkit-transform: rotate(-10deg);transform: rotate(-10deg);}71.43%{-webkit-transform: rotate(0deg);transform: rotate(0deg);}85.71%{-webkit-transform: rotate(-10deg);transform: rotate(-10deg);}100%{-webkit-transform: rotate(0deg);transform: rotate(0deg);}}@keyframes ryae4Lr_xbQ_SJmJRtxWX_Animation{0%{-webkit-transform: rotate(0deg);transform: rotate(0deg);}7.14%{-webkit-transform: rotate(0deg);transform: rotate(0deg);}21.43%{-webkit-transform: rotate(-10deg);transform: rotate(-10deg);}35.71%{-webkit-transform: rotate(0deg);transform: rotate(0deg);}50%{-webkit-transform: rotate(-10deg);transform: rotate(-10deg);}71.43%{-webkit-transform: rotate(0deg);transform: rotate(0deg);}85.71%{-webkit-transform: rotate(-10deg);transform: rotate(-10deg);}100%{-webkit-transform: rotate(0deg);transform: rotate(0deg);}}@-webkit-keyframes ryae4Lr_xbQ_BJl1CFlZQ_Animation{0%{-webkit-transform: translate(0px, 0px);transform: translate(0px, 0px);}7.14%{-webkit-transform: translate(0px, 0px);transform: translate(0px, 0px);}21.43%{-webkit-transform: translate(0px, 10px);transform: translate(0px, 10px);}35.71%{-webkit-transform: translate(0px, 0px);transform: translate(0px, 0px);}50%{-webkit-transform: translate(0px, 10px);transform: translate(0px, 10px);}71.43%{-webkit-transform: translate(0px, 0px);transform: translate(0px, 0px);}85.71%{-webkit-transform: translate(0px, 10px);transform: translate(0px, 10px);}100%{-webkit-transform: translate(0px, 0px);transform: translate(0px, 0px);}}@keyframes ryae4Lr_xbQ_BJl1CFlZQ_Animation{0%{-webkit-transform: translate(0px, 0px);transform: translate(0px, 0px);}7.14%{-webkit-transform: translate(0px, 0px);transform: translate(0px, 0px);}21.43%{-webkit-transform: translate(0px, 10px);transform: translate(0px, 10px);}35.71%{-webkit-transform: translate(0px, 0px);transform: translate(0px, 0px);}50%{-webkit-transform: translate(0px, 10px);transform: translate(0px, 10px);}71.43%{-webkit-transform: translate(0px, 0px);transform: translate(0px, 0px);}85.71%{-webkit-transform: translate(0px, 10px);transform: translate(0px, 10px);}100%{-webkit-transform: translate(0px, 0px);transform: translate(0px, 0px);}}@-webkit-keyframes B13gVIB_lZm_HJ8acFe-Q_Animation{0%{-webkit-transform: rotate(0deg);transform: rotate(0deg);}9.52%{-webkit-transform: rotate(10deg);transform: rotate(10deg);}19.05%{-webkit-transform: rotate(0deg);transform: rotate(0deg);}28.57%{-webkit-transform: rotate(10deg);transform: rotate(10deg);}42.86%{-webkit-transform: rotate(0deg);transform: rotate(0deg);}57.14%{-webkit-transform: rotate(10deg);transform: rotate(10deg);}71.43%{-webkit-transform: rotate(0deg);transform: rotate(0deg);}83.33%{-webkit-transform: rotate(10deg);transform: rotate(10deg);}100%{-webkit-transform: rotate(0deg);transform: rotate(0deg);}}@keyframes B13gVIB_lZm_HJ8acFe-Q_Animation{0%{-webkit-transform: rotate(0deg);transform: rotate(0deg);}9.52%{-webkit-transform: rotate(10deg);transform: rotate(10deg);}19.05%{-webkit-transform: rotate(0deg);transform: rotate(0deg);}28.57%{-webkit-transform: rotate(10deg);transform: rotate(10deg);}42.86%{-webkit-transform: rotate(0deg);transform: rotate(0deg);}57.14%{-webkit-transform: rotate(10deg);transform: rotate(10deg);}71.43%{-webkit-transform: rotate(0deg);transform: rotate(0deg);}83.33%{-webkit-transform: rotate(10deg);transform: rotate(10deg);}100%{-webkit-transform: rotate(0deg);transform: rotate(0deg);}}@-webkit-keyframes HyigNLS_gWQ_rk029KebQ_Animation{0%{-webkit-transform: rotate(0deg);transform: rotate(0deg);}9.52%{-webkit-transform: rotate(10deg);transform: rotate(10deg);}19.05%{-webkit-transform: rotate(0deg);transform: rotate(0deg);}28.57%{-webkit-transform: rotate(10deg);transform: rotate(10deg);}42.86%{-webkit-transform: rotate(0deg);transform: rotate(0deg);}57.14%{-webkit-transform: rotate(10deg);transform: rotate(10deg);}71.43%{-webkit-transform: rotate(0deg);transform: rotate(0deg);}83.33%{-webkit-transform: rotate(10deg);transform: rotate(10deg);}100%{-webkit-transform: rotate(0deg);transform: rotate(0deg);}}@keyframes HyigNLS_gWQ_rk029KebQ_Animation{0%{-webkit-transform: rotate(0deg);transform: rotate(0deg);}9.52%{-webkit-transform: rotate(10deg);transform: rotate(10deg);}19.05%{-webkit-transform: rotate(0deg);transform: rotate(0deg);}28.57%{-webkit-transform: rotate(10deg);transform: rotate(10deg);}42.86%{-webkit-transform: rotate(0deg);transform: rotate(0deg);}57.14%{-webkit-transform: rotate(10deg);transform: rotate(10deg);}71.43%{-webkit-transform: rotate(0deg);transform: rotate(0deg);}83.33%{-webkit-transform: rotate(10deg);transform: rotate(10deg);}100%{-webkit-transform: rotate(0deg);transform: rotate(0deg);}}@-webkit-keyframes SJugNLSueZm_BJ6JIcg-X_Animation{0%{-webkit-transform: rotate(0deg);transform: rotate(0deg);}21.43%{-webkit-transform: rotate(0deg);transform: rotate(0deg);}35.71%{-webkit-transform: rotate(0deg);transform: rotate(0deg);}50%{-webkit-transform: rotate(0deg);transform: rotate(0deg);}71.43%{-webkit-transform: rotate(0deg);transform: rotate(0deg);}85.71%{-webkit-transform: rotate(0deg);transform: rotate(0deg);}100%{-webkit-transform: rotate(0deg);transform: rotate(0deg);}}@keyframes SJugNLSueZm_BJ6JIcg-X_Animation{0%{-webkit-transform: rotate(0deg);transform: rotate(0deg);}21.43%{-webkit-transform: rotate(0deg);transform: rotate(0deg);}35.71%{-webkit-transform: rotate(0deg);transform: rotate(0deg);}50%{-webkit-transform: rotate(0deg);transform: rotate(0deg);}71.43%{-webkit-transform: rotate(0deg);transform: rotate(0deg);}85.71%{-webkit-transform: rotate(0deg);transform: rotate(0deg);}100%{-webkit-transform: rotate(0deg);transform: rotate(0deg);}}@-webkit-keyframes SJugNLSueZm_BJWxQcx-7_Animation{0%{-webkit-transform: scale(1, 1);transform: scale(1, 1);}21.43%{-webkit-transform: scale(1, 1.2);transform: scale(1, 1.2);}35.71%{-webkit-transform: scale(1, 1);transform: scale(1, 1);}50%{-webkit-transform: scale(1, 1.2);transform: scale(1, 1.2);}71.43%{-webkit-transform: scale(1, 1);transform: scale(1, 1);}85.71%{-webkit-transform: scale(1, 1.2);transform: scale(1, 1.2);}100%{-webkit-transform: scale(1, 1);transform: scale(1, 1);}}@keyframes SJugNLSueZm_BJWxQcx-7_Animation{0%{-webkit-transform: scale(1, 1);transform: scale(1, 1);}21.43%{-webkit-transform: scale(1, 1.2);transform: scale(1, 1.2);}35.71%{-webkit-transform: scale(1, 1);transform: scale(1, 1);}50%{-webkit-transform: scale(1, 1.2);transform: scale(1, 1.2);}71.43%{-webkit-transform: scale(1, 1);transform: scale(1, 1);}85.71%{-webkit-transform: scale(1, 1.2);transform: scale(1, 1.2);}100%{-webkit-transform: scale(1, 1);transform: scale(1, 1);}}@-webkit-keyframes SJugNLSueZm_rk4b8OxW7_Animation{0%{-webkit-transform: translate(0px, 0px);transform: translate(0px, 0px);}21.43%{-webkit-transform: translate(0px, -22px);transform: translate(0px, -22px);}35.71%{-webkit-transform: translate(0px, 0px);transform: translate(0px, 0px);}50%{-webkit-transform: translate(0px, -22px);transform: translate(0px, -22px);}71.43%{-webkit-transform: translate(0px, 0px);transform: translate(0px, 0px);}85.71%{-webkit-transform: translate(0px, -22px);transform: translate(0px, -22px);}100%{-webkit-transform: translate(0px, 0px);transform: translate(0px, 0px);}}@keyframes SJugNLSueZm_rk4b8OxW7_Animation{0%{-webkit-transform: translate(0px, 0px);transform: translate(0px, 0px);}21.43%{-webkit-transform: translate(0px, -22px);transform: translate(0px, -22px);}35.71%{-webkit-transform: translate(0px, 0px);transform: translate(0px, 0px);}50%{-webkit-transform: translate(0px, -22px);transform: translate(0px, -22px);}71.43%{-webkit-transform: translate(0px, 0px);transform: translate(0px, 0px);}85.71%{-webkit-transform: translate(0px, -22px);transform: translate(0px, -22px);}100%{-webkit-transform: translate(0px, 0px);transform: translate(0px, 0px);}}@-webkit-keyframes H1NxVUr_eWX_Sk4Q-cg-7_Animation{0%{-webkit-transform: translate(0px, 0px);transform: translate(0px, 0px);}21.43%{-webkit-transform: translate(-5px, 3px);transform: translate(-5px, 3px);}35.71%{-webkit-transform: translate(0px, 0px);transform: translate(0px, 0px);}50%{-webkit-transform: translate(-5px, 3px);transform: translate(-5px, 3px);}71.43%{-webkit-transform: translate(0px, 0px);transform: translate(0px, 0px);}85.71%{-webkit-transform: translate(-5px, 3px);transform: translate(-5px, 3px);}100%{-webkit-transform: translate(0px, 0px);transform: translate(0px, 0px);}}@keyframes H1NxVUr_eWX_Sk4Q-cg-7_Animation{0%{-webkit-transform: translate(0px, 0px);transform: translate(0px, 0px);}21.43%{-webkit-transform: translate(-5px, 3px);transform: translate(-5px, 3px);}35.71%{-webkit-transform: translate(0px, 0px);transform: translate(0px, 0px);}50%{-webkit-transform: translate(-5px, 3px);transform: translate(-5px, 3px);}71.43%{-webkit-transform: translate(0px, 0px);transform: translate(0px, 0px);}85.71%{-webkit-transform: translate(-5px, 3px);transform: translate(-5px, 3px);}100%{-webkit-transform: translate(0px, 0px);transform: translate(0px, 0px);}}@-webkit-keyframes H1NxVUr_eWX_Sk2EJqlbm_Animation{0%{-webkit-transform: rotate(0deg);transform: rotate(0deg);}21.43%{-webkit-transform: rotate(-15deg);transform: rotate(-15deg);}35.71%{-webkit-transform: rotate(0deg);transform: rotate(0deg);}50%{-webkit-transform: rotate(-15deg);transform: rotate(-15deg);}71.43%{-webkit-transform: rotate(5deg);transform: rotate(5deg);}85.71%{-webkit-transform: rotate(-15deg);transform: rotate(-15deg);}100%{-webkit-transform: rotate(0deg);transform: rotate(0deg);}}@keyframes H1NxVUr_eWX_Sk2EJqlbm_Animation{0%{-webkit-transform: rotate(0deg);transform: rotate(0deg);}21.43%{-webkit-transform: rotate(-15deg);transform: rotate(-15deg);}35.71%{-webkit-transform: rotate(0deg);transform: rotate(0deg);}50%{-webkit-transform: rotate(-15deg);transform: rotate(-15deg);}71.43%{-webkit-transform: rotate(5deg);transform: rotate(5deg);}85.71%{-webkit-transform: rotate(-15deg);transform: rotate(-15deg);}100%{-webkit-transform: rotate(0deg);transform: rotate(0deg);}}@-webkit-keyframes r1j4UHOlbX_BkXmxqxW7_Animation{0%{-webkit-transform: translate(0px, 0px);transform: translate(0px, 0px);}21.43%{-webkit-transform: translate(0px, 1px);transform: translate(0px, 1px);}35.71%{-webkit-transform: translate(0px, 0px);transform: translate(0px, 0px);}50%{-webkit-transform: translate(0px, 1px);transform: translate(0px, 1px);}71.43%{-webkit-transform: translate(0px, 0px);transform: translate(0px, 0px);}85.71%{-webkit-transform: translate(0px, 1px);transform: translate(0px, 1px);}100%{-webkit-transform: translate(0px, 0px);transform: translate(0px, 0px);}}@keyframes r1j4UHOlbX_BkXmxqxW7_Animation{0%{-webkit-transform: translate(0px, 0px);transform: translate(0px, 0px);}21.43%{-webkit-transform: translate(0px, 1px);transform: translate(0px, 1px);}35.71%{-webkit-transform: translate(0px, 0px);transform: translate(0px, 0px);}50%{-webkit-transform: translate(0px, 1px);transform: translate(0px, 1px);}71.43%{-webkit-transform: translate(0px, 0px);transform: translate(0px, 0px);}85.71%{-webkit-transform: translate(0px, 1px);transform: translate(0px, 1px);}100%{-webkit-transform: translate(0px, 0px);transform: translate(0px, 0px);}}@-webkit-keyframes S1O4Lrdgbm_r1Rzecl-7_Animation{0%{-webkit-transform: translate(0px, 0px);transform: translate(0px, 0px);}21.43%{-webkit-transform: translate(0px, 1px);transform: translate(0px, 1px);}35.71%{-webkit-transform: translate(0px, 0px);transform: translate(0px, 0px);}50%{-webkit-transform: translate(0px, 1px);transform: translate(0px, 1px);}71.43%{-webkit-transform: translate(0px, 0px);transform: translate(0px, 0px);}85.71%{-webkit-transform: translate(0px, 1px);transform: translate(0px, 1px);}100%{-webkit-transform: translate(0px, 0px);transform: translate(0px, 0px);}}@keyframes S1O4Lrdgbm_r1Rzecl-7_Animation{0%{-webkit-transform: translate(0px, 0px);transform: translate(0px, 0px);}21.43%{-webkit-transform: translate(0px, 1px);transform: translate(0px, 1px);}35.71%{-webkit-transform: translate(0px, 0px);transform: translate(0px, 0px);}50%{-webkit-transform: translate(0px, 1px);transform: translate(0px, 1px);}71.43%{-webkit-transform: translate(0px, 0px);transform: translate(0px, 0px);}85.71%{-webkit-transform: translate(0px, 1px);transform: translate(0px, 1px);}100%{-webkit-transform: translate(0px, 0px);transform: translate(0px, 0px);}}@-webkit-keyframes SkG4IHul-m_S1vkHYebX_Animation{0%{-webkit-transform: translate(0px, 0px);transform: translate(0px, 0px);}7.14%{-webkit-transform: translate(0px, 0px);transform: translate(0px, 0px);}21.43%{-webkit-transform: translate(0px, 3px);transform: translate(0px, 3px);}35.71%{-webkit-transform: translate(0px, 0px);transform: translate(0px, 0px);}50%{-webkit-transform: translate(0px, 3px);transform: translate(0px, 3px);}71.43%{-webkit-transform: translate(0px, 0px);transform: translate(0px, 0px);}85.71%{-webkit-transform: translate(0px, 3px);transform: translate(0px, 3px);}100%{-webkit-transform: translate(0px, 0px);transform: translate(0px, 0px);}}@keyframes SkG4IHul-m_S1vkHYebX_Animation{0%{-webkit-transform: translate(0px, 0px);transform: translate(0px, 0px);}7.14%{-webkit-transform: translate(0px, 0px);transform: translate(0px, 0px);}21.43%{-webkit-transform: translate(0px, 3px);transform: translate(0px, 3px);}35.71%{-webkit-transform: translate(0px, 0px);transform: translate(0px, 0px);}50%{-webkit-transform: translate(0px, 3px);transform: translate(0px, 3px);}71.43%{-webkit-transform: translate(0px, 0px);transform: translate(0px, 0px);}85.71%{-webkit-transform: translate(0px, 3px);transform: translate(0px, 3px);}100%{-webkit-transform: translate(0px, 0px);transform: translate(0px, 0px);}}@-webkit-keyframes Skb4LS_eZ7_HJIyEFlbQ_Animation{7.14%{-webkit-transform: rotate(0deg);transform: rotate(0deg);}21.43%{-webkit-transform: rotate(10deg);transform: rotate(10deg);}35.71%{-webkit-transform: rotate(0deg);transform: rotate(0deg);}50%{-webkit-transform: rotate(10deg);transform: rotate(10deg);}71.43%{-webkit-transform: rotate(0deg);transform: rotate(0deg);}85.71%{-webkit-transform: rotate(10deg);transform: rotate(10deg);}100%{-webkit-transform: rotate(0deg);transform: rotate(0deg);}0%{-webkit-transform: rotate(0deg);transform: rotate(0deg);}}@keyframes Skb4LS_eZ7_HJIyEFlbQ_Animation{7.14%{-webkit-transform: rotate(0deg);transform: rotate(0deg);}21.43%{-webkit-transform: rotate(10deg);transform: rotate(10deg);}35.71%{-webkit-transform: rotate(0deg);transform: rotate(0deg);}50%{-webkit-transform: rotate(10deg);transform: rotate(10deg);}71.43%{-webkit-transform: rotate(0deg);transform: rotate(0deg);}85.71%{-webkit-transform: rotate(10deg);transform: rotate(10deg);}100%{-webkit-transform: rotate(0deg);transform: rotate(0deg);}0%{-webkit-transform: rotate(0deg);transform: rotate(0deg);}}@-webkit-keyframes Skb4LS_eZ7_Sy4J4FebX_Animation{7.14%{-webkit-transform: translate(0px, 0px);transform: translate(0px, 0px);}21.43%{-webkit-transform: translate(0px, 5px);transform: translate(0px, 5px);}35.71%{-webkit-transform: translate(0px, 0px);transform: translate(0px, 0px);}50%{-webkit-transform: translate(0px, 5px);transform: translate(0px, 5px);}71.43%{-webkit-transform: translate(0px, 0px);transform: translate(0px, 0px);}85.71%{-webkit-transform: translate(0px, 5px);transform: translate(0px, 5px);}100%{-webkit-transform: translate(0px, 0px);transform: translate(0px, 0px);}0%{-webkit-transform: translate(0px, 0px);transform: translate(0px, 0px);}}@keyframes Skb4LS_eZ7_Sy4J4FebX_Animation{7.14%{-webkit-transform: translate(0px, 0px);transform: translate(0px, 0px);}21.43%{-webkit-transform: translate(0px, 5px);transform: translate(0px, 5px);}35.71%{-webkit-transform: translate(0px, 0px);transform: translate(0px, 0px);}50%{-webkit-transform: translate(0px, 5px);transform: translate(0px, 5px);}71.43%{-webkit-transform: translate(0px, 0px);transform: translate(0px, 0px);}85.71%{-webkit-transform: translate(0px, 5px);transform: translate(0px, 5px);}100%{-webkit-transform: translate(0px, 0px);transform: translate(0px, 0px);}0%{-webkit-transform: translate(0px, 0px);transform: translate(0px, 0px);}}#BJNISOxbm *{-webkit-animation-duration: 1.4s;animation-duration: 1.4s;-webkit-animation-iteration-count: infinite;animation-iteration-count: infinite;-webkit-animation-timing-function: cubic-bezier(0, 0, 1, 1);animation-timing-function: cubic-bezier(0, 0, 1, 1);}#SklNUBOlZQ{stroke: none;stroke-width: 1;fill: none;}#Skb4LS_eZ7{fill: #8156D3;}#SkG4IHul-m{fill: #9060EB;}#SyQ4Urdg-Q{fill: #B188FF;}#BJNVLH_xWm{fill-opacity: 0.1;fill: #000000;}#BkBNIH_e-m{-webkit-transform:  translate(328.000000px, 205.000000px);transform:  translate(328.000000px, 205.000000px);}#HyUEIHOeZQ{fill: #333333;}#SJw4LHOxWX{fill: #9B9B9B;}#S1O4Lrdgbm{-webkit-transform:  translate(359.000000px, 174.000000px);transform:  translate(359.000000px, 174.000000px);}#HkKE8rOlZX{fill: #333333;}#SycNLr_lZX{fill: #9B9B9B;}#r1j4UHOlbX{-webkit-transform:  translate(297.000000px, 192.000000px);transform:  translate(297.000000px, 192.000000px);}#By2VLBOlW7{fill: #333333;}#r1p48BdeZm{fill: #9B9B9B;}#B1A48SOg-m{fill: #6D49B2;}#SJJl4UB_lbm{fill: #6D49B2;}#ryle48Hux-m{stroke: #6D49B2;stroke-width: 5;}#ByblVIr_x-7{-webkit-transform:  translate(315.000000px, 225.000000px);transform:  translate(315.000000px, 225.000000px);}#rJzeN8H_lZm{fill: #8F2E2E;}#By7l4UH_g-Q{fill: #772424;}#H1NxVUr_eWX{-webkit-transform:  translate(297.000000px, 282.000000px);transform:  translate(297.000000px, 282.000000px);}#ByHgE8rdlZQ{fill-opacity: 0.699999988;fill: #AE3939;}#HkLe4IHOgZX{fill: #AE3939;}#S1PeVLSdxW7{stroke: #8F2E2E;stroke-width: 2;}#SJugNLSueZm{fill: #9060EB;}#HyKg4UHOxZm{-webkit-transform:  translate(61.000000px, 240.000000px);transform:  translate(61.000000px, 240.000000px);}#H15gVIBOebX{fill: #8354DB;}#HyigNLS_gWQ{fill: #999999;}#B13gVIB_lZm{fill: #9060EB;}#ryae4Lr_xbQ{fill: #FF4BEF;}#SkAxVIB_l-m{fill: #FFFFFF;}#Skb4LS_eZ7_Sy4J4FebX{-webkit-animation-name: Skb4LS_eZ7_Sy4J4FebX_Animation;animation-name: Skb4LS_eZ7_Sy4J4FebX_Animation;-webkit-animation-timing-function: cubic-bezier(0.42, 0, 0.58, 1);animation-timing-function: cubic-bezier(0.42, 0, 0.58, 1);-webkit-transform-origin: 50% 50%;transform-origin: 50% 50%;transform-box: fill-box;}#Skb4LS_eZ7_HJIyEFlbQ{-webkit-animation-name: Skb4LS_eZ7_HJIyEFlbQ_Animation;animation-name: Skb4LS_eZ7_HJIyEFlbQ_Animation;-webkit-animation-timing-function: cubic-bezier(0.42, 0, 0.58, 1);animation-timing-function: cubic-bezier(0.42, 0, 0.58, 1);-webkit-transform-origin: 50% 50%;transform-origin: 50% 50%;transform-box: fill-box;}#SkG4IHul-m_HJZUNYeZQ{-webkit-transform-origin: 50% 50%;transform-origin: 50% 50%;transform-box: fill-box;-webkit-animation-name: SkG4IHul-m_HJZUNYeZQ_Animation;animation-name: SkG4IHul-m_HJZUNYeZQ_Animation;-webkit-animation-timing-function: cubic-bezier(0.42, 0, 0.58, 1);animation-timing-function: cubic-bezier(0.42, 0, 0.58, 1);}#SkG4IHul-m_S1vkHYebX{-webkit-animation-name: SkG4IHul-m_S1vkHYebX_Animation;animation-name: SkG4IHul-m_S1vkHYebX_Animation;-webkit-animation-timing-function: cubic-bezier(0.42, 0, 0.58, 1);animation-timing-function: cubic-bezier(0.42, 0, 0.58, 1);-webkit-transform-origin: 50% 50%;transform-origin: 50% 50%;transform-box: fill-box;}#S1O4Lrdgbm_r1Rzecl-7{-webkit-animation-name: S1O4Lrdgbm_r1Rzecl-7_Animation;animation-name: S1O4Lrdgbm_r1Rzecl-7_Animation;-webkit-animation-timing-function: cubic-bezier(0.42, 0, 0.58, 1);animation-timing-function: cubic-bezier(0.42, 0, 0.58, 1);-webkit-transform-origin: 50% 50%;transform-origin: 50% 50%;transform-box: fill-box;}#r1j4UHOlbX_BkXmxqxW7{-webkit-animation-name: r1j4UHOlbX_BkXmxqxW7_Animation;animation-name: r1j4UHOlbX_BkXmxqxW7_Animation;-webkit-animation-timing-function: cubic-bezier(0.42, 0, 0.58, 1);animation-timing-function: cubic-bezier(0.42, 0, 0.58, 1);-webkit-transform-origin: 50% 50%;transform-origin: 50% 50%;transform-box: fill-box;}#ByblVIr_x-7_B1X8FFxb7{-webkit-transform-origin: 50% 50%;transform-origin: 50% 50%;transform-box: fill-box;}#H1NxVUr_eWX_Sk2EJqlbm{-webkit-animation-name: H1NxVUr_eWX_Sk2EJqlbm_Animation;animation-name: H1NxVUr_eWX_Sk2EJqlbm_Animation;-webkit-animation-timing-function: cubic-bezier(0.42, 0, 0.58, 1);animation-timing-function: cubic-bezier(0.42, 0, 0.58, 1);-webkit-transform-origin: 50% 50%;transform-origin: 50% 50%;transform-box: fill-box;}#H1NxVUr_eWX_Sk4Q-cg-7{-webkit-animation-name: H1NxVUr_eWX_Sk4Q-cg-7_Animation;animation-name: H1NxVUr_eWX_Sk4Q-cg-7_Animation;-webkit-animation-timing-function: cubic-bezier(0.42, 0, 0.58, 1);animation-timing-function: cubic-bezier(0.42, 0, 0.58, 1);-webkit-transform-origin: 50% 50%;transform-origin: 50% 50%;transform-box: fill-box;}#SJugNLSueZm_rk4b8OxW7{-webkit-animation-name: SJugNLSueZm_rk4b8OxW7_Animation;animation-name: SJugNLSueZm_rk4b8OxW7_Animation;-webkit-transform-origin: 50% 50%;transform-origin: 50% 50%;transform-box: fill-box;}#SJugNLSueZm_BJWxQcx-7{-webkit-animation-name: SJugNLSueZm_BJWxQcx-7_Animation;animation-name: SJugNLSueZm_BJWxQcx-7_Animation;-webkit-transform-origin: 50% 50%;transform-origin: 50% 50%;transform-box: fill-box;}#SJugNLSueZm_BJ6JIcg-X{-webkit-animation-name: SJugNLSueZm_BJ6JIcg-X_Animation;animation-name: SJugNLSueZm_BJ6JIcg-X_Animation;-webkit-transform-origin: 50% 50%;transform-origin: 50% 50%;transform-box: fill-box;}#HyigNLS_gWQ_rk029KebQ{-webkit-animation-name: HyigNLS_gWQ_rk029KebQ_Animation;animation-name: HyigNLS_gWQ_rk029KebQ_Animation;-webkit-transform-origin: 50% 50%;transform-origin: 50% 50%;transform-box: fill-box;}#B13gVIB_lZm_HJ8acFe-Q{-webkit-animation-name: B13gVIB_lZm_HJ8acFe-Q_Animation;animation-name: B13gVIB_lZm_HJ8acFe-Q_Animation;-webkit-transform-origin: 50% 50%;transform-origin: 50% 50%;transform-box: fill-box;}#ryae4Lr_xbQ_BJl1CFlZQ{-webkit-animation-name: ryae4Lr_xbQ_BJl1CFlZQ_Animation;animation-name: ryae4Lr_xbQ_BJl1CFlZQ_Animation;-webkit-animation-timing-function: cubic-bezier(0.42, 0, 0.58, 1);animation-timing-function: cubic-bezier(0.42, 0, 0.58, 1);-webkit-transform-origin: 50% 50%;transform-origin: 50% 50%;transform-box: fill-box;}#ryae4Lr_xbQ_SJmJRtxWX{-webkit-animation-name: ryae4Lr_xbQ_SJmJRtxWX_Animation;animation-name: ryae4Lr_xbQ_SJmJRtxWX_Animation;-webkit-animation-timing-function: cubic-bezier(0.42, 0, 0.58, 1);animation-timing-function: cubic-bezier(0.42, 0, 0.58, 1);-webkit-transform-origin: 50% 50%;transform-origin: 50% 50%;transform-box: fill-box;}#SkAxVIB_l-m_HyO9YFlZQ{-webkit-transform-origin: 50% 50%;transform-origin: 50% 50%;transform-box: fill-box;}#ByblVIr_x-7_HkjTl_HZQ{-webkit-animation-name: ByblVIr_x-7_HkjTl_HZQ_Animation;animation-name: ByblVIr_x-7_HkjTl_HZQ_Animation;-webkit-transform-origin: 50% 50%;transform-origin: 50% 50%;transform-box: fill-box;-webkit-animation-timing-function: cubic-bezier(0.42, 0, 0.58, 1);animation-timing-function: cubic-bezier(0.42, 0, 0.58, 1);}#SkAxVIB_l-m_BkvCW_SZQ{-webkit-animation-name: SkAxVIB_l-m_BkvCW_SZQ_Animation;animation-name: SkAxVIB_l-m_BkvCW_SZQ_Animation;-webkit-transform-origin: 50% 50%;transform-origin: 50% 50%;transform-box: fill-box;}#BJNVLH_xWm_HkdIfuSWm{-webkit-animation-name: BJNVLH_xWm_HkdIfuSWm_Animation;animation-name: BJNVLH_xWm_HkdIfuSWm_Animation;-webkit-transform-origin: 50% 50%;transform-origin: 50% 50%;transform-box: fill-box;}#SyQ4Urdg-Q_H1l2zOBWQ{-webkit-animation-name: SyQ4Urdg-Q_H1l2zOBWQ_Animation;animation-name: SyQ4Urdg-Q_H1l2zOBWQ_Animation;-webkit-transform-origin: 50% 50%;transform-origin: 50% 50%;transform-box: fill-box;}</style>
    <!-- Generator: Sketch 50.2 (55047) - http://www.bohemiancoding.com/sketch -->
    <title>grommet-gremlin</title>
    <desc>Created with Sketch.</desc>
    <defs/>
    <g id="SklNUBOlZQ" fill-rule="evenodd">
        <g id="Skb4LS_eZ7_Sy4J4FebX" data-animator-group="true" data-animator-type="0"><g id="Skb4LS_eZ7_HJIyEFlbQ" data-animator-group="true" data-animator-type="1"><path d="M283.873805,152.824572 L289,171.566614 C278.156269,183.226574 267.438896,185.968266 256.84788,179.79169 C240.961355,170.526827 246.097598,144.1161 259.499684,139.847049 C268.434409,137.001015 276.559116,141.326856 283.873805,152.824572 Z" id="Skb4LS_eZ7"/></g></g>
        <g id="SkG4IHul-m_S1vkHYebX" data-animator-group="true" data-animator-type="0"><g id="SkG4IHul-m_HJZUNYeZQ" data-animator-group="true" data-animator-type="1"><path d="M433.468107,271.33822 C434.710449,268.494008 436.246325,265.689115 438.075735,262.923541 C438.075735,283.027072 439.081754,298.774838 441.093791,310.166839 C441.361884,311.684763 441.463275,312.946894 441.397963,313.953231 C448.296826,348.037306 455,378.329233 455,405.708208 C455,418.859598 454.601453,429.623529 453.80436,438 L317.488846,438 C327.198328,413.853308 331.538658,396.205059 333.634978,384.326191 C334.857831,377.396852 327.20868,340.126393 314.538454,299.393784 C310.111547,285.162038 279.323778,197.158832 277.427236,178.962748 C275.530695,160.766663 272.979044,158.647264 288.55381,147.750823 C310.696945,132.25901 345.211956,125.581306 361.134659,124.303826 C362.755999,124.173746 364.329515,124.200564 365.858123,124.373453 C361.866648,116.606103 362.085275,109.851588 366.514003,104.10991 C375.058349,93.0324868 401.439673,97.1902903 404.672293,115.18011 C406.66506,126.270035 401.508935,134.874503 389.203919,140.993516 C396.443051,151.174566 402.483899,164.900171 408.1719,179.031896 C410.791382,185.539947 430.721783,253.022341 431.849507,260.795978 C432.364604,264.346651 432.905903,267.860493 433.468107,271.33822 Z" id="SkG4IHul-m"/></g></g>
        <g id="SyQ4Urdg-Q_H1l2zOBWQ" data-animator-group="true" data-animator-type="1"><path d="M382.394409,349.17591 C380.452856,347.379577 379.418886,345.987607 379.292497,345 C383.189603,347.122549 386.835601,348.782996 390.230493,349.981339 C418.191108,354.994709 430.173065,381.746928 430.866797,407.298625 C431.230231,420.684688 430.866797,427.939924 429.568676,437 L347,437 C349.150042,429.504179 351.989183,418.913714 355.517423,405.228604 C363.455963,374.437108 339.566371,351.289351 377.019015,349.243075 C378.863534,349.142298 380.655052,349.121281 382.394409,349.17591 Z" id="SyQ4Urdg-Q"/></g>
        <g id="BJNVLH_xWm_HkdIfuSWm" data-animator-group="true" data-animator-type="1"><path d="M325.390091,133 C293.511068,147.332879 284.649372,162.259027 298.805004,177.778446 C320.374037,201.42549 319.370826,206.959905 313.853166,217.022477 C308.335507,227.085049 305.325874,244.191421 317.86601,246.203936 C327.898118,258.782151 357.492838,294.001153 338.933437,308.591883 C320.374037,323.182612 355.486416,336.263956 370.534579,336.263956 C373.878615,356.053681 375.550633,369.135025 375.550633,375.507987 C375.550633,400.768483 369.531368,413.346698 362.508892,438 L317.86601,438 C325.775316,416.36547 333.917383,389.300592 333.917383,381.146468 C333.917383,367.058867 305.82748,269.85098 298.805004,249.725836 C291.782528,229.600692 270.7151,169.728388 277.235971,159.162687 C284.918137,146.715351 300.96951,137.994455 325.390091,133 Z M340.335443,165.189936 C364.81,161.484775 377.047278,160.642693 377.047278,162.66369 C370.509554,165.189936 362.416956,166.705684 365.480536,176.30542 C358.310542,180.707234 366.057248,198.536389 377.047278,198.536389 C392.637236,198.536389 373.983699,210.157122 362.416956,204.094131 C350.850213,198.031139 348.884775,194.999644 345.364462,183.88673 C343.017586,176.478121 341.341247,170.245856 340.335443,165.189936 Z" id="BJNVLH_xWm"/></g>
        <g id="BkBNIH_e-m">
            <path d="M19.1065002,1.02044209 C22.2981982,3.52627916 18.7221823,14.6360226 12.7204033,16.1400364 C6.71862434,17.6440502 -3.63997216,9.3482357 1.29175551,5.12704273 C6.22348319,0.905849758 15.9148022,-1.48539498 19.1065002,1.02044209 Z" id="HyUEIHOeZQ"/>
            <path d="M10.5045139,4.27561233 C10.4072568,3.79629104 11.8933968,3.16792239 13.8239004,2.87211187 C15.7544041,2.57630135 17.398229,2.72506639 17.4954861,3.20438768 C17.5927432,3.68370896 16.1066033,4.3120776 14.1760996,4.60788813 C12.2455959,4.90369865 10.601771,4.75493362 10.5045139,4.27561233 Z" id="SJw4LHOxWX"/>
        </g>
        <g id="S1O4Lrdgbm_r1Rzecl-7" data-animator-group="true" data-animator-type="0"><g id="S1O4Lrdgbm">
            <path d="M6.28022133,21.7813221 C0.622399611,18.9833063 -1.62719661,12.2633947 1.25560755,6.77197953 C4.13841171,1.28056433 11.0619569,-0.902867294 16.7197787,1.8951485 C22.3776004,4.6931643 24.6271966,11.4130759 21.7443924,16.9044911 C18.8615883,22.3959063 11.9380431,24.5793379 6.28022133,21.7813221 Z" id="HkKE8rOlZX"/>
            <path d="M9.79379372,7.08286125 C10.0237988,5.97985095 11.2861934,5.24610724 12.6134308,5.44399927 C13.9406683,5.64189131 14.8301508,6.6964814 14.6001457,7.79949169 C14.3701406,8.90250199 13.1077461,9.63624571 11.7805086,9.43835367 C10.4532712,9.24046164 9.56378864,8.18587154 9.79379372,7.08286125 Z" id="SycNLr_lZX"/>
        </g></g>
        <g id="r1j4UHOlbX_BkXmxqxW7" data-animator-group="true" data-animator-type="0"><g id="r1j4UHOlbX">
            <path d="M3.65273055,18.8714494 C-0.504631299,14.4867805 -0.260733718,7.61770108 4.19749104,3.52893116 C8.6557158,-0.559838759 11.8321945,-0.181049478 15.9895563,4.20361944 C20.1469182,8.58828837 23.7108548,15.318452 19.2526301,19.4072219 C14.7944053,23.4959918 7.81009239,23.2561183 3.65273055,18.8714494 Z" id="By2VLBOlW7"/>
            <path d="M8.28572587,7.08286125 C8.51260588,5.97985095 9.75784837,5.24610724 11.0670527,5.44399927 C12.376257,5.64189131 13.2536541,6.6964814 13.0267741,7.79949169 C12.7998941,8.90250199 11.5546517,9.63624571 10.2454473,9.43835367 C8.93624301,9.24046164 8.05884586,8.18587154 8.28572587,7.08286125 Z" id="r1p48BdeZm"/>
        </g></g>
        <path d="M382,162.176712 C373.093388,163.850557 365.73949,165.535759 359.938306,167.232318 C354.137122,168.928877 349.464577,170.184771 345.920669,171 L338,159.916251 C340.662097,159.192545 343.007719,158.882815 345.036867,158.98706 C345.742324,159.023303 343.46528,157.116253 345.14321,156.997934 C348.057091,156.792463 355.598643,157.022166 358.397447,156.463911 C365.029193,155.141131 371.495269,154.714792 377.795676,155.184895 L382,162.176712 Z" id="B1A48SOg-m"/>
        <path d="M308,184.814804 C299.129497,187.61873 292.986489,187.724271 289.570975,185.131426 L285.08655,178.849946 L287.561288,179.277932 C283.3873,172.215906 282.882387,170.293274 286.046549,173.510035 C290.792792,178.335177 297.845954,173.166988 301.128109,177.619891 C303.316212,180.588492 305.606843,182.986797 308,184.814804 Z" id="SJJl4UB_lbm"/>
        <path d="M359,333 C367.461959,335.417204 374.461959,335.64333 380,333.678378" id="ryle48Hux-m" stroke-linecap="round" stroke-linejoin="round"/>
        <g id="ByblVIr_x-7_HkjTl_HZQ" data-animator-group="true" data-animator-type="1"><g id="ByblVIr_x-7">
            <path d="M0.407515034,24.2455553 C1.82248864,16.3456749 8.83492314,7.96193687 30.9980641,3.59181312 C53.161205,-0.778310628 73.4803319,0.275090497 77.0505097,3.44028417 C80.6206874,6.60547785 89.2087604,27.9508796 89.948991,46.9158341 C90.6892215,65.8807887 83.1975714,78.8349782 78.8617659,85.7187554 C74.5259604,92.6025325 65.1747086,98.6157084 59.8055189,99.7200772 C54.4363292,100.824446 43.9923278,98.5024408 35.6948624,95.5348527 C27.397397,92.5672646 23.6640107,87.8464598 22.6015561,85.1165668 C21.5391014,82.3866738 25.8155416,72.9471238 24.3981191,63.5373976 C22.9806966,54.1276713 7.78533211,40.7990338 4.62826311,38.2146428 C1.4711941,35.6302517 -1.00745857,32.1454358 0.407515034,24.2455553 Z" id="rJzeN8H_lZm"/>
            <path d="M31.2087908,78.8313942 C39.5948717,67.9229065 34.8351726,64.6331356 30.2616929,56.5744244 C25.6882132,48.5157133 26.9661718,45.1889758 32.5559803,43.6779675 C38.1457888,42.1669591 50.010874,43.0708636 48.4863808,50.1222358 C46.9618876,57.1736081 50.010874,57.1736081 51.5353673,57.1736081 C53.0598605,57.1736081 57.1251758,56.1662692 55.0925181,50.1222358 C53.0598605,44.0782025 58.6195259,37.8849283 65.0243998,38.100719 C77.4025876,38.5177604 82.2323729,44.0877792 83.3945819,47.9599374 C84.7673694,52.5336848 85.9650664,54.3434965 84.566054,59.6919553 C81.0089031,73.2910303 77.4517522,89.4084526 66.2721352,92.9341387 C55.0925181,96.4598248 22.8227099,89.7398819 31.2087908,78.8313942 Z" id="By7l4UH_g-Q"/>
        </g></g>
        <g id="H1NxVUr_eWX_Sk4Q-cg-7" data-animator-group="true" data-animator-type="0"><g id="H1NxVUr_eWX_Sk2EJqlbm" data-animator-group="true" data-animator-type="1"><g id="H1NxVUr_eWX">
            <path d="M84.0746565,22.0215482 C80.4514456,30.966466 66.3789027,32.0170387 58.616837,25.1311649 C54.2311042,21.2404991 58.0313401,18.0943658 62.9805604,14.8798105 C67.5774611,11.8940895 59.2812069,7.0984375 45.9146939,10.8103478 C32.5481808,14.522258 23.4430838,11.4174159 28.3141331,9.74865233 C32.4514891,8.33124335 37.9672296,-0.0434396992 52.1953804,0.722463663 C54.7185133,0.858284266 57.57213,1.05362743 60.8171692,1.31742826 C82.3612469,3.06882336 87.3724718,13.8799614 84.0746565,22.0215482 Z" id="ByHgE8rdlZQ"/>
            <path d="M39.4474615,1.75854579 C27.7540032,1.75854579 14.1251356,4.37400075 8.39589094,10.9190364 C2.66664631,17.4640721 -6.80550829,32.5575114 10.8879905,33.9957642 C19.5903277,34.7031518 27.5290968,37.4091018 33.026602,29.3141456 C38.5241072,21.2191893 42.6382964,12.616895 47.0021044,10.6266755 C54.1788196,7.35356197 65.8625103,6.25003683 72.1794431,5.97333988 C76.7809099,5.77178449 75.3334394,2.49986228 48.6503951,1.35543501 C45.9861535,1.24116654 44.9461678,2.21703146 42.8914323,2.36082941 C40.8366969,2.50462736 41.4258816,1.75854579 39.4474615,1.75854579 Z" id="HkLe4IHOgZX"/>
            <path d="M38.452381,4.71153846 C29.2938165,7.40558126 22.7726525,11.2196838 18.8888889,16.1538462 L38.452381,4.71153846 Z" id="S1PeVLSdxW7" stroke-linecap="round"/>
        </g></g></g>
        <g id="SJugNLSueZm_rk4b8OxW7" data-animator-group="true" data-animator-type="0"><g id="SJugNLSueZm_BJ6JIcg-X" data-animator-group="true" data-animator-type="1"><g id="SJugNLSueZm_BJWxQcx-7" data-animator-group="true" data-animator-type="2"><path d="M458.85643,110.660806 C453.933275,113.100519 445.889703,115.573856 441.841361,113.982241 C435.860562,111.630876 430.304735,105.491522 427.867252,103.437244 C425.42977,101.382966 423.286657,60.7253218 435.773571,61.0013996 C448.260486,61.2774774 470.083209,62.1005069 471.527762,68.696306 C471.542998,68.7658734 471.557017,68.8380628 471.569843,68.9128139 L471.72708,68.7555419 C492.041791,137.506762 501.237637,177.003112 499.314619,187.244592 C504.555977,179.847297 508.451104,175.84109 511,175.225972 C497.819601,202.338127 473.568529,246.92947 438.246785,309 L431.504546,301.204111 C463.432984,234.418351 480.331017,196.761698 482.198644,188.234152 C483.82613,180.80309 476.045392,154.945307 458.85643,110.660806 Z" id="SJugNLSueZm"/></g></g></g>
        <g id="HyKg4UHOxZm">
            <path d="M266.523594,76.4658635 L271.32,83.9600017 C213.380231,118.144022 180.018721,136.948892 171.23547,140.37461 C158.060593,145.513188 73.7283243,128.234316 63.148888,126.362467 C52.5694517,124.490617 48.9289433,123.079789 46.5691,115.959312 C44.2092568,108.838835 54.9830993,99.1261713 64.7365554,94.0485592 C74.4900114,88.9709472 88.1901664,106.020716 101.974721,111.250773 C111.164425,114.737477 132.077455,121.647671 164.713812,131.981355 L266.523594,76.4658635 Z" id="H15gVIBOebX"/>
            <g id="HyigNLS_gWQ_rk029KebQ" data-animator-group="true" data-animator-type="1"><path d="M28.231971,51.3723747 C24.6738813,45.1913331 16.9591588,45.7304737 14.4561928,45.05782 C3.78001283,42.1886752 -0.566927411,31.0932879 0.0587022719,22.9016915 C0.684331955,14.7100951 2.17736065,13.0214032 4.72252887,9.77201563 C5.13626202,9.24380719 6.18012198,9.09385411 7.85410876,9.32215639 L18.5730528,27.9428892 C19.3538071,29.2991997 21.0369163,29.8346041 22.4543548,29.1775484 L27.9848944,26.6138585 C29.4702465,25.9253213 30.1383491,24.1753322 29.4913662,22.6678938 L21.0215463,2.93362932 C21.8674859,1.39578539 22.6585701,0.645948139 23.394799,0.68411756 C29.3540887,0.993073962 33.6347335,1.80760139 40.2136024,6.52390395 C47.2088972,11.5387367 48.9785916,22.4639912 45.8221898,30.9981637 C44.8318362,33.6758482 40.2956732,39.9848789 43.2374837,46.522783 C46.1792943,53.0606872 104.75754,155.535356 106.536585,158.625877 C108.31563,161.716398 107.499323,166.721852 103.801647,168.863028 C100.103972,171.004203 95.1132958,170.185479 92.622633,165.85875 C90.1319701,161.532021 31.7900608,57.5534162 28.231971,51.3723747 Z M97.5442803,165.080321 C99.720282,165.66572 101.956942,164.369198 102.539999,162.184458 C103.123057,159.999717 101.831721,157.754075 99.6557197,157.168675 C97.479718,156.583276 95.2430584,157.879798 94.6600005,160.064538 C94.0769426,162.249279 95.3682787,164.494921 97.5442803,165.080321 Z" id="HyigNLS_gWQ"/></g>
            <g id="B13gVIB_lZm_HJ8acFe-Q" data-animator-group="true" data-animator-type="1"><path d="M65.4301363,68.8152536 C79.4581287,77.104474 85.8539637,93.9727736 88.3215262,103.519064 C90.7890888,113.065354 95.8046948,122.236576 80.5164342,124.486983 C48.3587588,129.220541 44.6942353,118.94771 36.0273959,97.5358888 C31.3642469,86.015367 39.7033679,80.8718484 47.3235201,75.5325415 C53.8660367,70.948315 58.9498342,64.9860062 65.4301363,68.8152536 Z" id="B13gVIB_lZm"/></g>
        </g>
        <g id="ryae4Lr_xbQ_BJl1CFlZQ" data-animator-group="true" data-animator-type="0"><g id="ryae4Lr_xbQ_SJmJRtxWX" data-animator-group="true" data-animator-type="1"><path d="M331.954145,129.841897 C319.801176,133.416517 319.74614,143.54951 310.669637,148.097062 C301.593135,152.644613 286.011306,149.927721 278.169173,130.169877 C272.941084,116.997981 277.163457,103.941355 290.836291,91 C294.123893,101.534303 297.956208,109.013801 302.333236,113.438492 C301.252117,109.844344 301.958869,105.880804 304.45349,101.547875 C308.22633,108.934694 313.54154,112.926547 320.39912,113.523433 C335.999422,114.881289 347.533049,118.765428 355,125.17585 C347.738076,125.903468 340.056124,127.458817 331.954145,129.841897 Z" id="ryae4Lr_xbQ"/></g></g>
        <g id="SkAxVIB_l-m_BkvCW_SZQ" data-animator-group="true" data-animator-type="1"><path d="M317,244.724244 C320.328282,239.457103 323.999529,236.145266 328.013739,234.788732 C325.778722,240.523343 332.059082,252.366197 327.495472,252.366197 C324.107347,252.366197 320.608856,249.818879 317,244.724244 Z M379.372119,226.659083 C379.40887,233.864687 378.116337,238.483421 375.494521,240.515284 C371.963085,243.252087 369.519301,229.499265 364.457627,226.291933 C371.072947,225.804882 376.044444,225.927265 379.372119,226.659083 Z M328.033123,235.218282 C328.162556,234.487591 334.697183,231.832366 343.188614,229.803342 C351.76174,227.754796 362.877795,225.937563 364.476385,226.978804 C367.65833,229.051365 368.125149,231.956139 365.316123,233.687153 C362.507097,235.418167 357.998489,234.926211 348.540558,236.798982 C339.082627,238.671754 331.418177,241.868695 329.451288,241.523467 C327.484398,241.17824 327.773011,236.686695 328.033123,235.218282 Z M381.832328,226 C395.41632,226.368194 391.466675,237.157438 389.447429,234.311093 C387.428182,231.464747 384.5444,233.45778 382.265793,232.063248 C379.987186,230.668716 380.592361,227.281151 381.832328,226 Z M340.156624,308.783011 C339.341537,299.008806 343.526692,301.263838 342.829769,305.196796 C342.584717,306.579701 346.376047,305.819018 348.758436,306.237026 C354.193048,307.19057 358.172109,308.009443 362.998934,309.242535 C375.67015,312.479606 375.438647,319.535654 384.766019,310.020307 C394.093391,300.504959 396.881081,284.773127 396.998039,289.862696 C397.114997,294.952266 391.97278,306.722645 388.718464,310.713794 C385.464148,314.704942 375.962545,325.203529 360.908166,321.041409 C345.853788,316.879289 340.493669,312.824728 340.156624,308.783011 Z" id="SkAxVIB_l-m"/></g>
    </g>
<script>(function(){var a=document.querySelector('#BJNISOxbm'),b=a.querySelectorAll('style'),c=function(d){b.forEach(function(f){var g=f.textContent;g&amp;&amp;(f.textContent=g.replace(/transform-box:[^;\r\n]*/gi,'transform-box: '+d))})};c('initial'),window.requestAnimationFrame(function(){return c('fill-box')})})();</script></svg>