<svg width="192" height="192" viewBox="0 0 192 192" fill="none" xmlns="http://www.w3.org/2000/svg">
<mask id="mask0" mask-type="alpha" maskUnits="userSpaceOnUse" x="0" y="0" width="192" height="192">
<rect width="192" height="192" fill="#C4C4C4"/>
</mask>
<g mask="url(#mask0)">
<g opacity="0.9">
<path fill-rule="evenodd" clip-rule="evenodd" d="M155.925 129.018C155.925 135.852 152.267 142.164 146.336 145.561L87.1248 179.478C81.2298 182.855 73.9834 182.84 68.1027 179.438L9.51916 145.551C3.62795 142.144 0 135.854 0 129.048L0 61.9515C0 55.1457 3.62795 48.8561 9.51916 45.4484L68.1027 11.5618C73.9834 8.16028 81.2298 8.14499 87.1248 11.5217L146.336 45.4389C152.267 48.836 155.925 55.1477 155.925 61.9822L155.925 129.018ZM72.1937 172.365C75.5541 174.309 79.6949 174.318 83.0635 172.388L142.275 138.471C145.664 136.53 147.754 132.923 147.754 129.018L147.754 61.9823C147.754 58.0768 145.664 54.4702 142.275 52.529L83.0635 18.6118C79.6949 16.6822 75.5541 16.691 72.1937 18.6347L13.6102 52.5213C10.2437 54.4685 8.17063 58.0626 8.17063 61.9516L8.17063 129.048C8.17063 132.937 10.2437 136.532 13.6102 138.479L72.1937 172.365Z" fill="white"/>
<path d="M102.815 58.0506L119.156 58.0506C121.413 58.0506 123.242 59.8797 123.242 62.136C123.242 64.3923 121.413 66.2213 119.156 66.2213L102.815 66.2213C100.559 66.2213 98.7295 64.3923 98.7295 62.136C98.7295 59.8797 100.559 58.0506 102.815 58.0506Z" fill="#7630EA"/>
<path d="M45.6205 58.0506L86.4743 58.0506C88.7306 58.0506 90.5596 59.8797 90.5596 62.136C90.5596 64.3923 88.7306 66.2214 86.4743 66.2214L45.6205 66.2214C43.3642 66.2214 41.5352 64.3923 41.5352 62.136C41.5352 59.8797 43.3642 58.0506 45.6205 58.0506Z" fill="#FF8300"/>
<path d="M61.9613 108.437L102.815 108.437C105.071 108.437 106.9 110.266 106.9 112.522C106.9 114.779 105.071 116.608 102.815 116.608L61.9613 116.608C59.7051 116.608 57.876 114.779 57.876 112.522C57.876 110.266 59.7051 108.437 61.9613 108.437Z" fill="#FF8300"/>
<path d="M29.2787 108.437H45.6202C47.8765 108.437 49.7056 110.266 49.7056 112.522C49.7056 114.779 47.8765 116.608 45.6202 116.608L29.2787 116.608C27.0224 116.608 25.1934 114.779 25.1934 112.522C25.1934 110.266 27.0224 108.437 29.2787 108.437Z" fill="#33DAC8"/>
<path d="M66.0473 41.3685L90.5595 41.3685C92.8158 41.3685 94.6449 43.1976 94.6449 45.4539C94.6449 47.7102 92.8158 49.5392 90.5595 49.5392L66.0473 49.5392C63.791 49.5392 61.9619 47.7102 61.9619 45.4539C61.9619 43.1976 63.791 41.3685 66.0473 41.3685Z" fill="white"/>
<path d="M66.0473 141.801H89.8786C92.1349 141.801 93.964 143.63 93.964 145.886C93.964 148.142 92.1349 149.971 89.8786 149.971H66.0473C63.791 149.971 61.9619 148.142 61.9619 145.886C61.9619 143.63 63.791 141.801 66.0473 141.801Z" fill="white"/>
<path d="M29.2787 74.7323L53.791 74.7323C56.0473 74.7323 57.8763 76.5614 57.8763 78.8177C57.8763 81.074 56.0473 82.9031 53.791 82.9031L29.2787 82.9031C27.0224 82.9031 25.1934 81.074 25.1934 78.8177C25.1934 76.5614 27.0224 74.7323 29.2787 74.7323Z" fill="#7630EA"/>
<path d="M70.1322 74.7323L119.157 74.7323C121.413 74.7323 123.242 76.5614 123.242 78.8177C123.242 81.074 121.413 82.9031 119.157 82.9031L70.1322 82.9031C67.876 82.9031 66.0469 81.074 66.0469 78.8177C66.0469 76.5614 67.876 74.7323 70.1322 74.7323Z" fill="#33DAC8"/>
<path d="M45.6205 125.119L119.157 125.119C121.414 125.119 123.243 126.948 123.243 129.204C123.243 131.461 121.414 133.29 119.157 133.29L45.6205 133.29C43.3642 133.29 41.5352 131.461 41.5352 129.204C41.5352 126.948 43.3642 125.119 45.6205 125.119Z" fill="#7630EA"/>
<path d="M29.2787 91.7552L127.328 91.7552C129.584 91.7552 131.413 93.5843 131.413 95.8406C131.413 98.0969 129.584 99.926 127.328 99.926L29.2787 99.926C27.0224 99.926 25.1934 98.0969 25.1934 95.8406C25.1934 93.5843 27.0224 91.7552 29.2787 91.7552Z" fill="#33DAC8"/>
</g>
</g>
</svg>
