<svg width="96" height="107" viewBox="0 0 96 107" fill="none" xmlns="http://www.w3.org/2000/svg">
<path fill-rule="evenodd" clip-rule="evenodd" d="M96 32.6201C96 28.4123 93.7476 24.5263 90.0963 22.4348L53.641 1.55265C50.0116 -0.526337 45.5501 -0.516928 41.9295 1.57735L5.86076 22.4406C2.23365 24.5387 0 28.4111 0 32.6013V73.9115C0 78.1017 2.23365 81.9741 5.86076 84.0721L41.9295 104.935C45.5501 107.03 50.0116 107.039 53.641 104.96L90.0963 84.0779C93.7476 81.9864 96 78.1005 96 73.8926V32.6201ZM44.448 5.93162C46.5169 4.73489 49.0664 4.72951 51.1403 5.9175L87.5956 26.7997C89.6821 27.9948 90.9691 30.2154 90.9691 32.6199V73.8923C90.9691 76.2968 89.6821 78.5174 87.5956 79.7125L51.1403 100.595C49.0664 101.783 46.5169 101.777 44.448 100.581L8.37928 79.7173C6.30665 78.5184 5.03027 76.3056 5.03027 73.9112V32.601C5.03027 30.2066 6.30665 27.9938 8.37928 26.7949L44.448 5.93162Z" fill="black"/>
<path d="M63.3014 76.3128H73.3626C74.7517 76.3128 75.8778 75.1867 75.8778 73.7975C75.8778 72.4084 74.7517 71.2822 73.3626 71.2822H63.3014C61.9123 71.2822 60.7861 72.4084 60.7861 73.7975C60.7861 75.1867 61.9123 76.3128 63.3014 76.3128Z" fill="#FC6161"/>
<path d="M28.0875 76.3128H53.2404C54.6295 76.3128 55.7557 75.1867 55.7557 73.7975C55.7557 72.4084 54.6295 71.2822 53.2404 71.2822H28.0875C26.6984 71.2822 25.5723 72.4084 25.5723 73.7975C25.5723 75.1867 26.6984 76.3128 28.0875 76.3128Z" fill="#FFBC44"/>
<path d="M38.1481 45.2913H63.3009C64.6901 45.2913 65.8162 44.1652 65.8162 42.776C65.8162 41.3869 64.6901 40.2607 63.3009 40.2607H38.1481C36.7589 40.2607 35.6328 41.3869 35.6328 42.776C35.6328 44.1652 36.7589 45.2913 38.1481 45.2913Z" fill="#FC6161"/>
<path d="M18.026 45.2913H28.0872C29.4763 45.2913 30.6024 44.1652 30.6024 42.776C30.6024 41.3869 29.4763 40.2607 28.0872 40.2607H18.026C16.6369 40.2607 15.5107 41.3869 15.5107 42.776C15.5107 44.1652 16.6369 45.2913 18.026 45.2913Z" fill="#FC6161"/>
<path d="M40.6637 86.5843H55.7554C57.1446 86.5843 58.2707 85.4581 58.2707 84.069C58.2707 82.6798 57.1446 81.5537 55.7554 81.5537H40.6637C39.2746 81.5537 38.1484 82.6798 38.1484 84.069C38.1484 85.4581 39.2746 86.5843 40.6637 86.5843Z" fill="#FC6161"/>
<path d="M40.6637 24.7503H55.3362C56.7254 24.7503 57.8515 23.6242 57.8515 22.235C57.8515 20.8459 56.7254 19.7197 55.3362 19.7197H40.6637C39.2746 19.7197 38.1484 20.8459 38.1484 22.235C38.1484 23.6242 39.2746 24.7503 40.6637 24.7503Z" fill="#FC6161"/>
<path d="M18.026 66.0423H33.1177C34.5069 66.0423 35.633 64.9162 35.633 63.527C35.633 62.1378 34.5069 61.0117 33.1177 61.0117H18.026C16.6369 61.0117 15.5107 62.1378 15.5107 63.527C15.5107 64.9162 16.6369 66.0423 18.026 66.0423Z" fill="#FC6161"/>
<path d="M43.1793 66.0423H73.3628C74.7519 66.0423 75.878 64.9162 75.878 63.527C75.878 62.1378 74.7519 61.0117 73.3628 61.0117H43.1793C41.7902 61.0117 40.6641 62.1378 40.6641 63.527C40.6641 64.9162 41.7902 66.0423 43.1793 66.0423Z" fill="#FC6161"/>
<path d="M28.0875 35.0208H73.3627C74.7518 35.0208 75.8779 33.8947 75.8779 32.5055C75.8779 31.1164 74.7518 29.9902 73.3627 29.9902H28.0875C26.6984 29.9902 25.5723 31.1164 25.5723 32.5055C25.5723 33.8947 26.6984 35.0208 28.0875 35.0208Z" fill="#FFBC44"/>
<path d="M18.026 55.5618H78.3928C79.782 55.5618 80.9081 54.4357 80.9081 53.0465C80.9081 51.6574 79.782 50.5312 78.3928 50.5312H18.026C16.6369 50.5312 15.5107 51.6574 15.5107 53.0465C15.5107 54.4357 16.6369 55.5618 18.026 55.5618Z" fill="#FFBC44"/>
</svg>
