<svg width="96" height="96" viewBox="0 0 96 96" fill="none" xmlns="http://www.w3.org/2000/svg">
<circle cx="48" cy="48" r="48" fill="#00E8CF"/>
<path d="M62.7904 71.5938H72.8516C74.2407 71.5938 75.3668 70.4677 75.3668 69.0785C75.3668 67.6894 74.2407 66.5632 72.8516 66.5632H62.7904C61.4013 66.5632 60.2751 67.6894 60.2751 69.0785C60.2751 70.4677 61.4013 71.5938 62.7904 71.5938Z" fill="#FFD63E"/>
<path d="M27.5761 71.5938H52.7289C54.1181 71.5938 55.2442 70.4677 55.2442 69.0785C55.2442 67.6894 54.1181 66.5632 52.7289 66.5632H27.5761C26.1869 66.5632 25.0608 67.6894 25.0608 69.0785C25.0608 70.4677 26.1869 71.5938 27.5761 71.5938Z" fill="#6633BC"/>
<path d="M37.6375 40.5721H62.7903C64.1795 40.5721 65.3056 39.4459 65.3056 38.0568C65.3056 36.6676 64.1795 35.5415 62.7903 35.5415H37.6375C36.2483 35.5415 35.1222 36.6676 35.1222 38.0568C35.1222 39.4459 36.2483 40.5721 37.6375 40.5721Z" fill="#6633BC"/>
<path d="M17.5153 40.5721H27.5764C28.9656 40.5721 30.0917 39.4459 30.0917 38.0568C30.0917 36.6676 28.9656 35.5415 27.5764 35.5415H17.5153C16.1261 35.5415 15 36.6676 15 38.0568C15 39.4459 16.1261 40.5721 17.5153 40.5721Z" fill="#01A982"/>
<path d="M40.1525 81.8648H55.2442C56.6333 81.8648 57.7595 80.7387 57.7595 79.3495C57.7595 77.9604 56.6333 76.8342 55.2442 76.8342H40.1525C38.7633 76.8342 37.6372 77.9604 37.6372 79.3495C37.6372 80.7387 38.7633 81.8648 40.1525 81.8648Z" fill="white"/>
<path d="M40.1525 20.0306H54.825C56.2141 20.0306 57.3403 18.9044 57.3403 17.5153C57.3403 16.1261 56.2141 15 54.825 15H40.1525C38.7633 15 37.6372 16.1261 37.6372 17.5153C37.6372 18.9044 38.7633 20.0306 40.1525 20.0306Z" fill="white"/>
<path d="M17.5153 61.3233H32.607C33.9961 61.3233 35.1223 60.1972 35.1223 58.808C35.1223 57.4189 33.9961 56.2927 32.607 56.2927H17.5153C16.1261 56.2927 15 57.4189 15 58.808C15 60.1972 16.1261 61.3233 17.5153 61.3233Z" fill="#FFD63E"/>
<path d="M42.6679 61.3233H72.8513C74.2404 61.3233 75.3666 60.1972 75.3666 58.808C75.3666 57.4189 74.2404 56.2927 72.8513 56.2927H42.6679C41.2787 56.2927 40.1526 57.4189 40.1526 58.808C40.1526 60.1972 41.2787 61.3233 42.6679 61.3233Z" fill="#01A982"/>
<path d="M27.5761 30.3014H72.8512C74.2403 30.3014 75.3665 29.1753 75.3665 27.7862C75.3665 26.397 74.2403 25.2709 72.8512 25.2709H27.5761C26.1869 25.2709 25.0608 26.397 25.0608 27.7862C25.0608 29.1753 26.1869 30.3014 27.5761 30.3014Z" fill="#FFD63E"/>
<path d="M17.5153 50.8429H77.8821C79.2713 50.8429 80.3974 49.7168 80.3974 48.3277C80.3974 46.9385 79.2713 45.8124 77.8821 45.8124H17.5153C16.1261 45.8124 15 46.9385 15 48.3277C15 49.7168 16.1261 50.8429 17.5153 50.8429Z" fill="#01A982"/>
</svg>
