<svg width="192" height="192" viewBox="0 0 192 192" fill="none" xmlns="http://www.w3.org/2000/svg">
<path d="M60.356 159.345C60.356 159.298 60.356 159.255 60.356 159.211H66.414C66.4104 159.258 66.4104 159.306 66.414 159.353L60.356 159.345Z" fill="#DDEACA"/>
<path d="M66.4072 159.205H60.3492C53.3437 158.918 46.437 157.45 39.9206 154.864C30.3335 151.071 21.8178 144.996 15.1132 137.166C8.40853 129.336 3.7177 119.988 1.44819 109.934C0.465867 105.767 -0.0200265 101.499 0.000631967 97.2182C0.0295831 95.4311 -0.0427947 93.6368 0.0730097 91.857C0.412439 86.0723 1.58874 80.3672 3.56524 74.9197C9.4206 59.0026 19.9081 47.1925 35.0279 39.4896C44.4221 34.8017 54.8434 32.5466 65.3361 32.931C80.5209 33.5604 93.8203 38.8951 105.234 48.935C108.441 51.7764 111.346 54.9417 113.902 58.3803C114.068 58.601 114.22 58.8289 114.434 59.1364L107.12 64.0599C104.439 60.398 101.331 57.0681 97.8626 54.1406C94.384 51.2488 90.57 48.7856 86.5029 46.8042C87.2846 44.9774 88.0193 43.2518 88.7865 41.4539C83.8358 39.1758 78.6022 37.5711 73.2252 36.6824C63.6687 35.112 53.8757 35.8347 44.6535 38.7909C35.4313 41.747 27.044 46.8519 20.1832 53.6848C15.8171 58.0516 12.1351 63.0518 9.26137 68.5167L14.288 71.3818C7.49897 85.6963 6.51463 100.358 12.1565 115.179C17.7983 130 28.304 140.26 42.9424 146.449C42.11 148.739 41.2922 151 40.4453 153.341C49.3474 156.935 58.9728 158.379 68.5382 157.553C78.1035 156.727 87.3387 153.655 95.4923 148.587C103.787 143.461 110.373 136.649 115.519 128.311C115.794 128.441 116.037 128.553 116.276 128.673C116.514 128.792 116.753 128.933 117.036 129.089C116.869 129.382 116.746 129.624 116.601 129.848C107.243 144.214 94.2727 153.514 77.6041 157.617C74.5216 158.37 71.3794 158.854 68.2131 159.064C67.6123 159.107 67.008 159.161 66.4072 159.205Z" fill="#87BE49"/>
<path d="M17.8494 73.3968L18.7071 73.7586C25.0835 61.8677 34.5288 53.5004 47.3288 49.181C60.1289 44.8617 72.6611 45.7914 84.9327 51.3298L85.4575 50.4544C91.4231 53.3787 96.7711 57.4217 101.211 62.3633C99.6037 63.8646 97.9535 65.2573 96.3178 66.6827C86.051 55.736 73.497 50.5738 58.5402 52.0063C46.9018 53.1386 37.2032 58.3153 29.5456 67.1529C22.2483 75.6033 18.4326 86.508 18.8699 97.6627C19.3073 108.818 23.965 119.39 31.9015 127.244C40.9487 136.19 51.9683 140.52 64.6995 140.072C77.4308 139.623 87.9835 134.316 96.5819 124.878L101.648 128.901C88.3417 145.682 61.5221 153.29 38.3612 140.347C12.9096 126.122 6.40645 95.5976 17.8494 73.3968Z" fill="#87BE48"/>
<path d="M100.509 76.2907L96.1188 78.3346C95.8004 77.8137 95.5326 77.3687 95.2105 76.8442L97.8812 74.9052C89.2827 61.2779 73.0194 53.862 57.0493 56.2061V59.3172C45.686 61.5854 36.9427 67.5435 31.1018 77.5279C27.4862 83.6715 25.7899 90.7551 26.2308 97.8693C26.6024 106.302 29.8998 114.342 35.5567 120.609C41.2926 127.063 48.4761 130.995 57.0131 132.59V135.484C63.5271 136.331 69.8638 135.846 76.0448 133.762C84.3683 130.955 91.1356 125.952 96.4952 118.876L94.1284 116.883L94.74 115.888C96.2346 116.749 97.6677 117.592 99.0827 118.486C90.5349 132.471 72.596 141.757 53.2494 136.935C43.8143 134.569 35.4907 129.008 29.6942 121.199C23.8978 113.39 20.9866 103.815 21.4557 94.1023C21.9249 84.3897 25.7456 75.1395 32.2678 67.9252C38.79 60.7108 47.6109 55.9778 57.2302 54.5312C77.6697 51.5468 93.9764 63.3689 100.509 76.2907Z" fill="#0E9DC7"/>
<path d="M45.197 152.983C45.9751 150.877 46.7133 148.884 47.4769 146.833C59.8861 150.653 72.0492 150.194 83.9264 145.115C95.8036 140.036 104.511 131.498 110.344 119.879L116.627 122.443C112.526 131.167 106.329 138.741 98.5891 144.49C90.8489 150.238 81.8058 153.982 72.2663 155.388C63.0924 156.781 54.0995 155.92 45.197 152.983Z" fill="#87BE48"/>
<path d="M82.953 41.9244L80.503 47.604C69.2265 43.4221 57.8922 43.0495 46.518 46.8805C35.1438 50.7114 26.3391 57.914 19.9047 68.1226L14.7261 65.1816C21.5491 53.9061 32.1282 45.3943 44.6054 41.1411C57.0826 36.8879 70.66 37.1652 82.953 41.9244V41.9244Z" fill="#87BE48"/>
<path d="M80.297 117.737L82.2113 119.871C78.646 122.587 74.515 124.467 70.1243 125.37C65.7416 126.258 61.2163 126.162 56.8755 125.088C56.6511 126.101 56.4376 127.067 56.2277 128.029C46.6087 126.177 37.4674 118.5 33.9824 109.608L36.6749 108.161C33.2297 99.9242 33.2044 91.6979 36.8558 83.5621C39.2979 78.0892 43.3732 73.5051 48.5231 70.4376C58.9528 64.0816 71.3547 65.1886 79.7396 70.5534C79.3778 70.8428 79.0521 71.1322 78.6974 71.3854C77.2245 72.4309 77.818 72.402 76.2112 71.6061C73.126 70.046 69.767 69.0999 66.3208 68.8206C58.7718 68.2309 52.0805 70.3581 46.312 75.2417C41.3519 79.3538 38.083 85.1498 37.1309 91.5206C35.8353 99.7288 37.8944 107.105 43.2359 113.486C47.3063 118.452 53.066 121.743 59.4124 122.729C62.895 123.35 66.4663 123.274 69.9195 122.506C73.3727 121.738 76.6392 120.293 79.5298 118.254L80.297 117.737Z" fill="#0E9DC7"/>
<path d="M155.067 93.6041V95.0186H155.917H168.156C168.384 95.0186 168.612 95.0186 168.836 95.0186C169.201 95.0534 169.541 95.2192 169.792 95.4853C170.044 95.7514 170.19 96.0997 170.204 96.4656C170.194 96.8321 170.05 97.1821 169.798 97.4489C169.546 97.7158 169.205 97.8808 168.84 97.9126C168.616 97.9343 168.388 97.9126 168.16 97.9126H155.921H155.067V99.3343H155.975C160.962 99.3343 165.949 99.3343 170.935 99.3343C171.261 99.3023 171.59 99.3639 171.882 99.5119C172.175 99.6599 172.419 99.8882 172.586 100.17C172.742 100.441 172.826 100.747 172.829 101.06C172.831 101.373 172.753 101.681 172.601 101.954C172.449 102.228 172.228 102.457 171.961 102.62C171.694 102.782 171.389 102.873 171.077 102.883C165.308 102.829 159.54 102.858 153.775 102.861C153.548 102.871 153.321 102.836 153.108 102.758C152.895 102.679 152.7 102.56 152.533 102.406C152.383 102.255 152.267 102.072 152.195 101.872C152.123 101.671 152.097 101.457 152.117 101.244C152.117 98.372 152.117 95.5033 152.099 92.6346C152.099 92.2041 152.099 91.7773 152.099 91.3504C152.099 90.4605 152.483 90.0843 153.384 90.0445C153.561 90.0445 153.746 90.0445 153.912 90.0445C159.63 90.0445 165.348 90.0445 171.066 90.0445C171.393 90.0136 171.721 90.086 172.005 90.2515C172.288 90.417 172.513 90.6672 172.647 90.967C172.806 91.2706 172.873 91.6138 172.84 91.9548C172.807 92.2958 172.676 92.6199 172.463 92.8879C172.321 93.097 172.127 93.2661 171.901 93.3789C171.675 93.4917 171.423 93.5443 171.171 93.5318C170.139 93.5318 169.104 93.5318 168.073 93.5318H155.906L155.067 93.6041Z" fill="#0C5182"/>
<path d="M90.4728 76.1462C82.7863 66.6755 72.9936 62.1825 60.8667 62.7939V58.2286C64.4168 57.534 72.4471 58.348 78.773 61.072C85.6706 64.0456 91.5115 69.2765 94.3342 73.3716L90.4728 76.1462Z" fill="#0B9DC7"/>
<path d="M127.024 101.252C127.005 101.552 126.908 101.843 126.742 102.094C126.575 102.345 126.345 102.547 126.076 102.681C125.795 102.855 125.468 102.941 125.138 102.928C124.808 102.915 124.489 102.804 124.223 102.609C123.101 101.842 121.964 101.093 120.879 100.275C120.32 99.8544 119.631 99.642 118.932 99.6747C113.67 99.6988 108.407 99.6988 103.143 99.6747C102.668 99.6619 102.202 99.8098 101.822 100.094C100.7 100.908 99.5527 101.686 98.4055 102.46C98.1636 102.638 97.8931 102.772 97.6057 102.858C97.2181 102.944 96.813 102.9 96.4528 102.733C96.0926 102.566 95.7974 102.285 95.6127 101.934C95.4279 101.583 95.3638 101.18 95.4304 100.789C95.4969 100.398 95.6903 100.039 95.9808 99.7687C96.1523 99.6214 96.3336 99.486 96.5237 99.3636C100.584 96.5636 104.659 93.7745 108.705 90.9564C109.654 90.2701 110.837 89.9879 111.994 90.1714C112.49 90.2405 112.965 90.4184 113.384 90.6924C117.596 93.5864 121.791 96.5057 125.989 99.4178C126.31 99.6024 126.576 99.8701 126.758 100.193C126.94 100.516 127.032 100.881 127.024 101.252V101.252ZM115.881 96.8024C115.682 96.6396 115.595 96.56 115.519 96.4949C114.434 95.7316 113.348 94.9647 112.233 94.2122C111.448 93.6732 111.035 93.6732 110.236 94.2122C109.15 94.961 108.039 95.7243 106.946 96.484C106.852 96.5491 106.769 96.6287 106.584 96.7951L115.881 96.8024Z" fill="#075081"/>
<path d="M61.0913 133.929C61.0479 132.251 61.0081 130.655 60.9683 128.973C72.2592 129.404 81.538 125.356 88.9857 116.923L92.9339 120.009C89.3408 124.366 84.8357 127.883 79.7358 130.312C73.935 133.098 67.5138 134.344 61.0913 133.929V133.929Z" fill="#099DC7"/>
<path d="M132.278 100.029C132.278 100.391 132.278 100.698 132.278 100.995C132.285 101.503 132.117 101.997 131.801 102.395C131.676 102.563 131.514 102.7 131.327 102.794C131.14 102.889 130.934 102.938 130.724 102.938C130.515 102.938 130.308 102.889 130.121 102.794C129.934 102.7 129.772 102.563 129.648 102.395C129.333 102.029 129.162 101.561 129.166 101.078C129.166 98.007 129.166 94.9285 129.166 91.8644C129.145 91.6305 129.176 91.3947 129.256 91.1739C129.336 90.953 129.464 90.7526 129.631 90.5868C129.797 90.421 129.998 90.294 130.219 90.2147C130.441 90.1354 130.677 90.1058 130.911 90.128C135.821 90.128 140.732 90.128 145.643 90.128C146.173 90.1268 146.695 90.2487 147.169 90.4841C147.643 90.7196 148.056 91.0621 148.375 91.4846C148.955 92.1896 149.311 93.0509 149.399 93.959C149.52 95.0636 149.396 96.1812 149.038 97.2329C148.469 98.9186 147.177 100 145.241 99.993C141.214 99.9749 137.182 99.993 133.154 100.015L132.278 100.029ZM132.315 96.2272C132.528 96.2272 132.655 96.2525 132.778 96.2525H145.147C145.296 96.2756 145.447 96.267 145.592 96.2272C145.867 96.1284 146.114 95.9674 146.316 95.7569C146.451 95.5725 146.529 95.3527 146.541 95.1245C146.552 94.8964 146.497 94.6698 146.381 94.4727C146.289 94.2792 146.139 94.1194 145.951 94.0156C145.764 93.9119 145.548 93.8693 145.335 93.8939C141.113 93.8939 136.891 93.8939 132.669 93.8939C132.547 93.9035 132.425 93.9266 132.307 93.9626L132.315 96.2272Z" fill="#085081"/>
<path d="M61.229 90.1385H68.6332C69.5633 90.1385 70.0446 90.4423 70.3486 91.202C70.4948 91.5793 70.5326 91.9898 70.4578 92.3874C70.383 92.785 70.1985 93.1538 69.9252 93.4521C69.7749 93.5845 69.5992 93.6849 69.4088 93.7471C69.2184 93.8093 69.0173 93.832 68.8178 93.8139C66.176 93.8139 63.5306 93.8501 60.8852 93.8645C58.6668 93.8645 56.452 93.8645 54.2337 93.8645C52.8368 93.8645 52.113 94.4867 51.838 95.865C51.7019 96.5107 51.7676 97.1825 52.0261 97.7896C52.1741 98.2212 52.4594 98.5925 52.8385 98.8466C53.2175 99.1008 53.6695 99.2238 54.1251 99.1968C58.9346 99.1968 63.7477 99.2764 68.5572 99.1715C70.2472 99.1317 70.8733 100.933 70.2762 102.026C70.1525 102.289 69.9582 102.513 69.7148 102.673C69.4713 102.832 69.1884 102.922 68.8974 102.93C68.6947 102.93 68.4921 102.93 68.293 102.93H54.6136C51.3747 102.93 49.1564 101.042 48.6533 97.8076C48.4747 96.8773 48.4828 95.9207 48.6773 94.9935C48.8717 94.0663 49.2486 93.187 49.7861 92.4067C50.8392 90.9126 52.2397 90.0806 54.1287 90.1059C56.4955 90.1385 58.8622 90.1059 61.2326 90.1059L61.229 90.1385Z" fill="#085081"/>
<path d="M90.8345 97.996H75.9537C75.932 98.1986 75.8994 98.3867 75.8958 98.5785C75.8958 99.3598 75.8958 100.138 75.8958 100.919C75.9131 101.453 75.7327 101.975 75.3891 102.384C75.2625 102.551 75.0979 102.685 74.9089 102.775C74.72 102.865 74.5122 102.909 74.303 102.902C74.0937 102.896 73.889 102.84 73.7059 102.738C73.5228 102.637 73.3666 102.493 73.2504 102.319C72.9917 101.952 72.8413 101.519 72.8161 101.071C72.7763 98.0503 72.7944 95.0297 72.7944 92.0271C72.797 91.5437 72.9788 91.0784 73.3046 90.7212C73.4342 90.5489 73.6045 90.4114 73.8002 90.3211C73.996 90.2307 74.2112 90.1904 74.4264 90.2037C74.6416 90.2169 74.8501 90.2834 75.0333 90.3971C75.2165 90.5108 75.3686 90.6681 75.476 90.855C75.6982 91.2721 75.8337 91.7299 75.8741 92.2007C75.9157 92.8027 75.9266 93.4064 75.9066 94.0095C75.9193 94.0752 75.9387 94.1395 75.9645 94.2012H90.8744C90.8744 93.4452 90.8744 92.7181 90.8744 91.9909C90.8717 91.7257 90.9262 91.4631 91.0342 91.2209C91.1423 90.9786 91.3013 90.7626 91.5004 90.5873C91.6235 90.4588 91.7723 90.3576 91.9371 90.2904C92.1019 90.2231 92.279 90.1914 92.4569 90.1972C92.6348 90.203 92.8095 90.2462 92.9695 90.324C93.1296 90.4019 93.2714 90.5125 93.3859 90.6488C93.7278 90.991 93.9225 91.4531 93.9287 91.9367C93.9287 95.0333 93.9287 98.1299 93.8997 101.223C93.9102 101.604 93.7893 101.977 93.5574 102.279C93.3255 102.581 92.9966 102.795 92.6259 102.883C91.7139 103.032 90.9286 102.308 90.8816 101.245C90.849 100.441 90.8635 99.6348 90.8563 98.8317C90.8345 98.5568 90.8345 98.3071 90.8345 97.996Z" fill="#0A5181"/>
<path d="M178.878 99.1791C179.24 99.1791 179.504 99.1791 179.776 99.1791C183.228 99.1791 186.681 99.2623 190.129 99.161C191.548 99.1176 192.424 100.771 191.79 101.957C191.67 102.239 191.467 102.477 191.209 102.642C190.951 102.806 190.649 102.889 190.343 102.88C186.033 102.88 181.726 102.88 177.416 102.88C177.009 102.89 176.613 102.74 176.315 102.462C176.017 102.184 175.839 101.8 175.82 101.393C175.811 101.242 175.811 101.091 175.82 100.941C175.82 98.0215 175.82 95.0985 175.82 92.1792C175.793 91.6728 175.949 91.1736 176.258 90.772C176.385 90.5892 176.555 90.4407 176.753 90.3401C176.951 90.2395 177.172 90.1898 177.394 90.1955C177.616 90.2013 177.834 90.2623 178.026 90.373C178.219 90.4837 178.381 90.6407 178.498 90.8298C178.769 91.2264 178.903 91.6998 178.882 92.1792C178.882 94.1941 178.882 96.2091 178.882 98.2241L178.878 99.1791Z" fill="#034F80"/>
</svg>
