<svg xmlns="http://www.w3.org/2000/svg" width="104" height="118" viewBox="0 0 104 118">
  <g fill="none" fill-rule="evenodd" transform="translate(6 7)">
    <path fill="#01a982" stroke="#01a982" stroke-width="5.988" d="M50.7836779,-1.78602368 L90.24707,21.1543713 C93.1808447,22.8597987 94.9859557,25.9970686 94.9859557,29.3905207 L94.9859557,75.3488111 C94.9859557,78.7422632 93.1808447,81.8795331 90.24707,83.5849605 L50.7836779,106.525355 C47.8237387,108.245993 44.1681341,108.245993 41.2081949,106.525355 L1.74480286,83.5849605 C-1.1889719,81.8795331 -2.99408284,78.7422632 -2.99408284,75.3488111 L-2.99408284,29.3905207 C-2.99408284,25.9970686 -1.1889719,22.8597987 1.74480286,21.1543713 L41.2081949,-1.78602368 C44.1681341,-3.50666074 47.8237387,-3.50666074 50.7836779,-1.78602368 Z"/>
    <g stroke="#FFF" stroke-linecap="round" stroke-linejoin="round" stroke-width="4.899" transform="rotate(180 39 34.5)">
      <path d="M44 10.6953642L56.0880041 10.6953642M6 10.6953642L33.9764545 10.6953642M0 31.6953642L11.8999889 31.6953642M22 31.6953642L61.3829101 31.6953642M16 .695364238L59.8672193.695364238"/>
      <polyline points="0 21 31.769 21 63.538 21"/>
    </g>
  </g>
</svg>
