<svg width="344" height="382" viewBox="0 0 344 382" fill="none" xmlns="http://www.w3.org/2000/svg">
<path fill-rule="evenodd" clip-rule="evenodd" d="M344 116.889C344 101.811 335.929 87.886 322.845 80.3914L192.214 5.56367C179.208 -1.88604 163.221 -1.85232 150.247 5.65218L21.0011 80.4123C8.00393 87.9302 0 101.806 0 116.821V264.849C0 279.864 8.00393 293.741 21.0011 301.258L150.247 376.019C163.221 383.523 179.208 383.557 192.214 376.107L322.845 301.279C335.929 293.785 344 279.86 344 264.782V116.889ZM159.272 21.2553C166.686 16.967 175.821 16.9477 183.253 21.2047L313.885 96.0325C321.361 100.315 325.973 108.272 325.973 116.888V264.781C325.973 273.397 321.361 281.354 313.885 285.637L183.253 360.465C175.821 364.722 166.686 364.702 159.272 360.414L30.0261 285.654C22.5992 281.358 18.0255 273.429 18.0255 264.849V116.821C18.0255 108.241 22.5992 100.311 30.0261 96.0154L159.272 21.2553Z" fill="#777777" fill-opacity="0.3"/>
<path d="M226.83 273.455H262.883C267.861 273.455 271.896 269.42 271.896 264.442C271.896 259.465 267.861 255.429 262.883 255.429H226.83C221.853 255.429 217.817 259.465 217.817 264.442C217.817 269.42 221.853 273.455 226.83 273.455Z" fill="#7630EA"/>
<path d="M100.645 273.455H190.776C195.754 273.455 199.79 269.42 199.79 264.442C199.79 259.465 195.754 255.429 190.776 255.429H100.645C95.6676 255.429 91.6323 259.465 91.6323 264.442C91.6323 269.42 95.6676 273.455 100.645 273.455Z" fill="#FF8300"/>
<path d="M136.699 162.294H226.83C231.808 162.294 235.843 158.258 235.843 153.281C235.843 148.303 231.808 144.268 226.83 144.268H136.699C131.721 144.268 127.686 148.303 127.686 153.281C127.686 158.258 131.721 162.294 136.699 162.294Z" fill="#FF8300"/>
<path d="M64.5946 162.294H100.647C105.625 162.294 109.66 158.258 109.66 153.281C109.66 148.303 105.625 144.268 100.647 144.268H64.5946C59.6168 144.268 55.5815 148.303 55.5815 153.281C55.5815 158.258 59.6168 162.294 64.5946 162.294Z" fill="#33DAC8"/>
<path d="M145.711 310.259H199.79C204.768 310.259 208.803 306.224 208.803 301.246C208.803 296.268 204.768 292.233 199.79 292.233H145.711C140.734 292.233 136.698 296.268 136.698 301.246C136.698 306.224 140.734 310.259 145.711 310.259Z" fill="#777777" fill-opacity="0.3"/>
<path d="M145.711 88.6868H198.288C203.266 88.6868 207.301 84.6515 207.301 79.6737C207.301 74.6959 203.266 70.6606 198.288 70.6606H145.711C140.734 70.6606 136.698 74.6959 136.698 79.6737C136.698 84.6515 140.734 88.6868 145.711 88.6868Z" fill="#777777" fill-opacity="0.3"/>
<path d="M64.5946 236.653H118.673C123.651 236.653 127.686 232.617 127.686 227.64C127.686 222.662 123.651 218.626 118.673 218.626H64.5946C59.6168 218.626 55.5815 222.662 55.5815 227.64C55.5815 232.617 59.6168 236.653 64.5946 236.653Z" fill="#7630EA"/>
<path d="M154.725 236.653H262.882C267.86 236.653 271.895 232.617 271.895 227.64C271.895 222.662 267.86 218.626 262.882 218.626H154.725C149.747 218.626 145.711 222.662 145.711 227.64C145.711 232.617 149.747 236.653 154.725 236.653Z" fill="#33DAC8"/>
<path d="M100.645 125.491H262.881C267.859 125.491 271.894 121.456 271.894 116.478C271.894 111.5 267.859 107.465 262.881 107.465H100.645C95.6676 107.465 91.6323 111.5 91.6323 116.478C91.6323 121.456 95.6676 125.491 100.645 125.491Z" fill="#7630EA"/>
<path d="M64.5946 199.098H280.909C285.887 199.098 289.922 195.063 289.922 190.085C289.922 185.107 285.887 181.072 280.909 181.072H64.5946C59.6168 181.072 55.5815 185.107 55.5815 190.085C55.5815 195.063 59.6168 199.098 64.5946 199.098Z" fill="#33DAC8"/>
</svg>
