<?xml version="1.0" encoding="UTF-8" standalone="no"?>
<!DOCTYPE svg PUBLIC "-//W3C//DTD SVG 1.1//EN" "http://www.w3.org/Graphics/SVG/1.1/DTD/svg11.dtd">
<svg xmlns="http://www.w3.org/2000/svg" xmlns:xlink="http://www.w3.org/1999/xlink" version="1.1" width="843.8898pt" height="597.2756pt" viewBox="0 0 843.8898 597.2756">
<g enable-background="new">
<g id="Layer-1" data-name="Layer 1">
<path transform="matrix(1,0,0,-1,1,596.2756)" d="M 0 595.2756 L 841.8898 595.2756 L 841.8898 0 L 0 0 Z " fill="#ffffff" fill-rule="evenodd"/>
<g id="Layer-2" data-name="Corel_OTF">
</g>
<symbol id="font_0_1e">
<path d="M .27500005 .70100006 C .18900001 .70100006 .085999999 .70100006 0 .70100006 L 0 0 C .085999999 0 .18900001 0 .27500005 0 C .52 0 .628 .179 .625 .35700003 C .62200006 .53000006 .515 .70100006 .27500005 .70100006 M .131 .57600006 L .27500005 .57600006 C .42700003 .57600006 .49100004 .467 .49400006 .358 C .497 .24300002 .43400005 .127 .27500005 .127 L .131 .127 L .131 .57600006 Z "/>
</symbol>
<symbol id="font_0_39">
<path d="M .51100006 .216 C .53000006 .41900004 .42700003 .521 .262 .521 C .102000009 .521 0 .41300003 0 .263 C 0 .105000007 .101 0 .271 0 C .34600003 0 .43100003 .026 .48300005 .08 L .405 .157 C .377 .128 .31800003 .111 .273 .111 C .187 .111 .134 .155 .126 .216 L .51100006 .216 M .128 .31700004 C .146 .38100005 .2 .41300003 .266 .41300003 C .336 .41300003 .386 .38100005 .39400003 .31700004 L .128 .31700004 Z "/>
</symbol>
<symbol id="font_0_48">
<path d="M .092 .629 L .092 .50200006 L 0 .50200006 L 0 .397 L .092 .397 L .092 .18400002 C .092 .061000006 .16200002 0 .26900003 .0040000008 C .30600003 .0050000005 .335 .011000001 .37000004 .025000003 L .33600004 .12900001 C .31800003 .120000008 .296 .114 .277 .114 C .23900002 .114 .21300002 .13700001 .21300002 .18400002 L .21300002 .397 L .35000003 .397 L .35000003 .50200006 L .21400002 .50200006 L .21400002 .642 L .092 .629 Z "/>
</symbol>
<symbol id="font_0_46">
<path d="M 0 .49300004 L 0 0 L .121999997 0 L .121999997 .26000003 C .121999997 .351 .18100001 .38500003 .24500002 .38500003 C .28500004 .38500003 .30800004 .374 .33300004 .35300002 L .38800005 .45900003 C .36100004 .48600004 .31200005 .50600007 .26100005 .50600007 C .21100001 .50600007 .16 .497 .121999997 .43600003 L .113000009 .49300004 L 0 .49300004 Z "/>
</symbol>
<symbol id="font_0_41">
<path d="M .45000003 0 L .45000003 .264 C .45000003 .32900004 .49100004 .386 .557 .386 C .623 .386 .65000006 .33100004 .65000006 .266 L .65000006 0 L .772 0 L .772 .266 C .772 .41400004 .703 .5 .563 .5 C .49900005 .5 .44200004 .48000003 .39800004 .41000004 C .37000004 .47800002 .31100003 .50200006 .25200004 .50200006 C .205 .50200006 .148 .48400004 .121999997 .43400003 L .113000009 .49400003 L 0 .49400003 L 0 0 L .121999997 0 L .121999997 .264 C .121999997 .32900004 .161 .388 .22700002 .388 C .29400004 .388 .32800005 .32900004 .32800005 .264 L .32800005 0 L .45000003 0 Z "/>
</symbol>
<symbol id="font_0_3d">
<path d="M .133 .49500004 L .133 0 L .011000002 0 L .011000002 .49500004 L .133 .49500004 M 0 .632 C 0 .537 .14400001 .537 .14400001 .632 C .14400001 .72700008 0 .72700008 0 .632 Z "/>
</symbol>
<symbol id="font_0_42">
<path d="M .48800005 0 L .48800005 .259 C .48800005 .41400004 .395 .50100007 .279 .50100007 C .21700001 .50100007 .16700001 .476 .11700001 .42700003 L .10900001 .49400003 L 0 .49400003 L 0 0 L .12100001 0 L .12100001 .252 C .12100001 .32700003 .172 .39000003 .24700001 .39000003 C .32500003 .39000003 .36600004 .333 .36600004 .25800003 L .36600004 0 L .48800005 0 Z "/>
</symbol>
<symbol id="font_0_38">
<path d="M .26200003 .40200005 C .33900003 .40200005 .40500004 .344 .40500004 .25800003 C .40500004 .16900002 .33900003 .113000009 .26200003 .113000009 C .184 .113000009 .12200001 .17200002 .12200001 .25800003 C .12200001 .34700004 .184 .40200005 .26200003 .40200005 M .41300003 .71000006 L .41300003 .43700005 C .38400004 .48800005 .30300004 .516 .25100003 .516 C .10700001 .516 0 .42800004 0 .25800003 C 0 .096 .109 0 .25400005 0 C .31400005 0 .37500004 .020000002 .41300003 .079 L .42100004 .011000001 L .535 .011000001 L .535 .71000006 L .41300003 .71000006 Z "/>
</symbol>
<symbol id="font_0_3">
<path d="M 0 0 Z "/>
</symbol>
<use xlink:href="#font_0_1e" transform="matrix(61.475,0,0,-61.475,217.5215,409.51469)" fill="#38546b"/>
<use xlink:href="#font_0_39" transform="matrix(61.475,0,0,-61.475,260.21324,410.31385)" fill="#38546b"/>
<use xlink:href="#font_0_48" transform="matrix(61.475,0,0,-61.475,293.06864,410.12944)" fill="#38546b"/>
<use xlink:href="#font_0_39" transform="matrix(61.475,0,0,-61.475,318.36253,410.31385)" fill="#38546b"/>
<use xlink:href="#font_0_46" transform="matrix(61.475,0,0,-61.475,355.0908,409.51469)" fill="#38546b"/>
<use xlink:href="#font_0_41" transform="matrix(61.475,0,0,-61.475,381.30699,409.51469)" fill="#38546b"/>
<use xlink:href="#font_0_3d" transform="matrix(61.475,0,0,-61.475,435.24845,409.51469)" fill="#38546b"/>
<use xlink:href="#font_0_42" transform="matrix(61.475,0,0,-61.475,449.53874,409.51469)" fill="#38546b"/>
<use xlink:href="#font_0_39" transform="matrix(61.475,0,0,-61.475,484.1771,410.31385)" fill="#38546b"/>
<use xlink:href="#font_0_38" transform="matrix(61.475,0,0,-61.475,519.49179,410.19093)" fill="#38546b"/>
<use xlink:href="#font_0_3" transform="matrix(61.475,0,0,-61.475,556.43826,409.51469)" fill="#38546b"/>
<g id="Layer-2" data-name="Corel_OTF">
</g>
<symbol id="font_0_1c">
<path d="M .628 0 L .772 0 L .45800004 .70100006 L .314 .70100006 L 0 0 L .143 0 L .20300001 .132 L .569 .132 L .628 0 M .51600006 .25500003 L .256 .25500003 L .386 .554 L .51600006 .25500003 Z "/>
</symbol>
<symbol id="font_0_23">
<path d="M .13100001 0 L .13100001 .70100006 L 0 .70100006 L 0 0 L .13100001 0 Z "/>
</symbol>
<use xlink:href="#font_0_1c" transform="matrix(61.475,0,0,-61.475,568.2466,409.51469)" fill="#f67b21"/>
<use xlink:href="#font_0_23" transform="matrix(61.475,0,0,-61.475,618.31539,409.51469)" fill="#f67b21"/>
<path transform="matrix(1,0,0,-1,1,596.2756)" d="M 340.0282 376.3338 C 346.7574 376.7153 352.5219 371.5693 352.9035 364.8404 C 353.285 358.1113 348.139 352.3467 341.4101 351.9652 C 334.6812 351.5837 328.9167 356.7297 328.5351 363.4586 C 328.1536 370.1877 333.2993 375.9523 340.0282 376.3338 Z M 480.0447 386.877 C 486.2965 387.2316 491.6523 382.4507 492.0066 376.1989 C 492.3612 369.9471 487.5803 364.5916 481.3285 364.2369 C 479.4902 364.1326 477.7296 364.4728 476.151 365.1633 L 476.0461 365.0902 C 469.8626 363.6374 465.0429 360.0513 461.2394 354.8775 C 461.3683 354.2244 461.4548 353.5549 461.4936 352.8714 C 461.9469 344.8774 455.8337 338.0292 447.8397 337.576 C 439.8457 337.1227 432.9975 343.2362 432.5443 351.2299 C 432.091 359.2239 438.2045 366.0721 446.1982 366.5254 C 449.2154 366.6963 452.069 365.9318 454.477 364.4841 L 454.521 364.5147 C 460.5058 366.4437 465.4672 369.8436 469.3779 374.7515 L 469.3666 374.9151 C 469.012 381.1669 473.7932 386.5226 480.0447 386.877 Z M 411.1903 383.1565 C 413.0254 383.2605 414.7832 382.9215 416.3601 382.2333 L 416.4236 382.2778 C 421.9628 383.8839 426.6371 386.8254 430.0217 391.7568 C 429.8902 392.4207 429.802 393.1013 429.7626 393.7961 C 429.3034 401.8935 435.496 408.8305 443.5934 409.2897 C 451.6909 409.7489 458.6275 403.5563 459.0867 395.4589 C 459.546 387.3614 453.3537 380.4245 445.2562 379.9653 C 442.1466 379.7889 439.2091 380.5946 436.7429 382.1111 C 431.3262 381.1226 426.7091 378.1409 423.148 372.5379 L 423.1522 372.4781 C 423.5068 366.2266 418.7259 360.8708 412.4741 360.5162 C 406.2223 360.1619 400.8668 364.9428 400.5122 371.1946 C 400.1579 377.4461 404.9388 382.8019 411.1903 383.1565 Z M 482.7679 310.8844 C 484.2386 310.9677 485.6593 310.7642 486.9754 310.3231 L 487.0826 310.4118 C 495.2387 313.42 501.0191 318.0047 504.0147 324.4422 L 504.0848 324.5003 C 504.1633 329.2268 507.8806 333.1613 512.676 333.4334 C 517.6981 333.718 522.0003 329.8776 522.2852 324.8555 C 522.57 319.8334 518.7294 315.5309 513.7072 315.2463 C 513.0065 315.2066 512.3203 315.2475 511.6564 315.3603 L 511.6337 315.3416 C 504.4946 312.3833 498.7655 307.7116 494.5584 301.1941 L 494.5462 301.1842 C 494.5861 300.8911 494.6151 300.594 494.6321 300.2936 C 494.9836 294.0931 490.2418 288.7812 484.0413 288.4294 C 477.8405 288.078 472.5286 292.8197 472.1771 299.0203 C 471.8256 305.221 476.5674 310.5329 482.7679 310.8844 Z M 396.2186 315.4723 C 403.4957 315.885 409.7293 310.32 410.142 303.0432 C 410.5548 295.7664 404.9898 289.5324 397.713 289.12 C 390.4362 288.7072 384.2022 294.2722 383.7895 301.549 C 383.6889 303.3218 383.944 305.0323 384.4913 306.612 L 384.4738 306.6574 C 382.2001 312.7453 377.5005 316.9573 371.4596 320.1239 C 370.1106 319.6205 368.6644 319.3084 367.1515 319.2228 C 359.0546 318.7636 352.1183 324.9556 351.6593 333.0524 C 351.2001 341.149 357.3921 348.0854 365.489 348.5446 C 373.5859 349.0038 380.5223 342.8118 380.9812 334.715 C 381.1093 332.456 380.7193 330.2875 379.9148 328.3248 C 382.6426 322.4789 386.9016 317.9815 392.8932 315.0102 L 393.0849 314.9121 C 394.0818 315.218 395.1309 315.4107 396.2186 315.4723 Z M 464.2775 278.2766 C 471.1989 278.545 477.0862 273.2179 477.4802 266.2741 C 477.8782 259.2527 472.5088 253.2379 465.4877 252.8399 C 458.4665 252.4416 452.4517 257.811 452.0537 264.8322 C 451.8746 267.9917 452.8638 270.9471 454.6454 273.2791 C 453.1445 279.1176 450.5117 284.3824 446.9284 289.1648 C 446.421 289.0854 445.9051 289.0301 445.3815 289.0003 C 436.7554 288.5111 429.3655 295.1079 428.8765 303.734 C 428.7251 306.4011 429.2521 308.9494 430.306 311.2129 C 426.0008 316.8082 420.8009 321.6866 414.1545 325.4017 L 414.0077 325.542 C 412.2845 324.7622 410.3912 324.2795 408.3894 324.1661 C 399.6771 323.672 392.2135 330.3349 391.7194 339.0471 C 391.2253 347.7594 397.8879 355.2231 406.6002 355.7169 C 415.3124 356.2109 422.7761 349.5484 423.2701 340.8361 C 423.4048 338.4607 423.0065 336.1779 422.1805 334.1044 L 422.2327 334.0548 C 425.8814 327.7556 431.0671 322.7134 437.2702 318.4997 C 439.1782 319.4943 441.3226 320.1094 443.6101 320.239 C 446.944 320.4281 450.0927 319.5578 452.73 317.9222 C 460.0791 322.0362 466.638 327.4645 471.9192 335.0188 L 471.9291 335.0271 C 471.8577 335.4528 471.8081 335.8865 471.7831 336.3273 C 471.4126 342.8637 476.411 348.463 482.9474 348.8338 C 489.4835 349.2043 495.0828 344.2056 495.4535 337.6695 C 495.824 331.1334 490.8257 325.5338 484.2893 325.1633 C 482.6041 325.0678 480.9815 325.33 479.4948 325.8825 L 479.3953 325.8 C 471.5538 321.9191 464.9939 316.4445 459.1706 310.0521 C 459.6976 308.6274 460.0247 307.101 460.1151 305.5054 C 460.3782 300.8662 458.591 296.585 455.5417 293.5423 C 457.1629 288.1182 460.1551 283.0507 464.2775 278.2766 Z M 361.6713 311.4136 C 366.1387 311.667 369.9658 308.2507 370.2192 303.7833 C 370.4723 299.3159 367.056 295.4889 362.5886 295.2354 C 358.1212 294.982 354.2941 298.3986 354.0407 302.866 C 353.7876 307.3334 357.2039 311.1605 361.6713 311.4136 Z M 331.1014 339.1866 C 337.8302 339.5682 343.5948 334.4224 343.9763 327.6933 C 344.3579 320.9644 339.2121 315.1998 332.483 314.8183 C 325.7541 314.4368 319.9895 319.5825 319.608 326.3117 C 319.2265 333.0405 324.3725 338.8051 331.1014 339.1866 Z M 505.8573 363.9637 C 510.3247 364.2171 514.1517 360.8008 514.4049 356.3334 C 514.6583 351.866 511.242 348.0389 506.7746 347.7855 C 502.3071 347.5321 498.4801 350.9487 498.2267 355.4161 C 497.9733 359.8832 501.3899 363.7106 505.8573 363.9637 Z M 401.6925 407.56 C 406.1599 407.8134 409.9873 404.3968 410.2404 399.9294 C 410.4938 395.462 407.0775 391.6349 402.6101 391.3818 C 398.1427 391.1284 394.3157 394.5447 394.0622 399.0121 C 393.8088 403.4795 397.2254 407.3066 401.6925 407.56 Z M 373.6752 395.6372 C 381.8279 396.0995 388.8119 389.8647 389.2742 381.7123 C 389.7366 373.5595 383.502 366.5755 375.3493 366.1132 C 367.1969 365.6509 360.2126 371.8854 359.7503 380.0381 C 359.2879 388.1908 365.5227 395.1748 373.6752 395.6372 " fill="#f67b21" fill-rule="evenodd"/>
</g>
</g>
</svg>
