<svg width="192" height="192" viewBox="0 0 192 192" fill="none" xmlns="http://www.w3.org/2000/svg">
<path fill-rule="evenodd" clip-rule="evenodd" d="M68.4251 98.4459C68.4251 98.6866 73.5396 100.383 84.6866 103.839C93.6303 106.612 101.448 108.982 101.767 109.017C103.738 103.882 101.767 109.017 103.738 103.882L102.81 103.574C100.104 102.678 70.2756 93.4986 70.0685 93.4986C70.0685 93.4986 70.0685 93.4986 68.4251 98.4459Z" fill="#01A982"/>
<path fill-rule="evenodd" clip-rule="evenodd" d="M103.578 7.16439C103.276 8.18682 99.8054 20.0237 95.8656 33.4691C91.9259 46.9143 88.6543 57.9634 88.5951 58.0226C88.5361 58.0816 86.7827 57.6006 84.6989 56.9538C82.6151 56.3067 80.8297 55.8716 80.7312 55.987C80.3436 56.4405 79.1307 60.9886 79.3435 61.1899C79.7526 61.5767 92.3274 65.3324 92.5058 65.1209C92.602 65.0065 96.1192 53.1455 100.322 38.7628C104.524 24.3801 108.008 12.5624 108.063 12.5011C108.187 12.3627 117.696 15.0316 117.962 15.2797C118.068 15.3795 115.807 23.4728 112.937 33.2648C109.467 45.1063 107.813 51.123 108.001 51.2307C108.457 51.4922 113.075 52.7705 113.182 52.6643C113.329 52.5172 125.358 11.399 125.275 11.3272C125.197 11.26 104.378 5.30566 104.221 5.30566C104.169 5.30566 103.88 6.14196 103.578 7.16439ZM102.587 54.5159C98.8096 55.8988 96.211 59.0645 95.5139 63.1332C94.3176 70.1172 100.799 76.5655 107.807 75.3649C115.038 74.1266 118.976 66.6509 115.881 60.0382C114.866 57.8701 112.996 56.0121 110.78 54.9707C109.252 54.2528 108.754 54.1513 106.488 54.0926C104.48 54.0408 103.634 54.1329 102.587 54.5159ZM108.095 60.0544C110.648 61.1212 111.916 64.1218 110.866 66.6125C110.477 67.5352 109.181 68.8837 108.195 69.3903C106.772 70.122 104.087 69.6439 102.679 68.4074C101.409 67.2929 100.839 64.5769 101.505 62.8148C102.426 60.3772 105.642 59.0296 108.095 60.0544ZM119.311 67.1565C118.808 68.6607 117.87 72.0195 117.939 72.0743C117.986 72.1123 118.942 72.5797 120.062 73.1129C123.597 74.7953 125.816 77.6616 127.012 82.0905C127.658 84.4794 127.784 90.423 127.268 94.1402C126.534 99.431 123.818 109.563 123.152 109.498C123.011 109.484 119.521 108.456 115.396 107.213C111.271 105.97 107.824 105.024 107.737 105.112C107.649 105.199 105.877 111.434 103.797 118.968C101.718 126.502 99.9372 132.794 99.84 132.952C99.7126 133.158 94.0349 133.238 79.4247 133.238H59.1861V155.286H127.382V124.085L124.572 122.893C123.027 122.237 121.7 121.701 121.624 121.701C121.548 121.701 121.486 127.989 121.486 135.674V149.648L64.9546 149.518V139.006L84.6148 138.94C103.059 138.879 104.283 138.847 104.404 138.428C104.475 138.182 106.116 132.212 108.052 125.162C109.987 118.111 111.609 112.295 111.656 112.237C111.703 112.179 115.09 113.148 119.182 114.391C123.274 115.633 126.676 116.596 126.742 116.529C127.101 116.171 129.562 109.482 130.439 106.483C132.466 99.5505 133.316 94.1845 133.309 88.3717C133.295 77.8892 129.804 71.3452 122.345 67.8226C120.135 66.7786 119.485 66.6361 119.311 67.1565ZM88.1567 68.5279C88.1567 68.5843 87.0494 72.6186 85.696 77.4931C84.3425 82.3676 83.3032 86.4237 83.386 86.5066C83.6398 86.7604 101.044 91.9781 101.181 91.8415C101.499 91.5231 105.079 78.7863 104.897 78.6186C104.51 78.2605 99.8772 77.0616 99.6805 77.2685C99.5723 77.3824 99.015 79.078 98.442 81.0365C97.869 82.995 97.3588 84.6391 97.308 84.6899C97.2232 84.7745 90.4656 82.8183 90.312 82.6647C90.2748 82.6278 91.0299 79.7723 91.9895 76.3192C93.5175 70.8217 93.6826 70.0208 93.317 69.8808C92.4889 69.5636 88.1567 68.4279 88.1567 68.5279Z" fill="black"/>
<path d="M73.3665 177.508H73.4343L76.4006 173.033V179.746H78.5364V169.338H76.5532L73.4174 174.254L70.2646 169.338H68.2475V179.746H70.3663V173.033L73.3665 177.508ZM81.9711 176.44H86.8528V175.762C86.8528 173.525 85.7171 171.999 83.5136 171.999C81.4456 171.999 79.954 173.643 79.954 176.017C79.954 178.423 81.5304 179.915 83.8356 179.915C84.8527 179.915 85.7002 179.712 86.3274 179.254V177.525C85.5815 178 84.9883 178.186 84.1577 178.186C83.039 178.186 82.1406 177.678 81.9711 176.44ZM83.5644 173.677C84.395 173.677 84.8527 174.254 84.9035 175.067H82.0389C82.2762 174.118 82.8695 173.677 83.5644 173.677ZM89.8007 176.44H94.6825V175.762C94.6825 173.525 93.5468 171.999 91.3432 171.999C89.2753 171.999 87.7836 173.643 87.7836 176.017C87.7836 178.423 89.36 179.915 91.6653 179.915C92.6823 179.915 93.5298 179.712 94.157 179.254V177.525C93.4112 178 92.8179 178.186 91.9873 178.186C90.8686 178.186 89.9702 177.678 89.8007 176.44ZM91.3941 173.677C92.2247 173.677 92.6823 174.254 92.7332 175.067H89.8685C90.1058 174.118 90.6991 173.677 91.3941 173.677ZM98.9718 179.746V173.864H100.582V172.169H98.9718V170.118H96.87V172.169H95.4292V173.864H96.87V179.746H98.9718ZM108.561 179.746V172.169H106.442V176.983C106.289 177.644 105.73 178.034 105.086 178.034C104.255 178.034 103.865 177.491 103.865 176.695V172.169H101.764V177.118C101.764 178.796 102.73 179.915 104.425 179.915C105.306 179.915 106.035 179.525 106.459 179.051V179.746H108.561ZM112.475 182.542V179.118C112.814 179.525 113.56 179.915 114.374 179.915C116.577 179.915 117.831 178.101 117.831 175.966C117.831 173.83 116.577 171.999 114.374 171.999C113.56 171.999 112.814 172.389 112.475 172.796V172.169H110.373V182.542H112.475ZM112.475 177.203V174.711C112.729 174.203 113.272 173.83 113.899 173.83C115.035 173.83 115.713 174.745 115.713 175.966C115.713 177.169 115.035 178.084 113.899 178.084C113.289 178.084 112.729 177.729 112.475 177.203ZM118.857 177.203V179.152C119.502 179.644 120.536 179.915 121.536 179.915C123.315 179.915 124.655 179.101 124.655 177.576C124.655 176.356 123.993 175.678 122.553 175.271L121.705 175.016C121.18 174.847 120.892 174.711 120.892 174.305C120.892 173.881 121.332 173.66 121.909 173.66C122.773 173.66 123.553 174.05 124.231 174.593V172.677C123.553 172.237 122.773 171.999 121.807 171.999C120.112 171.999 118.841 172.898 118.841 174.372C118.841 175.678 119.671 176.305 120.993 176.661L121.722 176.864C122.248 177.034 122.587 177.186 122.587 177.61C122.587 178.068 122.095 178.254 121.468 178.254C120.637 178.254 119.586 177.864 118.857 177.203Z" fill="black"/>
</svg>
