<svg width="192" height="192" viewBox="0 0 192 192" fill="none" xmlns="http://www.w3.org/2000/svg">
<path d="M96.0574 14.8896L3.35596 47.4627L13.6062 51.1675L96.0574 22.5576L166.85 47.4366L96.0574 71.7159L38.0597 51.9379L27.3215 55.6587L96.0574 79.3234L188.644 47.4366L96.0574 14.8896Z" fill="#FF8300"/>
<path d="M57.4474 75.5875L50.4058 72.874V91.8512C51.5174 106.401 84.2727 114.204 96.1334 113.403V106.401C77.8677 107.345 57.4474 95.9232 57.4474 91.1455V75.5875Z" fill="#FF8300"/>
<path d="M134.819 75.5875L141.861 72.874V91.8512C140.749 106.401 107.994 114.204 96.1335 113.403V106.401C114.399 107.345 134.819 95.9232 134.819 91.1455V75.5875Z" fill="#FF8300"/>
<path d="M160.034 67.5066L167.168 65.1699V95.3715H160.034V67.5066Z" fill="#00DBC8"/>
<path d="M160.034 100.247L167.168 100.247V107.241H160.034V100.247Z" fill="#00DBC8"/>
<path d="M160.034 112.116L167.168 112.116V119.11H160.034V112.116Z" fill="#00DBC8"/>
<path d="M36.87 145.599H36.9461L40.2764 140.575V148.111H42.6743V136.426H40.4477L36.9271 141.945L33.3874 136.426H31.1228V148.111H33.5016V140.575L36.87 145.599ZM52.3348 148.111V139.604H49.956V145.009C49.7847 145.751 49.1567 146.189 48.4335 146.189C47.501 146.189 47.0633 145.58 47.0633 144.685V139.604H44.7036V145.161C44.7036 147.045 45.7883 148.301 47.6913 148.301C48.6809 148.301 49.4992 147.863 49.975 147.331V148.111H52.3348ZM54.3697 139.604V148.111H56.7295V142.725C56.9198 141.983 57.5478 141.545 58.2709 141.545C59.2034 141.545 59.6602 142.154 59.6602 143.049V148.111H62.0199V142.554C62.0199 140.67 60.9352 139.414 59.0131 139.414C58.0235 139.414 57.1862 139.852 56.7295 140.384V139.604H54.3697ZM63.445 143.867C63.445 146.588 65.329 148.301 67.7459 148.301C68.6022 148.301 69.4396 148.111 70.0486 147.635V145.504C69.4776 145.998 68.7925 146.265 68.0313 146.265C66.7753 146.265 65.7857 145.37 65.7857 143.867C65.7857 142.345 66.7753 141.469 68.0313 141.469C68.7925 141.469 69.4776 141.717 70.0486 142.23V140.08C69.4396 139.604 68.6022 139.414 67.7459 139.414C65.329 139.414 63.445 141.127 63.445 143.867ZM71.6904 135.741V148.111H74.0502V142.725C74.2405 141.983 74.8685 141.545 75.5916 141.545C76.5241 141.545 76.9808 142.154 76.9808 143.049V148.111H79.3406V142.554C79.3406 140.67 78.2559 139.414 76.3338 139.414C75.3442 139.414 74.5069 139.852 74.0502 140.384V135.741H71.6904ZM89.8035 138.177C90.7741 138.177 91.6304 138.634 92.3155 139.243V137.016C91.6495 136.54 90.717 136.236 89.7084 136.236C87.634 136.236 86.1306 137.454 86.1306 139.395C86.1306 140.251 86.3971 140.879 86.8918 141.564C85.7691 142.173 84.9698 143.315 84.9698 144.647C84.9698 146.836 86.5683 148.301 88.9471 148.301C90.108 148.301 91.1737 147.902 92.0491 147.216L92.8674 148.111H95.722L93.4574 145.618C94.1044 144.59 94.485 143.353 94.504 142.078H92.3726C92.3536 142.801 92.2394 143.467 92.0301 144.038L89.3848 141.108C88.89 140.556 88.4143 140.042 88.4143 139.376C88.4143 138.615 89.0042 138.177 89.8035 138.177ZM88.9662 146.417C87.8434 146.417 87.1583 145.675 87.1583 144.647C87.1583 143.905 87.5579 143.277 88.1479 142.973L90.7741 145.827C90.2602 146.208 89.6513 146.417 88.9662 146.417ZM101.019 136.426V148.111H108.897V145.96H103.455V136.426H101.019ZM112.226 144.4H117.707V143.639C117.707 141.127 116.432 139.414 113.958 139.414C111.636 139.414 109.962 141.26 109.962 143.924C109.962 146.626 111.732 148.301 114.32 148.301C115.462 148.301 116.413 148.073 117.117 147.559V145.618C116.28 146.151 115.614 146.36 114.681 146.36C113.425 146.36 112.417 145.789 112.226 144.4ZM114.015 141.298C114.948 141.298 115.462 141.945 115.519 142.858H112.303C112.569 141.793 113.235 141.298 114.015 141.298ZM123.929 142.801V143.277C123.587 143.03 122.769 142.782 122.026 142.782C120.161 142.782 118.734 143.886 118.734 145.504C118.734 147.273 120.161 148.263 121.874 148.263C122.807 148.263 123.644 147.94 123.929 147.654V148.111H126.194V142.687C126.194 140.613 124.881 139.414 122.54 139.414C121.417 139.414 120.314 139.737 119.705 140.118V142.154C120.371 141.717 121.17 141.469 122.026 141.469C123.225 141.469 123.929 141.983 123.929 142.801ZM123.929 145.18V145.789C123.72 146.246 123.092 146.531 122.426 146.531C121.684 146.531 120.923 146.227 120.923 145.485C120.923 144.761 121.684 144.438 122.426 144.438C123.092 144.438 123.72 144.723 123.929 145.18ZM133.307 141.926V139.566C133.174 139.49 132.812 139.414 132.413 139.414C131.575 139.414 130.871 139.833 130.51 140.442V139.604H128.15V148.111H130.51V142.839C130.681 142.059 131.328 141.64 132.127 141.64C132.565 141.64 132.984 141.736 133.307 141.926ZM134.822 139.604V148.111H137.181V142.725C137.372 141.983 138 141.545 138.723 141.545C139.655 141.545 140.112 142.154 140.112 143.049V148.111H142.472V142.554C142.472 140.67 141.387 139.414 139.465 139.414C138.476 139.414 137.638 139.852 137.181 140.384V139.604H134.822ZM30.4948 159.426V161.558H34.2438V171.111H36.6987V161.558H40.4668V159.426H30.4948ZM42.4791 167.4H47.9598V166.639C47.9598 164.127 46.6848 162.414 44.2108 162.414C41.8891 162.414 40.2144 164.26 40.2144 166.924C40.2144 169.626 41.9843 171.301 44.5724 171.301C45.7143 171.301 46.6658 171.073 47.3699 170.559V168.618C46.5326 169.151 45.8665 169.36 44.934 169.36C43.678 169.36 42.6694 168.789 42.4791 167.4ZM44.2679 164.298C45.2004 164.298 45.7143 164.945 45.7713 165.858H42.5552C42.8216 164.793 43.4877 164.298 44.2679 164.298ZM49.0049 166.867C49.0049 169.588 50.8889 171.301 53.3058 171.301C54.1621 171.301 54.9995 171.111 55.6085 170.635V168.504C55.0375 168.998 54.3524 169.265 53.5912 169.265C52.3352 169.265 51.3456 168.37 51.3456 166.867C51.3456 165.345 52.3352 164.469 53.5912 164.469C54.3524 164.469 55.0375 164.717 55.6085 165.23V163.08C54.9995 162.604 54.1621 162.414 53.3058 162.414C50.8889 162.414 49.0049 164.127 49.0049 166.867ZM57.2503 158.741V171.111H59.6101V165.725C59.8004 164.983 60.4284 164.545 61.1515 164.545C62.084 164.545 62.5407 165.154 62.5407 166.049V171.111H64.9005V165.554C64.9005 163.67 63.8158 162.414 61.8937 162.414C60.9041 162.414 60.0668 162.852 59.6101 163.384V158.741H57.2503ZM66.8584 162.604V171.111H69.2182V165.725C69.4085 164.983 70.0365 164.545 70.7597 164.545C71.6922 164.545 72.1489 165.154 72.1489 166.049V171.111H74.5087V165.554C74.5087 163.67 73.4239 162.414 71.5019 162.414C70.5123 162.414 69.6749 162.852 69.2182 163.384V162.604H66.8584ZM84.2691 166.867C84.2691 164.241 82.5754 162.414 80.1014 162.414C77.6274 162.414 75.9337 164.241 75.9337 166.867C75.9337 169.474 77.6274 171.301 80.1014 171.301C82.5754 171.301 84.2691 169.474 84.2691 166.867ZM81.9283 166.867C81.9283 168.275 81.2813 169.303 80.1014 169.303C78.9215 169.303 78.2745 168.275 78.2745 166.867C78.2745 165.44 78.9215 164.412 80.1014 164.412C81.2813 164.412 81.9283 165.44 81.9283 166.867ZM88.1372 171.111V158.741H85.7774V171.111H88.1372ZM98.003 166.867C98.003 164.241 96.3092 162.414 93.8353 162.414C91.3613 162.414 89.6676 164.241 89.6676 166.867C89.6676 169.474 91.3613 171.301 93.8353 171.301C96.3092 171.301 98.003 169.474 98.003 166.867ZM95.6622 166.867C95.6622 168.275 95.0152 169.303 93.8353 169.303C92.6554 169.303 92.0084 168.275 92.0084 166.867C92.0084 165.44 92.6554 164.412 93.8353 164.412C95.0152 164.412 95.6622 165.44 95.6622 166.867ZM104.971 170.14V170.407C104.971 171.796 103.944 172.443 102.669 172.443C101.565 172.443 100.651 172.158 99.7759 171.396V173.718C100.461 174.156 101.546 174.441 102.707 174.441C105.028 174.441 107.331 173.299 107.331 170.178V162.604H104.971V163.27C104.591 162.833 103.848 162.414 102.897 162.414C100.442 162.414 99.0528 164.393 99.0528 166.715C99.0528 169.017 100.442 170.997 102.897 170.997C103.848 170.997 104.591 170.578 104.971 170.14ZM104.971 165.268V168.142C104.705 168.637 104.096 169.017 103.392 169.017C102.136 169.017 101.413 168.047 101.413 166.715C101.413 165.364 102.136 164.393 103.392 164.393C104.096 164.393 104.705 164.793 104.971 165.268ZM110.617 174.251H112.938L117.372 162.604H114.994L113.052 168.256L111.092 162.604H108.599L111.854 171.149L110.617 174.251ZM122.153 159.426V161.558H125.902V171.111H128.357V161.558H132.125V159.426H122.153ZM137.069 165.801V166.277C136.726 166.03 135.908 165.782 135.166 165.782C133.301 165.782 131.873 166.886 131.873 168.504C131.873 170.273 133.301 171.263 135.013 171.263C135.946 171.263 136.783 170.94 137.069 170.654V171.111H139.333V165.687C139.333 163.613 138.02 162.414 135.679 162.414C134.557 162.414 133.453 162.737 132.844 163.118V165.154C133.51 164.717 134.309 164.469 135.166 164.469C136.364 164.469 137.069 164.983 137.069 165.801ZM137.069 168.18V168.789C136.859 169.246 136.231 169.531 135.565 169.531C134.823 169.531 134.062 169.227 134.062 168.485C134.062 167.761 134.823 167.438 135.565 167.438C136.231 167.438 136.859 167.723 137.069 168.18ZM143.649 171.111V158.741H141.289V171.111H143.649ZM153.895 171.111L150.279 166.505L153.819 162.604H150.984L148.072 165.973V158.741H145.712V171.111H148.072V167.191L151.136 171.111H153.895ZM154.531 168.256V170.445C155.254 170.997 156.415 171.301 157.538 171.301C159.536 171.301 161.04 170.388 161.04 168.675C161.04 167.305 160.298 166.544 158.68 166.087L157.728 165.801C157.138 165.611 156.815 165.459 156.815 165.002C156.815 164.526 157.31 164.279 157.957 164.279C158.927 164.279 159.803 164.717 160.564 165.326V163.175C159.803 162.68 158.927 162.414 157.843 162.414C155.94 162.414 154.512 163.423 154.512 165.078C154.512 166.544 155.445 167.248 156.929 167.647L157.747 167.876C158.337 168.066 158.718 168.237 158.718 168.713C158.718 169.227 158.166 169.436 157.462 169.436C156.529 169.436 155.35 168.998 154.531 168.256Z" fill="black"/>
</svg>
