<svg width="192" height="192" viewBox="0 0 192 192" fill="none" xmlns="http://www.w3.org/2000/svg">
<path d="M59.9781 85.5592V133.815H30.0731V80.1219L91.2424 52.9355" stroke="#FF8300" stroke-width="5.43727"/>
<path d="M25.3153 152.166H64.7356" stroke="black" stroke-width="5.43727"/>
<path d="M86.4847 41.3812V14.8745H166.685V95.0743H86.4847V71.9659" stroke="black" stroke-width="5.43727"/>
<path d="M97.3589 50.2047L110.658 44.1977" stroke="black" stroke-width="5.43727"/>
<path d="M35.5103 45.459L34.8307 30.5065C35.0572 27.7878 38.7727 21.6709 46.3849 21.6709C53.9971 21.6709 56.5798 29.1472 56.5798 30.5065C56.5798 31.8658 55.9001 45.459 55.9001 45.459C55.2204 49.5369 53.8611 55.6539 45.0256 55.6539C37.3361 55.6539 35.7369 48.4042 35.5103 45.459Z" stroke="black" stroke-width="5.43727"/>
<path d="M15.0447 173.074H13.1416L11.0863 180.934L9.18329 173.074H6.72837L9.77324 184.759H11.9998L14.0551 177.051L16.1104 184.759H18.3369L21.3818 173.074H18.984L17.0619 180.934L15.0447 173.074ZM29.9003 180.515C29.9003 177.889 28.2066 176.062 25.7327 176.062C23.2587 176.062 21.565 177.889 21.565 180.515C21.565 183.122 23.2587 184.949 25.7327 184.949C28.2066 184.949 29.9003 183.122 29.9003 180.515ZM27.5596 180.515C27.5596 181.923 26.9125 182.951 25.7327 182.951C24.5528 182.951 23.9057 181.923 23.9057 180.515C23.9057 179.088 24.5528 178.06 25.7327 178.06C26.9125 178.06 27.5596 179.088 27.5596 180.515ZM36.5659 178.574V176.214C36.4327 176.138 36.0711 176.062 35.6715 176.062C34.8341 176.062 34.13 176.481 33.7684 177.09V176.252H31.4086V184.759H33.7684V179.487C33.9397 178.707 34.5867 178.288 35.386 178.288C35.8237 178.288 36.2424 178.384 36.5659 178.574ZM46.2635 184.759L42.6478 180.153L46.1874 176.252H43.3519L40.4402 179.621V172.389H38.0804V184.759H40.4402V180.839L43.5041 184.759H46.2635ZM46.8996 181.904V184.093C47.6227 184.645 48.7836 184.949 49.9064 184.949C51.9046 184.949 53.408 184.036 53.408 182.323C53.408 180.953 52.6658 180.191 51.0482 179.735L50.0967 179.449C49.5068 179.259 49.1832 179.107 49.1832 178.65C49.1832 178.174 49.678 177.927 50.3251 177.927C51.2956 177.927 52.171 178.365 52.9322 178.974V176.823C52.171 176.328 51.2956 176.062 50.2109 176.062C48.3078 176.062 46.8805 177.07 46.8805 178.726C46.8805 180.191 47.813 180.896 49.2974 181.295L50.1157 181.524C50.7057 181.714 51.0863 181.885 51.0863 182.361C51.0863 182.875 50.5344 183.084 49.8303 183.084C48.8978 183.084 47.7179 182.646 46.8996 181.904ZM54.9923 172.389V184.759H57.3521V179.373C57.5424 178.631 58.1704 178.193 58.8935 178.193C59.826 178.193 60.2827 178.802 60.2827 179.697V184.759H62.6425V179.202C62.6425 177.318 61.5578 176.062 59.6357 176.062C58.6461 176.062 57.8088 176.5 57.3521 177.032V172.389H54.9923ZM72.4029 180.515C72.4029 177.889 70.7092 176.062 68.2352 176.062C65.7613 176.062 64.0676 177.889 64.0676 180.515C64.0676 183.122 65.7613 184.949 68.2352 184.949C70.7092 184.949 72.4029 183.122 72.4029 180.515ZM70.0622 180.515C70.0622 181.923 69.4151 182.951 68.2352 182.951C67.0554 182.951 66.4083 181.923 66.4083 180.515C66.4083 179.088 67.0554 178.06 68.2352 178.06C69.4151 178.06 70.0622 179.088 70.0622 180.515ZM76.271 187.899V184.055C76.6516 184.511 77.489 184.949 78.4024 184.949C80.8764 184.949 82.2846 182.913 82.2846 180.515C82.2846 178.117 80.8764 176.062 78.4024 176.062C77.489 176.062 76.6516 176.5 76.271 176.956V176.252H73.9112V187.899H76.271ZM76.271 181.904V179.107C76.5565 178.536 77.1654 178.117 77.8696 178.117C79.1446 178.117 79.9058 179.145 79.9058 180.515C79.9058 181.866 79.1446 182.894 77.8696 182.894C77.1845 182.894 76.5565 182.494 76.271 181.904ZM83.4366 181.904V184.093C84.1597 184.645 85.3206 184.949 86.4434 184.949C88.4416 184.949 89.945 184.036 89.945 182.323C89.945 180.953 89.2028 180.191 87.5852 179.735L86.6337 179.449C86.0437 179.259 85.7202 179.107 85.7202 178.65C85.7202 178.174 86.215 177.927 86.862 177.927C87.8326 177.927 88.708 178.365 89.4692 178.974V176.823C88.708 176.328 87.8326 176.062 86.7479 176.062C84.8448 176.062 83.4175 177.07 83.4175 178.726C83.4175 180.191 84.35 180.896 85.8344 181.295L86.6527 181.524C87.2427 181.714 87.6233 181.885 87.6233 182.361C87.6233 182.875 87.0714 183.084 86.3673 183.084C85.4348 183.084 84.2549 182.646 83.4366 181.904ZM91.2248 178.745V180.8H95.8111V178.745H91.2248ZM105.65 180.515C105.65 177.889 103.957 176.062 101.483 176.062C99.0088 176.062 97.3151 177.889 97.3151 180.515C97.3151 183.122 99.0088 184.949 101.483 184.949C103.957 184.949 105.65 183.122 105.65 180.515ZM103.31 180.515C103.31 181.923 102.663 182.951 101.483 182.951C100.303 182.951 99.6559 181.923 99.6559 180.515C99.6559 179.088 100.303 178.06 101.483 178.06C102.663 178.06 103.31 179.088 103.31 180.515ZM107.159 176.252V184.759H109.519V179.373C109.709 178.631 110.337 178.193 111.06 178.193C111.993 178.193 112.449 178.802 112.449 179.697V184.759H114.809V179.202C114.809 177.318 113.724 176.062 111.802 176.062C110.813 176.062 109.975 176.5 109.519 177.032V176.252H107.159ZM116.462 178.745V180.8H121.049V178.745H116.462ZM122.902 173.074V184.759H127.032C130.571 184.759 132.798 182.475 132.798 178.916C132.798 175.358 130.571 173.074 127.032 173.074H122.902ZM126.936 182.608H125.319V175.205H126.936C129.163 175.205 130.381 176.633 130.381 178.916C130.381 181.181 129.163 182.608 126.936 182.608ZM136.21 181.048H141.69V180.287C141.69 177.775 140.415 176.062 137.941 176.062C135.62 176.062 133.945 177.908 133.945 180.572C133.945 183.274 135.715 184.949 138.303 184.949C139.445 184.949 140.396 184.721 141.1 184.207V182.266C140.263 182.799 139.597 183.008 138.665 183.008C137.409 183.008 136.4 182.437 136.21 181.048ZM137.999 177.946C138.931 177.946 139.445 178.593 139.502 179.506H136.286C136.552 178.441 137.218 177.946 137.999 177.946ZM150.025 177.147C149.549 176.519 148.75 176.062 147.741 176.062C146.79 176.062 146.01 176.423 145.591 176.956V176.252H143.231V184.759H145.591V179.278C145.743 178.555 146.314 178.174 146.923 178.174C147.741 178.174 148.122 178.783 148.122 179.697V184.759H150.501V179.278C150.653 178.555 151.205 178.174 151.814 178.174C152.632 178.174 153.032 178.783 153.032 179.697V184.759H155.392V179.202C155.392 177.28 154.345 176.062 152.594 176.062C151.395 176.062 150.577 176.538 150.025 177.147ZM162.037 179.449V179.925C161.694 179.678 160.876 179.43 160.134 179.43C158.269 179.43 156.842 180.534 156.842 182.152C156.842 183.921 158.269 184.911 159.982 184.911C160.914 184.911 161.751 184.588 162.037 184.302V184.759H164.301V179.335C164.301 177.261 162.988 176.062 160.648 176.062C159.525 176.062 158.421 176.385 157.812 176.766V178.802C158.478 178.365 159.277 178.117 160.134 178.117C161.333 178.117 162.037 178.631 162.037 179.449ZM162.037 181.828V182.437C161.827 182.894 161.199 183.179 160.533 183.179C159.791 183.179 159.03 182.875 159.03 182.133C159.03 181.409 159.791 181.086 160.533 181.086C161.199 181.086 161.827 181.371 162.037 181.828ZM166.257 176.252V184.759H168.617V179.373C168.807 178.631 169.435 178.193 170.159 178.193C171.091 178.193 171.548 178.802 171.548 179.697V184.759H173.908V179.202C173.908 177.318 172.823 176.062 170.901 176.062C169.911 176.062 169.074 176.5 168.617 177.032V176.252H166.257ZM181.327 184.055V184.759H183.706V172.389H181.327V176.956C180.947 176.5 180.109 176.062 179.196 176.062C176.722 176.062 175.333 178.079 175.333 180.515C175.333 182.951 176.722 184.949 179.196 184.949C180.109 184.949 180.947 184.511 181.327 184.055ZM181.327 179.107V181.904C181.061 182.494 180.433 182.894 179.729 182.894C178.454 182.894 177.692 181.866 177.692 180.515C177.692 179.145 178.454 178.117 179.729 178.117C180.414 178.117 181.061 178.536 181.327 179.107Z" fill="black"/>
</svg>
