<svg width="216" height="216" viewBox="0 0 216 216" fill="none" xmlns="http://www.w3.org/2000/svg">
<path d="M106.68 113.967C106.607 112.575 106.535 111.179 106.462 109.725L102.878 110.138L100.856 110.353L95.6541 110.547C95.6721 110.488 95.6857 110.427 95.695 110.366C95.695 110.366 95.6405 110.337 95.6041 110.324C93.01 109.498 92.0423 107.739 92.0514 105.343C92.0514 95.3564 92.1014 85.3738 92.0242 75.3911C92.0242 73.611 92.5875 72.3554 94.323 71.5501C99.2976 72.0267 104.326 71.664 109.156 70.4803C110.723 70.4225 112.291 70.3523 113.863 70.2986C116.107 70.2243 118.369 70.2986 120.591 70.0467C121.417 69.9057 122.27 69.9803 123.052 70.2617C123.833 70.5431 124.511 71.0198 125.007 71.6368C125.007 71.6368 125.184 71.5666 125.275 71.5294L125.697 73.3921C125.605 73.7101 125.542 74.0349 125.511 74.3627C125.511 82.188 125.511 90.0134 125.511 97.8387C125.54 98.1681 125.602 98.4944 125.697 98.8134C125.714 98.8746 125.726 98.9367 125.734 98.9993C125.734 99.6931 125.734 100.387 125.734 101.064C125.893 103.129 125.434 104.947 123.63 106.434C122.513 107.346 121.218 107.619 119.85 107.817C116.393 108.329 112.931 108.825 109.46 109.279C108.824 109.362 108.761 109.647 108.761 110.105C108.761 111.671 108.729 113.236 108.711 114.805V109.362L106.662 109.601L106.68 113.967ZM99.1068 92.7214C99.1068 93.8117 99.1068 94.9062 99.1068 95.9966C99.1432 97.4587 100.12 98.1608 101.696 97.9213C102.95 97.7272 104.213 97.5661 105.472 97.3885C108.47 96.9755 111.473 96.5624 114.471 96.1123C115.953 95.8934 116.834 95.1541 117.011 93.8778C117.119 93.101 117.108 92.3143 116.979 91.5401C116.766 90.2557 115.925 89.5824 114.521 89.3842C113.74 89.2727 112.968 89.1488 112.191 89.0373C108.706 88.5458 105.226 88.0377 101.742 87.5628C99.9882 87.3232 99.1204 88.0295 99.1068 89.6279C99.1023 90.6935 99.1068 91.6971 99.1068 92.7214ZM119.696 80.6034C119.721 80.2878 119.674 79.9709 119.559 79.6724C119.444 79.3738 119.262 79.0999 119.026 78.8676C118.79 78.6353 118.503 78.4496 118.185 78.3219C117.867 78.1942 117.523 78.1273 117.175 78.1253C116.478 78.1243 115.807 78.366 115.3 78.8008C114.793 79.2356 114.488 79.8304 114.449 80.463C114.457 81.0983 114.729 81.7072 115.212 82.1671C115.694 82.6269 116.35 82.9035 117.047 82.9411C117.391 82.9499 117.734 82.896 118.054 82.7825C118.375 82.6691 118.667 82.4984 118.914 82.2804C119.161 82.0625 119.358 81.8019 119.492 81.5138C119.626 81.2258 119.696 80.9162 119.696 80.6034ZM109.851 80.5291C109.833 79.8921 109.544 79.2863 109.044 78.84C108.543 78.3936 107.872 78.1418 107.171 78.1377C106.467 78.1377 105.792 78.3918 105.295 78.8442C104.797 79.2965 104.518 79.91 104.518 80.5497C104.518 81.1894 104.797 81.8029 105.295 82.2553C105.792 82.7076 106.467 82.9618 107.171 82.9618C107.877 82.9512 108.552 82.6916 109.052 82.2378C109.552 81.7839 109.838 81.1713 109.851 80.5291Z" fill="#7BD1EE"/>
<path d="M125.752 101.081C125.752 100.387 125.752 99.6933 125.752 99.016C128.141 99.904 130.495 100.899 132.934 101.655C136.196 102.667 139.567 103.307 143.011 102.481C144.278 102.172 145.484 101.686 146.586 101.04C148.095 100.168 148.817 98.7806 148.921 97.0459C147.445 96.9055 145.964 96.8063 144.492 96.6329C142.407 96.3727 141.312 95.0262 141.503 93.1098C141.562 92.5316 141.584 91.9534 141.63 91.2678L131.244 90.4004C130.94 88.3353 130.636 86.3363 130.336 84.2423L162.496 73.2932L162.201 73.0991C162.56 72.4424 162.75 71.6163 163.314 71.162C164.45 70.241 166.171 71.0092 166.389 72.4672C167.098 77.1343 167.775 81.8055 168.466 86.4767C168.779 88.579 169.097 90.673 169.397 92.7753C169.588 94.1093 169.052 94.9519 167.925 95.1419C166.698 95.3525 165.912 94.7784 165.517 93.3989C165.476 93.3186 165.426 93.2424 165.367 93.1718L155.672 92.387C154.723 96.8889 154.464 97.1615 150.92 97.2441C150.68 98.8673 150.162 100.408 148.83 101.626C146.641 103.629 143.892 104.435 140.885 104.563C135.855 104.773 131.285 103.229 126.801 101.403C126.46 101.271 126.102 101.188 125.752 101.081ZM145.164 94.8858C145.205 94.766 145.237 94.7041 145.255 94.638C145.664 92.9859 146.704 92.197 148.353 92.2673C150.003 92.3375 150.925 93.2874 151.17 94.9271C151.196 95.0364 151.251 95.1382 151.331 95.2238C151.41 95.3095 151.511 95.3763 151.624 95.4186C152.533 95.5549 153.201 95.2369 153.378 94.3902C153.523 93.7004 153.533 92.99 153.614 92.1888L143.62 91.3875C143.333 94.5347 143.397 94.6793 145.164 94.9064V94.8858ZM149.135 95.1832C149.221 94.4439 148.908 94.0969 148.226 94.0639C147.545 94.0309 147.213 94.3902 147.218 95.0923L149.135 95.1832Z" fill="#0B4975"/>
<path d="M94.3232 71.5501C92.5878 72.3761 92.0108 73.6152 92.0244 75.3911C92.1017 85.3738 92.0744 95.3565 92.0517 105.343C92.0517 107.739 93.0103 109.494 95.6044 110.324C95.6407 110.324 95.6952 110.357 95.6952 110.366C95.686 110.427 95.6723 110.488 95.6543 110.547C93.1511 109.977 90.6161 109.506 88.1583 108.813C86.2287 108.291 84.3648 107.587 82.5976 106.71C80.9393 105.855 80.2443 104.323 80.2533 102.543C80.2806 98.3839 80.2533 94.2206 80.2533 90.0574C80.2291 89.6891 80.1821 89.3223 80.1125 88.9588L85.1462 87.9386L84.6919 86.2866L80.0989 87.0796C80.1665 86.6785 80.212 86.2746 80.2352 85.8694C80.2352 81.0288 80.2352 76.1896 80.2352 71.3518C83.3154 71.327 86.3956 71.2733 89.4758 71.294C91.1158 71.3146 92.7195 71.4633 94.3232 71.5501Z" fill="#4DC8F1"/>
<path d="M94.3234 71.5502C92.7197 71.4634 91.116 71.3147 89.5078 71.3023C86.4276 71.3023 83.3474 71.3354 80.2672 71.3602C78.1047 71.1371 75.9331 70.9802 73.7887 70.6663C73.2432 70.6027 72.7371 70.3743 72.3515 70.0178C71.9659 69.6612 71.7233 69.1973 71.6626 68.7003L82.943 67.0772C83.57 63.3311 85.528 60.2582 89.0716 58.1023C91.5837 56.5497 94.6025 55.8213 97.6307 56.0372C104.2 56.4502 109.297 60.7167 110.429 66.6435C110.479 67.0813 110.547 67.5191 110.574 67.961C110.638 69.0473 110.815 70.1955 109.157 70.4846C104.326 71.6669 99.2978 72.0281 94.3234 71.5502Z" fill="#0B4975"/>
<path d="M0 136.047H5.97413V145.249C7.00541 145.576 7.60509 145.34 8.19115 144.617C10.2991 141.999 12.5116 139.45 14.6468 136.848C14.8563 136.553 15.1509 136.316 15.4986 136.162C15.8463 136.008 16.2336 135.944 16.6185 135.977C18.3676 136.043 20.1258 135.998 22.1656 135.998C18.8719 139.793 15.7417 143.395 12.5389 147.079C15.8144 151.164 19.1081 155.261 22.579 159.581C20.9935 159.581 19.6079 159.432 18.2768 159.614C16.0779 159.907 14.7877 159.094 13.6565 157.433C12.021 155.025 10.0674 152.795 8.31835 150.449C7.75047 149.685 7.1417 149.346 6.04682 149.656V159.498H0V136.047Z" fill="#4DC8F1"/>
<path d="M46.0439 134.779H51.5547V143.312C51.798 143.196 52.0279 143.057 52.2407 142.899C54.9665 140.351 58.3647 140.834 61.6585 141.371C63.1032 141.598 63.9891 142.771 64.2389 144.097C65.034 148.104 65.034 152.208 64.2389 156.215C63.7846 158.4 62.14 159.498 59.6504 159.569C58.4465 159.602 57.1881 159.771 56.0478 159.523C54.5667 159.205 53.1766 158.528 51.7091 157.991L51.5774 159.515H46.0439V134.779ZM59.1643 150.239C59.1224 148.952 59.0057 147.669 58.8145 146.393C58.7236 145.956 58.0331 145.286 57.6106 145.282C55.8971 145.308 54.1864 145.418 52.486 145.613C51.8136 145.675 51.6137 146.092 51.6228 146.707C51.6592 149.1 51.6592 151.493 51.6228 153.885C51.6228 154.493 51.8046 154.943 52.4678 155.009C54.1306 155.182 55.807 155.343 57.4652 155.381C57.6469 155.384 57.8275 155.355 57.9966 155.295C58.1656 155.234 58.3196 155.144 58.4496 155.028C58.5795 154.913 58.6828 154.775 58.7532 154.622C58.8237 154.47 58.86 154.307 58.8599 154.142C58.9735 152.853 59.0598 151.56 59.1643 150.239Z" fill="#4DC8F1"/>
<path d="M73.1432 151.556C73.2296 152.704 73.2659 153.687 73.3977 154.662C73.4931 155.368 73.9973 155.707 74.8151 155.694C76.2461 155.67 77.6727 155.694 79.1037 155.694C80.5348 155.694 80.6893 155.521 80.7801 154.216C80.7801 153.98 80.8346 153.753 80.8664 153.464H85.9456C86.091 155.116 86.0955 156.677 85.0779 158.102C84.3056 159.18 83.0608 159.523 81.7569 159.548C78.7085 159.597 75.6601 159.622 72.6162 159.548C69.9767 159.478 68.3367 158.106 67.9732 155.48C67.3975 151.859 67.4451 148.179 68.1141 144.572C68.5684 142.366 70.2221 141.123 72.6844 141.098C75.3148 141.074 77.9498 141.098 80.5848 141.098C84.0784 141.098 85.6548 142.337 85.9274 145.493C86.0728 147.228 85.991 148.975 86.0183 150.718C86.0183 151.61 85.3277 151.544 84.6872 151.544C81.3026 151.544 77.9135 151.544 74.5289 151.544L73.1432 151.556ZM80.7347 148.475C80.6302 147.48 80.5939 146.567 80.4076 145.683C80.3442 145.517 80.2362 145.367 80.0934 145.248C79.9507 145.129 79.7776 145.044 79.5898 145.001C77.7999 144.948 76.0054 144.96 74.2199 145.026C74.0483 145.067 73.8907 145.146 73.7613 145.257C73.632 145.367 73.5351 145.505 73.4794 145.658C73.2977 146.571 73.2477 147.504 73.1478 148.475H80.7347Z" fill="#4DC8F1"/>
<path d="M36.249 141.139H41.8597V159.486H36.3444V157.231C35.772 157.644 35.3995 157.854 35.0588 158.119C33.8185 159.093 32.451 159.709 30.7519 159.585C29.33 159.486 27.8853 159.556 26.4905 159.341C25.7816 159.262 25.1283 158.952 24.652 158.468C24.1758 157.984 23.9089 157.36 23.901 156.71C23.801 151.56 23.8601 146.385 23.8601 141.168H29.4526V142.271C29.4526 146.035 29.4526 149.798 29.4526 153.559C29.4526 155.042 29.9069 155.475 31.5288 155.438C32.7224 155.378 33.9115 155.258 35.0906 155.079C35.9628 154.967 36.2899 154.529 36.2763 153.67C36.2172 149.908 36.249 146.145 36.249 142.387V141.139Z" fill="#4DC8F1"/>
<path d="M90.5071 159.556V136.014H91.611C95.3 136.014 98.989 136.014 102.678 136.014C106.853 136.014 108.938 137.526 109.688 141.289C110.558 145.636 110.549 150.091 109.661 154.435C108.938 157.995 106.98 159.482 102.973 159.552C98.8436 159.61 94.714 159.556 90.5071 159.556ZM93.5146 138.356V157.144C93.8871 157.165 94.2142 157.198 94.5413 157.198C97.1763 157.198 99.8098 157.198 102.442 157.198C105.045 157.198 106.272 156.339 106.708 154.005C107.044 152.396 107.206 150.761 107.189 149.123C107.122 146.367 106.884 143.616 106.476 140.884C106.208 139.203 105.013 138.463 103.128 138.406C100.575 138.327 98.0168 138.364 95.459 138.352C94.8275 138.352 94.2006 138.356 93.5146 138.356Z" fill="#0B4975"/>
<path d="M136.746 151.37C136.851 152.807 136.887 154.071 137.051 155.323C137.255 156.842 137.887 157.309 139.595 157.317C141.476 157.317 143.356 157.317 145.242 157.317C146.936 157.317 147.513 156.772 147.645 155.252C147.677 154.881 147.713 154.513 147.754 154.083H150.557C150.433 155.196 150.228 156.3 149.944 157.388C149.449 158.87 148.127 159.519 146.477 159.552C143.843 159.606 141.208 159.63 138.577 159.552C136.16 159.477 134.538 158.276 134.397 156.016C134.184 152.408 134.184 148.791 134.397 145.183C134.516 143.043 135.915 141.792 138.086 141.681C140.967 141.536 143.87 141.643 146.755 141.734C148.208 141.784 149.194 142.614 149.689 143.82C150.689 146.249 150.385 148.776 150.494 151.391L136.746 151.37ZM147.75 149.28C147.622 147.938 147.559 146.686 147.377 145.443C147.351 144.988 147.13 144.56 146.762 144.252C146.393 143.943 145.906 143.777 145.405 143.791C143.264 143.744 141.124 143.744 138.986 143.791C138.544 143.775 138.111 143.911 137.774 144.172C137.437 144.433 137.221 144.8 137.169 145.199C136.96 146.529 136.873 147.876 136.714 149.268L147.75 149.28Z" fill="#0B4975"/>
<path d="M193.485 159.548C192.24 159.548 190.995 159.593 189.759 159.548C187.392 159.445 185.998 158.458 185.598 156.355C184.878 152.544 184.878 148.648 185.598 144.836C186.02 142.614 187.415 141.627 189.927 141.569C192.294 141.516 194.67 141.512 197.037 141.569C199.722 141.631 201.162 142.767 201.54 145.423C202.098 149.015 202.057 152.663 201.417 156.244C201.013 158.363 199.6 159.437 197.215 159.548C195.97 159.598 194.725 159.548 193.485 159.548ZM199.127 150.581C198.995 148.929 198.932 147.24 198.709 145.584C198.546 144.345 197.919 143.857 196.529 143.824C194.502 143.775 192.467 143.771 190.441 143.824C189.014 143.862 188.31 144.291 188.265 145.563C188.144 148.892 188.144 152.224 188.265 155.558C188.31 156.797 189.01 157.231 190.354 157.264C192.417 157.314 194.489 157.314 196.556 157.264C197.919 157.231 198.537 156.752 198.705 155.48C198.932 153.886 198.986 152.233 199.127 150.581Z" fill="#0B4975"/>
<path d="M80.1217 87.0878L84.7147 86.2948L85.169 87.9468L80.1172 88.9587C76.5281 89.2768 72.9482 89.6939 69.3501 89.8921C63.6213 90.2102 58.2605 88.8679 53.1268 86.6376C51.037 85.7289 48.9063 84.8988 46.7665 84.0232C46.7564 84.6581 46.7109 85.2922 46.6302 85.923C46.5428 86.6822 46.1332 87.3804 45.4884 87.8694C44.8437 88.3583 44.0147 88.5995 43.1775 88.5416C42.3548 88.52 41.5434 88.3618 40.7833 88.0749C38.9161 87.348 38.3437 85.7 39.5249 84.2173C40.2972 83.2549 41.3875 82.5074 42.4415 81.5698L36.7036 77.0638L37.9757 75.6389C40.1473 77.386 42.2507 79.1289 44.3541 80.781C44.9404 81.2416 45.5968 81.6228 46.3031 81.9126C49.2743 83.1517 52.3181 84.2338 55.253 85.5224C61.3316 88.1905 67.6919 88.5209 74.2066 87.856C76.1874 87.6577 78.1409 87.348 80.1217 87.0878ZM45.0174 85.1466C44.6949 84.4197 44.6131 83.6969 44.2224 83.4945C43.8317 83.2921 43.073 83.5977 42.6187 83.8745C42.0452 84.2431 41.5535 84.7069 41.1694 85.2416C41.0059 85.4646 41.0968 86.1626 41.2285 86.1998C42.0508 86.4352 42.973 86.7821 43.7408 86.6128C44.2769 86.5178 44.6176 85.6463 45.0174 85.1466Z" fill="#0B4975"/>
<path d="M169.865 153.472C169.693 154.67 169.615 155.761 169.361 156.818C168.943 158.553 167.853 159.457 165.922 159.527C163.369 159.618 160.806 159.626 158.253 159.527C155.95 159.441 154.573 158.288 154.21 156.203C153.562 152.52 153.553 148.769 154.182 145.084C154.605 142.606 156.081 141.582 158.853 141.557C161.033 141.538 163.216 141.538 165.399 141.557C167.753 141.557 168.947 142.445 169.393 144.535C169.588 145.46 169.624 146.414 169.742 147.426H166.994C166.917 146.753 166.849 146.079 166.753 145.41C166.599 144.357 165.881 143.849 164.754 143.837C162.873 143.812 160.993 143.795 159.112 143.837C157.649 143.874 156.958 144.337 156.913 145.675C156.804 148.94 156.804 152.209 156.913 155.48C156.958 156.793 157.676 157.252 159.148 157.281C161.029 157.322 162.91 157.318 164.791 157.281C166.131 157.256 166.671 156.772 166.849 155.554C166.949 154.881 167.008 154.199 167.089 153.489L169.865 153.472Z" fill="#0B4975"/>
<path d="M177.334 141.553H182.727V143.721H177.634C177.516 143.857 177.434 143.907 177.434 143.956C177.434 147.921 177.398 151.891 177.434 155.855C177.434 157.004 177.829 157.301 179.083 157.334C180.337 157.367 181.477 157.334 182.654 157.334C183.04 158.932 182.999 159.056 181.391 159.337C180.289 159.545 179.168 159.657 178.043 159.672C175.689 159.672 174.586 158.647 174.567 156.512C174.54 152.646 174.567 148.78 174.567 144.919V143.754H171.26V141.594H174.536V137.092H177.37L177.334 141.553Z" fill="#0C4975"/>
<path d="M208.781 159.544H205.992V141.627H208.763V144.159C209.944 143.333 210.885 142.342 212.066 141.887C213.247 141.433 214.614 141.536 216 141.383V144.159C215.032 144.159 214.101 144.13 213.17 144.159C212.573 144.17 211.979 144.246 211.402 144.386C209.09 145.014 208.781 145.414 208.781 147.591V159.544Z" fill="#0C4975"/>
<path d="M122.131 141.598H124.807V144.213C125.997 143.358 126.951 142.371 128.146 141.908C129.341 141.445 130.745 141.54 132.13 141.383V144.159C131.194 144.159 130.313 144.159 129.404 144.159C128.88 144.152 128.356 144.198 127.842 144.295C125.302 144.878 124.852 145.419 124.852 147.756V159.507H122.126L122.131 141.598Z" fill="#0B4975"/>
<path d="M117.17 159.535H114.512V141.619H117.17V159.535Z" fill="#0E4A76"/>
<path d="M106.68 113.967V109.602L108.729 109.362V114.797C108.816 117.127 109.184 119.398 110.519 121.513C115.103 120.014 119.569 119.721 123.949 122.054C123.749 122.323 123.612 122.521 123.458 122.711C123.303 122.901 123.054 123.198 122.817 123.475C118.729 121.542 114.64 121.802 110.551 123.475C110.357 123.502 110.159 123.487 109.972 123.431C109.786 123.375 109.617 123.28 109.479 123.153C107.825 121.435 107.289 119.308 106.971 117.127C106.835 116.082 106.762 115.025 106.68 113.967Z" fill="#0C4975"/>
<path d="M100.856 110.353L102.878 110.139C102.51 112.91 102.246 115.694 101.728 118.44C101.492 119.679 100.761 120.844 100.238 122.083C96.3946 121.368 92.8511 119.638 88.8804 120.699C88.7487 120.46 88.6078 120.229 88.4943 119.985C88.3807 119.741 88.2807 119.485 88.1399 119.159C91.9424 117.783 95.4497 119.208 99.1205 119.985C100.574 116.875 100.652 113.604 100.856 110.353Z" fill="#0C4975"/>
<path d="M109.156 70.4803C110.814 70.1912 110.637 69.043 110.573 67.9568C110.546 67.5148 110.478 67.077 110.428 66.6392C113.481 67.1059 116.538 67.5313 119.582 68.0517C121.999 68.4648 124.212 69.2412 125.275 71.5294C125.184 71.5665 125.02 71.6533 125.007 71.6367C124.511 71.019 123.834 70.5415 123.052 70.2593C122.271 69.9772 121.417 69.902 120.591 70.0425C118.369 70.2944 116.107 70.2201 113.863 70.2944C112.291 70.3523 110.723 70.4225 109.156 70.4803Z" fill="#4DC8F1"/>
<path d="M181.345 79.5711C181.468 80.1493 181.582 80.6697 181.722 81.314L171.655 82.9661L171.273 81.2149L181.345 79.5711Z" fill="#0D4975"/>
<path d="M179.56 87.5918C179.492 88.2113 179.437 88.74 179.374 89.3554L171.392 88.5087C171.478 87.9057 171.555 87.3564 171.641 86.7493L179.56 87.5918Z" fill="#0D4975"/>
<path d="M175.553 74.1192L176.498 75.6845L170.056 78.8193L169.148 77.2416L175.553 74.1192Z" fill="#0E4A75"/>
<path d="M117.52 135.027V138.191H114.254V135.01L117.52 135.027Z" fill="#0E4A76"/>
<path d="M125.698 98.8136C125.603 98.4946 125.54 98.1683 125.511 97.8389C125.511 90.0163 125.511 82.191 125.511 74.3629C125.543 74.0351 125.605 73.7104 125.698 73.3923V98.8136Z" fill="#70CFEF"/>
<path d="M99.107 92.7216C99.107 91.6973 99.107 90.6565 99.107 89.6487C99.107 88.0297 99.9883 87.3234 101.742 87.5836C105.226 88.0586 108.706 88.5666 112.191 89.0581C112.968 89.1696 113.74 89.2935 114.522 89.4051C115.925 89.6033 116.766 90.2765 116.979 91.561C117.108 92.3352 117.119 93.1218 117.011 93.8987C116.834 95.1749 115.953 95.9142 114.472 96.1331C111.473 96.5751 108.47 96.9881 105.472 97.4094C104.213 97.587 102.95 97.748 101.697 97.9422C100.12 98.1817 99.1433 97.4796 99.107 96.0175C99.0888 94.9065 99.107 93.812 99.107 92.7216Z" fill="#0B4975"/>
<path d="M119.696 80.6036C119.699 80.9192 119.631 81.2321 119.498 81.5234C119.364 81.8147 119.167 82.0784 118.918 82.2987C118.669 82.5189 118.374 82.6912 118.05 82.8052C117.727 82.9192 117.381 82.9725 117.034 82.9619C116.336 82.9243 115.68 82.6478 115.198 82.1879C114.716 81.728 114.443 81.1191 114.435 80.4838C114.475 79.8512 114.779 79.2564 115.286 78.8216C115.793 78.3868 116.464 78.1451 117.161 78.1461C117.508 78.1466 117.852 78.2117 118.17 78.3374C118.489 78.4631 118.775 78.6466 119.013 78.8768C119.25 79.1071 119.433 79.379 119.551 79.676C119.668 79.9729 119.718 80.2886 119.696 80.6036Z" fill="#0B4975"/>
<path d="M109.851 80.529C109.839 81.1685 109.555 81.7787 109.058 82.2321C108.562 82.6854 107.892 82.9469 107.189 82.9617C106.666 82.96 106.155 82.8177 105.72 82.5526C105.285 82.2875 104.947 81.9114 104.747 81.4717C104.547 81.032 104.494 80.5484 104.596 80.0816C104.697 79.6148 104.948 79.1858 105.317 78.8485C105.687 78.5112 106.157 78.2806 106.67 78.1859C107.183 78.0912 107.715 78.1365 108.2 78.3162C108.685 78.4958 109.1 78.8017 109.394 79.1955C109.688 79.5892 109.847 80.0532 109.851 80.529Z" fill="#0B4975"/>
<path d="M149.135 95.2037L147.223 95.1129C147.223 94.4107 147.527 94.0555 148.231 94.0845C148.935 94.1134 149.222 94.4644 149.135 95.2037Z" fill="#F3F3F5"/>
<path d="M45.017 85.1468C44.6172 85.6466 44.2765 86.5181 43.7404 86.6296C42.9726 86.7948 42.0504 86.4479 41.2281 86.2166C41.0963 86.1794 41.0055 85.4814 41.169 85.2584C41.553 84.7237 42.0447 84.2599 42.6183 83.8913C43.0726 83.6145 43.854 83.3337 44.222 83.5113C44.5899 83.6889 44.6944 84.4199 45.017 85.1468Z" fill="#FCFCFD"/>
</svg>
