<svg width="216" height="216" viewBox="0 0 216 216" fill="none" xmlns="http://www.w3.org/2000/svg">
<path d="M0 108V216H108H216V108V0H108H0V108ZM35.9944 74.934C37.125 75.4735 37.9856 76.4178 38.6269 77.8173C38.8969 78.3738 41.1075 85.3883 43.5375 93.4145C45.9675 101.441 48.0262 108.067 48.0938 108.135C48.2625 108.32 47.8069 109.754 52.9031 92.8244C55.2825 84.933 57.4256 78.1208 57.6788 77.6656C58.3706 76.4178 59.3156 75.4398 60.3787 74.9171C61.2394 74.4955 61.5262 74.445 63.0281 74.445C64.4794 74.445 64.8337 74.5124 65.5594 74.8665C66.6731 75.4061 67.6856 76.4515 68.2087 77.5813C68.445 78.0871 69.8794 83.3143 71.3812 89.1991C72.8831 95.0838 74.4863 101.306 74.925 103.026C75.3638 104.746 76.0219 107.258 76.3594 108.641C76.7138 110.007 77.0175 111.103 77.0512 111.086C77.0681 111.052 79.8694 103.869 83.2781 95.1007C86.6869 86.3326 89.7075 78.7279 89.9775 78.1714C90.6862 76.7888 91.8 75.6422 93.1331 74.9845C94.1625 74.4787 94.3481 74.445 96.0187 74.445C97.6219 74.445 97.8919 74.4955 98.7525 74.9171C99.8831 75.4735 101.149 76.7719 102.077 78.3738C102.448 78.9977 103.95 81.6618 105.418 84.3091C106.903 86.9565 110.869 94.0553 114.261 100.109L120.403 111.103L120.487 94.7129C120.555 83.4492 120.639 78.1546 120.774 77.8005C121.314 76.266 122.023 75.5579 123.407 75.0857C124.706 74.6473 139.539 74.5461 142.628 74.9508C148.365 75.6927 151.892 78.1883 153.343 82.5218C153.782 83.8033 153.799 84.0731 153.816 87.007C153.816 89.9916 153.799 90.1771 153.343 91.4754C152.027 95.2019 149.428 97.4276 145.041 98.5911C143.438 99.0126 143.117 99.0464 138.257 99.1138L133.144 99.1813V96.2979V93.4145H137.16C140.636 93.4145 141.362 93.3639 142.509 93.0773C146.036 92.1836 147.623 90.1096 147.454 86.6192C147.302 83.4998 145.817 81.7461 142.509 80.8356C141.649 80.5995 140.333 80.5321 134.122 80.4815L126.748 80.3972L126.698 94.6117C126.647 107.882 126.613 108.911 126.326 109.77C125.601 111.929 124.622 113.16 123.036 113.868C122.057 114.306 119.559 114.458 118.091 114.155C116.522 113.851 115.628 113.362 114.413 112.148C113.451 111.17 112.944 110.361 110.194 105.386L107.055 99.7377L101.031 99.6871L95.0063 99.6534V96.7869V93.9204H99.3262C103.292 93.9204 103.646 93.9035 103.545 93.6337C103.478 93.482 102.06 90.8515 100.372 87.7827C98.685 84.7138 97.0144 81.645 96.66 80.9874C96.2887 80.3129 95.9344 79.7227 95.85 79.6721C95.7825 79.6216 92.9981 86.4 89.6906 94.7129C86.3662 103.043 83.4806 110.192 83.2781 110.614C82.62 111.929 81.6075 112.907 80.19 113.598C78.9244 114.239 78.8906 114.239 76.8825 114.239C75.0263 114.239 74.7562 114.205 73.8956 113.8C71.6513 112.738 70.8919 111.507 69.7275 106.971C68.7487 103.228 67.2975 97.6131 65.0531 88.8618C63.1462 81.4258 62.9437 80.7007 62.8425 80.8019C62.775 80.8862 62.0325 83.2637 56.8687 99.9063C55.08 105.656 53.4263 110.732 53.2069 111.187C52.2113 113.16 50.3044 114.323 48.0938 114.323C45.9338 114.323 43.9931 113.177 42.9975 111.339C42.7612 110.9 41.8669 108.287 41.04 105.555C32.3662 77.244 33.4294 80.7007 33.3281 80.8019C33.2606 80.8693 32.1131 85.5232 30.2062 93.4145C27.3712 105.218 25.2956 113.716 25.2113 113.834C25.1606 113.919 23.7262 113.986 22.005 113.986H18.9L18.9844 113.598C19.035 113.396 20.25 108.405 21.7013 102.52C23.1356 96.6351 24.7388 90.1096 25.245 88.0187C25.7512 85.9279 26.4769 82.9771 26.8481 81.4426C27.6075 78.3063 28.0294 77.244 28.9406 76.2492C30.2062 74.8328 31.4719 74.3438 33.5981 74.4112C34.7625 74.445 35.2181 74.5461 35.9944 74.934ZM181.491 74.8665C187.937 75.6084 191.767 78.4412 192.982 83.3817C193.404 85.0511 193.404 88.7269 192.999 90.2108C191.953 93.9541 189.321 96.7026 185.608 97.9166L184.157 98.3888L189.523 106.044C192.493 110.259 194.906 113.767 194.906 113.851C194.906 113.935 193.252 113.969 191.244 113.952L187.566 113.902L182.267 106.516L176.968 99.1476L171.636 99.1813L166.303 99.2319L166.253 106.6L166.219 113.986H163.097H159.975V103.7V93.4145H170.235C181.339 93.4145 181.862 93.3639 183.651 92.4871C185.912 91.3574 187.144 89.1148 186.924 86.5012C186.671 83.4998 185.018 81.645 181.879 80.8187C180.967 80.5995 179.263 80.5321 170.353 80.4478C160.549 80.3466 159.857 80.3298 159.435 80.0262C158.372 79.318 157.883 77.7668 158.355 76.637C158.726 75.7602 159.081 75.3892 159.891 75.0183C160.515 74.7316 161.207 74.6979 170.269 74.6979C175.787 74.6979 180.63 74.7822 181.491 74.8665ZM199.463 108.185C201.623 109.045 201.353 112.165 199.091 112.772C197.539 113.193 195.919 111.979 195.919 110.411C195.919 109.534 196.442 108.725 197.269 108.287C198.163 107.848 198.551 107.831 199.463 108.185ZM95.3775 120.916C96.0356 121.085 97.5713 122.046 97.6556 122.349C97.6894 122.451 97.3688 122.923 96.9469 123.395L96.1537 124.272L95.3775 123.732C93.7744 122.636 91.665 122.956 90.6694 124.474C90.2475 125.081 90.1969 125.334 90.1969 126.481C90.1969 127.661 90.2475 127.846 90.7031 128.504C91.4119 129.499 92.1375 129.887 93.3019 129.887C94.2806 129.887 95.1244 129.583 95.8163 128.942L96.1875 128.588L97.0312 129.415L97.875 130.241L97.4869 130.645C96.4238 131.792 94.4662 132.467 92.6775 132.298C90.5681 132.112 88.83 130.898 87.9356 129.01C87.5644 128.2 87.4969 127.846 87.4969 126.464C87.4969 124.575 87.8006 123.749 88.9481 122.501C90.4669 120.866 92.8294 120.275 95.3775 120.916ZM131.085 120.815C132.637 121.017 134.342 122.316 135.186 123.934C135.54 124.592 135.591 124.929 135.591 126.464C135.591 128.066 135.54 128.319 135.135 129.077C134.527 130.224 133.431 131.236 132.216 131.809C131.338 132.214 130.984 132.281 129.684 132.281C128.402 132.281 128.014 132.214 127.237 131.843C125.482 131.033 124.453 129.853 123.93 128.049C123.171 125.435 124.436 122.569 126.9 121.321C127.727 120.899 129.33 120.562 130.022 120.663C130.208 120.68 130.68 120.748 131.085 120.815ZM154.693 121.102C155.874 121.54 157.14 122.704 157.731 123.901C158.152 124.744 158.203 125.047 158.203 126.464C158.203 127.88 158.152 128.184 157.731 129.01C157.157 130.173 156.06 131.236 154.777 131.826C153.967 132.214 153.579 132.281 152.297 132.281C150.981 132.281 150.626 132.214 149.732 131.792C148.432 131.202 147.167 129.92 146.711 128.74C146.222 127.475 146.273 125.132 146.796 124.069C148.213 121.152 151.504 119.921 154.693 121.102ZM168.075 120.933C168.699 121.118 170.269 122.046 170.269 122.231C170.269 122.282 169.898 122.737 169.459 123.243L168.666 124.154L168.008 123.715C166.269 122.535 163.907 123.041 163.012 124.778C162.607 125.553 162.557 127.206 162.911 128.032C163.198 128.723 164.16 129.566 164.97 129.836C165.696 130.089 166.995 129.971 167.721 129.583C168.193 129.347 168.244 129.246 168.244 128.571V127.813H166.978H165.712V126.717V125.621H168.159H170.606V128.133V130.645L169.796 131.168C168.48 132.011 167.653 132.247 165.881 132.264C164.464 132.281 164.16 132.23 163.266 131.809C161.443 130.949 160.346 129.549 159.992 127.543C159.536 125.03 160.802 122.451 163.097 121.287C164.363 120.63 166.539 120.478 168.075 120.933ZM24.3675 120.899C25.0087 121 25.8525 121.22 26.2575 121.388C27.2869 121.86 28.4344 122.99 28.9744 124.086C29.3794 124.896 29.4469 125.233 29.4469 126.464C29.43 128.167 29.0925 129.06 27.9956 130.258C26.595 131.775 25.1606 132.197 21.3975 132.197H19.0688V126.582C19.0688 123.479 19.1194 120.899 19.1869 120.849C19.3556 120.663 23.0512 120.714 24.3675 120.899ZM38.7113 126.261C39.9937 129.296 41.0906 131.876 41.1244 131.978C41.1919 132.146 40.8713 132.197 39.8587 132.197H38.5088L38.0194 130.966L37.53 129.752L35.1675 129.701L32.805 129.651L32.2988 130.882L31.8094 132.112L30.4763 132.163C29.2613 132.214 29.16 132.18 29.2613 131.91C29.3288 131.741 30.4088 129.162 31.6912 126.16L34.0031 120.731H35.1844H36.3656L38.7113 126.261ZM49.5788 122.029L49.6294 123.26H47.925H46.2375V127.728V132.197H44.9719H43.7062V127.728V123.277L41.985 123.226L40.2469 123.176L40.1963 122.181C40.1625 121.641 40.1794 121.085 40.23 120.95C40.3144 120.764 41.1413 120.731 44.9213 120.764L49.5281 120.815L49.5788 122.029ZM58.2356 126.295C59.5181 129.313 60.5813 131.876 60.5813 131.994C60.5813 132.163 60.2606 132.197 59.2819 132.163L57.9825 132.112L57.4931 130.882L56.9869 129.651L54.6413 129.701L52.2956 129.752L51.7725 130.966L51.2663 132.197H50.0175C49.3256 132.197 48.7688 132.129 48.7688 132.028C48.7688 131.944 49.7644 129.533 50.9794 126.683C52.1944 123.833 53.2575 121.321 53.3419 121.102C53.4769 120.748 53.5781 120.714 54.6919 120.764L55.89 120.815L58.2356 126.295ZM75.6844 121.995V123.176L73.9631 123.226L72.225 123.277V127.728V132.197H70.9594H69.6937V127.728V123.26H68.0062H66.3187V122.113C66.3187 121.473 66.3694 120.899 66.4369 120.849C66.5044 120.781 68.5969 120.748 71.1113 120.764L75.6844 120.815V121.995ZM86.0287 121.945L86.0794 123.091L83.0756 123.125L80.0719 123.176V124.187V125.199L82.7381 125.25L85.4044 125.3L85.3538 126.43L85.3031 127.56L82.6537 127.61L79.9875 127.661V128.74V129.836L83.0756 129.87L86.1469 129.92V131.016V132.112L81.81 132.163L77.4563 132.197V126.582C77.4563 123.479 77.5069 120.899 77.5744 120.832C77.6419 120.781 79.5488 120.748 81.8269 120.764L85.9781 120.815L86.0287 121.945ZM102.229 123.058L102.279 125.3L104.507 125.25L106.734 125.199L106.785 122.956L106.836 120.714L108.051 120.764L109.266 120.815V126.464V132.112L108.051 132.163L106.836 132.214L106.785 129.971L106.734 127.728L104.507 127.678L102.263 127.627V129.92V132.197H100.997H99.7313V126.582C99.7313 123.479 99.7819 120.899 99.8494 120.832C99.9169 120.764 100.474 120.731 101.081 120.764L102.178 120.815L102.229 123.058ZM114.311 121C114.463 121.152 115.627 122.619 116.876 124.289C118.142 125.941 119.222 127.307 119.289 127.307C119.34 127.307 119.374 125.992 119.34 124.407C119.306 122.805 119.34 121.321 119.391 121.102C119.475 120.731 119.559 120.714 120.707 120.764L121.922 120.815V126.464V132.112H120.825H119.728L117.112 128.673L114.497 125.233L114.446 128.706L114.413 132.197H113.147H111.881V126.582C111.881 123.479 111.932 120.899 111.999 120.849C112.236 120.613 114.041 120.731 114.311 121ZM140.029 125.317L140.062 129.836H142.847H145.631V131.016V132.197H141.581H137.531V126.582C137.531 123.479 137.582 120.899 137.649 120.832C137.717 120.764 138.274 120.731 138.881 120.764L139.978 120.815L140.029 125.317ZM175.635 126.514L175.669 132.214L174.369 132.163L173.053 132.112L173.003 126.632C172.986 123.614 173.003 121.051 173.053 120.933C173.104 120.781 173.475 120.731 174.352 120.764L175.584 120.815L175.635 126.514ZM186.806 121.911V123.091H183.853H180.9V124.187V125.283H183.516H186.131V126.464V127.644H183.516H180.9V128.74V129.836H183.938H186.975V131.016V132.197H182.672H178.369V126.582C178.369 123.479 178.419 120.899 178.487 120.849C178.538 120.781 180.444 120.731 182.706 120.731H186.806V121.911ZM194.991 121.051C195.497 121.237 196.138 121.54 196.425 121.742C196.914 122.096 196.931 122.113 196.661 122.552C196.526 122.805 196.223 123.226 196.003 123.496L195.598 124.002L194.636 123.513C193.961 123.176 193.421 123.024 192.797 123.007C191.768 123.007 191.363 123.277 191.363 123.951C191.363 124.373 191.481 124.491 192.088 124.778C192.476 124.946 193.337 125.25 193.978 125.435C195.699 125.941 196.442 126.413 196.897 127.307C197.623 128.757 197.218 130.561 195.936 131.489C195.007 132.163 193.489 132.45 192.054 132.214C191.025 132.045 189.27 131.32 188.595 130.78C188.241 130.494 188.291 130.359 189.304 129.178L189.793 128.605L190.401 129.06C191.616 129.988 193.506 130.274 194.299 129.651C195.277 128.875 194.738 128.319 192.257 127.56C189.911 126.818 189.118 126.228 188.848 124.963C188.764 124.525 188.713 124.019 188.747 123.833C188.781 123.665 188.848 123.311 188.916 123.058C189.051 122.4 189.962 121.405 190.772 121.051C191.7 120.613 193.776 120.63 194.991 121.051Z" fill="#DD1A32"/>
<path d="M197.455 108.86C196.543 109.5 196.425 110.917 197.218 111.692C198.265 112.738 200.036 112.131 200.155 110.698C200.222 109.888 200.104 109.551 199.648 109.079C199.075 108.505 198.096 108.404 197.455 108.86ZM199.294 109.433C199.581 109.72 199.598 109.838 199.446 110.124C199.328 110.377 199.328 110.613 199.446 110.984C199.682 111.659 199.682 111.625 199.294 111.625C199.075 111.625 198.889 111.456 198.788 111.203C198.703 110.967 198.518 110.782 198.366 110.782C198.214 110.782 198.113 110.934 198.113 111.203C198.113 111.507 198.028 111.625 197.775 111.625C197.471 111.625 197.438 111.507 197.438 110.478C197.438 109.838 197.488 109.264 197.556 109.214C197.809 108.944 198.956 109.096 199.294 109.433Z" fill="#DD1A32"/>
<path d="M128.334 123.328C127.288 123.783 126.394 125.233 126.394 126.464C126.394 127.695 127.22 129.061 128.317 129.617C128.992 129.971 130.545 129.971 131.203 129.634C132.334 129.044 132.975 127.914 132.975 126.531C132.975 124.491 131.659 123.092 129.785 123.092C129.262 123.108 128.604 123.21 128.334 123.328Z" fill="#DD1A32"/>
<path d="M150.492 123.58C149.412 124.255 148.939 125.266 149.04 126.7C149.159 128.622 150.458 129.887 152.297 129.903C154.035 129.92 155.352 128.706 155.537 126.936C155.655 125.789 155.402 124.963 154.694 124.154C153.647 122.956 151.859 122.72 150.492 123.58Z" fill="#DD1A32"/>
<path d="M21.7346 123.193C21.6502 123.26 21.5996 124.778 21.5996 126.582V129.836H22.7471C24.2996 129.836 25.1096 129.567 25.8353 128.842C26.7803 127.914 27.0503 126.548 26.5946 125.233C26.1053 123.901 25.059 123.26 23.1352 123.142C22.4265 123.092 21.8021 123.109 21.7346 123.193Z" fill="#DD1A32"/>
<path d="M34.8459 124.642C34.7279 124.946 34.4412 125.671 34.2052 126.244L33.7668 127.306H35.1157C35.8407 127.306 36.4477 127.273 36.4477 127.222C36.4477 127.053 35.2337 124.103 35.1494 124.103C35.1157 124.103 34.9808 124.356 34.8459 124.642Z" fill="#DD1A32"/>
<path d="M53.9486 125.638C53.5945 126.498 53.3415 127.223 53.3753 127.257C53.4259 127.29 54.016 127.307 54.7242 127.274L55.9888 127.223L55.3649 125.672C55.0277 124.812 54.7242 124.104 54.6567 124.104C54.6061 124.104 54.2858 124.795 53.9486 125.638Z" fill="#DD1A32"/>
</svg>
