<svg width="216" height="216" viewBox="0 0 216 216" fill="none" xmlns="http://www.w3.org/2000/svg">
<path d="M94.3153 121.678H49.293C47.5994 121.678 47.1074 121.16 47.1074 119.472C47.1074 116.365 47.1074 113.258 47.1074 110.15C47.1074 108.752 47.7186 108.141 49.1117 108.141H139.648C141.026 108.141 141.679 108.783 141.679 110.14C141.679 113.32 141.679 116.501 141.679 119.685C141.679 121.093 141.099 121.658 139.669 121.658L94.3153 121.678Z" fill="#11BDD9"/>
<path d="M121.325 13.5343H76.3076C74.6088 13.5343 74.1064 13.0164 74.1064 11.3333C74.1064 8.2605 74.1064 5.18774 74.1064 2.11498C74.1064 0.654553 74.7487 0.00720215 76.2144 0.00720215H166.502C168.056 0.00720215 168.704 0.644196 168.709 2.19266C168.709 5.26542 168.709 8.33818 168.709 11.4109C168.709 12.9957 168.165 13.5343 166.59 13.5343H121.325Z" fill="#14BDD9"/>
<path d="M55.8345 199.909V214.13C55.8345 215.731 55.5652 216 53.9856 216H49.459C48.2523 216 47.9415 215.694 47.9053 214.508C47.9053 213.768 47.9053 213.027 47.9053 212.287V158.292C47.9053 156.708 48.1073 156.449 49.661 156.221C54.6914 155.419 59.7734 154.983 64.867 154.916C68.1782 154.838 71.4884 155.108 74.7436 155.719C79.9693 156.78 82.9163 159.95 84.0194 165.082C85.0553 170.028 85.2365 175.02 85.1226 180.038C85.0648 183.622 84.6449 187.191 83.8692 190.691C82.7195 195.73 79.6016 198.547 74.6089 199.552C70.7298 200.334 66.8402 200.303 62.9092 200.215C60.589 200.148 58.248 200.008 55.8345 199.909ZM55.8345 192.763C57.6835 192.923 59.4599 193.135 61.2209 193.213C64.3594 193.358 67.5135 193.571 70.6417 192.97C73.1381 192.488 75.2149 191.447 76.0332 188.827C76.2661 188.1 76.4563 187.359 76.6029 186.61C77.2668 182.795 77.4789 178.916 77.2348 175.051C77.08 172.38 76.7565 169.721 76.2663 167.091C76.1097 165.995 75.6214 164.972 74.8669 164.161C74.1123 163.35 73.1277 162.79 72.0453 162.555C70.7311 162.174 69.3771 161.948 68.0107 161.881C64.0694 161.778 60.1177 161.819 56.1712 161.809C56.0654 161.819 55.9611 161.842 55.8604 161.876L55.8345 192.763Z" fill="#1C1C1B"/>
<path d="M180.988 181.084C181.051 183.907 181.227 186.626 182.185 189.231C183.029 191.53 184.899 192.509 187.121 192.923C188.384 193.164 189.667 193.293 190.953 193.306C195.449 193.353 199.949 193.306 204.45 193.306C204.75 193.309 205.049 193.329 205.346 193.368C205.493 193.367 205.638 193.398 205.772 193.457C205.906 193.516 206.026 193.603 206.124 193.713C206.222 193.822 206.296 193.95 206.34 194.09C206.384 194.23 206.399 194.378 206.382 194.523C206.382 195.756 206.382 196.994 206.382 198.226C206.395 198.391 206.373 198.557 206.319 198.713C206.265 198.87 206.179 199.013 206.066 199.135C205.954 199.256 205.818 199.353 205.666 199.42C205.515 199.486 205.351 199.521 205.185 199.521C198.931 200.328 192.608 200.469 186.323 199.94C184.396 199.72 182.5 199.28 180.673 198.63C177.14 197.46 175.379 194.684 174.458 191.25C173.518 187.671 173.063 183.982 173.106 180.282C173.106 176.594 173.183 172.886 173.52 169.214C173.796 166.854 174.316 164.528 175.074 162.275C176.193 158.65 178.969 156.811 182.485 155.884C186.722 154.766 191.041 154.672 195.366 155.045C197.214 155.217 199.046 155.543 200.84 156.019C204.719 157.018 207.102 159.582 208.231 163.414C209.16 166.736 209.668 170.162 209.743 173.611C209.805 175.337 209.84 177.064 209.847 178.79C209.847 180.261 209.401 180.763 207.972 180.996C207.563 181.05 207.151 181.072 206.739 181.064H180.988V181.084ZM180.89 174.631H201.938C201.772 172.001 201.658 169.422 200.99 166.863C200.739 165.665 200.123 164.574 199.227 163.74C198.332 162.906 197.2 162.368 195.987 162.202C192.893 161.565 189.697 161.612 186.623 162.342C184.624 162.834 182.998 163.896 182.211 165.9C181.108 168.702 181.014 171.643 180.89 174.631Z" fill="#1C1B1B"/>
<path d="M134.962 81.1128H166.327C166.763 81.0824 167.202 81.1208 167.627 81.2267C167.956 81.3274 168.242 81.5346 168.441 81.8159C168.64 82.0971 168.74 82.4364 168.725 82.7804C168.725 86.1518 168.725 89.5128 168.725 92.9049C168.73 93.1332 168.688 93.3601 168.602 93.5716C168.516 93.783 168.387 93.9746 168.224 94.1343C168.061 94.294 167.867 94.4186 167.653 94.5002C167.44 94.5818 167.212 94.6188 166.984 94.6088C166.767 94.6088 166.544 94.6088 166.327 94.6088H103.488C101.649 94.6088 101.116 94.0909 101.111 92.2731C101.111 89.3109 101.111 86.3486 101.111 83.3863C101.111 81.5892 101.629 81.0817 103.41 81.0817L134.962 81.1128Z" fill="#14BDD9"/>
<path d="M107.942 54.1104H139.385C141.208 54.1104 141.679 54.5765 141.679 56.3891C141.679 59.4601 141.679 62.5363 141.679 65.6074C141.679 66.9798 141.037 67.6375 139.675 67.6375H76.1213C74.7696 67.6375 74.1118 66.9694 74.1118 65.6074C74.1118 62.4483 74.1118 59.2927 74.1118 56.1405C74.1118 54.6853 74.6919 54.1104 76.1835 54.1104H107.942Z" fill="#14BDD9"/>
<path d="M80.9072 27.108H112.5C114.142 27.108 114.66 27.6259 114.665 29.2676C114.665 32.3749 114.665 35.4822 114.665 38.5895C114.665 39.9308 114.002 40.6092 112.666 40.661H49.4594C49.127 40.6656 48.7952 40.6326 48.4702 40.5626C48.072 40.4955 47.7128 40.2831 47.4621 39.9664C47.2114 39.6498 47.0872 39.2514 47.1133 38.8484C47.1133 35.4994 47.1133 32.1505 47.1133 28.8015C47.1133 27.6622 47.7814 27.0925 49.0503 27.0925H80.9072V27.108Z" fill="#14BDD9"/>
<path d="M16.1314 193.291C19.4772 193.291 22.8177 193.291 26.1634 193.291C26.9029 193.261 27.6356 193.137 28.3439 192.923C29.8976 192.498 30.69 191.488 30.7988 189.816C30.8382 189.126 30.8382 188.434 30.7988 187.744C30.7903 187.082 30.6162 186.433 30.2923 185.856C29.9684 185.279 29.5051 184.792 28.9446 184.44C27.8224 183.719 26.6366 183.102 25.4021 182.596C21.8026 181.167 18.1513 179.846 14.5259 178.453C9.64196 176.568 6.93327 173.036 6.75718 167.759C6.67954 165.797 6.808 163.832 7.14044 161.897C7.61692 159.307 9.32604 157.547 11.8017 156.573C14.7532 155.469 17.8796 154.906 21.0309 154.911C25.8745 154.799 30.7201 155.024 35.5325 155.584C36.4492 155.693 36.8635 156.102 36.8843 157.013C36.8843 158.049 36.8843 159.085 36.8843 160.12C36.8843 161.353 36.5839 161.674 35.3305 161.674C32.3111 161.674 29.2916 161.674 26.2774 161.674C23.7551 161.674 21.2277 161.674 18.7158 161.804C17.1103 161.892 15.5565 162.446 14.9454 164.103C14.6319 165.091 14.5141 166.131 14.5984 167.164C14.7072 169.572 16.2143 171.068 18.2756 171.98C20.8134 173.109 23.4237 174.051 25.9977 175.129C28.2713 176.056 30.5761 176.92 32.7927 177.967C36.7134 179.81 38.5623 183.026 38.5312 187.288C38.5577 189.121 38.4434 190.953 38.1894 192.768C37.6715 196.015 35.6361 198.034 32.4923 198.982C29.6263 199.823 26.6482 200.22 23.6619 200.158C19.1405 200.096 14.6243 199.93 10.1029 199.775C9.09297 199.738 8.08822 199.588 7.08347 199.459C6.78211 199.441 6.49969 199.306 6.29718 199.082C6.09466 198.858 5.98829 198.564 6.00103 198.262C6.00103 197.087 6.00103 195.906 6.00103 194.725C6.00103 193.814 6.3791 193.451 7.32171 193.451C10.2583 193.451 13.1949 193.451 16.1263 193.451L16.1314 193.291Z" fill="#1B1B1B"/>
<path d="M147.796 161.659H142.581C141.11 161.659 140.84 161.39 140.835 159.955C140.835 158.883 140.835 157.816 140.835 156.744C140.835 155.672 141.167 155.279 142.306 155.268C143.984 155.268 145.657 155.268 147.33 155.268C147.459 155.268 147.594 155.268 147.791 155.268C147.791 153.036 147.749 150.851 147.791 148.665C147.784 147.243 147.905 145.824 148.153 144.424C148.894 140.866 151.323 139.058 154.757 138.323C157.864 137.65 161.018 137.748 164.157 138.069C165.053 138.163 165.944 138.339 166.829 138.494C167.901 138.68 168.186 139.012 168.191 140.048C168.197 141.083 168.191 142.3 168.191 143.424C168.191 144.367 167.839 144.688 166.891 144.709C164.374 144.76 161.847 144.755 159.33 144.89C156.891 145.019 155.86 145.977 155.705 148.365C155.58 150.628 155.679 152.901 155.679 155.273H157.232C160.086 155.273 162.929 155.273 165.793 155.273C167.073 155.273 167.347 155.61 167.176 156.863C166.995 158.028 166.788 159.183 166.565 160.343C166.368 161.379 166.047 161.659 164.949 161.664C162.096 161.664 159.252 161.664 156.388 161.664C156.197 161.664 156.01 161.664 155.725 161.695V198.061C155.725 199.666 155.518 199.873 153.944 199.873C152.369 199.873 150.764 199.873 149.174 199.873C148.247 199.873 147.884 199.516 147.822 198.599C147.822 198.382 147.822 198.159 147.822 197.942V161.69L147.796 161.659Z" fill="#1C1C1C"/>
<path d="M126.054 155.263H135.537C135.868 155.263 136.195 155.263 136.526 155.263C137.246 155.315 137.655 155.662 137.536 156.433C137.313 157.842 137.111 159.251 136.832 160.644C136.671 161.457 136.019 161.654 135.278 161.648C132.538 161.648 129.793 161.648 127.048 161.648H126.012V198.273C126.012 199.594 125.753 199.858 124.459 199.863H119.766C118.451 199.863 118.145 199.552 118.145 198.2C118.145 196.248 118.145 194.301 118.145 192.354V161.654H113.028C111.418 161.654 111.174 161.415 111.169 159.81C111.169 158.774 111.169 157.775 111.169 156.76C111.169 155.579 111.506 155.268 112.723 155.263C114.499 155.263 116.281 155.263 118.15 155.263C118.15 154.543 118.15 153.865 118.15 153.191C118.187 150.778 118.068 148.349 118.295 145.941C118.731 141.415 120.668 139.343 125.111 138.297C128.643 137.469 132.186 137.712 135.734 138.188C136.195 138.251 136.645 138.359 137.101 138.437C138.303 138.649 138.567 138.919 138.593 140.084C138.593 141.156 138.593 142.223 138.593 143.295C138.593 144.367 138.251 144.677 137.137 144.683C135.247 144.683 133.351 144.683 131.44 144.683C130.672 144.691 129.905 144.757 129.146 144.879C127.074 145.232 126.225 146.024 126.095 148.194C125.945 150.545 126.054 152.876 126.054 155.263Z" fill="#1B1B1B"/>
<path d="M95.5122 177.64V156.925C95.5122 155.553 95.7763 155.289 97.1333 155.283C98.7233 155.283 100.313 155.283 101.908 155.283C103.012 155.283 103.343 155.625 103.343 156.708V198.516C103.343 199.552 103.017 199.878 101.96 199.883C100.339 199.883 98.7233 199.883 97.1022 199.883C95.7401 199.883 95.5122 199.661 95.5122 198.33V177.64Z" fill="#1A1919"/>
<path d="M47.0561 60.8017C47.0561 59.2118 47.0561 57.6167 47.0561 56.0268C47.0561 54.7684 47.7139 54.0796 48.9828 54.0692C52.2214 54.0485 55.4567 54.0485 58.6885 54.0692C59.9263 54.0692 60.6151 54.8046 60.6203 56.0476C60.6203 59.2342 60.6203 62.4158 60.6203 65.5921C60.6203 66.9282 59.9056 67.6274 58.5901 67.6325H49.0501C47.7553 67.6325 47.0717 66.9541 47.0613 65.6542C47.0458 64.0384 47.0561 62.4175 47.0561 60.8017Z" fill="#BCD633"/>
<path d="M53.7841 13.5862C52.2303 13.5862 50.6766 13.5862 49.0917 13.5862C47.7348 13.5862 47.0615 12.9181 47.0615 11.5716C47.0615 8.38836 47.0615 5.20684 47.0615 2.02705C47.0615 0.737531 47.7555 0.00731948 49.0348 0.00731948C52.2458 0.00731948 55.4552 0.00731948 58.6628 0.00731948C58.9254 -0.0164171 59.19 0.0177438 59.4379 0.107393C59.6859 0.197042 59.9112 0.339996 60.0978 0.526173C60.2845 0.71235 60.4281 0.937215 60.5184 1.18491C60.6087 1.4326 60.6436 1.6971 60.6205 1.95973C60.6412 5.16714 60.6412 8.37455 60.6205 11.582C60.6205 12.8818 59.9162 13.5654 58.6317 13.5706C57.0158 13.5965 55.3999 13.5862 53.7841 13.5862Z" fill="#BCD633"/>
<path d="M155.185 33.8299C155.185 32.2401 155.185 30.6502 155.185 29.0551C155.185 27.75 155.848 27.0664 157.148 27.0612C160.359 27.0612 163.569 27.0612 166.776 27.0612C167.999 27.0612 168.713 27.6723 168.729 28.8997C168.781 32.1934 168.781 35.4854 168.729 38.7757C168.729 39.9565 167.957 40.6194 166.756 40.6245C163.548 40.6245 160.339 40.6245 157.128 40.6245C155.854 40.6245 155.18 39.8943 155.175 38.5996C155.16 37.0097 155.185 35.4198 155.185 33.8299Z" fill="#BCD633"/>
<path d="M155.187 60.8535C155.187 59.2636 155.187 57.6737 155.187 56.0838C155.187 54.7839 155.839 54.0796 157.139 54.0692C160.35 54.0485 163.559 54.0485 166.767 54.0692C168.031 54.0692 168.725 54.7218 168.74 55.9958C168.782 59.2273 168.782 62.4624 168.74 65.7008C168.74 66.9904 167.989 67.6274 166.669 67.6325H157.232C155.849 67.6325 155.192 66.9489 155.187 65.561V60.8535Z" fill="#BCD633"/>
<path d="M53.8349 94.6346H49.1737C47.7287 94.6346 47.1021 93.9821 47.1021 92.5165C47.1021 89.4455 47.1021 86.3744 47.1021 83.3034C47.1021 81.7083 47.7287 81.0765 49.3602 81.0662C52.0171 81.0662 54.6791 81.0662 57.336 81.0662C57.8838 81.0523 58.432 81.0696 58.9778 81.1179C59.2061 81.1198 59.4316 81.1676 59.641 81.2583C59.8504 81.349 60.0395 81.4809 60.197 81.6461C60.3545 81.8113 60.4772 82.0065 60.5578 82.22C60.6384 82.4335 60.6753 82.661 60.6662 82.8891C60.6939 86.207 60.6939 89.5249 60.6662 92.8428C60.6756 93.0853 60.6337 93.327 60.5433 93.5522C60.4528 93.7774 60.3159 93.9809 60.1414 94.1496C59.9668 94.3182 59.7587 94.4481 59.5305 94.5308C59.3024 94.6135 59.0593 94.6471 58.8173 94.6295C57.1289 94.645 55.4819 94.6346 53.8349 94.6346Z" fill="#BCD633"/>
<path d="M80.8603 94.6349C79.2444 94.6349 77.6285 94.6349 76.0074 94.6349C74.8059 94.6349 74.0808 93.9824 74.0704 92.7809C74.0394 89.5183 74.0394 86.2556 74.0704 82.993C74.0704 81.719 74.811 81.0923 76.2301 81.0716C78.2604 81.0716 80.2906 81.0716 82.3156 81.0716C83.3515 81.0716 84.3873 81.0716 85.4231 81.0716C86.9769 81.1027 87.6087 81.7449 87.6087 83.2933C87.6087 86.3644 87.6087 89.4354 87.6087 92.5064C87.6087 94.0031 86.9613 94.6401 85.449 94.6401L80.8603 94.6349Z" fill="#BCD633"/>
<path d="M141.695 33.9076C141.695 35.5234 141.695 37.1444 141.695 38.7602C141.717 39.0015 141.688 39.2448 141.608 39.4739C141.529 39.7029 141.402 39.9124 141.235 40.0884C141.069 40.2643 140.866 40.4027 140.642 40.4943C140.417 40.5859 140.176 40.6285 139.934 40.6194C136.619 40.6504 133.301 40.6504 129.98 40.6194C129.73 40.6287 129.481 40.5845 129.25 40.4896C129.019 40.3948 128.81 40.2515 128.639 40.0695C128.468 39.8875 128.338 39.6709 128.257 39.4344C128.176 39.1978 128.147 38.9467 128.172 38.698C128.172 35.463 128.172 32.228 128.172 28.9929C128.172 27.75 128.866 27.0664 130.125 27.0612C133.332 27.0612 136.54 27.0612 139.747 27.0612C141.089 27.0612 141.695 27.7034 141.695 29.0447C141.695 30.6709 141.695 32.2867 141.695 33.9076Z" fill="#BCD632"/>
<path d="M161.997 121.71C160.35 121.71 158.703 121.71 157.061 121.71C156.814 121.735 156.564 121.706 156.329 121.625C156.094 121.543 155.879 121.411 155.701 121.238C155.523 121.064 155.385 120.854 155.297 120.621C155.209 120.389 155.173 120.14 155.191 119.892C155.191 116.598 155.191 113.308 155.191 110.021C155.191 108.861 155.932 108.193 157.154 108.188H166.611C168.056 108.188 168.735 108.83 168.756 110.259C168.756 111.875 168.756 113.491 168.756 115.112C168.756 116.593 168.756 118.074 168.756 119.55C168.756 121.026 168.108 121.71 166.601 121.71H161.997Z" fill="#BCD632"/>
<path d="M94.564 142.342C94.564 139.162 96.1177 137.588 99.277 137.588C99.8244 137.568 100.372 137.601 100.914 137.686C102.737 138.028 103.798 139.131 104.119 141.032C104.441 142.932 104.347 144.729 102.809 146.096C101.178 147.557 97.6766 147.526 95.9934 146.122C95.0819 145.34 94.564 144.04 94.564 142.342Z" fill="#1D1D1C"/>
</svg>
