<svg xmlns="http://www.w3.org/2000/svg" viewBox="0 0 504 504" class="favicon-svg"><style>@media (prefers-color-scheme: dark) {.favicon-svg {fill: #fff}}</style><path fill="#01a982" d="M391.2 261.27v35.46H504V324H362.4v-90H504v27.27H391.2Z"/><path d="M276.67 180h-89.25v144h28.8v-36.6h60c37.92 0 59.7-21.6 59.7-53.4 0-32.01-21.78-54-59.25-54Zm-1.88 79.8h-58.57v-52.54h58.57c22.68 0 31.28 10.48 31.28 26.73 0 16.08-8.6 25.8-31.28 25.8Zm116.41-39.18h-28.8V180H504v27.27H391.2v13.36ZM151.2 180v144h-28.8v-59.02H28.8V324H0V180h28.8v57.38h93.6V180h28.8Z"/></svg>
