<?xml version="1.0" encoding="utf-8"?>
<!-- Generator: Adobe Illustrator 21.0.2, SVG Export Plug-In . SVG Version: 6.00 Build 0)  -->
<svg version="1.1" id="Layer_1" xmlns="http://www.w3.org/2000/svg" xmlns:xlink="http://www.w3.org/1999/xlink" x="0px" y="0px"
	 viewBox="0 0 44 13" style="enable-background:new 0 0 44 13;" xml:space="preserve">
<style type="text/css">
	.st0{fill:#01A982;}
	.st1{fill:none;}
</style>
<title>HPE Brand Logo</title>
<desc>Created with Sketch.</desc>
<path id="Fill-1" d="M3.1,33.7H0.4V21.1h2.7v5H8v-5h2.7v12.6H8v-5.2H3.1V33.7L3.1,33.7z M16.9,33.9c-2.8,0-4.6-1.8-4.6-4.6
	s1.8-4.7,4.3-4.7c2.7,0,4,1.8,4,4.5v1h-5.7c0.3,1.4,1.4,1.8,2.5,1.8c0.9,0,1.6-0.2,2.5-0.7H20v2.1C19.2,33.6,18.2,33.9,16.9,33.9
	L16.9,33.9z M14.9,28.1h3.2c-0.1-0.9-0.4-1.6-1.5-1.6C15.8,26.6,15.1,26.9,14.9,28.1L14.9,28.1z M27.6,28.4l-1.4,5.3h-2.4l-2.7-8.9
	v-0.1h2.6l1.5,5.3l1.4-5.3h2.1l1.4,5.3l1.5-5.3h2.5v0.1l-2.7,8.9H29L27.6,28.4L27.6,28.4z M38.6,33.9c-2.2,0-3-0.9-3-2.9v-9.9h2.6
	v9.7c0,0.6,0.2,0.8,0.8,0.8c0.2,0,0.4-0.1,0.6-0.1l0,0v2.2C39.4,33.8,39,33.9,38.6,33.9L38.6,33.9z M45,33.9c-2.8,0-4.6-1.8-4.6-4.6
	s1.8-4.7,4.3-4.7c2.7,0,4,1.8,4,4.5v1H43c0.3,1.4,1.4,1.8,2.5,1.8c0.9,0,1.6-0.2,2.5-0.7l0,0v2.1C47.2,33.6,46.2,33.9,45,33.9
	L45,33.9z M42.9,28.1h3.2c-0.1-0.9-0.4-1.6-1.5-1.6C43.8,26.6,43.1,26.9,42.9,28.1L42.9,28.1z M59.4,24.7h2v2.1h-2v3.6
	c0,0.8,0.3,1.1,1.1,1.1c0.2,0,0.5,0,0.8-0.1h0.1v2.1c-0.3,0.1-0.9,0.3-1.6,0.3c-2.1,0-3-1-3-3.3v-3.8h-3.4v3.6
	c0,0.8,0.3,1.1,1.1,1.1c0.2,0,0.5,0,0.8-0.1h0.1v2.1c-0.3,0.1-0.9,0.3-1.6,0.3c-2.1,0-3-1-3-3.3v-3.8h-1.4v-2.1h1.4V22h2.6v2.5h3.4
	V22h2.6L59.4,24.7L59.4,24.7z M75.1,25.3c0,2.7-1.8,4.2-4.6,4.2h-1.9v4.1h-2.7V21.1h4.7C73.3,21.1,75.1,22.6,75.1,25.3L75.1,25.3z
	 M70.3,27.3c1.4,0,2-0.8,2-1.9c0-1.2-0.7-2-2-2h-1.7v3.9H70.3L70.3,27.3z M81,32.8c-0.6,0.7-1.4,1-2.4,1c-1.7,0-3.2-1.1-3.2-3
	c0-1.8,1.4-2.9,3.5-2.9c0.6,0,1.3,0.1,2,0.3V28c0-1-0.5-1.4-2-1.4c-0.9,0-1.8,0.3-2.5,0.7h-0.1v-2.1c0.7-0.4,1.9-0.7,3.1-0.7
	c2.7,0,4.1,1.3,4.1,3.5v5.6H81V32.8L81,32.8z M80.9,30.8V30c-0.4-0.2-0.9-0.3-1.5-0.3c-0.9,0-1.4,0.3-1.4,1s0.5,1.1,1.3,1.1
	C80.1,31.9,80.7,31.5,80.9,30.8L80.9,30.8z M84.9,29.2c0-2.9,2-4.7,4.7-4.7c0.9,0,1.8,0.2,2.5,0.7v2.3H92c-0.6-0.4-1.3-0.7-2-0.7
	c-1.3,0-2.3,0.9-2.3,2.4s1,2.4,2.3,2.4c0.8,0,1.5-0.3,2-0.7l0,0v2.3c-0.7,0.5-1.5,0.7-2.5,0.7C86.9,33.9,84.9,32.1,84.9,29.2
	L84.9,29.2z M96.3,29.6v4.1h-2.6V21.1h2.6v7.2l2.7-3.5h3v0.1L98.8,29l3.2,4.7v0.1h-3L96.3,29.6L96.3,29.6z M108,32.8
	c-0.6,0.7-1.4,1-2.4,1c-1.7,0-3.2-1.1-3.2-3c0-1.8,1.4-2.9,3.5-2.9c0.6,0,1.3,0.1,2,0.3V28c0-1-0.5-1.4-2-1.4
	c-0.9,0-1.8,0.3-2.5,0.7h-0.1v-2.1c0.7-0.4,1.9-0.7,3.1-0.7c2.7,0,4.1,1.3,4.1,3.5v5.6H108V32.8L108,32.8z M107.9,30.8V30
	c-0.4-0.2-0.9-0.3-1.5-0.3c-0.9,0-1.4,0.3-1.4,1s0.5,1.1,1.3,1.1C107.1,31.9,107.7,31.5,107.9,30.8L107.9,30.8z M115,26.1
	c0.5-1,1.2-1.6,2.2-1.6c0.4,0,0.7,0.1,0.9,0.2v2.5H118c-0.3-0.1-0.7-0.2-1.2-0.2c-0.8,0-1.5,0.5-1.7,1.4v5.2h-2.6v-9h2.6v1.5H115z
	 M125.1,32.7c-0.6,0.7-1.4,1.1-2.6,1.1c-2.3,0-3.7-2.1-3.7-4.7s1.5-4.7,3.7-4.7c1.2,0,2,0.4,2.6,1v-4.5h2.6v12.6h-2.6V32.7
	L125.1,32.7z M125,30.6v-2.9c-0.4-0.6-1-0.9-1.7-0.9c-1.2,0-1.9,0.8-1.9,2.4c0,1.5,0.8,2.4,1.9,2.4C124,31.6,124.6,31.3,125,30.6
	L125,30.6z M0.4,37.8h7.7v1.5h-6v3.9h5.4v1.5H2.2v4.2h6v1.5H0.4V37.8L0.4,37.8z M14.5,41.3c2,0,3.1,1.3,3.1,3.5v5.6H16v-5.5
	c0-1.1-0.6-2-1.8-2c-1,0-1.9,0.7-2.2,1.6v5.9h-1.7v-8.9H12v1.3C12.4,42,13.3,41.3,14.5,41.3L14.5,41.3z M22.1,41.5h2.3v1.4h-2.3v4.8
	c0,1,0.5,1.4,1.5,1.4c0.3,0,0.5,0,0.7-0.1h0.1v1.4c-0.2,0.1-0.6,0.2-1,0.2c-2.1,0-2.9-0.9-2.9-2.7V43H19v-1.4h1.5v-2.4h1.7v2.3H22.1
	z M29.7,50.6c-2.6,0-4.3-1.7-4.3-4.5s1.6-4.7,4-4.7s3.7,1.8,3.7,4.4v0.8h-6c0.2,1.8,1.3,2.7,2.9,2.7c1,0,1.7-0.2,2.5-0.8h0.1V50
	C31.8,50.3,30.8,50.6,29.7,50.6L29.7,50.6z M27.1,45.1h4.4c-0.1-1.3-0.7-2.3-2.1-2.3C28.2,42.8,27.4,43.7,27.1,45.1L27.1,45.1z
	 M36.7,42.9c0.4-0.9,1.2-1.5,2.2-1.5c0.4,0,0.7,0.1,0.9,0.1v1.7h-0.1c-0.2-0.1-0.6-0.2-1-0.2c-0.9,0-1.7,0.6-1.9,1.6v5.8h-1.7v-8.9
	h1.7v1.4H36.7z M45.4,41.3c2.6,0,4,2.2,4,4.6c0,2.5-1.4,4.6-4,4.6c-1.1,0-2-0.6-2.5-1.2v4.4h-1.7V41.5h1.7v1
	C43.4,41.9,44.3,41.3,45.4,41.3L45.4,41.3z M45.1,49.1c1.6,0,2.6-1.3,2.6-3.1s-1-3.1-2.6-3.1c-0.9,0-1.7,0.5-2.2,1.4v3.4
	C43.4,48.5,44.2,49.1,45.1,49.1L45.1,49.1z M53.1,42.9c0.4-0.9,1.2-1.5,2.2-1.5c0.4,0,0.7,0.1,0.9,0.1v1.7H56C55.8,43,55.4,43,55,43
	c-0.9,0-1.7,0.6-1.9,1.6v5.8h-1.7v-8.9h1.7V42.9L53.1,42.9z M58.5,37.9c0.6,0,1.1,0.5,1.1,1c0,0.6-0.5,1-1.1,1s-1.1-0.5-1.1-1
	S57.9,37.9,58.5,37.9L58.5,37.9z M57.7,41.5h1.7v8.9h-1.7V41.5z M65.3,45.2c1.3,0.4,2.7,0.9,2.7,2.6c0,1.8-1.5,2.7-3.4,2.7
	c-1.2,0-2.3-0.3-3-0.8v-1.6h0.1c0.7,0.7,1.8,1,2.9,1c0.9,0,1.8-0.4,1.8-1.1c0-0.8-0.7-1-2.1-1.4c-1.2-0.4-2.6-0.9-2.6-2.5
	c0-1.7,1.4-2.7,3.2-2.7c1,0,2,0.2,2.7,0.7v1.6h-0.1c-0.7-0.6-1.6-0.9-2.6-0.9s-1.6,0.5-1.6,1.1C63.2,44.5,63.8,44.7,65.3,45.2
	L65.3,45.2z M73.7,50.6c-2.6,0-4.3-1.7-4.3-4.5s1.6-4.7,4-4.7s3.7,1.8,3.7,4.4v0.8h-6c0.2,1.8,1.3,2.7,2.9,2.7c1,0,1.7-0.2,2.5-0.8
	h0.1V50C75.7,50.3,74.8,50.6,73.7,50.6L73.7,50.6z M71.1,45.1h4.4c-0.1-1.3-0.7-2.3-2.1-2.3C72.1,42.8,71.3,43.7,71.1,45.1
	L71.1,45.1z"/>
<path id="Fill-2" class="st0" d="M0.4,12.8H44V0.2H0.4V12.8z M3.1,3h38.1v7.1H3.1V3z"/>
<rect id="_x3C_Slice_x3E_" class="st1" width="45" height="14"/>
</svg>
