<svg width="216" height="198" viewBox="0 0 216 198" fill="none" xmlns="http://www.w3.org/2000/svg">
<path fill-rule="evenodd" clip-rule="evenodd" d="M49.6416 2.9785L2.9785 49.6416L49.6416 96.3048L96.3048 49.6416L49.6416 2.9785ZM0 49.6416L49.6416 99.2833L99.2833 49.6416L49.6416 0L0 49.6416Z" fill="#01A982"/>
<path fill-rule="evenodd" clip-rule="evenodd" d="M84.5542 2.98656L37.8911 49.6497L84.5542 96.3129L131.217 49.6497L84.5542 2.98656ZM34.9126 49.6497L84.5542 99.2914L134.196 49.6497L84.5542 0.00805777L34.9126 49.6497Z" fill="#01A982"/>
<path fill-rule="evenodd" clip-rule="evenodd" d="M84.7436 1.83012H49.6417V0.00804472H84.5564L84.7436 1.83012Z" fill="#01A982"/>
<path fill-rule="evenodd" clip-rule="evenodd" d="M50.4654 97.5203L84.5578 97.4612V99.2833L49.6416 99.2833L50.4654 97.5203Z" fill="#01A982"/>
<path fill-rule="evenodd" clip-rule="evenodd" d="M49.6416 100.821L2.9785 147.484L49.6416 194.147L96.3048 147.484L49.6416 100.821ZM0 147.484L49.6416 197.126L99.2833 147.484L49.6416 97.8425L0 147.484Z" fill="#01A982"/>
<path fill-rule="evenodd" clip-rule="evenodd" d="M84.5542 100.829L37.8911 147.492L84.5542 194.155L131.217 147.492L84.5542 100.829ZM34.9126 147.492L84.5542 197.134L134.196 147.492L84.5542 97.8505L34.9126 147.492Z" fill="#01A982"/>
<path fill-rule="evenodd" clip-rule="evenodd" d="M84.7436 99.6726H49.6417V97.8505H84.5564L84.7436 99.6726Z" fill="#01A982"/>
<path fill-rule="evenodd" clip-rule="evenodd" d="M50.4654 195.363L84.5578 195.304V197.126H49.6416L50.4654 195.363Z" fill="#01A982"/>
<path fill-rule="evenodd" clip-rule="evenodd" d="M131.446 51.8994L84.7826 98.5625L131.446 145.226L178.109 98.5625L131.446 51.8994ZM81.8041 98.5625L131.446 148.204L181.087 98.5625L131.446 48.9209L81.8041 98.5625Z" fill="#01A982"/>
<path fill-rule="evenodd" clip-rule="evenodd" d="M166.358 51.9074L119.695 98.5706L166.358 145.234L213.021 98.5706L166.358 51.9074ZM116.717 98.5706L166.358 148.212L216 98.5706L166.358 48.9289L116.717 98.5706Z" fill="#01A982"/>
<path fill-rule="evenodd" clip-rule="evenodd" d="M166.548 50.751H131.446V48.9289H166.361L166.548 50.751Z" fill="#01A982"/>
<path fill-rule="evenodd" clip-rule="evenodd" d="M132.27 146.441L166.362 146.382V148.204L131.446 148.204L132.27 146.441Z" fill="#01A982"/>
</svg>
