<svg width="216" height="216" viewBox="0 0 216 216" fill="none" xmlns="http://www.w3.org/2000/svg">
<path fill-rule="evenodd" clip-rule="evenodd" d="M49.6416 11.9785L2.9785 58.6416L49.6416 105.305L96.3048 58.6416L49.6416 11.9785ZM0 58.6416L49.6416 108.283L99.2833 58.6416L49.6416 9L0 58.6416Z" fill="#01A982"/>
<path fill-rule="evenodd" clip-rule="evenodd" d="M84.5542 11.9866L37.8911 58.6497L84.5542 105.313L131.217 58.6497L84.5542 11.9866ZM34.9126 58.6497L84.5542 108.291L134.196 58.6497L84.5542 9.00806L34.9126 58.6497Z" fill="#01A982"/>
<path fill-rule="evenodd" clip-rule="evenodd" d="M84.7436 10.8301H49.6417V9.00804H84.5564L84.7436 10.8301Z" fill="#01A982"/>
<path fill-rule="evenodd" clip-rule="evenodd" d="M50.4654 106.52L84.5578 106.461V108.283L49.6416 108.283L50.4654 106.52Z" fill="#01A982"/>
<path fill-rule="evenodd" clip-rule="evenodd" d="M49.6416 109.821L2.9785 156.484L49.6416 203.147L96.3048 156.484L49.6416 109.821ZM0 156.484L49.6416 206.126L99.2833 156.484L49.6416 106.842L0 156.484Z" fill="#01A982"/>
<path fill-rule="evenodd" clip-rule="evenodd" d="M84.5542 109.829L37.8911 156.492L84.5542 203.155L131.217 156.492L84.5542 109.829ZM34.9126 156.492L84.5542 206.134L134.196 156.492L84.5542 106.851L34.9126 156.492Z" fill="#01A982"/>
<path fill-rule="evenodd" clip-rule="evenodd" d="M84.7436 108.673H49.6417V106.851H84.5564L84.7436 108.673Z" fill="#01A982"/>
<path fill-rule="evenodd" clip-rule="evenodd" d="M50.4654 204.363L84.5578 204.304V206.126H49.6416L50.4654 204.363Z" fill="#01A982"/>
<path fill-rule="evenodd" clip-rule="evenodd" d="M131.446 60.8994L84.7826 107.563L131.446 154.226L178.109 107.563L131.446 60.8994ZM81.8041 107.563L131.446 157.204L181.087 107.563L131.446 57.9209L81.8041 107.563Z" fill="#01A982"/>
<path fill-rule="evenodd" clip-rule="evenodd" d="M166.358 60.9074L119.695 107.571L166.358 154.234L213.021 107.571L166.358 60.9074ZM116.717 107.571L166.358 157.212L216 107.571L166.358 57.9289L116.717 107.571Z" fill="#01A982"/>
<path fill-rule="evenodd" clip-rule="evenodd" d="M166.548 59.751H131.446V57.9289H166.361L166.548 59.751Z" fill="#01A982"/>
<path fill-rule="evenodd" clip-rule="evenodd" d="M132.27 155.441L166.362 155.382V157.204L131.446 157.204L132.27 155.441Z" fill="#01A982"/>
</svg>
