<svg width="216" height="210" viewBox="0 0 216 210" fill="none" xmlns="http://www.w3.org/2000/svg">
<g clip-path="url(#clip0)">
<path d="M216 209.993V105.01C216 46.9914 167.647 0 107.973 0C48.2996 0 0 46.9914 0 105.01C0 163.028 48.3797 209.993 107.973 209.993C131.598 210.054 154.605 202.457 173.548 188.339C184.681 206.522 216 209.993 216 209.993ZM107.973 163.055C74.9459 163.055 48.0593 136.996 48.0593 104.876C48.0593 72.7565 74.759 46.671 107.893 46.671C141.027 46.671 167.754 72.7298 167.754 104.876C167.754 137.023 141.027 163.055 107.973 163.055Z" fill="#FF8300"/>
</g>
<defs>
<clipPath id="clip0">
<rect width="216" height="209.993" fill="white"/>
</clipPath>
</defs>
</svg>
