<svg width="216" height="216" viewBox="0 0 216 216" fill="none" xmlns="http://www.w3.org/2000/svg">
<path d="M216 212.993V108.01C216 49.9914 167.647 3 107.973 3C48.2996 3 0 49.9914 0 108.01C0 166.028 48.3797 212.993 107.973 212.993C131.598 213.054 154.605 205.457 173.548 191.339C184.681 209.522 216 212.993 216 212.993ZM107.973 166.055C74.9459 166.055 48.0593 139.996 48.0593 107.876C48.0593 75.7565 74.759 49.671 107.893 49.671C141.027 49.671 167.754 75.7298 167.754 107.876C167.754 140.023 141.027 166.055 107.973 166.055Z" fill="#FF8300"/>
</svg>
