<svg width="216" height="216" viewBox="0 0 216 216" fill="none" xmlns="http://www.w3.org/2000/svg">
<path d="M67.9006 179.263C67.9006 179.211 67.9006 179.162 67.9006 179.113H74.7159C74.7118 179.166 74.7118 179.219 74.7159 179.272L67.9006 179.263Z" fill="#DDEACA"/>
<path d="M74.7082 179.105H67.8929C60.0117 178.783 52.2416 177.132 44.9107 174.222C34.1252 169.955 24.5451 163.12 17.0023 154.311C9.45959 145.503 4.18242 134.986 1.62921 123.676C0.5241 118.988 -0.0225299 114.186 0.000710963 109.37C0.033281 107.36 -0.048144 105.341 0.082136 103.339C0.463993 96.8312 1.78733 90.4131 4.01089 84.2846C10.5982 66.3778 22.3967 53.0915 39.4063 44.4257C49.9749 39.1519 61.6988 36.6149 73.5031 37.0473C90.586 37.7555 105.548 43.7569 118.389 55.0518C121.996 58.2485 125.264 61.8094 128.139 65.6779C128.327 65.9261 128.498 66.1825 128.738 66.5284L120.51 72.0673C117.494 67.9477 113.998 64.2016 110.095 60.9081C106.182 57.6548 101.891 54.8838 97.3158 52.6547C98.1952 50.5995 99.0217 48.6583 99.8848 46.6356C94.3153 44.0728 88.4275 42.2674 82.3784 41.2676C71.6273 39.501 60.6102 40.314 50.2352 43.6397C39.8602 46.9653 30.4246 52.7084 22.7061 60.3953C17.7942 65.308 13.652 70.9332 10.419 77.0812L16.074 80.3045C8.43634 96.4084 7.32896 112.903 13.676 129.577C20.0231 146.25 31.842 157.792 48.3102 164.755C47.3738 167.331 46.4537 169.875 45.501 172.508C55.5159 176.552 66.3444 178.176 77.1054 177.247C87.8665 176.317 98.2561 172.862 107.429 167.161C116.76 161.394 124.17 153.73 129.959 144.35C130.269 144.496 130.541 144.622 130.81 144.757C131.079 144.891 131.347 145.05 131.665 145.225C131.478 145.554 131.339 145.827 131.176 146.079C120.648 162.24 106.057 172.704 87.3046 177.319C83.8368 178.166 80.3019 178.711 76.7397 178.947C76.0639 178.995 75.384 179.056 74.7082 179.105Z" fill="#87BE49"/>
<path d="M20.0804 82.5713L21.0453 82.9783C28.2189 69.6011 38.8448 60.1878 53.2448 55.3286C67.6448 50.4693 81.7436 51.5152 95.5492 57.746L96.1395 56.7611C102.851 60.051 108.867 64.5993 113.862 70.1587C112.054 71.8476 110.198 73.4144 108.357 75.0179C96.8072 62.7029 82.684 56.8954 65.8576 58.507C52.7644 59.7808 41.8535 65.6046 33.2387 75.547C25.0292 85.0536 20.7365 97.3214 21.2285 109.871C21.7205 122.42 26.9605 134.314 35.8891 143.149C46.0672 153.214 58.4642 158.085 72.7868 157.58C87.1095 157.076 98.9813 151.106 108.655 140.488L114.354 145.013C99.3843 163.893 69.2123 172.451 43.1563 157.89C14.5232 141.888 7.20713 107.547 20.0804 82.5713Z" fill="#87BE48"/>
<path d="M113.072 85.827L108.134 88.1264C107.775 87.5404 107.474 87.0398 107.112 86.4497L110.116 84.2683C100.443 68.9377 82.1468 60.5947 64.1804 63.2319V66.7319C51.3967 69.2836 41.5605 75.9864 34.9895 87.2189C30.9219 94.1304 29.0136 102.099 29.5096 110.103C29.9277 119.59 33.6373 128.635 40.0012 135.685C46.4542 142.946 54.5356 147.369 64.1397 149.164V152.42C71.4679 153.372 78.5967 152.827 85.5504 150.483C94.9143 147.325 102.528 141.696 108.557 133.736L105.894 131.493L106.582 130.374C108.264 131.343 109.876 132.291 111.468 133.296C101.852 149.03 81.6705 159.477 59.9056 154.052C49.2911 151.39 39.9269 145.134 33.4059 136.349C26.8849 127.564 23.6098 116.792 24.1377 105.865C24.6655 94.9384 28.9637 84.532 36.3012 76.4158C43.6387 68.2996 53.5622 62.975 64.3839 61.3476C87.3784 57.9901 105.723 71.29 113.072 85.827Z" fill="#0E9DC7"/>
<path d="M50.8467 172.106C51.722 169.737 52.5525 167.495 53.4116 165.187C67.3719 169.485 81.0554 168.968 94.4172 163.254C107.779 157.54 117.574 147.935 124.137 134.863L131.205 137.749C126.592 147.563 119.62 156.084 110.913 162.551C102.205 169.018 92.0315 173.23 81.2996 174.812C70.979 176.379 60.862 175.41 50.8467 172.106Z" fill="#87BE48"/>
<path d="M93.3222 47.165L90.5659 53.5544C77.8799 48.8498 65.1288 48.4307 52.3328 52.7405C39.5369 57.0503 29.6315 65.1532 22.3929 76.6379L16.5669 73.3292C24.2428 60.6444 36.1443 51.0686 50.1811 46.2837C64.218 41.4988 79.4926 41.8109 93.3222 47.165Z" fill="#87BE48"/>
<path d="M90.3341 132.454L92.4878 134.855C88.4768 137.911 83.8293 140.025 78.8898 141.041C73.9594 142.041 68.8683 141.932 63.985 140.724C63.7325 141.863 63.4923 142.95 63.2562 144.032C52.4348 141.949 42.1508 133.313 38.2302 123.309L41.2592 121.681C37.3834 112.415 37.3549 103.16 41.4628 94.0073C44.2102 87.8504 48.7948 82.6932 54.5885 79.2424C66.3218 72.0918 80.274 73.3372 89.7071 79.3726C89.3 79.6982 88.9336 80.0237 88.5346 80.3086C86.8776 81.4848 87.5453 81.4522 85.7376 80.5569C82.2668 78.8017 78.4879 77.7375 74.6109 77.4232C66.1183 76.7598 58.5905 79.1528 52.101 84.647C46.5209 89.273 42.8433 95.7936 41.7722 102.961C40.3147 112.195 42.6312 120.493 48.6404 127.672C53.2196 133.259 59.6993 136.961 66.8389 138.07C70.7569 138.769 74.7746 138.684 78.6595 137.82C82.5443 136.955 86.2191 135.33 89.471 133.036L90.3341 132.454Z" fill="#0E9DC7"/>
<path d="M174.45 105.305V106.896H175.406H189.175C189.432 106.896 189.688 106.896 189.941 106.896C190.351 106.935 190.733 107.122 191.016 107.421C191.299 107.72 191.464 108.112 191.48 108.524C191.468 108.936 191.306 109.33 191.023 109.63C190.74 109.93 190.356 110.116 189.945 110.152C189.692 110.176 189.436 110.152 189.18 110.152H175.411H174.45V111.751H175.472C181.082 111.751 186.692 111.751 192.302 111.751C192.669 111.715 193.039 111.784 193.367 111.951C193.696 112.117 193.971 112.374 194.159 112.691C194.335 112.996 194.429 113.341 194.432 113.693C194.435 114.044 194.346 114.391 194.175 114.698C194.004 115.006 193.757 115.264 193.456 115.447C193.156 115.63 192.813 115.732 192.461 115.744C185.971 115.682 179.482 115.715 172.996 115.719C172.741 115.73 172.486 115.69 172.247 115.602C172.007 115.514 171.787 115.38 171.6 115.206C171.43 115.036 171.3 114.831 171.22 114.605C171.139 114.38 171.109 114.139 171.132 113.9C171.132 110.669 171.132 107.441 171.111 104.214C171.111 103.73 171.111 103.249 171.111 102.769C171.111 101.768 171.543 101.345 172.557 101.3C172.756 101.3 172.964 101.3 173.151 101.3C179.584 101.3 186.016 101.3 192.449 101.3C192.817 101.265 193.186 101.347 193.505 101.533C193.824 101.719 194.077 102.001 194.228 102.338C194.406 102.679 194.482 103.066 194.445 103.449C194.408 103.833 194.26 104.197 194.02 104.499C193.861 104.734 193.643 104.924 193.388 105.051C193.134 105.178 192.851 105.237 192.567 105.223C191.406 105.223 190.242 105.223 189.082 105.223H175.394L174.45 105.305Z" fill="#0C5182"/>
<path d="M101.782 85.6645C93.1347 75.0099 82.1179 69.9553 68.4751 70.6431V65.5071C72.469 64.7257 81.5031 65.6414 88.6196 68.7059C96.3794 72.0512 102.95 77.9361 106.126 82.543L101.782 85.6645Z" fill="#0B9DC7"/>
<path d="M142.902 113.908C142.881 114.246 142.772 114.573 142.584 114.855C142.397 115.138 142.139 115.365 141.835 115.516C141.519 115.712 141.152 115.808 140.78 115.794C140.409 115.779 140.05 115.654 139.751 115.435C138.489 114.572 137.21 113.729 135.989 112.81C135.36 112.336 134.585 112.097 133.799 112.134C127.879 112.161 121.958 112.161 116.036 112.134C115.501 112.12 114.978 112.286 114.55 112.606C113.288 113.522 111.997 114.397 110.706 115.268C110.434 115.467 110.13 115.619 109.807 115.715C109.371 115.812 108.915 115.762 108.51 115.575C108.104 115.387 107.772 115.071 107.564 114.676C107.357 114.28 107.285 113.828 107.359 113.388C107.434 112.947 107.652 112.544 107.979 112.24C108.171 112.074 108.376 111.922 108.589 111.784C113.157 108.634 117.741 105.496 122.293 102.326C123.361 101.554 124.692 101.236 125.994 101.443C126.552 101.52 127.086 101.721 127.557 102.029C132.296 105.285 137.015 108.569 141.737 111.845C142.099 112.053 142.398 112.354 142.603 112.717C142.808 113.08 142.911 113.492 142.902 113.908ZM130.366 108.903C130.143 108.719 130.045 108.63 129.959 108.557C128.738 107.698 127.517 106.835 126.263 105.989C125.379 105.382 124.915 105.382 124.015 105.989C122.794 106.831 121.544 107.69 120.315 108.544C120.209 108.618 120.115 108.707 119.907 108.894L130.366 108.903Z" fill="#075081"/>
<path d="M68.7278 150.67C68.6789 148.782 68.6341 146.987 68.5894 145.095C81.2917 145.579 91.7303 141.025 100.109 131.538L104.551 135.01C100.509 139.912 95.4402 143.868 89.7029 146.601C83.1769 149.736 75.9531 151.137 68.7278 150.67Z" fill="#099DC7"/>
<path d="M148.813 112.533C148.813 112.94 148.813 113.286 148.813 113.619C148.821 114.191 148.631 114.747 148.276 115.194C148.136 115.384 147.953 115.538 147.743 115.644C147.532 115.75 147.3 115.805 147.064 115.805C146.829 115.805 146.597 115.75 146.386 115.644C146.176 115.538 145.993 115.384 145.853 115.194C145.5 114.782 145.307 114.256 145.312 113.713C145.312 110.258 145.312 106.795 145.312 103.347C145.288 103.084 145.322 102.819 145.413 102.571C145.503 102.322 145.647 102.097 145.834 101.91C146.021 101.724 146.248 101.581 146.497 101.491C146.745 101.402 147.011 101.369 147.274 101.394C152.799 101.394 158.324 101.394 163.848 101.394C164.444 101.393 165.032 101.53 165.565 101.795C166.099 102.059 166.563 102.445 166.922 102.92C167.574 103.713 167.975 104.682 168.074 105.704C168.21 106.947 168.071 108.204 167.667 109.387C167.028 111.283 165.574 112.5 163.396 112.492C158.865 112.472 154.33 112.492 149.798 112.517L148.813 112.533ZM148.854 108.256C149.094 108.256 149.237 108.284 149.375 108.284H163.29C163.458 108.31 163.628 108.3 163.791 108.256C164.1 108.144 164.379 107.963 164.605 107.726C164.757 107.519 164.845 107.272 164.858 107.015C164.871 106.758 164.809 106.503 164.679 106.282C164.575 106.064 164.406 105.884 164.195 105.768C163.984 105.651 163.742 105.603 163.502 105.631C158.752 105.631 154.003 105.631 149.253 105.631C149.115 105.641 148.978 105.667 148.846 105.708L148.854 108.256Z" fill="#085081"/>
<path d="M68.8826 101.406H77.2124C78.2587 101.406 78.8002 101.748 79.1422 102.602C79.3067 103.027 79.3492 103.489 79.2651 103.936C79.1809 104.383 78.9733 104.798 78.6658 105.134C78.4968 105.283 78.2991 105.395 78.0849 105.465C77.8707 105.535 77.6445 105.561 77.42 105.541C74.448 105.541 71.4719 105.581 68.4959 105.598C66.0002 105.598 63.5086 105.598 61.0129 105.598C59.4414 105.598 58.6272 106.298 58.3177 107.848C58.1647 108.574 58.2386 109.33 58.5294 110.013C58.6958 110.499 59.0168 110.917 59.4433 111.202C59.8698 111.488 60.3782 111.627 60.8908 111.596C66.3015 111.596 71.7162 111.686 77.1269 111.568C79.0282 111.523 79.7325 113.55 79.0608 114.779C78.9216 115.075 78.703 115.327 78.4291 115.507C78.1553 115.686 77.837 115.787 77.5096 115.796C77.2816 115.796 77.0536 115.796 76.8297 115.796H61.4404C57.7966 115.796 55.3009 113.672 54.735 110.034C54.5341 108.987 54.5432 107.911 54.762 106.868C54.9807 105.825 55.4048 104.835 56.0093 103.957C57.1941 102.277 58.7696 101.341 60.8948 101.369C63.5574 101.406 66.22 101.369 68.8867 101.369L68.8826 101.406Z" fill="#085081"/>
<path d="M102.189 110.246H85.448C85.4236 110.473 85.3869 110.685 85.3828 110.901C85.3828 111.78 85.3828 112.655 85.3828 113.534C85.4023 114.135 85.1993 114.722 84.8129 115.182C84.6704 115.37 84.4852 115.52 84.2726 115.622C84.0601 115.723 83.8264 115.772 83.5909 115.765C83.3555 115.758 83.1252 115.695 82.9192 115.581C82.7132 115.466 82.5375 115.305 82.4068 115.109C82.1158 114.696 81.9465 114.209 81.9182 113.705C81.8734 110.307 81.8938 106.908 81.8938 103.53C81.8967 102.987 82.1012 102.463 82.4678 102.061C82.6135 101.867 82.8051 101.713 83.0254 101.611C83.2456 101.51 83.4876 101.464 83.7298 101.479C83.9719 101.494 84.2065 101.569 84.4126 101.697C84.6187 101.825 84.7898 102.002 84.9106 102.212C85.1606 102.681 85.313 103.196 85.3584 103.726C85.4053 104.403 85.4175 105.082 85.3951 105.761C85.4093 105.835 85.4312 105.907 85.4602 105.976H102.234C102.234 105.126 102.234 104.308 102.234 103.49C102.231 103.191 102.292 102.896 102.414 102.623C102.535 102.351 102.714 102.108 102.938 101.911C103.076 101.766 103.244 101.652 103.429 101.577C103.615 101.501 103.814 101.465 104.014 101.472C104.214 101.478 104.411 101.527 104.591 101.615C104.771 101.702 104.93 101.827 105.059 101.98C105.444 102.365 105.663 102.885 105.67 103.429C105.67 106.912 105.67 110.396 105.637 113.876C105.649 114.304 105.513 114.724 105.252 115.064C104.991 115.404 104.621 115.644 104.204 115.744C103.178 115.911 102.295 115.097 102.242 113.9C102.205 112.997 102.222 112.089 102.213 111.186C102.189 110.876 102.189 110.596 102.189 110.246Z" fill="#0A5181"/>
<path d="M201.238 111.576C201.645 111.576 201.942 111.576 202.248 111.576C206.132 111.576 210.016 111.67 213.896 111.556C215.492 111.507 216.477 113.367 215.764 114.702C215.629 115.019 215.401 115.287 215.11 115.472C214.82 115.657 214.48 115.75 214.136 115.74C209.287 115.74 204.442 115.74 199.593 115.74C199.135 115.751 198.69 115.582 198.354 115.269C198.019 114.957 197.819 114.525 197.798 114.067C197.788 113.898 197.788 113.728 197.798 113.558C197.798 110.274 197.798 106.986 197.798 103.702C197.767 103.132 197.942 102.57 198.291 102.118C198.433 101.913 198.624 101.746 198.847 101.633C199.07 101.519 199.318 101.463 199.568 101.47C199.818 101.476 200.063 101.545 200.28 101.67C200.497 101.794 200.679 101.971 200.811 102.184C201.115 102.63 201.266 103.162 201.242 103.702C201.242 105.968 201.242 108.235 201.242 110.502L201.238 111.576Z" fill="#034F80"/>
</svg>
