<svg width="201" height="216" viewBox="0 0 201 216" fill="none" xmlns="http://www.w3.org/2000/svg">
<path d="M107.02 8.90207C119.327 8.90207 131.094 11.2637 141.92 15.5608L137.838 24.787C128.26 21.0584 117.874 19.0111 107.02 19.0111C76.3013 19.0111 49.3088 35.3617 33.875 60.0349L25.2532 55.0995C42.3861 27.3389 72.6004 8.90207 107.02 8.90207ZM198.002 162.995C179.467 193.265 146.094 213.464 108 213.464C94.2314 213.464 81.0807 210.822 69.0227 206.023L73.6124 194.02C38.9174 180.661 14.3718 147.568 14.3718 108C14.3718 92.7123 18.0375 78.2815 24.5352 65.5356L16.1868 60.7861C33.3257 27.5248 68.0054 4.77741 108 4.77741C123.698 4.77741 138.574 8.28797 151.896 14.5569L148.363 23.5026C162.44 30.2411 174.573 40.3903 183.687 52.8844L195.655 44.9053C176.044 17.7078 144.092 0 108 0C48.3532 0 0 48.3532 0 108C0 167.647 48.3532 216 108 216C147.038 216 181.236 195.286 200.209 164.25L198.002 162.995ZM199.844 153.077L188.979 148.624C174.15 178.541 143.461 199.092 108 199.092C98.6634 199.092 89.6575 197.667 81.1842 195.022L77.3123 205.681C87.249 208.99 97.8633 210.787 108.893 210.787C148.898 210.787 183.47 187.237 199.844 153.077ZM165.378 157.286C151.448 173.255 130.908 183.352 108 183.352C66.0386 183.352 32.0222 149.476 32.0222 107.687C32.0222 65.8986 66.0386 32.0222 108 32.0222C130.713 32.0222 151.095 41.9512 165.018 57.6848L173.242 50.6303C165.638 41.9895 156.342 34.8759 145.877 29.7962L145.299 31.2585C134.283 26.1678 121.994 23.3184 109.03 23.3184C75.5177 23.3184 46.5025 42.3227 32.41 70.0156L30.4085 68.8769C24.4678 80.6355 21.1174 93.9258 21.1174 108C21.1174 155.984 60.0161 194.883 108 194.883C134.512 194.883 158.246 183.004 174.182 164.284L165.378 157.286Z" fill="#8DC801"/>
<path d="M161.651 142.915L165.716 146.276C153.563 163.395 132.137 175.548 108.487 175.548C105.015 175.548 101.605 175.295 98.2707 174.812V169.839C68.2428 164.801 45.3736 138.896 45.3736 107.282C45.3736 75.68 68.2255 49.4428 98.2367 44.3202V39.029C129.394 36.0071 152.238 47.5697 168.143 70.9867L163.458 74.3524C163.949 75.1696 164.428 75.9943 164.883 76.8349L172.492 73.2955C160.382 50.509 136.479 35 108.966 35C69.2204 35 37 67.3617 37 107.282C37 147.202 69.2204 179.564 108.966 179.564C134.679 179.564 157.238 166.017 169.966 145.645L162.858 141.076C162.467 141.697 162.063 142.309 161.651 142.915ZM105.017 172.166C127.157 173.067 145.239 165.056 159.234 148.072L152.753 142.859C140.752 157.22 124.809 164.113 105.017 163.712V172.166ZM104.589 42.3501V50.307C125.48 48.5821 142.066 57.0874 155.495 73.0927L162.276 68.1196C147.491 50.4694 128.655 41.0792 104.589 42.3501ZM141.238 148.064L138.173 144.37C130.38 150.17 120.728 153.62 110.276 153.62C84.4049 153.62 63.432 132.493 63.432 106.855C63.432 81.2169 84.4049 60.433 110.276 60.433C118.658 60.433 126.524 62.6167 133.331 66.438L136.96 63.3882C129.139 58.5671 119.926 55.7828 110.06 55.7828C81.7346 55.7828 58.7724 78.7135 58.7724 107C58.7724 114.527 60.3985 121.683 63.3185 128.132L58.6176 130.605C65.5282 146.39 79.5526 158.279 96.581 162.115L97.9134 156.811C101.808 157.747 105.875 158.237 110.06 158.217C122.085 158.16 132.772 154.397 141.238 148.064Z" fill="#12A5E1"/>
</svg>
