<svg width="216" height="216" viewBox="0 0 216 216" fill="none" xmlns="http://www.w3.org/2000/svg">
<path d="M115.02 8.90207C127.327 8.90207 139.094 11.2637 149.92 15.5608L145.838 24.787C136.26 21.0584 125.874 19.0111 115.02 19.0111C84.3013 19.0111 57.3088 35.3617 41.875 60.0349L33.2532 55.0995C50.3861 27.3389 80.6004 8.90207 115.02 8.90207ZM206.002 162.995C187.467 193.265 154.094 213.464 116 213.464C102.231 213.464 89.0807 210.822 77.0227 206.023L81.6124 194.02C46.9174 180.661 22.3718 147.568 22.3718 108C22.3718 92.7123 26.0375 78.2815 32.5352 65.5356L24.1868 60.7861C41.3257 27.5248 76.0054 4.77741 116 4.77741C131.698 4.77741 146.574 8.28797 159.896 14.5569L156.363 23.5026C170.44 30.2411 182.573 40.3903 191.687 52.8844L203.655 44.9053C184.044 17.7078 152.092 0 116 0C56.3532 0 8 48.3532 8 108C8 167.647 56.3532 216 116 216C155.038 216 189.236 195.286 208.209 164.25L206.002 162.995ZM207.844 153.077L196.979 148.624C182.15 178.541 151.461 199.092 116 199.092C106.663 199.092 97.6575 197.667 89.1842 195.022L85.3123 205.681C95.249 208.99 105.863 210.787 116.893 210.787C156.898 210.787 191.47 187.237 207.844 153.077ZM173.378 157.286C159.448 173.255 138.908 183.352 116 183.352C74.0386 183.352 40.0222 149.476 40.0222 107.687C40.0222 65.8986 74.0386 32.0222 116 32.0222C138.713 32.0222 159.095 41.9512 173.018 57.6848L181.242 50.6303C173.638 41.9895 164.342 34.8759 153.877 29.7962L153.299 31.2585C142.283 26.1678 129.994 23.3184 117.03 23.3184C83.5177 23.3184 54.5025 42.3227 40.41 70.0156L38.4085 68.8769C32.4678 80.6355 29.1174 93.9258 29.1174 108C29.1174 155.984 68.0161 194.883 116 194.883C142.512 194.883 166.246 183.004 182.182 164.284L173.378 157.286Z" fill="#8DC801"/>
<path d="M169.651 142.915L173.716 146.276C161.563 163.395 140.137 175.548 116.487 175.548C113.015 175.548 109.605 175.295 106.271 174.812V169.839C76.2428 164.801 53.3736 138.896 53.3736 107.282C53.3736 75.68 76.2255 49.4428 106.237 44.3202V39.029C137.394 36.0071 160.238 47.5697 176.143 70.9867L171.458 74.3524C171.949 75.1696 172.428 75.9943 172.883 76.8349L180.492 73.2955C168.382 50.509 144.479 35 116.966 35C77.2204 35 45 67.3617 45 107.282C45 147.202 77.2204 179.564 116.966 179.564C142.679 179.564 165.238 166.017 177.966 145.645L170.858 141.076C170.467 141.697 170.063 142.309 169.651 142.915ZM113.017 172.166C135.157 173.067 153.239 165.056 167.234 148.072L160.753 142.859C148.752 157.22 132.809 164.113 113.017 163.712V172.166ZM112.589 42.3501V50.307C133.48 48.5821 150.066 57.0874 163.495 73.0927L170.276 68.1196C155.491 50.4694 136.655 41.0792 112.589 42.3501ZM149.238 148.064L146.173 144.37C138.38 150.17 128.728 153.62 118.276 153.62C92.4049 153.62 71.432 132.493 71.432 106.855C71.432 81.2169 92.4049 60.433 118.276 60.433C126.658 60.433 134.524 62.6167 141.331 66.438L144.96 63.3882C137.139 58.5671 127.926 55.7828 118.06 55.7828C89.7346 55.7828 66.7724 78.7135 66.7724 107C66.7724 114.527 68.3985 121.683 71.3185 128.132L66.6176 130.605C73.5282 146.39 87.5526 158.279 104.581 162.115L105.913 156.811C109.808 157.747 113.875 158.237 118.06 158.217C130.085 158.16 140.772 154.397 149.238 148.064Z" fill="#12A5E1"/>
</svg>
