<svg width="216" height="252" viewBox="0 0 216 252" fill="none" xmlns="http://www.w3.org/2000/svg">
<rect x="2.5" y="2.5" width="211" height="247" stroke="black" stroke-width="5"/>
<path d="M101.304 30.2H176.696V47.8H101.304V30.2Z" fill="#01A982"/>
<path d="M88 30.2H101.304V47.8H88V30.2Z" fill="#01A982"/>
<path d="M176.696 30.2H190V47.8H176.696V30.2Z" fill="#01A982"/>
<path d="M101.304 47.8H176.696V61H101.304V47.8Z" fill="#01A982"/>
<path d="M101.304 17H176.696V30.2H101.304V17Z" fill="#01A982"/>
<path d="M88 30.2L101.304 17V30.2H88Z" fill="#01A982"/>
<path d="M88 47.8L101.304 61V47.8H88Z" fill="#01A982"/>
<path d="M190 30.2L176.696 17V30.2H190Z" fill="#01A982"/>
<path d="M190 47.8L176.696 61V47.8H190Z" fill="#01A982"/>
<path d="M101.304 88.2H176.696V105.8H101.304V88.2Z" fill="#01A982"/>
<path d="M88 88.2H101.304V105.8H88V88.2Z" fill="#01A982"/>
<path d="M176.696 88.2H190V105.8H176.696V88.2Z" fill="#01A982"/>
<path d="M101.304 105.8H176.696V119H101.304V105.8Z" fill="#01A982"/>
<path d="M101.304 75H176.696V88.2H101.304V75Z" fill="#01A982"/>
<path d="M88 88.2L101.304 75V88.2H88Z" fill="#01A982"/>
<path d="M88 105.8L101.304 119V105.8H88Z" fill="#01A982"/>
<path d="M190 88.2L176.696 75V88.2H190Z" fill="#01A982"/>
<path d="M190 105.8L176.696 119V105.8H190Z" fill="#01A982"/>
<path d="M101.304 145.5H176.696V163.5H101.304V145.5Z" fill="#01A982"/>
<path d="M88 145.5H101.304V163.5H88V145.5Z" fill="#01A982"/>
<path d="M176.696 145.5H190V163.5H176.696V145.5Z" fill="#01A982"/>
<path d="M101.304 163.5H176.696V177H101.304V163.5Z" fill="#01A982"/>
<path d="M101.304 132H176.696V145.5H101.304V132Z" fill="#01A982"/>
<path d="M88 145.5L101.304 132V145.5H88Z" fill="#01A982"/>
<path d="M88 163.5L101.304 177V163.5H88Z" fill="#01A982"/>
<path d="M190 145.5L176.696 132V145.5H190Z" fill="#01A982"/>
<path d="M190 163.5L176.696 177V163.5H190Z" fill="#01A982"/>
<path d="M101.304 203.2H176.696V220.8H101.304V203.2Z" fill="#01A982"/>
<path d="M88 203.2H101.304V220.8H88V203.2Z" fill="#01A982"/>
<path d="M176.696 203.2H190V220.8H176.696V203.2Z" fill="#01A982"/>
<path d="M101.304 220.8H176.696V234H101.304V220.8Z" fill="#01A982"/>
<path d="M101.304 190H176.696V203.2H101.304V190Z" fill="#01A982"/>
<path d="M88 203.2L101.304 190V203.2H88Z" fill="#01A982"/>
<path d="M88 220.8L101.304 234V220.8H88Z" fill="#01A982"/>
<path d="M190 203.2L176.696 190V203.2H190Z" fill="#01A982"/>
<path d="M190 220.8L176.696 234V220.8H190Z" fill="#01A982"/>
<circle cx="49" cy="44" r="22" fill="#01A982"/>
<circle cx="49" cy="100" r="22" fill="#01A982"/>
<circle cx="49" cy="156" r="22" fill="#01A982"/>
<circle cx="49" cy="212" r="22" fill="#01A982"/>
</svg>
