<svg width="216" height="217" viewBox="0 0 216 217" fill="none" xmlns="http://www.w3.org/2000/svg">
<path d="M209.574 108.735C209.574 164.833 164.098 210.309 108 210.309C51.9023 210.309 6.42618 164.833 6.42618 108.735C6.42618 52.6374 51.9023 7.16129 108 7.16129C164.098 7.16129 209.574 52.6374 209.574 108.735ZM108 216.235C167.371 216.235 215.5 168.106 215.5 108.735C215.5 49.3645 167.371 1.23511 108 1.23511C48.6294 1.23511 0.5 49.3645 0.5 108.735C0.5 168.106 48.6294 216.235 108 216.235Z" fill="black" stroke="black"/>
<path d="M178.323 114.742C178.323 160.187 141.655 197.016 96.4371 197.016C51.2192 197.016 14.5511 160.187 14.5511 114.742C14.5511 69.2969 51.2192 32.4682 96.4371 32.4682C141.655 32.4682 178.323 69.2969 178.323 114.742ZM96.4371 203.044C144.99 203.044 184.337 163.503 184.337 114.742C184.337 65.9809 144.99 26.4402 96.4371 26.4402C47.8847 26.4402 8.53711 65.9809 8.53711 114.742C8.53711 163.503 47.8847 203.044 96.4371 203.044Z" fill="black" stroke="black"/>
<path fill-rule="evenodd" clip-rule="evenodd" d="M81.3675 183.292C114.104 183.292 140.642 156.631 140.642 123.742C140.642 90.8533 114.104 64.1918 81.3675 64.1918C48.6311 64.1918 22.0931 90.8533 22.0931 123.742C22.0931 156.631 48.6311 183.292 81.3675 183.292ZM81.3675 186.32C115.768 186.32 143.656 158.303 143.656 123.742C143.656 89.181 115.768 61.1638 81.3675 61.1638C46.9666 61.1638 19.0791 89.181 19.0791 123.742C19.0791 158.303 46.9666 186.32 81.3675 186.32Z" fill="black"/>
<path fill-rule="evenodd" clip-rule="evenodd" d="M81.3675 181.292C112.991 181.292 138.642 155.535 138.642 123.742C138.642 91.9491 112.991 66.1918 81.3675 66.1918C49.7444 66.1918 24.0931 91.9491 24.0931 123.742C24.0931 155.535 49.7444 181.292 81.3675 181.292ZM145.656 123.742C145.656 159.399 116.882 188.32 81.3675 188.32C45.8533 188.32 17.0791 159.399 17.0791 123.742C17.0791 88.0852 45.8533 59.1638 81.3675 59.1638C116.882 59.1638 145.656 88.0852 145.656 123.742ZM140.642 123.742C140.642 156.631 114.104 183.292 81.3675 183.292C48.6311 183.292 22.0931 156.631 22.0931 123.742C22.0931 90.8533 48.6311 64.1918 81.3675 64.1918C114.104 64.1918 140.642 90.8533 140.642 123.742ZM143.656 123.742C143.656 158.303 115.768 186.32 81.3675 186.32C46.9666 186.32 19.0791 158.303 19.0791 123.742C19.0791 89.181 46.9666 61.1638 81.3675 61.1638C115.768 61.1638 143.656 89.181 143.656 123.742Z" fill="black"/>
<path fill-rule="evenodd" clip-rule="evenodd" d="M68.3255 175.152C92.7391 175.152 112.53 155.269 112.53 130.742C112.53 106.215 92.7391 86.3318 68.3255 86.3318C43.9119 86.3318 24.1208 106.215 24.1208 130.742C24.1208 155.269 43.9119 175.152 68.3255 175.152Z" fill="black"/>
</svg>
