<svg width="216" height="206" viewBox="0 0 216 206" fill="none" xmlns="http://www.w3.org/2000/svg">
<path fill-rule="evenodd" clip-rule="evenodd" d="M168.514 144.169V205.582L106.739 197.566V151.714L168.514 144.169ZM113.463 157.666V191.658L161.79 197.93V151.764L113.463 157.666Z" fill="#BBBBBB"/>
<path fill-rule="evenodd" clip-rule="evenodd" d="M31.0972 28.2522L65.5563 35.5617V61.7676L31.0972 66.9886V28.2522ZM37.8209 36.5518V59.1694L58.8326 55.9858V41.0088L37.8209 36.5518Z" fill="#FF8300"/>
<path fill-rule="evenodd" clip-rule="evenodd" d="M216 47.135V185.004L73.5408 166.039V63.0128L216 47.135ZM80.2645 69.0288V160.151L209.276 177.326V54.6498L80.2645 69.0288Z" fill="#82FFF2"/>
<path fill-rule="evenodd" clip-rule="evenodd" d="M0 0L139.518 18.102V124.549L0 137.795V0ZM6.72374 7.65248V130.402L132.794 118.434V24.0097L6.72374 7.65248Z" fill="#9160EE"/>
</svg>
