<svg width="216" height="216" viewBox="0 0 216 216" fill="none" xmlns="http://www.w3.org/2000/svg">
<path fill-rule="evenodd" clip-rule="evenodd" d="M168.514 149.169V210.582L106.739 202.566V156.714L168.514 149.169ZM113.463 162.666V196.658L161.79 202.93V156.764L113.463 162.666Z" fill="#BBBBBB"/>
<path fill-rule="evenodd" clip-rule="evenodd" d="M31.0972 33.2522L65.5563 40.5617V66.7676L31.0972 71.9886V33.2522ZM37.8209 41.5518V64.1694L58.8326 60.9858V46.0088L37.8209 41.5518Z" fill="#FF8300"/>
<path fill-rule="evenodd" clip-rule="evenodd" d="M216 52.135V190.004L73.5408 171.039V68.0128L216 52.135ZM80.2645 74.0288V165.151L209.276 182.326V59.6498L80.2645 74.0288Z" fill="#82FFF2"/>
<path fill-rule="evenodd" clip-rule="evenodd" d="M0 5L139.518 23.102V129.549L0 142.795V5ZM6.72374 12.6525V135.402L132.794 123.434V29.0097L6.72374 12.6525Z" fill="#9160EE"/>
</svg>
