<svg width="216" height="108" viewBox="0 0 216 108" fill="none" xmlns="http://www.w3.org/2000/svg">
<path d="M18.1617 21.1887V3.30213H0V21.1887H18.1617ZM18.1617 103.742V29.7192H0V103.742H18.1617Z" fill="#00567A"/>
<path d="M110.868 103.742V88.0569H55.1441V3.30213H36.5696V103.742H110.868Z" fill="#00567A"/>
<path d="M216 53.5221C216 21.0511 195.224 0 165.642 0C136.061 0 115.423 21.0511 115.423 53.5221C115.423 85.8555 135.923 107.044 165.642 107.044C195.362 107.044 216 85.8555 216 53.5221ZM196.462 53.5221C196.462 76.3618 183.804 90.3959 165.642 90.3959C148.306 90.3959 134.96 77.1874 134.96 53.5221C134.96 29.7192 148.444 16.7858 165.642 16.7858C183.667 16.7858 196.462 30.6823 196.462 53.5221Z" fill="#00567A"/>
</svg>
