<svg width="216" height="216" viewBox="0 0 216 216" fill="none" xmlns="http://www.w3.org/2000/svg">
<path d="M18.1617 75.1887V57.3021H0V75.1887H18.1617ZM18.1617 157.742V83.7192H0V157.742H18.1617Z" fill="#00567A"/>
<path d="M110.868 157.742V142.057H55.1441V57.3021H36.5696V157.742H110.868Z" fill="#00567A"/>
<path d="M216 107.522C216 75.0511 195.224 54 165.642 54C136.061 54 115.423 75.0511 115.423 107.522C115.423 139.855 135.923 161.044 165.642 161.044C195.362 161.044 216 139.855 216 107.522ZM196.462 107.522C196.462 130.362 183.804 144.396 165.642 144.396C148.306 144.396 134.96 131.187 134.96 107.522C134.96 83.7192 148.444 70.7858 165.642 70.7858C183.667 70.7858 196.462 84.6823 196.462 107.522Z" fill="#00567A"/>
</svg>
