<svg width="216" height="216" viewBox="0 0 216 216" fill="none" xmlns="http://www.w3.org/2000/svg">
<path fill-rule="evenodd" clip-rule="evenodd" d="M87.2727 36.6909C66.5684 39.3807 49.6498 45.336 41 54L37.2391 58.293C36.4403 59.2048 36 60.3756 36 61.5878V107.728V154.235C36 155.222 36.2921 156.187 36.8394 157.009L38.5 159.5C44.2065 167.037 56.7258 173.386 74.5 177.5C84.5 179.5 88.9385 179.989 108 180C128.281 180.013 131 180 143 177C158.035 173.431 168.278 168.732 175 162L178.666 158.049C179.523 157.124 180 155.91 180 154.648V108.59V61.9822C180 61.0581 179.744 60.1521 179.26 59.3647L177.5 56.5C171.837 49.0216 158.372 42.7804 141.273 38.9049C130.148 36.3832 99.3567 35.1207 87.2727 36.6909ZM139.498 51.5675C148.752 53.6365 158.307 57.5114 163.5 61.5C166.468 63.78 166.909 65.0575 166.909 68.522C166.909 72.5985 166.688 72.8414 159.545 76.5718C129.176 92.4351 86.148 92.3978 56.4545 76.4817C49.3756 72.6875 49.0909 72.3766 49.0909 68.4264C49.0909 65.0707 49.5578 63.7602 52.5 61.5C59.7753 55.9115 71.7993 52.0246 88.9091 49.4974C96.48 48.3788 131.676 49.8193 139.498 51.5675ZM73.6364 97.071C101.479 104.368 135.616 101.983 159 91.1045L166.909 87.4246V99.8531V112.282L159.545 116.129C129.176 131.992 86.148 131.955 56.4545 116.038L49.0909 112.092V99.7586V87.4246L57 91.1045C61.3495 93.1274 68.8364 95.8129 73.6364 97.071ZM73.6364 136.628C101.497 143.929 135.615 141.539 159.034 130.645L166.978 126.95L166.67 139.805L166.364 152.66L161.5 156.5C149.46 164.605 127.726 168.202 101.044 167.149C77.5102 166.221 62.4556 162.649 52.5 155L49.0909 151.999V139.49V126.981L57 130.661C61.3495 132.684 68.8364 135.37 73.6364 136.628Z" fill="#436E9C"/>
</svg>
