<svg width="216" height="216" viewBox="0 0 216 216" fill="none" xmlns="http://www.w3.org/2000/svg">
<g clip-path="url(#clip0)">
<path d="M100.171 77.6248C104.067 77.4621 107.611 80.4917 108.22 84.3771C108.437 85.6456 108.346 86.9478 107.953 88.1733C107.877 88.384 107.854 88.61 107.886 88.8315C107.918 89.053 108.004 89.2633 108.136 89.444C110.013 92.3529 112.458 94.8531 115.324 96.7948C115.46 96.9034 115.624 96.9693 115.797 96.9843C115.97 96.9992 116.144 96.9625 116.296 96.8788C117.422 96.3656 118.653 96.1222 119.889 96.1677C121.126 96.2133 122.335 96.5467 123.421 97.1414C123.579 97.2406 123.764 97.2906 123.951 97.285C124.138 97.2794 124.319 97.2184 124.471 97.1099C128.046 95.0676 131.163 92.3117 133.628 89.0134C133.945 88.6004 134.093 88.0824 134.043 87.5642C133.965 86.052 134.454 84.5651 135.414 83.394C136.374 82.223 137.736 81.4519 139.234 81.2314C140.732 81.0109 142.259 81.3569 143.516 82.2017C144.772 83.0465 145.669 84.3295 146.03 85.8C146.246 86.6267 146.284 87.4898 146.142 88.3323C146 89.1748 145.681 89.9777 145.206 90.688C144.732 91.3984 144.112 92.0001 143.388 92.4536C142.664 92.9071 141.852 93.202 141.005 93.3189C140.182 93.4717 139.334 93.4176 138.537 93.1614C138.348 93.0966 138.147 93.0743 137.948 93.0961C137.75 93.1178 137.558 93.1832 137.388 93.2874C134.815 94.6348 132.432 96.3154 130.299 98.286C129.37 99.1314 128.509 100.05 127.606 100.911C127.462 101.04 127.361 101.209 127.315 101.397C127.269 101.584 127.281 101.781 127.348 101.961C127.75 103.268 127.805 104.656 127.508 105.99C127.21 107.324 126.571 108.558 125.652 109.57C125.514 109.71 125.421 109.888 125.385 110.082C125.35 110.276 125.373 110.476 125.453 110.656C126.384 113.273 127.792 115.694 129.606 117.797C129.72 117.93 129.862 118.035 130.022 118.106C130.182 118.177 130.355 118.211 130.53 118.207C132.019 118.237 133.449 118.789 134.571 119.767C135.693 120.745 136.436 122.087 136.668 123.557C136.84 124.475 136.812 125.42 136.588 126.326C136.364 127.233 135.948 128.081 135.368 128.813C134.788 129.546 134.059 130.145 133.228 130.572C132.397 130.998 131.484 131.242 130.551 131.286C128.967 131.351 127.411 130.844 126.169 129.858C124.927 128.872 124.08 127.473 123.783 125.915C123.47 124.313 123.786 122.653 124.665 121.278C124.799 121.085 124.886 120.862 124.918 120.628C124.95 120.395 124.926 120.157 124.849 119.934C124.077 117.376 122.892 114.96 121.342 112.783C121.222 112.599 121.05 112.455 120.848 112.371C120.645 112.287 120.422 112.266 120.208 112.31C118.868 112.41 117.524 112.173 116.298 111.623C115.073 111.073 114.003 110.225 113.187 109.158C112.371 108.091 111.834 106.837 111.624 105.51C111.414 104.183 111.538 102.824 111.985 101.557C112.103 101.296 112.138 101.006 112.087 100.724C112.035 100.443 111.899 100.184 111.696 99.982C109.659 97.4971 107.222 95.3679 104.487 93.6812C104.237 93.5066 103.947 93.3965 103.644 93.3608C103.341 93.3251 103.033 93.3648 102.749 93.4764C101.675 93.83 100.538 93.9566 99.4122 93.8481C98.2862 93.7397 97.1949 93.3985 96.2076 92.8463C95.2202 92.2941 94.3583 91.5428 93.6765 90.6402C92.9946 89.7375 92.5076 88.703 92.2464 87.6023C91.9852 86.5016 91.9554 85.3587 92.159 84.2459C92.3625 83.133 92.7949 82.0746 93.4288 81.1377C94.0628 80.2007 94.8844 79.4056 95.8416 78.8027C96.7989 78.1998 97.8709 77.8023 98.9898 77.6353C99.3827 77.6014 99.7777 77.5979 100.171 77.6248V77.6248Z" fill="#F67B21"/>
<path d="M78.6121 81.3423C80.6081 81.3506 82.5191 82.1512 83.9251 83.568C85.3311 84.9848 86.117 86.9019 86.11 88.8979C86.123 89.7041 85.9987 90.5067 85.7424 91.2712C85.6721 91.4577 85.6437 91.6574 85.6591 91.8561C85.6746 92.0548 85.7335 92.2477 85.8317 92.4211C87.1999 95.1156 89.3725 97.3176 92.0484 98.7218C92.3832 98.9006 92.7729 98.9475 93.1405 98.8531C94.4745 98.55 95.8688 98.6547 97.1425 99.1536C98.4162 99.6526 99.5106 100.523 100.284 101.651C101.057 102.78 101.473 104.114 101.479 105.482C101.484 106.85 101.078 108.188 100.314 109.323C99.5497 110.457 98.4622 111.336 97.1924 111.845C95.9226 112.354 94.5292 112.47 93.1929 112.177C91.8566 111.884 90.6391 111.197 89.6982 110.204C88.7573 109.211 88.1364 107.958 87.9162 106.608C87.7409 105.687 87.7822 104.738 88.0369 103.836C88.1704 103.404 88.1309 102.937 87.9267 102.534C87.1369 100.781 85.9289 99.2482 84.4088 98.0707C83.6579 97.4827 82.8336 97.0206 82.0407 96.4536C81.817 96.2891 81.5556 96.1833 81.2805 96.1457C81.0054 96.1081 80.7252 96.1399 80.4656 96.2383C79.4688 96.5119 78.4266 96.5789 77.403 96.4352C76.3794 96.2916 75.396 95.9403 74.513 95.4029C73.6301 94.8655 72.8662 94.1534 72.2684 93.3102C71.6705 92.467 71.2512 91.5106 71.0362 90.4996C70.8213 89.4885 70.8152 88.4443 71.0183 87.4308C71.2214 86.4173 71.6295 85.456 72.2174 84.6059C72.8054 83.7558 73.5609 83.0348 74.4375 82.4871C75.3141 81.9394 76.2933 81.5767 77.3152 81.421C77.7457 81.3705 78.1787 81.3442 78.6121 81.3423Z" fill="#F67B21"/>
<path d="M138.38 72.8941C137.928 72.8101 137.33 72.7366 136.752 72.5738C136.369 72.4582 135.959 72.4582 135.576 72.5738C132.75 73.4051 130.274 75.1408 128.53 77.5146C128.426 77.6567 128.355 77.8194 128.321 77.9916C128.286 78.1638 128.29 78.3414 128.33 78.5123C128.495 79.9429 128.244 81.3909 127.606 82.6821C126.968 83.9733 125.971 85.0528 124.734 85.7908C123.498 86.5288 122.074 86.894 120.635 86.8424C119.195 86.7908 117.802 86.3246 116.621 85.4999C115.44 84.6752 114.523 83.527 113.979 82.1935C113.435 80.8599 113.288 79.3976 113.556 77.9825C113.823 76.5673 114.493 75.2595 115.486 74.2162C116.479 73.1729 117.752 72.4385 119.152 72.1013C120.821 71.6629 122.594 71.8496 124.135 72.6263C124.363 72.7502 124.617 72.8199 124.876 72.8299C125.136 72.8399 125.394 72.79 125.631 72.6841C128.193 71.7364 130.476 70.1624 132.273 68.1055C132.61 67.7344 132.797 67.2518 132.798 66.7509C132.854 65.6693 133.211 64.6247 133.828 63.7348C134.445 62.8448 135.299 62.1449 136.292 61.7138C137.286 61.2826 138.38 61.1374 139.452 61.2944C140.523 61.4514 141.53 61.9044 142.358 62.6025C143.186 63.3005 143.803 64.2159 144.139 65.2455C144.475 66.2751 144.517 67.3781 144.26 68.4302C144.003 69.4824 143.458 70.442 142.685 71.2009C141.912 71.9599 140.943 72.4881 139.887 72.7261C139.388 72.8096 138.885 72.8657 138.38 72.8941Z" fill="#F67B21"/>
<path d="M112.001 57.2629C111.91 55.4164 112.511 53.6024 113.687 52.1759C114.863 50.7494 116.529 49.8129 118.359 49.5497C119.426 49.3734 120.518 49.4284 121.562 49.7111C122.606 49.9938 123.576 50.4975 124.409 51.1881C125.241 51.8788 125.914 52.7402 126.384 53.714C126.855 54.6878 127.11 55.7513 127.133 56.8323C127.173 58.1461 126.87 59.4476 126.254 60.6089C125.638 61.7701 124.731 62.751 123.621 63.4551C122.511 64.1591 121.237 64.5622 119.924 64.6245C118.611 64.6868 117.304 64.4062 116.133 63.8104C115.711 63.5851 115.218 63.5324 114.757 63.6634C112.17 64.3348 109.939 65.9737 108.525 68.2419C108.342 68.5615 108.246 68.9237 108.246 69.292C108.203 70.5507 107.744 71.7594 106.941 72.73C106.139 73.7006 105.038 74.3786 103.81 74.6582C102.328 74.9746 100.781 74.7015 99.4975 73.8969C98.2137 73.0923 97.2937 71.8194 96.9325 70.3479C96.5713 68.8765 96.7973 67.3222 97.5626 66.0146C98.3279 64.707 99.5723 63.7488 101.032 63.3431C102.094 63.1056 103.198 63.1345 104.246 63.4271C104.573 63.5403 104.925 63.5638 105.264 63.4954C107.725 62.7884 109.911 61.3489 111.533 59.3684C111.749 59.1565 111.91 58.8949 112.001 58.6066C112.093 58.3184 112.113 58.012 112.058 57.7144C112.029 57.5655 112.009 57.4146 112.001 57.2629V57.2629Z" fill="#F67B21"/>
<path d="M-0.000244141 166.019V143.657C0.246535 143.657 0.440808 143.594 0.62983 143.594C3.55442 143.594 6.47377 143.594 9.39836 143.594C11.4762 143.586 13.5124 144.176 15.2633 145.295C16.4074 146.039 17.3886 147.008 18.1476 148.142C18.9066 149.277 19.4276 150.554 19.6791 151.895C20.3253 154.56 20.0876 157.363 19.0017 159.881C17.5158 163.284 14.8643 165.242 11.2308 165.877C10.4622 166.006 9.68409 166.069 8.9048 166.066C6.20598 166.066 3.51242 166.066 0.818852 166.066C0.572073 166.082 0.325294 166.056 -0.000244141 166.019ZM4.10049 161.955C4.19763 161.991 4.29781 162.017 4.39977 162.034C6.21649 162.034 8.03845 162.139 9.83941 161.982C11.0582 161.926 12.2323 161.507 13.2097 160.776C14.1871 160.046 14.9226 159.039 15.3211 157.886C15.8898 156.423 16.0372 154.829 15.7464 153.286C15.1898 150.136 13.0685 147.852 9.80266 147.6C8.0542 147.464 6.28474 147.516 4.52054 147.5C4.37458 147.522 4.23288 147.566 4.10049 147.632V161.955Z" fill="#44546A"/>
<path d="M208.712 166.019H204.296L204.07 165.494C203.645 164.533 202.873 162.711 202.495 161.735H201.524C198.1 161.782 194.698 161.766 191.248 161.735H190.466C190.061 162.711 189.279 164.334 188.864 165.305L188.497 166.019H184.884C184.69 166.019 184.501 165.988 184.207 165.961C184.312 165.673 184.375 165.436 184.475 165.221C187.588 158.269 191.054 150.561 194.152 143.599H198.736C199.633 145.699 200.936 148.64 201.886 150.729C203.986 155.41 206.086 160.09 208.187 164.77C208.334 165.121 208.491 165.494 208.712 166.019ZM200.662 157.928C200.557 157.629 200.494 157.403 200.4 157.172C199.203 154.407 198.002 151.643 196.798 148.881C196.695 148.699 196.581 148.524 196.457 148.356C195.932 149.028 192.335 157.345 192.309 157.949L200.662 157.928Z" fill="#F67B21"/>
<path d="M96.4693 166.019V165.095C96.4693 162.645 96.4693 160.203 96.4693 157.77C96.4844 156.988 96.3285 156.212 96.0125 155.497C95.7867 154.985 95.4284 154.542 94.9747 154.214C94.5209 153.886 93.988 153.685 93.4307 153.632C92.8735 153.578 92.312 153.674 91.8042 153.91C91.2963 154.145 90.8604 154.512 90.5413 154.972C90.0059 155.712 89.7224 156.605 89.7327 157.518C89.7327 160.06 89.7327 162.603 89.7327 165.148C89.7327 165.442 89.7327 165.736 89.6907 166.061H86.0153C85.863 165.494 85.8158 151.359 85.968 150.309H89.4124L89.7537 152.084C90.2813 151.345 90.9991 150.762 91.8311 150.398C92.6631 150.034 93.5782 149.901 94.4793 150.015C95.3817 150.044 96.2568 150.331 97.0012 150.842C97.7457 151.353 98.3281 152.066 98.6798 152.898C98.9003 152.635 99.0578 152.452 99.2048 152.263C99.6982 151.589 100.344 151.042 101.09 150.667C101.836 150.292 102.66 150.099 103.495 150.105C104.398 150.074 105.302 150.15 106.188 150.33C108.672 150.924 109.979 152.667 110.473 155.056C110.617 155.796 110.691 156.549 110.693 157.303C110.719 159.928 110.693 162.591 110.693 165.232C110.693 165.478 110.656 165.725 110.635 166.019H106.928C106.928 165.688 106.892 165.394 106.892 165.1C106.892 162.785 106.892 160.469 106.892 158.154C106.899 157.375 106.807 156.599 106.619 155.843C105.868 153.145 103.001 153.218 101.631 154.484C101.25 154.833 100.941 155.255 100.724 155.725C100.507 156.194 100.385 156.702 100.365 157.219C100.323 158.075 100.365 158.931 100.365 159.787C100.365 161.577 100.365 163.362 100.365 165.148V166.019H96.4693Z" fill="#44546A"/>
<path d="M134.263 106.897C134.251 105.488 134.755 104.123 135.679 103.059C136.604 101.995 137.886 101.306 139.283 101.122C139.985 101.076 140.689 101.112 141.383 101.227C141.648 101.282 141.921 101.282 142.186 101.227C144.938 100.176 147.437 98.7692 149.317 96.459C149.831 95.7958 150.293 95.0936 150.698 94.3587C150.887 94.0061 151.01 93.6217 151.06 93.2246C151.217 92.1681 151.733 91.1979 152.521 90.4773C153.309 89.7567 154.322 89.3296 155.388 89.268C156.454 89.2064 157.509 89.5139 158.376 90.1389C159.242 90.7639 159.866 91.6682 160.144 92.6995C160.463 93.8676 160.312 95.1141 159.723 96.1721C159.134 97.2301 158.154 98.0154 156.993 98.3597C156.408 98.4745 155.814 98.5413 155.218 98.5592C154.947 98.5666 154.679 98.6126 154.42 98.6957C151.037 100.122 148.135 102.491 146.061 105.522C145.857 105.807 145.757 106.153 145.778 106.503C145.848 107.937 145.39 109.346 144.492 110.465C143.593 111.583 142.315 112.333 140.9 112.573C137.566 113.135 134.179 110.436 134.263 106.897Z" fill="#F67B21"/>
<path d="M175.57 166.019H172.073C171.968 165.404 171.868 164.774 171.758 164.113C171.632 164.17 171.543 164.181 171.506 164.233C170.969 164.923 170.282 165.479 169.496 165.861C168.711 166.242 167.848 166.438 166.975 166.433C165.305 166.535 163.641 166.15 162.186 165.326C160.55 164.386 159.353 162.836 158.857 161.015C158.241 158.972 158.287 156.787 158.988 154.772C159.339 153.66 159.972 152.658 160.825 151.863C161.678 151.068 162.722 150.507 163.856 150.235C165.798 149.612 167.908 149.782 169.726 150.708C170.415 151.132 171.077 151.596 171.711 152.099C171.806 151.442 171.827 150.776 171.774 150.115C171.8 149.385 171.774 148.655 171.774 147.925V143.656H175.565L175.57 166.019ZM162.307 158.069C162.238 160.5 163.882 162.858 166.838 162.873C167.458 162.896 168.075 162.79 168.652 162.563C169.229 162.336 169.753 161.992 170.191 161.554C170.63 161.115 170.973 160.591 171.2 160.014C171.427 159.438 171.533 158.82 171.511 158.2C171.529 157.595 171.427 156.991 171.211 156.425C170.995 155.859 170.669 155.342 170.251 154.902C169.834 154.463 169.334 154.111 168.779 153.866C168.225 153.621 167.628 153.488 167.022 153.475C166.401 153.434 165.778 153.524 165.195 153.74C164.611 153.955 164.079 154.292 163.634 154.727C163.189 155.162 162.841 155.686 162.612 156.264C162.384 156.843 162.28 157.463 162.307 158.085V158.069Z" fill="#44546A"/>
<path d="M82.844 71.8965C81.8396 71.9049 80.8435 71.7131 79.9141 71.3323C78.9846 70.9515 78.1403 70.3893 77.4306 69.6785C76.7208 68.9678 76.1598 68.1227 75.7802 67.1928C75.4007 66.2628 75.2103 65.2665 75.2201 64.2621C75.2191 62.7502 75.6666 61.272 76.5061 60.0146C77.3457 58.7573 78.5394 57.7773 79.9362 57.1987C81.333 56.6202 82.87 56.469 84.3527 56.7645C85.8355 57.06 87.1972 57.7887 88.2655 58.8585C89.3338 59.9283 90.0607 61.291 90.3541 62.7741C90.6475 64.2573 90.4943 65.7941 89.9138 67.1901C89.3333 68.5861 88.3517 69.7785 87.0932 70.6163C85.8347 71.454 84.3559 71.8996 82.844 71.8965V71.8965Z" fill="#F67B21"/>
<path d="M69.2449 159.561H56.8745C56.9464 159.927 57.0482 160.287 57.179 160.637C57.4895 161.274 57.9599 161.82 58.5442 162.221C59.1286 162.622 59.8069 162.865 60.5131 162.926C61.4602 163.085 62.4299 163.048 63.3619 162.816C64.294 162.585 65.1687 162.165 65.9318 161.582L67.1447 162.758L68.4101 163.987C67.9585 164.349 67.5962 164.685 67.1867 164.953C65.781 165.853 64.1692 166.381 62.5031 166.486C61.2705 166.6 60.0274 166.503 58.8277 166.197C55.9399 165.431 54.0129 163.661 53.2358 160.747C52.6955 158.85 52.756 156.833 53.4091 154.972C54.4592 152.141 56.5279 150.545 59.442 149.983C61.0111 149.675 62.631 149.746 64.1676 150.188C67.0869 151.028 68.6988 153.066 69.1924 155.995C69.3046 156.968 69.359 157.946 69.3552 158.925C69.3355 159.14 69.2987 159.352 69.2449 159.561V159.561ZM56.9742 156.295C57.9141 156.473 64.9499 156.436 65.559 156.253C65.522 155.701 65.3326 155.17 65.0119 154.72C64.6911 154.269 64.2516 153.916 63.7423 153.701C62.9354 153.307 62.0412 153.127 61.1449 153.178C60.2487 153.228 59.3804 153.508 58.6229 153.99C58.2092 154.246 57.8505 154.581 57.5675 154.977C57.2845 155.373 57.0828 155.821 56.9742 156.295V156.295Z" fill="#44546A"/>
<path d="M38.7389 159.576H26.4525C26.4166 159.826 26.4316 160.08 26.4966 160.324C26.5616 160.567 26.6751 160.795 26.8305 160.994C27.187 161.545 27.6647 162.006 28.2271 162.344C28.7896 162.682 29.4218 162.886 30.0754 162.942C31.9605 163.215 33.8771 162.73 35.4048 161.592C35.8038 161.981 36.2186 162.375 36.6282 162.779C37.0377 163.183 37.4 163.556 37.8096 163.966C37.3908 164.459 36.881 164.867 36.3079 165.168C34.9436 165.939 33.4266 166.401 31.8642 166.52C30.3018 166.64 28.7322 166.415 27.2663 165.861C26.211 165.501 25.2579 164.892 24.4875 164.086C23.7171 163.28 23.152 162.301 22.8401 161.23C22.1824 159.281 22.164 157.173 22.7875 155.213C23.7537 152.225 25.8907 150.54 28.9308 149.962C30.4701 149.664 32.0581 149.73 33.5671 150.157C36.5232 150.986 38.1299 153.039 38.6549 156.001C38.8546 157.182 38.8829 158.386 38.7389 159.576V159.576ZM35.0267 156.253C34.9828 155.99 34.9232 155.731 34.8482 155.475C34.6787 155.013 34.4056 154.596 34.0497 154.255C33.6938 153.915 33.2647 153.661 32.7952 153.512C31.9149 153.193 30.9674 153.106 30.0439 153.26C29.3399 153.33 28.6651 153.578 28.0822 153.979C27.4994 154.38 27.0273 154.922 26.7098 155.554C26.6071 155.798 26.5177 156.047 26.442 156.3C27.3976 156.478 34.4177 156.436 35.0267 156.253V156.253Z" fill="#44546A"/>
<path d="M156.258 159.556H143.977C143.906 160.001 144.011 160.457 144.271 160.826C144.985 162.134 146.172 162.717 147.579 162.927C149.48 163.209 151.416 162.73 152.966 161.593L154.946 163.541C155.072 163.662 155.182 163.798 155.371 164.008C155.009 164.308 154.683 164.607 154.321 164.854C152.866 165.82 151.181 166.382 149.438 166.481C148.204 166.58 146.963 166.477 145.762 166.177C144.282 165.827 142.943 165.038 141.919 163.914C140.895 162.789 140.234 161.382 140.023 159.876C139.727 158.232 139.857 156.54 140.401 154.961C141.451 152.131 143.51 150.53 146.429 149.963C147.868 149.689 149.349 149.728 150.771 150.078C151.954 150.305 153.053 150.851 153.948 151.657C154.843 152.463 155.5 153.499 155.849 154.652C156.349 156.235 156.489 157.911 156.258 159.556V159.556ZM152.467 156.363C152.514 156.211 152.546 156.164 152.541 156.122C152.539 156.021 152.527 155.921 152.504 155.823C152.365 155.284 152.092 154.79 151.711 154.385C151.331 153.981 150.854 153.678 150.325 153.507C149.469 153.202 148.551 153.114 147.652 153.25C146.896 153.313 146.171 153.581 145.554 154.024C144.937 154.466 144.452 155.068 144.15 155.765C144.088 155.96 144.044 156.16 144.019 156.363H152.467Z" fill="#44546A"/>
<path d="M125.169 150.293L125.448 152.194C125.794 152.262 125.92 151.995 126.099 151.848C126.939 151.08 127.953 150.528 129.055 150.241C132.625 149.453 135.545 151.055 136.778 154.174C137.156 155.082 137.361 156.052 137.382 157.035C137.382 159.907 137.382 162.779 137.382 165.646C137.376 165.743 137.364 165.839 137.346 165.935C136.104 166.135 134.84 166.16 133.591 166.008C133.591 165.762 133.539 165.483 133.539 165.231C133.539 162.79 133.539 160.348 133.539 157.907C133.545 157.454 133.502 157.001 133.413 156.557C133.3 155.802 132.944 155.103 132.4 154.567C131.855 154.031 131.151 153.686 130.394 153.585C129.647 153.434 128.871 153.51 128.167 153.801C127.463 154.093 126.861 154.588 126.44 155.224C125.857 156.027 125.555 156.999 125.579 157.991C125.579 160.38 125.579 162.774 125.579 165.163V166.019H121.814V150.267L125.169 150.293Z" fill="#44546A"/>
<path d="M65.1074 79.3045C63.5244 79.1794 62.0471 78.4612 60.9709 77.2937C59.8947 76.1262 59.299 74.5954 59.303 73.0075C59.307 71.4197 59.9103 69.8919 60.9924 68.7297C62.0744 67.5676 63.5553 66.8569 65.1389 66.7397C66.7218 66.8648 68.1991 67.583 69.2753 68.7505C70.3515 69.918 70.9472 71.4488 70.9432 73.0367C70.9392 74.6246 70.3359 76.1524 69.2538 77.3145C68.1718 78.4766 66.6909 79.1873 65.1074 79.3045V79.3045Z" fill="#F67B21"/>
<path d="M60.382 98.8105C59.1331 98.8104 57.9125 98.4392 56.875 97.7441C55.8375 97.0489 55.03 96.0611 54.5551 94.9061C54.0801 93.7512 53.959 92.4811 54.2073 91.2572C54.4556 90.0332 55.0619 88.9107 55.9494 88.0321C56.8369 87.1535 57.9655 86.5584 59.1918 86.3225C60.4182 86.0865 61.687 86.2203 62.8371 86.7069C63.9873 87.1934 64.9669 88.0108 65.6516 89.0552C66.3363 90.0996 66.6952 91.324 66.6827 92.5727C66.695 93.4006 66.5399 94.2225 66.2268 94.9889C65.9137 95.7554 65.449 96.4508 64.8606 97.0333C64.2722 97.6158 63.5722 98.0735 62.8026 98.3789C62.033 98.6843 61.2097 98.8311 60.382 98.8105V98.8105Z" fill="#F67B21"/>
<path d="M46.4416 153.68C46.4416 153.98 46.3944 154.206 46.3944 154.468C46.3944 156.406 46.3944 158.343 46.3944 160.281C46.3922 160.656 46.4381 161.03 46.5309 161.394C46.6256 161.803 46.8597 162.167 47.193 162.422C47.5264 162.678 47.9382 162.81 48.3581 162.796C48.7104 162.799 49.0621 162.767 49.4082 162.701C49.747 162.623 50.0818 162.529 50.4111 162.418C50.7576 163.468 51.0989 164.518 51.4612 165.594C51.2651 165.698 51.0636 165.791 50.8574 165.872C49.4835 166.307 48.0273 166.415 46.6044 166.187C44.4096 165.82 42.866 164.056 42.6822 161.64C42.5982 160.59 42.6244 159.477 42.6139 158.396C42.6139 157.114 42.6139 155.833 42.6139 154.547C42.6139 154.279 42.5824 154.022 42.5614 153.654H39.6841V150.341H42.5719C42.5719 148.918 42.6087 147.6 42.6297 146.219L46.3629 145.82C46.5361 147.317 46.3629 148.771 46.4889 150.299H50.7471C50.8372 151.394 50.8512 152.494 50.7891 153.591C49.3557 153.712 47.9065 153.575 46.4416 153.68Z" fill="#44546A"/>
<path d="M82.8914 154.541C82.1824 154.232 81.4546 153.967 80.7124 153.748C79.7657 153.546 78.7778 153.685 77.9243 154.142C77.3689 154.42 76.8984 154.842 76.5621 155.364C76.2258 155.886 76.0362 156.488 76.0131 157.109C75.9746 157.61 75.9623 158.113 75.9764 158.616C75.9764 160.805 75.9764 162.99 75.9764 165.179C75.9764 165.452 75.9764 165.704 75.9396 166.035H72.1802V150.267C72.7525 150.267 73.3196 150.267 73.8866 150.267H75.6088C75.7348 150.845 75.8556 151.365 76.0131 152.073C77.2523 150.225 78.9272 149.779 80.8489 149.9C82.2093 149.931 83.5133 150.449 84.5244 151.359L82.8914 154.541Z" fill="#44546A"/>
<path d="M114.657 150.267H118.296L118.354 150.314C118.374 150.33 118.388 150.352 118.396 150.377C118.422 150.446 118.438 150.518 118.443 150.592C118.443 155.549 118.443 160.505 118.443 165.462C118.441 165.587 118.43 165.711 118.412 165.835C118.39 165.9 118.36 165.961 118.322 166.018H114.647L114.657 150.267Z" fill="#44546A"/>
<path d="M156.137 77.3943C156.156 77.9387 156.062 78.481 155.863 78.9879C155.663 79.4948 155.362 79.9555 154.978 80.3416C154.594 80.7277 154.135 81.0311 153.629 81.2331C153.123 81.4351 152.581 81.5314 152.037 81.516C151.492 81.5275 150.951 81.4287 150.445 81.2257C149.94 81.0226 149.48 80.7195 149.095 80.3346C148.709 79.9496 148.406 79.4907 148.202 78.9854C147.998 78.4802 147.899 77.939 147.91 77.3943C147.907 76.8463 148.013 76.3032 148.221 75.7964C148.43 75.2896 148.737 74.8293 149.125 74.442C149.513 74.0547 149.973 73.7483 150.48 73.5403C150.987 73.3324 151.531 73.2271 152.079 73.2306C152.62 73.2339 153.154 73.3447 153.652 73.5565C154.15 73.7682 154.601 74.0767 154.978 74.4641C155.356 74.8514 155.653 75.3099 155.852 75.8129C156.051 76.3159 156.148 76.8535 156.137 77.3943V77.3943Z" fill="#F67B21"/>
<path d="M97.3303 58.6121C95.3823 58.7276 93.2348 56.9424 93.2506 54.4641C93.2971 53.3939 93.7574 52.3835 94.5344 51.6461C95.3114 50.9087 96.3445 50.5019 97.4157 50.5114C98.4869 50.5209 99.5125 50.9461 100.276 51.6972C101.04 52.4483 101.482 53.4667 101.51 54.5376C101.512 55.0823 101.405 55.6218 101.194 56.1241C100.984 56.6264 100.674 57.0812 100.284 57.4614C99.8943 57.8416 99.4318 58.1394 98.9243 58.3371C98.4168 58.5348 97.8747 58.6283 97.3303 58.6121V58.6121Z" fill="#F67B21"/>
<path d="M72.2641 104.828C72.1853 102.823 74.0651 100.754 76.4646 100.817C77.2839 100.831 78.0806 101.088 78.7534 101.556C79.4262 102.023 79.9447 102.681 80.2431 103.444C80.5415 104.207 80.6063 105.042 80.4292 105.842C80.2521 106.642 79.8411 107.371 79.2485 107.937C78.6559 108.503 77.9084 108.88 77.1011 109.02C76.2937 109.16 75.463 109.057 74.7143 108.724C73.9657 108.39 73.3331 107.842 72.8968 107.149C72.4605 106.455 72.2403 105.647 72.2641 104.828Z" fill="#F67B21"/>
<path d="M118.79 145.814C118.797 146.117 118.74 146.418 118.623 146.698C118.506 146.978 118.332 147.23 118.112 147.438C117.892 147.646 117.631 147.806 117.345 147.907C117.059 148.008 116.755 148.048 116.453 148.025C116.005 148.011 115.571 147.865 115.206 147.605C114.841 147.345 114.562 146.983 114.402 146.564C114.243 146.145 114.211 145.689 114.311 145.252C114.411 144.815 114.638 144.418 114.963 144.11C115.289 143.802 115.698 143.597 116.14 143.522C116.582 143.446 117.036 143.503 117.445 143.686C117.854 143.868 118.201 144.167 118.44 144.546C118.679 144.925 118.801 145.366 118.79 145.814V145.814Z" fill="#44546A"/>
<path d="M216 143.588H211.988V165.977H216V143.588Z" fill="#F67B21"/>
</g>
<defs>
<clipPath id="clip0">
<rect width="216" height="216" fill="white"/>
</clipPath>
</defs>
</svg>
