<svg width="216" height="219" viewBox="0 0 216 219" fill="none" xmlns="http://www.w3.org/2000/svg">
<g clip-path="url(#clip0)">
<path fill-rule="evenodd" clip-rule="evenodd" d="M0 -0.00805664L216 28.7168V191.123L0 218.209V-0.00805664ZM7.27861 8.29028V209.973L208.721 184.713V35.0792L7.27861 8.29028Z" fill="#9160EE"/>
<path fill-rule="evenodd" clip-rule="evenodd" d="M120.038 50.3318V150.217L22.0247 136.089V61.6502L120.038 50.3318ZM29.3033 68.1243V129.796L112.76 141.826V58.487L29.3033 68.1243Z" fill="#82FFF2"/>
<path fill-rule="evenodd" clip-rule="evenodd" d="M134.334 75.6992H168.296V103.848H134.334V75.6992ZM141.613 82.9654V96.5823H161.017V82.9654H141.613Z" fill="#BBBBBB"/>
<path fill-rule="evenodd" clip-rule="evenodd" d="M135.804 117.507L193.524 123.028V167.959L135.804 174.677V117.507ZM143.083 125.503V166.514L186.245 161.49V129.632L143.083 125.503Z" fill="#FF8300"/>
</g>
<defs>
<clipPath id="clip0">
<rect width="216" height="218.204" fill="white"/>
</clipPath>
</defs>
</svg>
