<svg width="396" height="248" viewBox="0 0 396 248" fill="none" xmlns="http://www.w3.org/2000/svg">
<path d="M69.7954 209.145C69.7954 226.177 55.9702 240 38.8977 240C21.8252 240 8 226.177 8 209.145C8 192.112 21.8252 178.289 38.8977 178.289C55.9702 178.289 69.7954 192.112 69.7954 209.145Z" stroke="#008567" stroke-width="16"/>
<path d="M73.4734 209.144H224.202L277.146 162.733H396" stroke="#008567" stroke-width="24"/>
<path d="M69.7954 58.4113C69.7954 75.4441 55.9702 89.2668 38.8977 89.2668C21.8252 89.2668 8 75.4441 8 58.4113C8 41.3784 21.8252 27.5558 38.8977 27.5558C55.9702 27.5558 69.7954 41.3784 69.7954 58.4113Z" stroke="#008567" stroke-width="16"/>
<path d="M73.4734 58.4108H224.202L277.146 12H396" stroke="#008567" stroke-width="24"/>
<path d="M143.269 135.751C143.269 152.784 129.444 166.606 112.371 166.606C95.2988 166.606 81.4736 152.784 81.4736 135.751C81.4736 118.718 95.2988 104.895 112.371 104.895C129.444 104.895 143.269 118.718 143.269 135.751Z" stroke="white" stroke-width="16"/>
<path d="M143.269 135.751C143.269 152.784 129.444 166.606 112.371 166.606C95.2988 166.606 81.4736 152.784 81.4736 135.751C81.4736 118.718 95.2988 104.895 112.371 104.895C129.444 104.895 143.269 118.718 143.269 135.751Z" stroke="#17EBA0" stroke-opacity="0.24" stroke-width="16"/>
<path d="M148.026 135.751H219.879L272.823 89.3398H395.459" stroke="white" stroke-width="18"/>
<path d="M148.026 135.751H219.879L272.823 89.3398H395.459" stroke="#17EBA0" stroke-opacity="0.24" stroke-width="18"/>
</svg>
