<svg width="397" height="228" viewBox="0 0 397 228" fill="none" xmlns="http://www.w3.org/2000/svg">
<path d="M69.4045 188.636C69.4045 205.561 55.6668 219.297 38.7022 219.297C21.7377 219.297 8 205.561 8 188.636C8 171.711 21.7377 157.976 38.7022 157.976C55.6668 157.976 69.4045 171.711 69.4045 188.636Z" stroke="#FF8300" stroke-width="16"/>
<path d="M73.1041 188.635H223.075L396 188.635" stroke="#FF8300" stroke-width="18"/>
<path d="M69.4045 38.6603C69.4045 55.5853 55.6668 69.3205 38.7022 69.3205C21.7377 69.3205 8 55.5853 8 38.6603C8 21.7353 21.7377 8 38.7022 8C55.6668 8 69.4045 21.7353 69.4045 38.6603Z" stroke="#FF8300" stroke-width="16"/>
<path d="M73.1041 38.6597L224.005 38.4711L396 38.2563" stroke="#FF8300" stroke-width="18"/>
<path d="M142.509 115.611C142.509 132.536 128.771 146.271 111.807 146.271C94.842 146.271 81.1044 132.536 81.1044 115.611C81.1044 98.6862 94.842 84.9509 111.807 84.9509C128.771 84.9509 142.509 98.6862 142.509 115.611Z" stroke="white" stroke-width="16"/>
<path d="M142.509 115.611C142.509 132.536 128.771 146.271 111.807 146.271C94.842 146.271 81.1044 132.536 81.1044 115.611C81.1044 98.6862 94.842 84.9509 111.807 84.9509C128.771 84.9509 142.509 98.6862 142.509 115.611Z" stroke="#FFBC44" stroke-opacity="0.24" stroke-width="16"/>
<path d="M147.282 115.611H218.774L394.01 115.611" stroke="white" stroke-width="18"/>
<path d="M147.282 115.611H218.774L394.01 115.611" stroke="#FFBC44" stroke-opacity="0.24" stroke-width="18"/>
</svg>
