<svg width="220" height="232" viewBox="0 0 220 232" fill="none" xmlns="http://www.w3.org/2000/svg">
<path d="M6.69405 136.111L3.63745 136.617V67.1935L67.2257 56.6208" stroke="#B5B5B5" stroke-width="5" stroke-miterlimit="10"/>
<path d="M108.012 147.379L44.4238 157.951V88.5282L108.012 77.9556V147.379Z" stroke="#B5B5B5" stroke-width="5" stroke-miterlimit="10"/>
<path d="M44.424 88.5283L3.63745 67.1936" stroke="#B5B5B5" stroke-width="5" stroke-miterlimit="10"/>
<path d="M42.7866 159L2 137.665" stroke="#B5B5B5" stroke-width="5" stroke-miterlimit="10"/>
<path d="M65.1382 56.343L109.827 77.0209" stroke="#B5B5B5" stroke-width="5" stroke-miterlimit="10"/>
<path d="M3.5 210.5L3.63745 207.404V137.968" stroke="#B5B5B5" stroke-width="5" stroke-miterlimit="10"/>
<path d="M108.012 218.166L44.4238 228.726V159.303L108.012 148.73V218.166Z" stroke="#B5B5B5" stroke-width="5" stroke-miterlimit="10"/>
<path d="M44.424 159.303L3.63745 137.968" stroke="#B5B5B5" stroke-width="5" stroke-miterlimit="10"/>
<path d="M42.7866 229.775L2 208.44" stroke="#B5B5B5" stroke-width="5" stroke-miterlimit="10"/>
<path d="M108.012 120.423L132.438 116.356" stroke="#B5B5B5" stroke-width="5" stroke-miterlimit="10"/>
<path d="M173.224 207.114L109.65 217.686V148.263L173.224 137.69V207.114Z" stroke="#B5B5B5" stroke-width="5" stroke-miterlimit="10"/>
<path d="M130.364 116.078L175.053 136.743" stroke="#B5B5B5" stroke-width="5" stroke-miterlimit="10"/>
<path d="M121.333 80.8051L118.482 81.2979V13.5834L178.062 3.271" stroke="#01B3EE" stroke-width="5" stroke-miterlimit="10"/>
<path d="M216.287 91.7951L156.707 102.107V34.3807L216.287 24.0806V91.7951Z" stroke="#01B3EE" stroke-width="5" stroke-miterlimit="10"/>
<path d="M156.706 34.3808L118.482 13.5835" stroke="#01B3EE" stroke-width="5" stroke-miterlimit="10"/>
<path d="M155.171 103.118L116.947 82.3206" stroke="#01B3EE" stroke-width="5" stroke-miterlimit="10"/>
<path d="M176.118 3L218 23.1566" stroke="#01B3EE" stroke-width="5" stroke-miterlimit="10"/>
</svg>
