<svg width="220" height="216" viewBox="0 0 220 216" fill="none" xmlns="http://www.w3.org/2000/svg">
<path d="M6.5263 122.667L3.57886 123.131V59.3681L64.8962 49.6575" stroke="#B5B5B5" stroke-width="5" stroke-miterlimit="10"/>
<path d="M104.226 133.016L42.9087 142.727V78.9636L104.226 69.2529V133.016Z" stroke="#B5B5B5" stroke-width="5" stroke-miterlimit="10"/>
<path d="M42.9088 78.9635L3.57886 59.3682" stroke="#B5B5B5" stroke-width="5" stroke-miterlimit="10"/>
<path d="M41.3299 143.69L2 124.094" stroke="#B5B5B5" stroke-width="5" stroke-miterlimit="10"/>
<path d="M62.8833 49.4023L105.976 68.3944" stroke="#B5B5B5" stroke-width="5" stroke-miterlimit="10"/>
<path d="M3.44653 190.991L3.57908 188.148V124.373" stroke="#B5B5B5" stroke-width="5" stroke-miterlimit="10"/>
<path d="M104.226 198.032L42.9087 207.731V143.968L104.226 134.258V198.032Z" stroke="#B5B5B5" stroke-width="5" stroke-miterlimit="10"/>
<path d="M42.9088 143.968L3.57886 124.373" stroke="#B5B5B5" stroke-width="5" stroke-miterlimit="10"/>
<path d="M41.3299 208.694L2 189.099" stroke="#B5B5B5" stroke-width="5" stroke-miterlimit="10"/>
<path d="M104.226 108.258L127.779 104.522" stroke="#B5B5B5" stroke-width="5" stroke-miterlimit="10"/>
<path d="M167.109 187.881L105.805 197.591V133.828L167.109 124.117V187.881Z" stroke="#B5B5B5" stroke-width="5" stroke-miterlimit="10"/>
<path d="M125.779 104.267L168.872 123.248" stroke="#B5B5B5" stroke-width="5" stroke-miterlimit="10"/>
<path d="M124.786 79.8917L122.036 80.3444V18.1506L179.489 8.67896" stroke="#01B3EE" stroke-width="5" stroke-miterlimit="10"/>
<path d="M216.348 89.9855L158.896 99.4572V37.2521L216.348 27.7917V89.9855Z" stroke="#01B3EE" stroke-width="5" stroke-miterlimit="10"/>
<path d="M158.895 37.2524L122.036 18.1506" stroke="#01B3EE" stroke-width="5" stroke-miterlimit="10"/>
<path d="M157.415 100.385L120.556 81.2834" stroke="#01B3EE" stroke-width="5" stroke-miterlimit="10"/>
<path d="M177.614 8.42993L218 26.9432" stroke="#01B3EE" stroke-width="5" stroke-miterlimit="10"/>
</svg>
