<svg width="216" height="216" viewBox="0 0 216 216" fill="none" xmlns="http://www.w3.org/2000/svg">
<g clip-path="url(#clip0)">
<path d="M124.812 201.628V214.672C124.812 215.647 124.718 215.737 123.728 215.737H120.696C119.834 215.737 119.72 215.617 119.72 214.735C119.72 203.367 119.72 191.997 119.72 180.625C119.72 180.025 119.735 179.442 119.72 178.851C119.705 178.337 119.9 178.076 120.443 178.052C122.479 177.962 124.511 177.794 126.547 177.752C129.231 177.704 131.918 177.704 134.605 177.77C136.622 177.818 138.631 178.037 140.549 178.754C143.344 179.799 145.11 181.757 145.653 184.697C146.285 188.077 146.285 191.546 145.653 194.926C144.99 198.503 142.708 200.421 139.243 201.091C138.85 201.169 138.46 201.238 137.979 201.328C138.105 201.541 138.201 201.712 138.304 201.877L146.205 214.458C146.307 214.597 146.394 214.746 146.464 214.903C146.611 215.293 146.509 215.584 146.073 215.68C145.886 215.717 145.696 215.735 145.506 215.734C144.629 215.734 143.75 215.692 142.876 215.734C141.717 215.804 140.949 215.323 140.342 214.341C138.063 210.669 135.737 207.024 133.437 203.37C133.074 202.79 132.806 202.01 132.278 201.718C131.75 201.427 130.942 201.619 130.261 201.616C128.456 201.625 126.685 201.628 124.812 201.628ZM124.842 197.401C128.744 197.286 132.569 197.289 136.382 197.028C139.036 196.845 140.261 195.677 140.705 193.311C141.156 190.924 141.096 188.468 140.531 186.105C140.102 184.303 138.988 183.129 137.157 182.802C135.684 182.509 134.192 182.321 132.692 182.237C130.237 182.144 127.772 182.204 125.313 182.201C125.163 182.201 125.013 182.216 124.842 182.225V197.401Z" fill="#5C5C5E"/>
<path d="M61.0183 84.6797L63.0268 76.3115C63.2368 76.3904 63.4381 76.491 63.6272 76.6117C65.0233 77.7167 66.4103 78.8396 67.8063 79.9476C69.9579 81.6591 72.1115 83.3676 74.2671 85.0731C76.4648 86.8206 78.6684 88.5591 80.848 90.3276C81.3144 90.7496 81.7555 91.1988 82.169 91.6728L81.0281 91.7839C81.2623 91.967 81.4334 92.1052 81.6106 92.2373C88.0974 97.0074 94.5822 101.785 101.065 106.569C101.752 107.073 102.464 107.542 103.167 108.025C103.348 108.063 103.523 108.128 103.686 108.217C105.217 109.418 106.736 110.64 108.261 111.856C110.258 113.448 112.26 115.03 114.251 116.63C114.911 117.159 115.542 117.726 116.187 118.276C115.395 118.876 114.623 119.492 113.806 120.047C113.589 120.172 113.411 120.357 113.295 120.579C113.179 120.802 113.13 121.053 113.152 121.302C113.191 122.789 113.152 124.278 113.152 125.764C112.972 125.735 112.798 125.677 112.636 125.593C112.059 125.161 111.501 124.692 110.939 124.251L105.112 119.606C103.152 118.048 101.185 116.498 99.2276 114.94C97.2702 113.382 95.2767 111.784 93.3042 110.202C91.3318 108.619 89.3803 107.103 87.4379 105.545C85.4954 103.986 83.499 102.392 81.5265 100.822C79.554 99.2514 77.6026 97.711 75.6452 96.1527L69.1033 90.9431C67.1459 89.3818 65.2004 87.8114 63.2279 86.2621C62.5194 85.7006 61.7539 85.1932 61.0183 84.6797Z" fill="#52B8AE"/>
<path d="M159.509 182.421V195.173H176.49C177.423 195.173 177.597 195.341 177.6 196.266C177.6 197.029 177.6 197.791 177.6 198.554C177.6 199.419 177.423 199.596 176.571 199.596H159.524V211.249H178.195C179.138 211.249 179.288 211.396 179.288 212.336C179.288 213.117 179.288 213.9 179.288 214.681C179.288 215.531 179.089 215.723 178.243 215.723H155.426C154.618 215.723 154.408 215.516 154.408 214.705C154.408 202.781 154.408 190.856 154.408 178.932C154.408 178.115 154.597 177.935 155.429 177.935H178.246C179.117 177.935 179.282 178.1 179.288 178.965C179.288 179.766 179.288 180.566 179.288 181.367C179.288 182.229 179.105 182.406 178.249 182.406H159.509V182.421Z" fill="#5C5C5E"/>
<path d="M75.8305 201.63V214.541C75.8305 215.697 75.7735 215.742 74.5966 215.742C73.6059 215.742 72.6152 215.742 71.6214 215.742C70.8859 215.742 70.7388 215.595 70.7388 214.886C70.7388 202.888 70.7388 190.89 70.7388 178.894C70.7388 178.359 70.8949 178.08 71.4713 178.053C73.4888 177.966 75.5033 177.798 77.5178 177.753C80.2198 177.703 82.9218 177.703 85.6238 177.753C87.5515 177.756 89.467 178.06 91.301 178.654C94.2162 179.666 96.1046 181.629 96.666 184.701C97.3129 188.079 97.3129 191.549 96.666 194.928C95.9394 198.612 93.8829 200.543 90.1091 201.062C87.8514 201.362 85.5638 201.512 83.2881 201.603C81.0124 201.693 78.7847 201.621 76.5391 201.621L75.8305 201.63ZM75.8606 197.297H76.428C78.6977 197.297 80.9673 197.336 83.234 197.297C84.7922 197.261 86.3563 197.15 87.9055 196.997C89.914 196.777 91.244 195.585 91.6553 193.622C92.1655 191.149 92.1266 188.595 91.5412 186.139C91.1239 184.338 90.001 183.164 88.1757 182.836C86.7029 182.542 85.211 182.354 83.7114 182.272C81.3306 182.176 78.9439 182.239 76.5601 182.233H75.8606V197.297Z" fill="#5C5C5E"/>
<path d="M44.9739 211.49C47.3397 211.49 49.7054 211.514 52.0682 211.49C53.2717 211.511 54.4675 211.294 55.5868 210.851C56.2248 210.608 56.7757 210.181 57.1685 209.623C57.5612 209.064 57.7778 208.401 57.7904 207.719C57.8399 206.882 57.8399 206.043 57.7904 205.206C57.6733 203.329 56.6796 202.017 55.0013 201.269C53.0559 200.405 51.0744 199.624 49.102 198.816C46.9374 197.915 44.7878 197.015 42.5931 196.195C39.702 195.123 38.0868 193.093 37.7205 190.07C37.4683 187.968 37.3663 185.89 37.8436 183.815C38.4441 181.173 40.0743 179.476 42.6652 178.666C44.7299 178.053 46.8703 177.732 49.0239 177.714C52.7857 177.624 56.5295 177.981 60.2432 178.432C60.7596 178.495 61.0328 178.711 61.0028 179.281C60.9698 179.948 61.0028 180.614 61.0028 181.284C61.0028 182.017 60.8347 182.185 60.1021 182.185H54.3679C52.4224 182.185 50.465 182.185 48.5315 182.185C47.2464 182.158 45.9721 182.425 44.8058 182.966C44.1458 183.255 43.5871 183.735 43.2005 184.344C42.814 184.952 42.6172 185.662 42.6352 186.382C42.6352 186.983 42.6352 187.605 42.6592 188.214C42.6613 188.943 42.8638 189.658 43.2445 190.28C43.6251 190.903 44.1694 191.408 44.8178 191.742C45.4002 192.066 46.0018 192.355 46.6191 192.607C50.2218 194.108 53.8245 195.582 57.4271 197.087C59.4266 197.921 61.1889 199.083 62.0866 201.149C62.4817 202.056 62.7358 203.018 62.8402 204.002C63.0203 205.836 63.1013 207.698 62.7201 209.526C62.0926 212.529 60.2312 214.37 57.3161 215.168C54.7288 215.84 52.0532 216.108 49.3842 215.961C45.5503 215.808 41.7315 215.535 37.9007 215.291C37.1771 215.246 37 215.027 37 214.328C37 213.628 37 212.991 37 212.322C37 211.652 37.1831 211.511 37.8166 211.508H44.9739V211.49Z" fill="#5C5C5E"/>
<path d="M61.228 43.651C61.4352 43.633 61.6423 43.6 61.8495 43.6H69.8744C70.0786 43.6 70.2857 43.633 70.4929 43.651C70.6101 43.8578 70.7523 44.0494 70.9162 44.2215C71.7658 44.9181 72.6335 45.5907 73.4951 46.2753C75.4646 47.8487 77.435 49.422 79.4065 50.9954C81.3779 52.5688 83.3364 54.1251 85.2818 55.6644C87.4284 57.3789 89.572 59.1024 91.7216 60.8139C93.8712 62.5254 96.0328 64.2249 98.1794 65.9363C100.521 67.804 102.854 69.6866 105.193 71.5542C107.394 73.3177 109.605 75.0753 111.824 76.8268C112.233 77.1481 112.698 77.3943 113.139 77.6765C113.139 80.0786 113.139 82.4807 113.139 84.8828C112.959 84.8564 112.784 84.7984 112.623 84.7116C109.921 82.5617 107.237 80.3969 104.535 78.253C104.11 77.9537 103.665 77.6819 103.205 77.4393C103.167 77.2538 103.151 77.0641 103.16 76.8748C103.244 76.3314 102.983 76.0161 102.56 75.7008C94.4416 69.4954 86.3286 63.29 78.2206 57.0847C78.1 57.02 77.9705 56.9734 77.8363 56.9465C77.5577 56.8457 77.291 56.7148 77.0407 56.5562C74.696 54.6946 72.3693 52.812 70.0275 50.9473C67.1694 48.6654 64.3023 46.3954 61.4502 44.1104C61.3331 44.0233 61.3181 43.8102 61.228 43.651Z" fill="#6DBC92"/>
<path d="M61.0185 84.6756C61.751 85.2041 62.5016 85.7115 63.2101 86.273C65.1796 87.8223 67.113 89.3927 69.0855 90.954L75.6273 96.1635C77.5848 97.7229 79.5452 99.2792 81.5087 100.833C83.4811 102.403 85.4476 103.985 87.42 105.556C89.3925 107.126 91.3409 108.648 93.3044 110.198C95.2678 111.747 97.2433 113.35 99.2158 114.924C101.188 116.497 103.14 118.031 105.1 119.59L110.927 124.235C111.489 124.685 112.047 125.136 112.624 125.577C112.786 125.661 112.96 125.718 113.14 125.748C113.14 128.535 113.133 131.322 113.119 134.11C112.941 134.072 112.769 134.008 112.609 133.921C109.907 131.762 107.205 129.585 104.485 127.433C104.074 127.147 103.645 126.889 103.2 126.661C103.182 125.31 103.026 123.941 103.182 122.61C103.368 121.016 102.707 120.133 101.464 119.232C92.9982 113.092 84.5949 106.871 76.1707 100.673L69.1755 95.527C69.0704 95.4489 68.9564 95.3829 68.7732 95.2628L67.2901 101.247C67.0803 101.159 66.8792 101.051 66.6897 100.926C64.5281 99.2022 62.3845 97.4576 60.2139 95.7432C59.6995 95.3792 59.1663 95.0425 58.6167 94.7343C59.4173 91.3754 60.2179 88.0225 61.0185 84.6756Z" fill="#4AB6B4"/>
<path d="M82.1708 91.6625C81.7573 91.1884 81.3162 90.7393 80.8498 90.3173C78.6702 88.5488 76.4665 86.8102 74.2689 85.0627C72.1153 83.3553 69.9617 81.6468 67.8081 79.9373C66.4121 78.8293 65.025 77.7064 63.629 76.6014C63.4398 76.4807 63.2386 76.3801 63.0286 76.3012C63.3768 74.7698 63.7191 73.2685 64.0763 71.7672C64.6087 69.5113 65.1441 67.2583 65.6825 65.0084C65.7092 64.9184 65.7413 64.8302 65.7786 64.7441C65.9585 64.7987 66.1309 64.8754 66.292 64.9723C68.4356 66.6838 70.5672 68.4103 72.7167 70.1158C73.2451 70.5332 73.8186 70.8935 74.374 71.2778C74.3652 71.4792 74.3431 71.6798 74.3079 71.8783C73.6234 74.7648 72.9349 77.6483 72.2424 80.5288C72.1523 80.8981 72.0683 81.2675 71.9662 81.6968H77.0309C79.3547 81.6968 81.6774 81.7068 83.9991 81.7269C84.0832 81.886 84.1282 82.0932 84.2573 82.1953C87.876 85.0737 91.4957 87.9492 95.1163 90.8217C95.3979 91.0824 95.6589 91.3645 95.8969 91.6655C95.6718 91.6865 95.4466 91.7195 95.2214 91.7195C94.4048 91.7195 93.5882 91.7195 92.7716 91.7195H82.507C82.3936 91.7094 82.2812 91.6903 82.1708 91.6625Z" fill="#5CBAA6"/>
<path d="M141.639 19.3957C142.071 16.9576 142.497 14.5195 142.936 12.0844C143.422 9.38205 143.905 6.67971 144.41 3.97737C144.627 2.82234 145.254 1.78453 146.175 1.05471C147.096 0.324901 148.249 -0.0478682 149.423 0.00492915C152.077 0.107018 154.128 2.00166 154.251 4.50883C154.305 5.6288 154.065 6.77579 153.867 7.89276C152.906 13.3124 151.918 18.7261 150.937 24.1428C150.813 24.8124 150.678 25.479 150.546 26.1456C150.204 25.9264 149.835 25.7372 149.517 25.488C147.511 23.9056 145.524 22.3052 143.512 20.7289C142.912 20.2605 142.266 19.8401 141.639 19.3957Z" fill="#99CA41"/>
<path d="M150.101 105.97L147.858 96.6618C147.747 96.2084 147.63 95.761 147.489 95.1875L144.093 97.7037C143.915 97.6458 143.743 97.5672 143.583 97.4695C142.68 96.7789 141.785 96.0783 140.896 95.3676C138.365 93.3409 135.843 91.3051 133.309 89.2874C130.403 86.9724 127.485 84.6724 124.585 82.3513C124.414 82.1616 124.274 81.9457 124.171 81.7118H131.271C131.542 82.0538 131.838 82.375 132.157 82.6726C134.105 84.243 136.077 85.7863 138.032 87.3477C140.185 89.0622 142.322 90.7887 144.475 92.5002C146.627 94.2116 148.789 95.9111 150.935 97.6256C153.472 99.6464 155.991 101.688 158.534 103.7C159.018 104.048 159.519 104.37 160.035 104.667C160.436 106.394 160.845 108.123 161.263 109.852C161.713 111.754 162.165 113.656 162.617 115.557C162.232 115.338 161.859 115.097 161.5 114.837C158.144 112.182 154.802 109.51 151.446 106.856C151.026 106.534 150.551 106.267 150.101 105.97Z" fill="#72BE8A"/>
<path d="M149.599 60.8095C150.124 62.9624 150.655 65.1152 151.172 67.2711C151.472 68.4872 151.727 69.7062 152 70.9223C151.778 70.83 151.565 70.7175 151.364 70.586C150.136 69.6101 148.92 68.6193 147.692 67.6404C145.49 65.8809 143.289 64.1274 141.087 62.3799C140.589 61.9865 140.036 61.6623 139.511 61.3049C139.148 59.8577 138.784 58.4134 138.403 56.8911L136.542 58.2423C136.433 58.0891 136.31 57.9472 136.173 57.8189C135.509 57.2845 134.828 56.771 134.164 56.2395C131.812 54.3599 129.464 52.4773 127.118 50.5916C124.914 48.8321 122.711 47.0696 120.495 45.3281C119.994 44.9317 119.444 44.6045 118.916 44.2472V43.6466C119.046 43.6218 119.177 43.6047 119.309 43.5956C122.059 43.5956 124.809 43.5956 127.559 43.5956C127.69 43.6027 127.821 43.6188 127.949 43.6436C128.262 44.0063 128.597 44.3493 128.952 44.6705C130.928 46.2649 132.918 47.8383 134.906 49.4176L140.775 54.0867L146.11 58.3384C147.101 59.1281 148.091 59.9237 149.097 60.6984C149.214 60.8035 149.427 60.7765 149.599 60.8095Z" fill="#85C36E"/>
<path d="M109.85 196.874V214.665C109.85 215.565 109.687 215.737 108.793 215.737C107.763 215.737 106.736 215.737 105.707 215.737C104.998 215.737 104.806 215.529 104.758 214.821C104.758 214.668 104.758 214.521 104.758 214.364V179.354C104.758 179.24 104.758 179.123 104.758 179.009C104.779 178.108 104.941 177.949 105.836 177.946H108.754C109.73 177.946 109.856 178.078 109.856 179.084L109.85 196.874Z" fill="#5C5C5E"/>
<path d="M113.141 77.6756C112.699 77.3934 112.24 77.1472 111.826 76.8259C109.608 75.0784 107.397 73.3209 105.194 71.5533C102.855 69.6857 100.522 67.8031 98.1804 65.9355C96.0338 64.224 93.8722 62.5245 91.7226 60.813C89.573 59.1016 87.4294 57.3781 85.2829 55.6636C83.3254 54.1063 81.367 52.5499 79.4075 50.9946C77.4481 49.4392 75.4776 47.8659 73.4961 46.2745C72.6345 45.5899 71.7668 44.9173 70.9172 44.2207C70.7533 44.0486 70.6111 43.857 70.4939 43.6502C72.0641 43.6352 73.6312 43.6112 75.2014 43.6022C75.6157 43.6022 76.03 43.6352 76.4443 43.6532C76.5683 43.8553 76.7111 44.0453 76.8706 44.2207C77.1318 44.4639 77.435 44.6651 77.7172 44.8903C79.6867 46.4636 81.6552 48.037 83.6226 49.6104C85.5801 51.1687 87.5465 52.7181 89.501 54.2764C91.4554 55.8347 93.4399 57.4261 95.4094 58.9965C97.3788 60.5668 99.3813 62.1612 101.372 63.7406C103.362 65.3199 105.29 66.8543 107.244 68.4126C109.199 69.971 111.18 71.5623 113.159 73.1237C113.81 73.6371 114.492 74.1085 115.161 74.598C114.998 74.7552 114.824 74.8998 114.639 75.0303C113.63 75.6278 112.873 76.3605 113.141 77.6756Z" fill="#70BD8E"/>
<path d="M61.2282 43.65C61.3032 43.8091 61.3333 44.0223 61.4563 44.1214C64.3205 46.4064 67.1756 48.6764 70.0247 50.9583C72.3664 52.8229 74.6932 54.7056 77.0379 56.5672C77.2874 56.7252 77.5531 56.856 77.8305 56.9575C77.6714 57.6961 77.5303 58.4378 77.3441 59.1734C76.8938 61.032 76.4435 62.8846 75.9721 64.7402C75.8097 64.6941 75.6542 64.6265 75.5098 64.5391C73.183 62.6835 70.8683 60.8158 68.5356 58.9693C68.1407 58.6912 67.7286 58.4384 67.3017 58.2126C67.722 56.411 68.1393 54.5915 68.5776 52.6848H58.2049C56.5687 52.6848 55.1697 52.1594 54.2 50.7812C53.7232 50.1547 53.4272 49.4095 53.3441 48.6266C53.261 47.8437 53.394 47.053 53.7286 46.3403C54.4281 44.755 55.6621 43.7911 57.4154 43.677C58.6823 43.59 59.9582 43.653 61.2282 43.65Z" fill="#6ABC99"/>
<path d="M116.188 118.276C115.542 117.726 114.912 117.159 114.251 116.63C112.261 115.03 110.258 113.447 108.261 111.855C106.736 110.639 105.217 109.42 103.685 108.216C103.523 108.126 103.348 108.062 103.166 108.024C103.166 104.358 103.166 100.69 103.166 97.018C103.175 96.9436 103.191 96.8702 103.214 96.7988C103.392 96.8417 103.563 96.9094 103.721 97C106.517 99.2102 109.303 101.435 112.102 103.642C112.436 103.871 112.789 104.072 113.155 104.243V108.099L115.584 106.372C115.638 106.472 115.705 106.564 115.783 106.645C117.716 108.183 119.662 109.708 121.593 111.252C122.253 111.777 122.881 112.342 123.523 112.891L116.188 118.276Z" fill="#5CBAA6"/>
<path d="M60.6847 128.978C60.2003 131.071 59.711 133.164 59.2166 135.256C58.7753 137.145 58.3159 139.03 57.8806 140.922C57.6338 142.057 57.0003 143.071 56.0885 143.791C55.1767 144.511 54.0432 144.891 52.8819 144.867C51.7358 144.849 50.6322 144.431 49.7608 143.686C48.8895 142.942 48.3052 141.916 48.1084 140.787C47.9837 140.169 47.9837 139.532 48.1084 138.913C49.3693 133.467 50.6723 128.029 51.9662 122.588C51.9878 122.535 52.016 122.484 52.0503 122.438C52.2402 122.517 52.423 122.613 52.5967 122.723C54.7463 124.438 56.8839 126.167 59.0425 127.873C59.5679 128.278 60.1413 128.611 60.6847 128.978Z" fill="#17B1D1"/>
<path d="M115.16 74.598C114.49 74.1086 113.809 73.6372 113.157 73.1237C111.179 71.5624 109.215 69.983 107.243 68.4127C105.27 66.8423 103.34 65.299 101.37 63.7406C99.4009 62.1823 97.3924 60.5819 95.4079 58.9965C93.4234 57.4111 91.472 55.8528 89.4995 54.2764C87.5271 52.7001 85.5786 51.1687 83.6212 49.6104C81.6637 48.052 79.6853 46.4637 77.7158 44.8903C77.4336 44.6651 77.1154 44.4639 76.8692 44.2207C76.7096 44.0453 76.5669 43.8553 76.4429 43.6532C77.6438 43.6352 78.8266 43.6022 80.0185 43.6022C81.2104 43.6022 82.4413 43.6352 83.6542 43.6532C83.8093 43.901 83.9915 44.1306 84.1976 44.3378C85.5936 45.4668 87.0077 46.5747 88.4007 47.6887C90.175 49.0999 91.9553 50.5051 93.7237 51.9284C94.198 52.3127 94.6243 52.7481 95.0867 53.1594H89.6827L89.6376 53.2735L102.976 63.4824L103.163 63.4584C103.163 62.8308 103.163 62.2033 103.163 61.5757C103.163 60.9482 103.184 60.2486 103.193 59.585C103.403 59.6641 103.604 59.7647 103.793 59.8853C105.889 61.5447 107.979 63.2102 110.065 64.8816C112.467 66.7973 114.868 68.7009 117.27 70.6256C117.762 71.0219 118.207 71.4813 118.675 71.9107L115.16 74.598Z" fill="#72BE8A"/>
<path d="M149.597 60.8106C149.426 60.7776 149.213 60.8106 149.09 60.7085C148.084 59.9339 147.093 59.1382 146.103 58.3485L140.768 54.0968L134.898 49.4278C132.911 47.8484 130.92 46.2751 128.945 44.6807C128.59 44.3595 128.255 44.0165 127.942 43.6538C128.092 43.6388 128.242 43.6088 128.392 43.6088C132.71 43.6088 137.026 43.6088 141.341 43.6088C141.491 43.6088 141.641 43.6418 141.791 43.6568C141.837 43.7954 141.907 43.9247 141.999 44.0381C142.968 44.8308 143.947 45.6085 144.926 46.3862C147.228 48.2087 149.54 50.0193 151.831 51.8509C152.091 52.0911 152.332 52.3511 152.551 52.6286L148.513 52.6796C148.27 52.6796 148.027 52.6796 147.706 52.6796C148.351 55.439 148.982 58.1233 149.597 60.8106Z" fill="#89C465"/>
<path d="M160.034 104.685C159.517 104.388 159.016 104.066 158.533 103.718C155.99 101.706 153.471 99.6643 150.934 97.6436C148.787 95.9291 146.623 94.2326 144.473 92.5181C142.324 90.8036 140.177 89.0801 138.024 87.3806C136.07 85.8193 134.098 84.2759 132.149 82.7056C131.83 82.4079 131.534 82.0868 131.263 81.7448H139.045C139.176 81.9846 139.329 82.2109 139.505 82.4203C139.76 82.6696 140.078 82.8527 140.357 83.0779L149.007 89.9839C151.609 92.0617 154.209 94.1425 156.827 96.2023C157.271 96.5077 157.737 96.7806 158.22 97.019L159.896 104.195C159.935 104.363 159.989 104.523 160.034 104.685Z" fill="#76BF85"/>
<path d="M141.639 19.3954C142.267 19.8398 142.912 20.2602 143.516 20.7377C145.525 22.3142 147.512 23.9148 149.521 25.4973C149.839 25.7465 150.209 25.9357 150.551 26.1549C149.93 29.6523 149.308 33.1557 148.683 36.6651H138.475C138.748 35.1216 139.009 33.6082 139.285 32.0977C140.036 27.9577 140.791 23.8167 141.549 19.6747C141.579 19.5726 141.612 19.4855 141.639 19.3954Z" fill="#93C850"/>
<path d="M62.82 9.78806C62.5528 8.31364 62.1624 6.84521 62.0453 5.35877C61.9198 4.10233 62.288 2.84635 63.072 1.85659C63.856 0.866835 64.9942 0.220957 66.2459 0.0556288C69.1013 -0.274691 71.4583 1.45499 71.9687 4.2597C72.5692 7.60695 73.1767 10.9552 73.7913 14.3044C74.0525 15.7729 74.2987 17.2443 74.5539 18.7127C74.0074 18.3223 73.443 17.956 72.9145 17.5386C69.945 15.1903 66.9905 12.824 64.018 10.4817C63.6362 10.2215 63.2357 9.98968 62.82 9.78806Z" fill="#81C274"/>
<path d="M103.204 40.1212C103.186 39.5927 103.156 39.0612 103.156 38.5327C103.156 34.9292 103.156 31.3357 103.156 27.7523C103.164 27.64 103.181 27.5285 103.207 27.4189C103.654 27.7192 104.126 27.9805 104.543 28.3198C106.897 30.1696 109.233 32.0464 111.593 33.8932C112.092 34.2443 112.608 34.57 113.139 34.8692C113.139 36.3316 113.166 37.794 113.166 39.2564C113.166 42.0281 113.148 44.8028 113.139 47.5775C112.911 47.503 112.693 47.4023 112.488 47.2772C109.834 45.1751 107.191 43.0491 104.534 40.947C104.108 40.6456 103.663 40.3699 103.204 40.1212Z" fill="#81C272"/>
<path d="M113.137 34.8597C112.606 34.5606 112.089 34.2349 111.591 33.8838C109.231 32.037 106.895 30.1602 104.541 28.3104C104.123 27.9801 103.64 27.7098 103.205 27.4095C103.205 25.5417 103.085 23.6649 103.268 21.8151C103.496 19.4788 105.769 17.7011 108.177 17.7191C109.36 17.7238 110.503 18.1493 111.401 18.9195C112.3 19.6897 112.895 20.7544 113.08 21.9232C113.134 22.3002 113.161 22.6805 113.161 23.0613C113.161 26.7649 113.161 30.4685 113.161 34.1721C113.164 34.4033 113.146 34.6315 113.137 34.8597Z" fill="#89C465"/>
<path d="M139.505 61.3081C140.031 61.6655 140.583 61.9898 141.081 62.3831C143.295 64.1248 145.497 65.8785 147.687 67.6442C148.915 68.6232 150.131 69.6142 151.359 70.5901C151.561 70.7216 151.774 70.8342 151.996 70.9264L153.824 78.6169C154.152 79.9832 154.485 81.3525 154.812 82.7189C154.616 82.6835 154.426 82.6177 154.251 82.5237C153.275 81.7729 152.317 81.0042 151.353 80.2385C148.969 78.3406 146.594 76.4368 144.201 74.5539C143.601 74.0795 142.949 73.6531 142.322 73.2267C141.76 70.9024 141.19 68.5782 140.637 66.2479C140.25 64.6053 139.883 62.9567 139.505 61.3081Z" fill="#81C274"/>
<path d="M118.91 44.2482C119.439 44.6055 119.988 44.9328 120.49 45.3292C122.706 47.0709 124.909 48.8336 127.113 50.5933C129.465 52.4731 131.814 54.356 134.16 56.2418C134.824 56.7733 135.505 57.2868 136.169 57.8213C136.306 57.9496 136.43 58.0915 136.538 58.2447L130.701 62.71C130.627 62.5399 130.525 62.3828 130.401 62.2446C128.618 60.8122 126.819 59.3978 125.039 57.9654C124.306 57.3649 123.603 56.7463 122.886 56.1337L126.029 53.6893C126.207 53.5482 126.387 53.413 126.666 53.1968H118.91V44.2482Z" fill="#81C274"/>
<path d="M167.707 136.972C168.104 138.329 168.491 139.674 168.067 141.116C167.762 142.167 167.123 143.092 166.247 143.749C165.371 144.406 164.305 144.76 163.209 144.758C162.122 144.756 161.065 144.394 160.204 143.73C159.342 143.066 158.724 142.137 158.444 141.086C157.318 136.56 156.27 132.017 155.193 127.482C155.188 127.444 155.188 127.406 155.193 127.368C155.775 127.783 156.376 128.173 156.934 128.617C160.039 131.095 163.125 133.59 166.242 136.062C166.712 136.394 167.201 136.698 167.707 136.972Z" fill="#63BB9E"/>
<path d="M103.207 152.893C103.177 152.687 103.157 152.479 103.147 152.271C103.147 148.89 103.147 145.508 103.147 142.127C103.156 141.977 103.174 141.828 103.201 141.68C103.448 141.756 103.686 141.856 103.913 141.98C104.213 142.178 104.465 142.439 104.748 142.662C106.954 144.421 109.155 146.187 111.377 147.929C111.933 148.367 112.551 148.728 113.143 149.13C113.143 151.463 113.167 153.8 113.17 156.136C113.17 157.577 113.152 159.022 113.143 160.463C113.001 160.425 112.865 160.368 112.737 160.295C112.287 159.95 111.837 159.586 111.404 159.232C109.212 157.487 107.027 155.733 104.823 154.001C104.309 153.589 103.745 153.259 103.207 152.893Z" fill="#31B4C6"/>
<path d="M167.706 136.972C167.198 136.701 166.707 136.4 166.235 136.071C163.124 133.599 160.038 131.104 156.927 128.626C156.369 128.182 155.768 127.792 155.186 127.377C154.687 125.329 154.183 123.281 153.684 121.233C153.309 119.66 152.952 118.086 152.585 116.513C152.796 116.572 152.998 116.659 153.186 116.771C156.609 119.492 160.02 122.227 163.446 124.942C163.974 125.324 164.522 125.677 165.088 126.002C165.961 129.657 166.833 133.314 167.706 136.972Z" fill="#68BB97"/>
<path d="M64.8645 111.352C64.0098 114.989 63.1551 118.616 62.3003 122.231C62.1194 122.181 61.9458 122.107 61.7839 122.012C59.6401 120.306 57.5113 118.583 55.3645 116.88C54.824 116.451 54.2325 116.084 53.665 115.679C54.0464 114.036 54.4157 112.391 54.806 110.748C55.2774 108.757 55.7608 106.766 56.2412 104.778C56.3098 104.811 56.376 104.848 56.4394 104.89C58.8414 106.805 61.2615 108.727 63.6845 110.631C64.0613 110.897 64.4555 111.138 64.8645 111.352Z" fill="#31B4C6"/>
<path d="M165.11 125.992C164.544 125.667 163.996 125.314 163.467 124.932C160.042 122.229 156.631 119.482 153.208 116.761C153.02 116.649 152.818 116.562 152.607 116.503C151.775 112.993 150.942 109.483 150.109 105.971C150.56 106.272 151.034 106.536 151.454 106.872C154.811 109.527 158.153 112.199 161.51 114.854C161.868 115.115 162.241 115.355 162.627 115.575C163.167 117.839 163.71 120.103 164.254 122.367L165.11 125.992Z" fill="#6DBC92"/>
<path d="M118.677 71.9221C118.209 71.4927 117.776 71.0212 117.272 70.6368C114.87 68.712 112.468 66.8081 110.066 64.8923C107.976 63.2267 105.885 61.561 103.794 59.8954C103.604 59.7749 103.403 59.6743 103.193 59.5951C103.175 57.9856 103.154 56.379 103.145 54.7695C103.145 54.355 103.178 53.9406 103.193 53.5262C103.339 53.5432 103.481 53.5848 103.613 53.6494C104.352 54.2139 105.076 54.7905 105.802 55.367C107.967 57.0877 110.126 58.8114 112.3 60.52C112.566 60.6906 112.846 60.8373 113.137 60.9585V63.5019L114.591 62.514C114.774 62.613 114.95 62.7233 115.119 62.8443C117.137 64.4458 119.15 66.0474 121.157 67.6489C121.656 68.0483 122.112 68.4958 122.59 68.9192L118.677 71.9221Z" fill="#76BF85"/>
<path d="M64.8635 111.353C64.4548 111.142 64.0606 110.904 63.6835 110.641C61.2605 108.737 58.8524 106.816 56.4384 104.9C56.3751 104.858 56.3088 104.821 56.2402 104.789C57.0409 101.437 57.8346 98.0871 58.6212 94.7379C59.1722 95.0499 59.7064 95.3907 60.2216 95.7589C62.3924 97.4735 64.5362 99.2182 66.6981 100.942C66.8876 101.068 67.0887 101.175 67.2986 101.263C66.4819 104.62 65.6702 107.984 64.8635 111.353Z" fill="#3AB4BE"/>
<path d="M142.326 73.2225C142.954 73.664 143.605 74.0754 144.206 74.5498C146.608 76.4326 148.974 78.3365 151.358 80.2343C152.322 81.0001 153.28 81.7688 154.255 82.5195C154.431 82.6135 154.621 82.6794 154.817 82.7147C155.435 85.2762 156.057 87.8377 156.664 90.4022C156.805 91.0028 156.892 91.6033 157.003 92.2189C156.793 92.1573 156.591 92.0695 156.402 91.9577C154.841 90.7295 153.292 89.4863 151.736 88.2521C149.548 86.5074 147.35 84.7777 145.176 83.015C144.746 82.6152 144.345 82.1857 143.975 81.7298C144.275 81.7298 144.296 81.5886 144.224 81.3214C144.023 80.5707 143.858 79.8199 143.681 79.0512C143.221 77.1083 142.777 75.1654 142.326 73.2225Z" fill="#7BC17D"/>
<path d="M62.8194 9.78552C63.2361 9.98604 63.6375 10.2169 64.0204 10.4762C66.9929 12.8185 69.9474 15.1848 72.9169 17.533C73.4453 17.9504 74.0098 18.3168 74.5563 18.7072C75.1148 21.8002 75.6722 24.8942 76.2287 27.9892C76.0532 27.9398 75.8846 27.8681 75.7273 27.776C74.9646 27.1754 74.226 26.5748 73.4574 25.9742C70.8572 23.9022 68.26 21.8242 65.6508 19.7642C65.2665 19.4991 64.8653 19.2594 64.4498 19.0465C63.9093 16.0896 63.3698 13.1318 62.8314 10.1729C62.819 10.0442 62.8149 9.91477 62.8194 9.78552Z" fill="#7BC17D"/>
<path d="M124.168 81.7272C124.272 81.961 124.412 82.1769 124.583 82.3667C127.483 84.6877 130.401 86.9877 133.307 89.3028C135.841 91.3205 138.363 93.3563 140.894 95.383C141.783 96.0917 142.678 96.7923 143.581 97.4849C143.741 97.5826 143.913 97.6612 144.091 97.7191L140.903 100.073C140.854 99.9714 140.79 99.8773 140.714 99.7939C138.969 98.4067 137.216 97.0315 135.478 95.6413C134.628 94.9597 133.8 94.245 132.962 93.5394L135.397 91.6748H134.622L130.368 91.6688C130.271 91.4714 130.147 91.2885 129.999 91.1253C128.972 90.2876 127.927 89.4769 126.891 88.6512C124.928 87.0838 122.971 85.5014 120.995 83.9461C120.332 83.4236 119.614 82.9703 118.924 82.4868V81.7272H124.168Z" fill="#70BD8E"/>
<path d="M103.205 40.1199C103.663 40.3648 104.106 40.6365 104.532 40.9337C107.189 43.0358 109.831 45.1588 112.486 47.2638C112.69 47.389 112.909 47.4897 113.137 47.5641V56.4948C112.814 56.312 112.501 56.1115 112.2 55.8942C109.435 53.7111 106.679 51.513 103.916 49.3298C103.69 49.1765 103.451 49.0419 103.202 48.9275C103.202 48.0746 103.157 47.2218 103.154 46.372C103.154 44.3961 103.154 42.4192 103.154 40.4412C103.163 40.333 103.18 40.2256 103.205 40.1199Z" fill="#7BC17D"/>
<path d="M113.14 149.121C112.539 148.724 111.939 148.364 111.374 147.919C109.152 146.178 106.951 144.412 104.745 142.652C104.462 142.43 104.207 142.169 103.91 141.971C103.683 141.847 103.445 141.746 103.198 141.67C103.18 141.427 103.147 141.181 103.147 140.938C103.147 138.583 103.147 136.229 103.147 133.875C103.147 133.65 103.18 133.424 103.198 133.199C103.462 133.28 103.714 133.394 103.949 133.538C106.681 135.713 109.398 137.908 112.134 140.082C112.452 140.296 112.789 140.482 113.14 140.637V149.121Z" fill="#3AB4BE"/>
<path d="M123.507 112.905C122.865 112.355 122.237 111.791 121.576 111.265C119.646 109.722 117.7 108.196 115.767 106.659C115.688 106.577 115.622 106.485 115.568 106.386C115.854 106.172 116.136 105.956 116.424 105.746L121.919 101.698C122.089 101.787 122.252 101.887 122.408 101.998C124.632 103.764 126.854 105.535 129.074 107.311C129.372 107.591 129.65 107.892 129.905 108.211L124.528 112.211C124.192 112.415 123.846 112.65 123.507 112.905Z" fill="#63BB9E"/>
<path d="M77.1776 33.1908C77.3967 34.3229 77.6189 35.458 77.8501 36.6442C77.6219 36.6442 77.4568 36.6742 77.2916 36.6742C74.2471 36.6742 71.1995 36.6742 68.1549 36.6742C67.7135 36.6742 67.5784 36.5331 67.5034 36.1127C66.8488 32.3891 66.1642 28.6685 65.4947 24.9478C65.4556 24.7406 65.4466 24.5304 65.4226 24.3232C65.6457 24.4115 65.8607 24.519 66.0652 24.6446C66.5666 25.0199 67.047 25.4223 67.5364 25.8097C69.3119 27.2271 71.0884 28.6444 72.8659 30.0618C74.169 31.1008 75.4721 32.1428 76.7692 33.1698C76.8683 33.2449 77.0454 33.1908 77.1776 33.1908Z" fill="#76BF85"/>
<path d="M103.208 152.891C103.746 153.257 104.31 153.588 104.82 153.99C107.024 155.723 109.21 157.476 111.402 159.221C111.846 159.575 112.285 159.939 112.735 160.284C112.862 160.358 112.999 160.414 113.141 160.452C113.318 162.786 111.363 165.158 108.988 165.488C105.76 165.942 103.148 163.686 103.145 160.422C103.145 158.098 103.145 155.775 103.145 153.453C103.156 153.264 103.177 153.077 103.208 152.891Z" fill="#1EB1CD"/>
<path d="M95.1011 53.1516C94.6478 52.7402 94.2004 52.3048 93.738 51.9204C91.9695 50.4971 90.189 49.0917 88.4145 47.6803C87.0093 46.5663 85.5951 45.4582 84.2109 44.3291C84.0048 44.1218 83.8226 43.8922 83.6675 43.6444C83.8155 43.6187 83.9649 43.6017 84.1149 43.5934H96.9777C97.0888 43.5934 97.2029 43.5934 97.359 43.6144V53.1516H95.1011Z" fill="#76BF85"/>
<path d="M129.905 108.17C129.65 107.851 129.372 107.55 129.073 107.269C126.86 105.49 124.638 103.719 122.408 101.957C122.252 101.846 122.088 101.746 121.918 101.657L128.155 97.0625C128.173 97.1167 128.2 97.1675 128.236 97.2126C130.197 98.7842 132.159 100.355 134.121 101.924C134.778 102.453 135.427 102.999 136.078 103.54C135.589 103.93 135.114 104.336 134.613 104.708C133.049 105.888 131.475 107.026 129.905 108.17Z" fill="#68BB97"/>
<path d="M152.559 52.6265C152.339 52.349 152.099 52.089 151.839 51.8488C149.542 50.017 147.23 48.2062 144.933 46.3835C143.954 45.6057 142.975 44.828 142.005 44.0352C141.914 43.9217 141.843 43.7925 141.798 43.6538C143.065 43.6388 144.335 43.6088 145.605 43.6088C147.083 43.6088 148.56 43.6388 150.037 43.6538C150.161 43.8558 150.304 44.0458 150.463 44.2214C150.698 44.4406 150.977 44.6087 151.229 44.8219C153.065 46.2854 154.899 47.7498 156.733 49.2152C157.955 50.1972 159.168 51.1972 160.384 52.1881C159.807 52.3413 159.234 52.6145 158.651 52.6265C156.619 52.6656 154.589 52.6295 152.559 52.6265Z" fill="#8CC55B"/>
<path d="M122.897 56.1319C123.615 56.7325 124.318 57.3721 125.05 57.9637C126.831 59.3961 128.629 60.8104 130.413 62.2428C130.537 62.381 130.638 62.5381 130.713 62.7083L125.347 66.8103C125.225 66.7677 125.108 66.7112 124.999 66.6421C122.975 65.0545 120.963 63.46 118.961 61.8585C118.394 61.405 117.868 60.8975 117.322 60.4141L122.897 56.1319Z" fill="#7BC17D"/>
<path d="M53.6666 115.687C54.2341 116.083 54.8256 116.449 55.3661 116.888C57.5129 118.59 59.6417 120.314 61.7855 122.02C61.9474 122.115 62.121 122.189 62.3019 122.239C61.8616 124.089 61.4192 125.939 60.9748 127.791L60.6746 128.992C60.1311 128.626 59.5576 128.293 59.0442 127.887C56.8854 126.182 54.7475 124.452 52.5977 122.737C52.4241 122.627 52.2412 122.531 52.0513 122.452C52.2795 121.443 52.4956 120.431 52.7358 119.425C53.0451 118.167 53.3604 116.93 53.6666 115.687Z" fill="#1EB1CD"/>
<path d="M67.3218 58.2124C67.7488 58.4383 68.1609 58.691 68.5559 58.9691C70.8888 60.8159 73.2038 62.6837 75.5308 64.5395C75.6752 64.6269 75.8307 64.6946 75.9932 64.7407C75.801 65.6056 75.6268 66.4764 75.4107 67.3352C75.0834 68.6505 74.7291 69.9568 74.3868 71.2661C73.8313 70.8817 73.2578 70.5213 72.7294 70.1039C70.5796 68.3983 68.4478 66.6716 66.304 64.9599C66.1429 64.863 65.9704 64.7863 65.7905 64.7317L67.3218 58.2124Z" fill="#63BB9E"/>
<path d="M113.14 140.649C112.789 140.494 112.452 140.308 112.134 140.094C109.399 137.92 106.681 135.724 103.949 133.55C103.714 133.406 103.462 133.292 103.198 133.211C103.18 132.037 103.147 130.863 103.147 129.686C103.147 128.683 103.18 127.68 103.198 126.683C103.643 126.911 104.073 127.169 104.483 127.454C107.201 129.608 109.888 131.785 112.608 133.944C112.768 134.031 112.94 134.095 113.119 134.133C113.137 135.436 113.161 136.742 113.167 138.037C113.17 138.911 113.149 139.781 113.14 140.649Z" fill="#46B6B9"/>
<path d="M143.967 81.7272C144.337 82.1831 144.738 82.6126 145.168 83.0124C147.342 84.7751 149.54 86.5048 151.729 88.2495C153.284 89.4837 154.833 90.7269 156.395 91.9551C156.583 92.067 156.785 92.1547 156.995 92.2164C157.19 92.8951 157.404 93.5707 157.575 94.2584C157.803 95.1593 158.001 96.0902 158.211 97.0091C157.729 96.7699 157.265 96.497 156.821 96.1923C154.203 94.1323 151.603 92.0512 149 89.9732L140.349 83.0665C140.07 82.8413 139.749 82.6581 139.496 82.4088C139.321 82.1994 139.167 81.9731 139.037 81.7332L143.967 81.7272Z" fill="#78C081"/>
<path d="M160.393 52.1755C159.177 51.1846 157.964 50.1846 156.742 49.2026C154.911 47.7312 153.076 46.2668 151.239 44.8094C150.986 44.6082 150.707 44.44 150.473 44.2088C150.314 44.0332 150.171 43.8432 150.047 43.6412C150.1 43.6221 150.155 43.61 150.212 43.6052C153.121 43.6052 156.034 43.5812 158.943 43.6683C160.934 43.7253 162.615 45.422 162.949 47.503C163.237 49.3978 162.096 51.4758 160.393 52.1755Z" fill="#90C754"/>
<path d="M136.072 103.565C135.421 103.024 134.772 102.478 134.115 101.949C132.153 100.376 130.191 98.8053 128.23 97.2378C128.191 97.2047 128.176 97.1387 128.149 97.0906L132.953 93.5472C133.79 94.2439 134.619 94.9585 135.469 95.6492C137.207 97.0396 138.961 98.4149 140.705 99.8022C140.781 99.8857 140.845 99.9798 140.894 100.082C139.373 101.211 137.85 102.34 136.325 103.469C136.245 103.512 136.16 103.544 136.072 103.565Z" fill="#6DBC92"/>
<path d="M77.1768 33.1909C77.0446 33.1909 76.8765 33.245 76.7834 33.1909C75.4713 32.1639 74.1682 31.1219 72.8801 30.0829C71.0926 28.6635 69.3111 27.2452 67.5356 25.8278C67.0462 25.4404 66.5658 25.038 66.0644 24.6627C65.8604 24.532 65.6454 24.4194 65.4218 24.3263L64.458 19.0592C64.8735 19.2721 65.2747 19.5118 65.659 19.7769C68.2712 21.8369 70.8684 23.9149 73.4656 25.9869C74.2193 26.5875 74.9669 27.1881 75.7355 27.7887C75.8929 27.8809 76.0614 27.9525 76.237 28.0019C76.3721 28.7346 76.5132 29.4673 76.6483 30.2C76.8195 31.188 76.9966 32.191 77.1768 33.1909Z" fill="#78C081"/>
<path d="M103.203 48.9476C103.452 49.062 103.691 49.1966 103.918 49.35C106.68 51.5331 109.437 53.7312 112.202 55.9143C112.503 56.1317 112.816 56.3322 113.139 56.5149V60.9592C112.85 60.8347 112.573 60.685 112.31 60.5118C110.136 58.8031 107.977 57.0795 105.813 55.3588C105.086 54.7822 104.362 54.2057 103.624 53.6411C103.492 53.5765 103.349 53.5349 103.203 53.518V48.9476Z" fill="#78C081"/>
<path d="M117.307 60.4094C117.853 60.8929 118.379 61.4004 118.946 61.8538C120.948 63.4554 122.961 65.0569 124.987 66.6585C125.096 66.7276 125.213 66.7841 125.335 66.8266L122.588 68.9287C122.111 68.5053 121.654 68.0578 121.156 67.6585C119.154 66.0569 117.142 64.4553 115.118 62.8538C114.949 62.7329 114.772 62.6225 114.589 62.5235L117.307 60.4094Z" fill="#78C081"/>
<path d="M113.137 84.8872C113.137 87.9801 113.137 91.0721 113.137 94.1631C112.937 94.1146 112.745 94.0388 112.566 93.9379C109.843 91.7638 107.132 89.5747 104.399 87.4066C104.017 87.1455 103.616 86.9146 103.198 86.7159C103.18 86.5297 103.147 86.3406 103.147 86.1544C103.147 83.4377 103.147 80.7211 103.147 78.0045C103.147 77.8183 103.183 77.6291 103.201 77.4429C103.662 77.6856 104.106 77.9574 104.531 78.2567C107.234 80.4008 109.921 82.5659 112.62 84.716C112.781 84.8028 112.956 84.8608 113.137 84.8872Z" fill="#68BB97"/>
<path d="M84.0005 81.7286C85.2555 81.7286 86.5106 81.7016 87.7657 81.6986H97.3468V91.6681H95.9025C95.6645 91.3672 95.4035 91.0851 95.1219 90.8243C91.5068 87.9436 87.8868 85.0678 84.2617 82.1971C84.1356 82.095 84.0846 81.8878 84.0005 81.7286Z" fill="#63BB9E"/>
<path d="M103.201 86.7188C103.619 86.9175 104.02 87.1484 104.402 87.4094C107.135 89.5775 109.846 91.7667 112.569 93.9408C112.748 94.0417 112.94 94.1174 113.14 94.166C113.14 96.3851 113.161 98.6073 113.164 100.826C113.164 101.965 113.149 103.103 113.14 104.244C112.773 104.072 112.42 103.871 112.086 103.643C109.287 101.436 106.501 99.2109 103.706 97.0007C103.547 96.9102 103.376 96.8424 103.198 96.7996C103.174 96.6695 103.157 96.5381 103.147 96.4062C103.147 93.3072 103.147 90.2041 103.147 87.0971C103.157 86.97 103.175 86.8436 103.201 86.7188Z" fill="#63BB9E"/>
<path d="M130.37 91.6703C130.221 91.6971 130.07 91.7152 129.919 91.7243C126.418 91.7243 122.915 91.7243 119.41 91.7243C119.26 91.7243 119.11 91.7033 118.918 91.6883V82.4874C119.609 82.9709 120.326 83.4243 120.99 83.9468C122.965 85.5023 124.923 87.0849 126.887 88.6524C127.923 89.4782 128.967 90.2889 129.994 91.1267C130.144 91.2895 130.271 91.4724 130.37 91.6703Z" fill="#6FBD93"/>
</g>
<defs>
<clipPath id="clip0">
<rect width="216" height="216" fill="white"/>
</clipPath>
</defs>
</svg>
