<svg width="216" height="216" viewBox="0 0 216 216" fill="none" xmlns="http://www.w3.org/2000/svg">
<path fill-rule="evenodd" clip-rule="evenodd" d="M129.6 64.9992C129.6 54.3953 138.196 45.7991 148.8 45.7991C148.8 35.1953 157.396 26.5991 168 26.5991H177.6C188.204 26.5991 196.8 35.1953 196.8 45.7991C207.404 45.7991 216 54.3953 216 64.9992C216 75.603 207.404 84.1992 196.8 84.1992C196.8 94.8031 188.204 103.399 177.6 103.399H168C157.396 103.399 148.8 94.8031 148.8 84.1992C138.196 84.1992 129.6 75.603 129.6 64.9992ZM187.2 84.1992H172.8V74.5992H196.8C202.102 74.5992 206.4 70.3011 206.4 64.9992C206.4 59.6972 202.102 55.3991 196.8 55.3991H192H187.2V50.5991V45.7991C187.2 40.4972 182.902 36.1991 177.6 36.1991H168C162.698 36.1991 158.4 40.4972 158.4 45.7991H172.8V55.3991H148.8C143.498 55.3991 139.2 59.6972 139.2 64.9992C139.2 70.3011 143.498 74.5992 148.8 74.5992H153.6H158.4V79.3992V84.1992C158.4 89.5011 162.698 93.7992 168 93.7992H177.6C182.902 93.7992 187.2 89.5011 187.2 84.1992Z" fill="url(#paint0_linear)"/>
<path fill-rule="evenodd" clip-rule="evenodd" d="M52.8006 137.001L52.8006 26.6006L62.4006 26.6006L62.4006 137.001L52.8006 137.001Z" fill="black"/>
<path fill-rule="evenodd" clip-rule="evenodd" d="M100.8 60.2006H67.2002V50.6006H100.8V60.2006Z" fill="black"/>
<path fill-rule="evenodd" clip-rule="evenodd" d="M48.0004 60.2006H14.4004V50.6006H48.0004V60.2006Z" fill="black"/>
<path fill-rule="evenodd" clip-rule="evenodd" d="M100.8 40.9999H67.2002V31.3999H100.8V40.9999Z" fill="black"/>
<path fill-rule="evenodd" clip-rule="evenodd" d="M48.0004 40.9999H14.4004V31.3999H48.0004V40.9999Z" fill="black"/>
<path fill-rule="evenodd" clip-rule="evenodd" d="M100.8 79.4008H67.2002V69.8008H100.8V79.4008Z" fill="black"/>
<path fill-rule="evenodd" clip-rule="evenodd" d="M48.0004 79.4008H14.4004V69.8008H48.0004V79.4008Z" fill="black"/>
<path fill-rule="evenodd" clip-rule="evenodd" d="M100.8 98.6H67.2002V89H100.8V98.6Z" fill="black"/>
<path fill-rule="evenodd" clip-rule="evenodd" d="M48.0004 98.6H14.4004V89H48.0004V98.6Z" fill="black"/>
<path d="M24.0005 108.2H38.4005V122.6H24.0005V108.2Z" fill="black"/>
<path d="M76.8003 108.2H91.2003V122.6H76.8003V108.2Z" fill="black"/>
<path fill-rule="evenodd" clip-rule="evenodd" d="M0 17H115.2V122.116H105.6V26.6H9.60001V137H93.6001V146.6H0V17Z" fill="url(#paint1_linear)"/>
<path fill-rule="evenodd" clip-rule="evenodd" d="M28.7998 161H172.8V199.4H28.7998V161ZM38.618 170.6H162.982V189.8H38.618V170.6Z" fill="#01A982"/>
<path fill-rule="evenodd" clip-rule="evenodd" d="M128.33 101.551C126.412 103.295 124.801 106.532 124.801 113V117.8H115.201V113C115.201 105.067 117.19 98.7042 121.872 94.4478C126.461 90.2759 132.7 88.9995 139.201 88.9995H158.401C165.363 88.9995 171.497 91.1071 175.895 95.5054C180.293 99.9037 182.401 106.037 182.401 113V113.325C188.696 114.198 194.208 116.818 198.395 121.005C203.616 126.227 206.401 133.509 206.401 141.8H196.801C196.801 135.69 194.785 130.972 191.607 127.794C188.428 124.615 183.71 122.6 177.601 122.6H172.801V113C172.801 107.962 171.308 104.495 169.107 102.294C166.905 100.092 163.438 98.5995 158.401 98.5995H139.201C133.701 98.5995 130.34 99.7231 128.33 101.551Z" fill="url(#paint2_linear)"/>
<path fill-rule="evenodd" clip-rule="evenodd" d="M99.3348 119.982C104.719 114.982 112.065 112.999 120.001 112.999H158.401V122.599H120.001C113.537 122.599 108.883 124.216 105.867 127.016C102.915 129.757 100.801 134.314 100.801 141.799C100.801 149.284 102.915 153.841 105.867 156.582C108.883 159.382 113.537 160.999 120.001 160.999H134.401V170.599H120.001C112.065 170.599 104.719 168.616 99.3348 163.616C93.8865 158.557 91.2009 151.114 91.2009 141.799C91.2009 132.484 93.8865 125.041 99.3348 119.982Z" fill="url(#paint3_linear)"/>
<defs>
<linearGradient id="paint0_linear" x1="172.8" y1="26.5991" x2="172.8" y2="103.399" gradientUnits="userSpaceOnUse">
<stop/>
<stop offset="1" stop-opacity="0"/>
</linearGradient>
<linearGradient id="paint1_linear" x1="12" y1="103.4" x2="91.2001" y2="146.6" gradientUnits="userSpaceOnUse">
<stop/>
<stop offset="1" stop-opacity="0"/>
</linearGradient>
<linearGradient id="paint2_linear" x1="160.801" y1="93.7995" x2="160.801" y2="141.8" gradientUnits="userSpaceOnUse">
<stop/>
<stop offset="1" stop-opacity="0"/>
</linearGradient>
<linearGradient id="paint3_linear" x1="127.201" y1="117.799" x2="127.201" y2="165.799" gradientUnits="userSpaceOnUse">
<stop/>
<stop offset="0.899976" stop-opacity="0"/>
</linearGradient>
</defs>
</svg>
