<svg width="400" height="166" viewBox="0 0 400 166" fill="none" xmlns="http://www.w3.org/2000/svg">
<path d="M53.9159 82.5977L-1.5285e-05 82.5971" stroke="#82FFF2" stroke-width="16"/>
<path d="M66.9768 24.0903L0.000355741 24.0898" stroke="#82FFF2" stroke-width="16"/>
<path d="M66.9768 141.101L0.000355741 141.101" stroke="#82FFF2" stroke-width="16"/>
<path d="M294.638 82.5971H359.204L396 62.6323" stroke="#17EBA0" stroke-width="16"/>
<path d="M230.194 58.5041L247.402 51.6211" stroke="#01A982" stroke-width="16"/>
<path d="M147.598 24.0905L140.715 6.88306" stroke="#01A982" stroke-width="16"/>
<path d="M113.183 58.5041L95.9757 51.6211" stroke="#01A982" stroke-width="16"/>
<path d="M113.183 106.688L95.9757 113.57" stroke="#01A982" stroke-width="16"/>
<path d="M230.194 106.687L247.402 113.57" stroke="#01A982" stroke-width="16"/>
<path d="M195.779 141.101L202.662 158.309" stroke="#01A982" stroke-width="16"/>
<path d="M130.391 37.8564L113.184 20.649" stroke="#01A982" stroke-width="16"/>
<path d="M233.636 141.101L216.428 123.894" stroke="#01A982" stroke-width="16"/>
<path d="M130.391 123.894L113.184 141.101" stroke="#01A982" stroke-width="16"/>
<path d="M232.694 21.5906L216.426 37.8589" stroke="#01A982" stroke-width="16"/>
<path d="M147.598 141.101L140.715 158.309" stroke="#01A982" stroke-width="16"/>
<path d="M195.779 24.0905L202.662 6.88306" stroke="#01A982" stroke-width="16"/>
<path fill-rule="evenodd" clip-rule="evenodd" d="M109.742 82.5957C109.742 116.808 137.477 144.543 171.689 144.543C205.901 144.543 233.636 116.808 233.636 82.5957C233.636 48.3835 205.901 20.6489 171.689 20.6489C137.477 20.6489 109.742 48.3835 109.742 82.5957Z" stroke="#01A982" stroke-width="16"/>
<path d="M89.0932 82.5964L115.132 82.5964" stroke="#01A982" stroke-width="16"/>
<path d="M171.689 -3.00865e-07L171.689 61.9468" stroke="#01A982" stroke-width="16"/>
<path d="M171.689 103.246L171.689 165.193" stroke="#01A982" stroke-width="16"/>
<path d="M230.194 82.5986L254.285 82.5986" stroke="#01A982" stroke-width="16"/>
<path fill-rule="evenodd" clip-rule="evenodd" d="M151.04 82.5943C151.04 93.9983 160.284 103.243 171.688 103.243C183.093 103.243 192.337 93.9983 192.337 82.5943C192.337 71.1902 183.093 61.9453 171.688 61.9453C160.284 61.9453 151.04 71.1902 151.04 82.5943Z" stroke="#82FFF2" stroke-width="16"/>
<path d="M52.3391 82.5971C52.3391 73.7187 59.5466 66.5066 68.4557 66.5066C77.3648 66.5066 84.5723 73.7187 84.5723 82.5971C84.5723 91.4754 77.3648 98.6875 68.4557 98.6875C59.5466 98.6875 52.3391 91.4754 52.3391 82.5971Z" stroke="#82FFF2" stroke-width="16"/>
<path d="M292.593 82.5943C292.593 91.4727 285.385 98.6848 276.476 98.6848C267.567 98.6848 260.359 91.4727 260.359 82.5943C260.359 73.716 267.567 66.5039 276.476 66.5039C285.385 66.5039 292.593 73.716 292.593 82.5943Z" stroke="#17EBA0" stroke-width="16"/>
</svg>
