<svg width="118" height="118" viewBox="0 0 118 118" fill="none" xmlns="http://www.w3.org/2000/svg">
<mask id="path-1-inside-1" fill="white">
<path d="M86.4577 111.221C73.327 118.125 58.0771 119.83 43.7462 115.994C29.4153 112.159 17.0552 103.065 9.12833 90.5252C1.20145 77.9853 -1.71041 62.9193 0.972833 48.3287C3.65608 33.7381 11.7375 20.6938 23.6071 11.7945C35.4767 2.89517 50.2633 -1.20598 65.0211 0.308063C79.7789 1.8221 93.4247 8.8402 103.24 19.9642C113.055 31.0883 118.32 45.5017 117.985 60.3332C117.649 75.1647 111.739 89.3256 101.431 99.9948L88.7018 87.6964C95.9173 80.2279 100.055 70.3153 100.289 59.9333C100.524 49.5512 96.8388 39.4618 89.968 31.675C83.0972 23.8881 73.5452 18.9755 63.2147 17.9156C52.8842 16.8558 42.5336 19.7266 34.2249 25.9562C25.9162 32.1857 20.2592 41.3167 18.3809 51.5301C16.5026 61.7435 18.5409 72.2897 24.0898 81.0677C29.6386 89.8456 38.2906 96.2111 48.3223 98.8959C58.3539 101.581 69.0288 100.388 78.2204 95.5549L86.4577 111.221Z"/>
</mask>
<path d="M86.4577 111.221C73.327 118.125 58.0771 119.83 43.7462 115.994C29.4153 112.159 17.0552 103.065 9.12833 90.5252C1.20145 77.9853 -1.71041 62.9193 0.972833 48.3287C3.65608 33.7381 11.7375 20.6938 23.6071 11.7945C35.4767 2.89517 50.2633 -1.20598 65.0211 0.308063C79.7789 1.8221 93.4247 8.8402 103.24 19.9642C113.055 31.0883 118.32 45.5017 117.985 60.3332C117.649 75.1647 111.739 89.3256 101.431 99.9948L88.7018 87.6964C95.9173 80.2279 100.055 70.3153 100.289 59.9333C100.524 49.5512 96.8388 39.4618 89.968 31.675C83.0972 23.8881 73.5452 18.9755 63.2147 17.9156C52.8842 16.8558 42.5336 19.7266 34.2249 25.9562C25.9162 32.1857 20.2592 41.3167 18.3809 51.5301C16.5026 61.7435 18.5409 72.2897 24.0898 81.0677C29.6386 89.8456 38.2906 96.2111 48.3223 98.8959C58.3539 101.581 69.0288 100.388 78.2204 95.5549L86.4577 111.221Z" stroke="#6633BC" stroke-width="28" mask="url(#path-1-inside-1)"/>
<mask id="path-2-inside-2" fill="white">
<path d="M88.9998 58.9999C88.9998 65.7481 86.7247 72.2992 82.542 77.5947C78.3593 82.8903 72.5134 86.621 65.9487 88.1841C59.3841 89.7471 52.4842 89.0513 46.3638 86.209C40.2435 83.3667 35.2601 78.5439 32.219 72.5198C29.1778 66.4958 28.2565 59.6224 29.6039 53.0101C30.9512 46.3978 34.4885 40.4329 39.6443 36.0791C44.8001 31.7253 51.2732 29.2369 58.0177 29.016C64.7623 28.7951 71.3843 30.8546 76.814 34.8617L68.0563 46.7284C65.2959 44.6912 61.9294 43.6442 58.5005 43.7565C55.0717 43.8688 51.7809 45.1339 49.1597 47.3473C46.5386 49.5607 44.7403 52.5932 44.0553 55.9548C43.3703 59.3164 43.8387 62.8107 45.3848 65.8733C46.9309 68.9358 49.4643 71.3877 52.5758 72.8327C55.6874 74.2777 59.1952 74.6314 62.5326 73.8368C65.8699 73.0421 68.8419 71.1455 70.9683 68.4533C73.0948 65.7611 74.2514 62.4306 74.2514 58.9999L88.9998 58.9999Z"/>
</mask>
<path d="M88.9998 58.9999C88.9998 65.7481 86.7247 72.2992 82.542 77.5947C78.3593 82.8903 72.5134 86.621 65.9487 88.1841C59.3841 89.7471 52.4842 89.0513 46.3638 86.209C40.2435 83.3667 35.2601 78.5439 32.219 72.5198C29.1778 66.4958 28.2565 59.6224 29.6039 53.0101C30.9512 46.3978 34.4885 40.4329 39.6443 36.0791C44.8001 31.7253 51.2732 29.2369 58.0177 29.016C64.7623 28.7951 71.3843 30.8546 76.814 34.8617L68.0563 46.7284C65.2959 44.6912 61.9294 43.6442 58.5005 43.7565C55.0717 43.8688 51.7809 45.1339 49.1597 47.3473C46.5386 49.5607 44.7403 52.5932 44.0553 55.9548C43.3703 59.3164 43.8387 62.8107 45.3848 65.8733C46.9309 68.9358 49.4643 71.3877 52.5758 72.8327C55.6874 74.2777 59.1952 74.6314 62.5326 73.8368C65.8699 73.0421 68.8419 71.1455 70.9683 68.4533C73.0948 65.7611 74.2514 62.4306 74.2514 58.9999L88.9998 58.9999Z" stroke="#6633BC" stroke-width="40" mask="url(#path-2-inside-2)"/>
</svg>
