<svg width="440" height="340" viewBox="0 0 440 340" fill="none" xmlns="http://www.w3.org/2000/svg">
<path d="M200.606 322.836C197.553 323.754 194.303 322.856 191.202 324.119C189.278 324.902 186.943 324.647 184.801 324.921C180.695 325.448 176.61 325.997 172.658 327.407C171.108 327.96 169.231 327.532 167.801 328.722L166.533 328.81C164.055 329.322 161.566 329.788 159.103 330.362C157.502 330.747 155.844 330.831 154.212 330.611C151.371 330.207 148.706 328.688 148.301 325.384C148.496 324.403 148.528 323.348 148.924 322.457C149.548 321.055 150.531 319.967 152.346 320.448C157.59 321.885 163.161 321.544 168.191 319.478C169.411 318.992 170.856 319.073 172.198 318.895C177.819 318.15 183.383 317.045 188.98 316.202C190.993 315.899 192.929 314.781 195.062 315.272C195.225 315.412 195.432 315.488 195.646 315.487C195.86 315.485 196.066 315.406 196.226 315.264L196.39 315.277L197.456 314.888C200.138 314.683 202.805 314.099 205.514 314.557C205.401 314.736 205.301 315.062 205.174 315.073C199.276 315.579 193.391 316.484 187.583 317.382C182.71 318.136 177.456 318.109 173.146 320.63C175.867 321.278 178.588 319.464 181.551 319.793C183.561 320.016 185.518 319.486 187.418 318.795C187.95 318.581 188.518 318.469 189.091 318.464C191.937 318.566 194.752 318.626 197.594 318.073C199.657 317.672 201.938 318.191 203.913 317.6C206.412 316.853 209.031 317.392 211.414 316.528C213.827 315.652 216.317 315.817 218.769 315.58C222.062 315.261 225.52 315.733 228.657 314.907C233.818 313.549 239.007 314.972 244.176 313.972C247.493 313.331 251.076 314.082 254.54 314.182C259.329 314.32 264.125 314.311 268.904 314.592C272.989 314.915 277.033 315.625 280.984 316.713C280.945 316.148 280.905 315.758 280.458 315.584C277.722 314.521 274.771 314.383 271.952 313.549C268.194 312.437 264.172 312.53 260.22 312.43C256.4 312.334 252.595 311.764 248.775 311.566C245.677 311.405 242.612 312.136 239.469 312.003C238.226 311.951 236.746 312.505 235.314 312.546C233.043 312.61 230.719 312.204 228.553 312.387C225.484 312.646 222.489 313.699 219.304 313.719C215.422 313.743 211.597 314.773 207.691 314.656C206.992 314.635 206.245 315.649 205.59 314.581C205.916 313.804 206.512 313.755 207.303 313.655C211.14 313.171 215.005 312.704 218.833 312.418C222.743 312.127 226.674 311.841 230.593 311.553C237.161 311.007 243.754 310.811 250.343 310.965C254.943 311.115 259.584 311.053 264.187 311.304C270.058 311.625 275.76 313.117 281.485 314.421C283.955 314.984 286.331 315.94 287.605 317.899C289.679 321.086 292.607 324.089 291.676 328.574C291.387 329.963 290.127 330.488 289.704 331.669C289.517 331.751 289.315 331.792 289.111 331.79C288.907 331.788 288.706 331.743 288.521 331.658C287.836 331.162 288.086 330.448 288.314 329.751C289.171 327.127 288.725 325.154 286.688 324.144C285.359 323.484 284.077 322.465 282.7 322.211C279.905 321.695 277.261 320.537 274.34 320.51C270.692 320.476 267.259 318.882 263.597 318.759C256.301 318.515 248.973 317.872 241.72 318.808C235.67 319.59 229.546 318.745 223.583 319.83C218.178 320.813 212.676 320.797 207.274 321.932C205.167 322.375 202.814 322.347 200.606 322.836ZM238.895 316.294C237.396 315.999 235.892 315.604 234.376 316.494C235.992 317.474 237.446 316.938 238.895 316.294H238.895ZM214.158 318.257C212.161 317.074 211.129 318.243 209.367 319.005L214.158 318.257ZM264.728 316.657C263.842 316.102 262.982 315.31 261.812 316.132C262.903 315.844 263.645 316.912 264.728 316.657L264.728 316.657Z" fill="black"/>
<path d="M69.9102 288.247C71.217 287.121 71.5308 285.524 71.9263 283.967C72.0486 283.353 72.2076 282.747 72.4023 282.152C72.589 281.669 72.6209 280.739 73.3151 280.963C74.0277 281.193 73.4227 281.951 73.389 282.478C73.3705 282.768 73.0204 283.02 73.3373 283.412C74.1895 282.353 73.8371 280.815 74.8238 279.852C75.0742 279.607 75.1989 279.118 75.6302 279.267C76.1789 279.456 76.0083 279.973 75.8667 280.34C75.2451 281.766 74.8888 283.294 74.8152 284.849C76.1963 281.036 77.3438 277.143 78.2513 273.19C77.8232 273.414 77.6887 274.195 77.0841 273.822C76.6548 273.557 76.7483 273.093 76.8597 272.684C77.1886 271.477 77.5119 270.268 77.8847 269.074C78.0213 268.637 78.2786 268.061 78.8568 268.368C79.3168 268.612 79.0532 269.097 78.8237 269.466C78.574 269.867 78.2967 270.269 78.737 270.834C83.2716 259.154 88.6766 247.913 93.3931 236.353C91.4958 238.562 89.6117 240.778 88.291 243.407C88.1476 243.627 88.0537 243.875 88.0158 244.135C87.978 244.394 87.9972 244.659 88.0721 244.91C88.2288 245.329 88.2545 245.805 87.8116 246.023C86.9265 246.458 86.569 247.056 86.8969 248.032C86.9471 248.181 86.8012 248.557 86.7088 248.57C85.4809 248.749 85.1848 250.017 84.326 250.714C83.9567 249.949 84.3606 249.41 84.5458 248.846C87.864 238.745 92.9839 229.406 96.9015 219.558C97.848 217.178 100.932 214.586 104.393 215.906C107.766 217.193 109.371 219.854 106.824 223.822C104.803 226.8 102.938 229.881 101.237 233.054C97.4602 240.555 93.8133 248.119 90.2966 255.747C88.7664 258.875 87.4096 262.085 86.2323 265.363C85.0893 268.78 83.6945 272.132 82.7442 275.652C81.5365 280.126 80.5199 284.66 79.1646 289.099C78.9202 289.899 78.2539 291.095 79.0205 291.567C79.8336 292.067 80.4557 290.837 81.103 290.295C88.0258 284.503 94.8729 278.633 101.167 272.135C109.008 264.109 116.248 255.514 122.827 246.42C127.192 240.335 131.852 234.401 134.754 227.38C134.993 226.801 135.299 226.25 135.52 225.665C136.803 222.271 136.657 219.026 134.479 216.002C133.937 215.25 133.11 214.471 133.846 213.503C134.49 212.656 135.395 212.075 136.575 212.647C136.71 212.729 136.871 212.758 137.027 212.728C138.657 212 140.062 212.399 141.345 213.536C143.064 214.931 144.233 216.892 144.644 219.07C144.834 220.311 144.798 221.577 144.538 222.805C143.492 228.097 140.759 232.654 138.003 237.12C134.165 243.197 129.959 249.032 125.408 254.592C122.097 258.724 118.901 262.969 115.455 266.986C107.087 276.739 98.0243 285.787 87.7657 293.592C84.9344 295.842 81.4236 297.062 77.8096 297.05C76.4687 297.013 75.1777 296.533 74.1376 295.684C72.4383 294.282 71.2817 292.329 70.8677 290.162C70.7357 289.585 70.2393 289.092 69.9102 288.561L69.9102 288.247ZM137.228 232.905C128.35 245.645 119.078 258.078 108.793 269.725C119.7 258.63 129.246 246.269 137.228 232.905H137.228ZM271.054 279.428C273.631 279.12 275.804 278.134 277.146 276.28C279.569 272.935 282.642 270.024 284.197 266.06C284.558 265.247 285.066 264.509 285.697 263.883C288.004 261.431 290.309 258.972 292.727 256.631C295.262 254.219 298.097 252.142 301.16 250.453C303.484 249.146 307.848 249.863 309.2 253.06C309.365 253.451 309.485 253.865 309.96 253.975C311.601 254.353 312.472 255.86 313.881 256.645C315.654 257.634 316.191 261.026 315.33 262.892C313.516 266.824 311.746 270.776 309.949 274.717C308.607 277.659 307.249 280.594 306.188 283.654C306.003 284.188 305.612 284.751 306.025 285.283C306.485 285.876 307.172 285.667 307.767 285.508C309.712 284.907 311.567 284.049 313.285 282.955C314.817 282.063 316.3 281.079 317.871 280.266C318.647 279.865 319.54 279.005 320.463 280.129C320.62 280.32 320.841 280.245 321.034 280.149C321.79 279.773 322.364 279.041 323.327 280.194C323.743 280.691 324.78 279.829 324.772 278.769C324.756 276.892 324.437 274.973 324.974 273.152C326.907 266.596 328.788 260.008 332.108 253.977C333.244 251.913 334.007 249.655 335.269 247.687C337.787 243.755 340.27 239.805 343.245 236.164C344.753 234.317 346.324 232.478 347.689 230.487C348.429 229.408 349.913 228.953 350.535 227.656C350.317 227.366 349.688 227.902 349.694 227.317C349.718 227.025 349.837 226.749 350.032 226.53C350.227 226.312 350.488 226.164 350.775 226.108C351.515 225.924 352.201 225.564 352.773 225.059C353.346 224.553 353.789 223.918 354.065 223.205C354.596 221.536 355.727 220.496 356.713 219.257C357.527 218.304 358.435 217.435 359.422 216.664C361.84 214.634 364.723 214.203 367.09 215.523C369.154 216.674 370.628 220.215 370.155 222.949C369.753 224.894 369.061 226.766 368.104 228.505C362.443 239.716 354.657 249.348 346.096 258.413C344.485 260.119 343.01 261.963 341.156 263.422C339.912 264.401 338.628 265.293 336.884 264.647C336.108 264.359 335.9 265.041 335.691 265.561C335.016 267.259 334.449 268.997 333.992 270.766C333.002 274.541 331.954 278.285 331.823 282.242C331.747 284.53 332.985 286.168 335.292 286.317C338.632 286.532 341.666 285.516 344.609 284.104C349.114 281.942 353.023 278.906 356.84 275.728C357.467 275.206 358.255 273.915 359.116 274.965C359.904 275.924 358.838 276.721 358.059 277.372C355.933 279.147 353.632 280.68 351.373 282.274C350.696 282.751 349.986 283.21 349.792 284.338C351.007 284.218 352.171 283.785 353.17 283.081C355.7 281.302 358.403 279.611 360.023 276.798C360.175 276.534 360.358 276.14 360.711 276.331C361.212 276.603 360.923 277.066 360.788 277.437C358.937 282.488 355.425 286.03 350.723 288.461C349.359 289.228 348.059 290.103 346.835 291.079C343.422 293.611 339.554 294.022 335.518 293.579C334.625 293.524 333.762 293.236 333.014 292.744C332.266 292.253 331.659 291.575 331.253 290.776C329.884 288.121 327.638 286.066 326.244 283.43C325.679 282.363 325.266 282.55 324.449 283.338C320.422 287.22 316.235 290.801 310.786 292.743C307.377 293.958 304.722 292.944 302.533 290.774C300.831 289.081 299.551 287.01 298.797 284.73C298.106 282.615 298.306 280.52 299.174 278.283C298.291 278.439 298.014 279.035 297.655 279.459C294.174 283.617 290.429 287.545 286.443 291.219C281.115 296.069 276.441 292.919 274.343 287.575C273.292 284.895 273.511 284.809 274.207 283.046C273.995 282.856 273.794 282.993 273.669 283.129C271.236 285.783 268.019 287.392 265.196 289.526C263.621 290.646 261.902 291.548 260.086 292.209C255.792 293.918 252.725 292.863 249.765 289.312C247.223 286.261 246.746 282.825 246.816 279.123C246.825 278.678 247.08 278.093 246.542 277.851C246.011 277.612 245.727 278.18 245.402 278.482C240.349 283.166 235.077 287.595 229.728 291.931C227.062 294.091 224.301 294.29 222.343 292.458C221.119 291.313 220.41 289.741 219.593 288.3C219.021 287.291 218.812 287.401 217.966 288.055C215.021 290.334 212.204 292.882 208.302 293.503C203.237 294.309 198.698 292.138 196.237 287.628C194.993 285.349 193.271 283.301 192.751 280.664C192.016 276.939 192.914 273.354 194.069 269.905C196.161 263.654 199.171 257.794 202.316 252.013C204.361 248.254 206.357 244.465 208.892 240.997C209.209 240.563 209.747 240.055 209.385 239.462C209.035 238.889 208.336 239.085 207.792 239.13C205.822 239.292 203.859 239.548 201.887 239.702C200.535 239.819 199.173 239.735 197.845 239.453C196.614 239.178 195.513 238.492 194.722 237.508C193.931 236.524 193.496 235.3 193.489 234.036C193.507 233.436 193.807 232.852 194.446 233.356C197.404 235.689 200.83 234.705 204.08 234.737C206.313 234.759 208.553 234.491 210.79 234.735C212.118 234.879 212.999 234.334 213.848 233.298C216.299 230.303 217.527 226.654 219.352 223.329C220.487 221.262 221.628 219.203 223.227 217.467C224.779 215.782 225.258 213.491 226.674 211.724C228.212 209.804 229.704 209.924 231.925 210.978C233.719 211.829 233.96 213.332 234.68 214.63C235.623 216.33 235.205 217.909 233.914 219.504C231.455 222.54 229.264 225.791 226.919 228.921C225.772 230.452 224.928 232.245 223.188 233.284C222.586 233.644 222.762 234.07 223.325 234.31C223.658 234.456 224.018 234.53 224.381 234.527C228.084 234.401 231.771 234.762 235.466 234.836C235.883 234.857 236.3 234.83 236.711 234.756C238.649 234.34 239.792 235.011 240.344 236.941C240.43 237.241 240.456 237.557 240.521 237.863C241.029 240.263 240.702 240.433 238.341 240.171C235.16 239.73 231.954 239.494 228.743 239.462C225.844 239.511 222.94 239.406 220.044 239.258C219.689 239.206 219.326 239.262 219.003 239.419C218.68 239.575 218.411 239.824 218.231 240.135C216.703 242.43 215.029 244.623 213.218 246.702C212.377 247.651 211.314 248.798 211.633 250.382C211.698 250.703 211.586 250.888 211.244 250.887C210.974 250.887 210.576 250.928 210.594 251.18C210.758 253.501 207.976 254.094 207.705 256.172C207.661 256.507 207.393 256.801 207.643 257.162C207.766 257.336 207.818 257.551 207.786 257.763C207.754 257.974 207.641 258.165 207.472 258.294C205.522 260.218 204.829 262.922 203.262 265.084C203.11 265.228 203.003 265.414 202.955 265.618C202.907 265.822 202.919 266.036 202.989 266.233C203.389 267.05 203.502 267.978 203.311 268.867C203.119 269.757 202.634 270.556 201.934 271.135C201.673 271.327 201.475 271.591 201.362 271.895C201.249 272.199 201.228 272.529 201.3 272.845C201.537 275.218 200.572 277.458 200.322 279.792C200.156 281.295 200.076 282.807 200.082 284.32C200.097 286.773 201.336 287.818 203.799 287.454C205.14 287.238 206.443 286.829 207.666 286.239C212.154 284.135 216.42 281.586 220.4 278.629C222.352 277.19 223.472 275.202 224.434 273.155C224.968 271.984 225.644 270.884 226.446 269.879C227.203 268.946 227.819 267.906 228.272 266.793C229.959 262.578 232.42 258.835 235.091 255.213C236.851 252.827 239.215 252.456 241.641 254.126C243.556 255.444 243.96 258.457 242.429 260.889C240.741 263.719 238.71 266.327 236.38 268.655C232.669 272.187 230.483 276.711 227.975 281.033C227.243 282.295 226.624 283.623 225.952 284.921C225.813 285.191 225.513 285.483 225.727 285.767C225.992 286.119 226.405 285.953 226.73 285.796C227.152 285.59 227.559 285.357 227.949 285.097C230.458 283.494 232.771 281.601 234.838 279.456C239.339 274.677 244.002 270.055 248.42 265.19C252.251 260.876 256.316 256.777 260.598 252.913C261.642 251.992 262.74 251.195 264.252 251.776C264.642 251.926 265.272 252.165 265.179 252.501C264.757 254.027 265.834 253.924 266.743 254.267C267.894 254.7 268.173 255.86 268.253 256.981C268.453 259.189 267.79 261.388 266.403 263.115C262.839 267.675 259.569 272.458 256.613 277.434C255.508 279.446 254.509 281.515 253.619 283.632C253.409 284.086 253.102 284.642 253.513 285.107C253.961 285.614 254.606 285.419 255.131 285.245C256.966 284.643 258.726 283.831 260.376 282.825C263.797 280.727 267.378 278.888 270.625 276.507C270.994 276.237 271.444 275.798 271.875 276.141C272.406 276.563 271.777 276.816 271.554 277.116C271.503 277.196 271.482 277.292 271.494 277.387C273.114 278.251 271.477 278.569 271.054 279.428ZM306.816 257.593C305.545 257.685 304.329 258.153 303.324 258.938C299.047 261.718 295.542 265.33 292.046 269.01C287.989 273.289 284.395 277.987 281.325 283.025C280.799 283.925 280.349 284.868 279.981 285.844C279.788 286.328 279.255 286.979 279.895 287.396C280.512 287.797 281.123 287.281 281.535 286.828C284.221 283.88 287.648 281.701 290.04 278.429C290.887 277.27 292.169 276.493 293.463 275.705C294.595 275.016 294.581 272.615 295.853 272.03C297.428 271.305 297.596 269.713 298.678 268.879C300.164 267.732 300.701 265.472 302.938 265.23C302.992 265.224 303.085 265.047 303.066 264.974C302.765 263.823 303.274 263.593 304.297 263.796C304.527 263.842 304.753 263.457 304.667 263.207C304.359 262.303 304.999 261.865 305.505 261.358C306.211 260.59 306.766 259.696 307.143 258.723C307.522 257.87 307.37 257.549 306.816 257.593ZM338.508 259.08C339.13 258.788 339.666 258.34 340.064 257.779C342.122 255.493 344.149 253.177 346.207 250.891C353.39 242.911 359.73 234.336 364.577 224.713C364.877 224.117 365.654 223.315 364.95 222.811C364.434 222.442 363.845 223.373 363.355 223.806C359.066 227.592 355.931 232.376 352.325 236.747C350.413 239.174 348.646 241.712 347.031 244.346C344.321 248.551 341.817 252.881 339.131 257.098C338.681 257.656 338.459 258.364 338.508 259.08ZM237.32 281.97C244.331 277.26 250.527 271.713 255.464 264.829C254.841 264.823 254.534 265.254 254.177 265.593C251.764 267.88 249.463 270.299 246.922 272.432C244.553 274.42 242.858 277.346 239.514 278.057C239.466 278.076 239.423 278.106 239.39 278.146C239.356 278.186 239.333 278.233 239.323 278.284C239.39 279.91 238.07 280.777 237.32 281.97ZM195.388 273.151C199.177 261.002 205.513 250.134 212.258 239.472C204.729 249.634 199.021 261.029 195.388 273.151V273.151ZM337.343 250.168C342.579 241.201 348.963 233.072 355.707 225.116C354.598 225.059 353.672 225.131 353.37 226.068C352.888 227.567 351.845 228.669 350.902 229.825C348.096 233.262 345.507 236.855 343.06 240.55C340.937 243.621 339.027 246.835 337.343 250.168V250.168Z" fill="black"/>
<path d="M179.501 253.848C181.142 252.694 182.787 251.546 184.423 250.385C186.128 249.175 187.838 247.959 189.869 247.366C191.391 246.921 192.943 246.601 194.181 248.088C194.381 248.253 194.613 248.372 194.863 248.439C196.699 249.237 197.3 250.322 196.711 252.298C195.553 256.183 193.651 259.618 190.248 262.013C189.153 262.812 188.006 263.535 186.814 264.179C186.301 264.445 185.455 265.437 184.989 263.98C184.955 263.875 184.422 263.931 184.121 263.909C183.742 263.882 183.279 264.399 183.005 263.868C182.804 263.479 183.128 263.07 183.335 262.71C184.604 260.497 186.424 258.624 187.338 256.192C187.478 255.818 187.845 255.517 187.701 254.975C184.664 256.795 181.813 258.909 179.188 261.286C175.317 264.789 171.559 268.405 168.446 272.633C167.711 273.782 166.707 274.734 165.522 275.406C165.253 275.563 165.027 275.785 164.866 276.052C162.445 279.704 160.015 283.351 157.637 287.032C156.646 288.448 155.963 290.057 155.635 291.755C155.442 292.575 155.041 293.331 154.469 293.949C153.818 294.757 153.191 294.839 152.75 293.732C152.659 293.506 152.773 293.07 152.459 293.082C150.523 293.156 150.218 291.449 149.431 290.308C148.988 289.667 148.615 289.571 148.071 290.09C145.287 292.75 141.454 293.133 138.109 294.511C134.699 295.916 130.103 293.509 128.532 290.185C128.174 289.428 127.909 288.622 126.852 288.567C126.442 288.545 126.292 288.135 126.183 287.781C125.268 284.821 125.037 281.932 126.289 278.932C129.717 270.721 134.07 263.01 138.617 255.395C139.396 254.158 140.077 252.862 140.655 251.519C140.802 251.134 141.024 250.781 141.308 250.482C141.593 250.184 141.934 249.945 142.312 249.78C142.69 249.615 143.097 249.528 143.509 249.522C143.921 249.517 144.33 249.594 144.711 249.75C148.046 250.921 149.851 255.967 147.893 258.949C144.23 264.529 140.307 269.955 137.122 275.83C135.449 278.914 133.473 281.936 133.121 285.591C133.088 285.744 133.042 285.893 132.983 286.037C132.808 286.64 131.895 287.144 132.522 287.836C133.096 288.469 133.901 288.063 134.592 287.895C140.471 286.461 145.863 283.878 151.069 280.859C151.64 280.486 152.085 279.95 152.347 279.319C153.689 276.653 155.468 274.262 157.055 271.749C160.117 266.898 162.927 261.888 165.995 257.041C167.79 254.289 169.421 251.433 170.879 248.489C171.971 246.204 173.537 245.487 175.996 245.886C177.095 246.004 178.122 246.491 178.912 247.267C179.701 248.043 180.206 249.062 180.345 250.162C180.563 251.499 179.585 252.466 179.501 253.848ZM162.858 274.429C162.409 274.376 162.187 274.684 161.979 274.963C159.173 278.719 156.895 282.815 154.421 286.786C154.195 287.148 154.005 287.642 154.443 287.906C155.067 288.283 155.249 287.626 155.427 287.253C156.153 285.698 157.004 284.205 157.971 282.788C159.484 280.611 160.925 278.383 162.352 276.148C162.661 275.664 163.17 275.168 162.858 274.429ZM156.492 277.655C159.899 273.721 162.083 269.011 164.71 264.581C161.457 268.614 158.895 273.084 156.492 277.655ZM134.482 268.552C131.873 272.657 129.881 277.125 128.57 281.811C128.509 281.945 128.476 282.09 128.475 282.237C128.473 282.384 128.503 282.53 128.561 282.665C128.619 282.8 128.705 282.921 128.814 283.021C128.922 283.121 129.05 283.196 129.189 283.243C130.061 277.944 132.232 273.256 134.482 268.552ZM155.173 224.897C157.961 224.958 161.493 227.959 161.905 230.437C162.103 231.629 161.553 232.579 160.796 233.4C158.647 235.732 156.479 238.046 154.291 240.342C153.033 241.665 151.819 241.805 150.237 240.888C149.358 240.338 148.661 239.539 148.233 238.593C147.805 237.647 147.665 236.596 147.83 235.57C148.407 232.217 149.908 229.092 152.164 226.548C152.934 225.65 154.003 225.063 155.173 224.897ZM78.5797 266.164C79.9501 263.177 80.2131 259.536 82.1302 256.49C82.4031 256.056 82.7792 255.502 83.3472 255.742C84.0528 256.039 83.5956 256.638 83.4249 257.077C82.1868 260.263 80.9321 263.442 79.6607 266.615C79.5289 266.944 79.529 267.563 78.923 267.377C78.5049 267.249 78.6054 266.782 78.5797 266.164Z" fill="black"/>
<path d="M8.47916 178.597H96.6594V179.296H8.47916V178.597Z" fill="black"/>
<path d="M8.47913 178.597H96.6591V179.296H8.47913V178.597Z" fill="black"/>
<path d="M8.47913 178.597H96.6591V179.296H8.47913V178.597Z" fill="black"/>
<path d="M8.47916 178.597H96.6594V179.296H8.47916V178.597Z" fill="black"/>
<path d="M129.073 130.506C129.84 130.296 130.746 130.086 131.931 129.877C133.129 129.677 134.342 129.584 135.556 129.597C136.647 129.55 137.736 129.716 138.763 130.086C139.552 130.392 140.248 130.898 140.784 131.553C141.297 132.21 141.654 132.974 141.83 133.788C142.057 134.726 142.174 135.687 142.179 136.652V145.314H137.926V137.141C137.998 136.131 137.806 135.12 137.369 134.208C137.02 133.649 136.323 133.369 135.277 133.369C134.951 133.36 134.624 133.384 134.302 133.439C133.953 133.439 133.674 133.509 133.395 133.509V145.314H129.073V130.506H129.073ZM121.127 137.56C121.174 136.461 120.908 135.371 120.36 134.417C120.086 134.069 119.736 133.787 119.338 133.594C118.939 133.4 118.502 133.3 118.06 133.3C117.617 133.3 117.18 133.4 116.781 133.594C116.383 133.787 116.034 134.069 115.759 134.417C115.155 135.35 114.862 136.45 114.923 137.56C114.873 138.691 115.164 139.811 115.759 140.774C116.021 141.141 116.366 141.44 116.766 141.647C117.166 141.853 117.61 141.961 118.06 141.961C118.51 141.961 118.953 141.853 119.353 141.647C119.754 141.44 120.099 141.141 120.36 140.774C120.907 139.794 121.173 138.682 121.127 137.56ZM125.518 137.56C125.543 138.675 125.378 139.785 125.03 140.843C124.699 141.8 124.177 142.679 123.497 143.428C122.807 144.174 121.964 144.761 121.025 145.147C120.086 145.533 119.074 145.709 118.06 145.663C117.012 145.666 115.972 145.477 114.993 145.104C114.094 144.718 113.287 144.146 112.622 143.428C111.937 142.683 111.415 141.803 111.089 140.843C110.345 138.718 110.345 136.403 111.089 134.277C111.432 133.347 111.953 132.493 112.622 131.763C113.29 131.065 114.098 130.517 114.993 130.156C115.94 129.757 116.962 129.566 117.99 129.597C119.015 129.594 120.032 129.784 120.987 130.156C121.868 130.543 122.672 131.087 123.357 131.763C124.027 132.493 124.548 133.347 124.891 134.277C125.319 135.318 125.533 136.435 125.518 137.56ZM102.027 145.663C98.7506 145.663 96.2412 144.755 94.5682 142.939C92.8255 141.123 91.989 138.538 91.989 135.186C91.976 133.661 92.2357 132.147 92.7558 130.715C93.222 129.487 93.95 128.376 94.8892 127.459C95.8283 126.542 96.9558 125.842 98.193 125.406C99.509 124.921 100.903 124.684 102.306 124.708C103.078 124.702 103.848 124.772 104.606 124.917C105.303 125.057 105.931 125.197 106.419 125.337C106.868 125.477 107.31 125.64 107.743 125.826C108.021 125.919 108.281 126.061 108.51 126.245L107.185 129.877C106.505 129.503 105.779 129.221 105.024 129.039C104.113 128.806 103.176 128.689 102.236 128.689C101.548 128.698 100.866 128.815 100.215 129.039C99.5491 129.259 98.9498 129.643 98.4718 130.156C97.9437 130.731 97.5191 131.392 97.2171 132.112C96.8967 133.057 96.7319 134.048 96.7291 135.046C96.7108 135.916 96.8045 136.784 97.008 137.63C97.2046 138.382 97.5352 139.092 97.9839 139.726C98.4782 140.319 99.097 140.796 99.7963 141.123C100.633 141.478 101.537 141.645 102.445 141.612C103.029 141.606 103.611 141.559 104.188 141.472C104.661 141.426 105.128 141.333 105.582 141.193C105.937 141.097 106.286 140.981 106.628 140.843C106.893 140.698 107.174 140.58 107.464 140.494L108.719 144.126C107.88 144.63 106.96 144.984 106 145.174C104.708 145.535 103.368 145.699 102.027 145.663H102.027ZM84.8091 136.094C84.8071 135.734 84.7361 135.378 84.6 135.046C84.4797 134.722 84.3155 134.417 84.1121 134.138C83.8817 133.852 83.5975 133.615 83.2756 133.439C82.8794 133.265 82.4532 133.17 82.0208 133.16C81.585 133.136 81.151 133.233 80.7661 133.439C80.4342 133.566 80.1444 133.784 79.9296 134.068C79.6886 134.359 79.4999 134.69 79.3719 135.046C79.2382 135.407 79.1447 135.782 79.0931 136.163H84.8091L84.8091 136.094ZM74.7015 137.7C74.6816 136.483 74.8946 135.274 75.3289 134.138C75.6856 133.182 76.2582 132.321 77.0019 131.623C77.6591 130.963 78.4411 130.44 79.3022 130.086C80.1702 129.756 81.0922 129.59 82.0208 129.597C82.9694 129.543 83.9188 129.689 84.8075 130.026C85.6961 130.363 86.5042 130.883 87.1792 131.553C88.4339 132.88 89.0613 134.836 89.0613 137.421V138.259C89.0613 138.538 88.9916 138.818 88.9916 139.027H79.1628C79.1843 139.453 79.3099 139.867 79.5288 140.232C79.7476 140.598 80.0528 140.904 80.4175 141.123C81.2997 141.655 82.316 141.922 83.3453 141.891C84.1169 141.894 84.8871 141.824 85.6456 141.682C86.2919 141.567 86.9233 141.379 87.5277 141.123L88.0854 144.615C87.7929 144.755 87.4899 144.872 87.1792 144.965C86.7471 145.098 86.3038 145.192 85.8547 145.244C85.3668 145.314 84.8788 145.384 84.3212 145.454C83.7887 145.51 83.2532 145.534 82.7179 145.523C81.5027 145.556 80.2934 145.342 79.1628 144.895C78.2085 144.537 77.3496 143.964 76.6533 143.218C75.9568 142.521 75.4525 141.655 75.1895 140.704C74.8359 139.743 74.6702 138.723 74.7015 137.7L74.7015 137.7ZM71.8435 137.63C71.8458 138.748 71.6572 139.859 71.2858 140.913C70.9432 141.844 70.4222 142.698 69.7523 143.428C69.0457 144.144 68.1883 144.693 67.2428 145.034C66.1679 145.412 65.0359 145.601 63.8968 145.593C63.3383 145.602 62.7797 145.579 62.2238 145.523L60.5508 145.314C60.0111 145.255 59.4756 145.161 58.9476 145.034C58.4596 144.895 57.9717 144.825 57.6231 144.685V123.311L61.945 122.612V130.226C62.4421 130.022 62.9549 129.858 63.4786 129.737C64.0279 129.619 64.5902 129.572 65.1515 129.597C66.1323 129.587 67.1048 129.777 68.0096 130.156C68.8311 130.506 69.5507 131.059 70.1008 131.763C70.6823 132.509 71.109 133.364 71.3555 134.277C71.7029 135.36 71.8678 136.493 71.8435 137.63L71.8435 137.63ZM67.4519 137.491C67.4519 134.697 66.4063 133.3 64.3848 133.3C63.9403 133.312 63.4975 133.358 63.0603 133.439C62.7025 133.555 62.3531 133.695 62.0147 133.858V141.751C62.2886 141.816 62.5704 141.839 62.8512 141.821C63.1997 141.821 63.5483 141.891 63.8968 141.891C64.4015 141.925 64.9066 141.834 65.3683 141.627C65.83 141.42 66.2341 141.103 66.5457 140.704C67.174 139.753 67.4908 138.63 67.4519 137.491V137.491ZM53.3709 144.755C52.6042 144.965 51.698 145.174 50.5129 145.384C49.3152 145.583 48.1022 145.677 46.8881 145.663C45.7977 145.711 44.7085 145.545 43.6816 145.174C42.8927 144.868 42.1963 144.363 41.6601 143.707C41.1607 143.043 40.8047 142.282 40.6144 141.472C40.3828 140.535 40.2658 139.573 40.2659 138.608V130.086H44.5181V138.049C44.4569 139.081 44.6483 140.112 45.0757 141.053C45.4243 141.682 46.1213 141.961 47.167 141.961C47.4938 141.97 47.8207 141.947 48.1429 141.891C48.4914 141.891 48.7702 141.821 49.0491 141.821V130.017H53.3709V144.755L53.3709 144.755ZM33.4345 145.244C33.0163 144.615 32.5283 143.847 31.9707 143.079C31.4101 142.277 30.805 141.507 30.1583 140.774C29.5309 140.005 28.8338 139.307 28.1368 138.538C27.4749 137.872 26.7768 137.242 26.0455 136.652V145.174H21.5145V125.057H26.0455V132.671C27.2305 131.414 28.4155 130.156 29.6006 128.759C30.7856 127.432 31.9009 126.175 32.9465 125.057H38.314C36.9199 126.664 35.5954 128.27 34.2013 129.737C32.8071 131.274 31.3433 132.741 29.8097 134.277C31.5033 135.72 33.0662 137.309 34.4801 139.027C36.0415 140.964 37.4848 142.993 38.802 145.104H33.4345L33.4345 145.244Z" fill="black"/>
<path d="M69.6827 56.394L67.1732 56.9529C67.1732 56.6036 67.1035 56.2543 67.1035 55.9051C67.0952 53.2457 67.8188 50.6354 69.1947 48.3613L74.0743 52.692C74.1537 52.7783 74.2482 52.8493 74.3531 52.9015C74.0535 53.6377 73.8655 54.4147 73.7954 55.2066C73.656 55.2764 73.4469 55.2764 73.3075 55.3463L69.6827 56.394ZM79.1629 41.5857V48.4311C78.4829 48.6434 77.8458 48.9744 77.2808 49.409C77.0717 49.2693 76.8625 49.0597 76.6534 48.92L71.7042 45.4275C73.7306 43.4 76.3381 42.0569 79.1629 41.5857H79.1629ZM45.2153 57.3719C47.5853 46.9642 49.6068 38.1631 51.9769 27.7553C53.0225 23.0754 53.7196 21.8181 57.9718 19.3733C63.8272 15.9506 68.2188 13.5059 74.4925 9.87367C78.3961 7.63845 79.1629 7.77815 79.1629 12.5978V36.7661C74.7934 37.3013 70.7488 39.3525 67.7308 42.5636L65.6396 41.0968C65.5123 41.0231 65.4027 40.9224 65.3184 40.8017C65.2341 40.681 65.1772 40.5433 65.1517 40.3983C64.9573 39.7395 64.5685 39.155 64.0363 38.7219C63.5648 38.3427 62.9624 38.1665 62.3614 38.2322C61.7604 38.2979 61.21 38.6001 60.8311 39.0722C60.4523 39.5444 60.2761 40.148 60.3412 40.7502C60.4063 41.3525 60.7074 41.9043 61.1783 42.2842C61.4949 42.5651 61.8795 42.7578 62.2936 42.8431C62.5725 42.9129 62.8513 42.9129 63.1301 42.9828C63.3558 43.0328 63.5692 43.1278 63.7575 43.2622L65.7093 45.0084C63.5659 48.184 62.4245 51.9317 62.4331 55.7654C62.4331 56.4639 62.5028 57.1624 62.5725 57.8609L58.3203 58.769C58.0166 58.76 57.7129 58.7834 57.4141 58.8388L56.7867 59.0484C53.9984 59.6072 51.2101 60.2358 48.3521 60.8645C44.5182 61.7725 44.3788 61.0042 45.2153 57.3719L45.2153 57.3719ZM84.1122 48.4311V41.5857C86.9109 42.0914 89.5024 43.4019 91.5709 45.3577L86.2034 49.1994C86.1337 49.2693 86.064 49.3391 85.9943 49.3391C85.4107 48.9527 84.7776 48.6472 84.1122 48.4311V48.4311ZM96.1019 56.4639L89.4099 54.9272C89.3404 54.2027 89.152 53.4946 88.8523 52.8316C88.922 52.7618 88.9917 52.6919 89.0614 52.6919L94.0107 48.2914C95.4172 50.5813 96.165 53.2161 96.1716 55.9051C96.1098 56.0844 96.086 56.2748 96.1019 56.4639V56.4639ZM87.3884 19.513C91.0132 21.2593 93.5924 22.5166 97.2172 24.2629C102.236 26.7076 107.255 29.1524 112.344 31.5273C113.599 36.9756 114.853 42.4239 116.038 47.8723C116.805 51.1552 117.154 52.9015 117.92 56.1146C119.105 61.2137 118.966 61.6328 113.738 60.4453L100.842 57.5116C100.9 56.9548 100.923 56.3949 100.912 55.8352C100.939 51.9666 99.7705 48.1843 97.5658 45.0084L99.3782 43.332C99.5966 43.1468 99.8621 43.0259 100.145 42.9827C100.825 42.9308 101.477 42.6888 102.027 42.2842C102.261 42.0963 102.455 41.864 102.599 41.6007C102.743 41.3374 102.834 41.0483 102.867 40.7498C102.899 40.4513 102.873 40.1493 102.789 39.8611C102.705 39.5728 102.565 39.304 102.377 39.07C102.189 38.836 101.957 38.6413 101.694 38.4972C101.432 38.353 101.143 38.2622 100.845 38.2298C100.547 38.1975 100.246 38.2243 99.9582 38.3087C99.6706 38.3932 99.4024 38.5335 99.169 38.7219C98.8193 38.9794 98.5331 39.314 98.3326 39.6998C98.1931 39.9792 98.1234 40.1887 97.984 40.4681C97.9098 40.6955 97.7628 40.8919 97.5657 41.0269L95.4745 42.4938C92.447 39.2954 88.4073 37.2468 84.0425 36.6962V21.9578C84.1122 18.5351 84.391 18.116 87.3884 19.513V19.513ZM82.9271 63.5187C82.4905 63.6034 82.0474 63.6502 81.6027 63.6584C81.1832 63.67 80.7635 63.6467 80.3479 63.5886L80.1388 64.0077L77.0717 69.6656C78.5537 70.1692 80.1075 70.4287 81.6724 70.434C83.2596 70.423 84.8354 70.1638 86.3428 69.6656L83.2757 64.0776C83.1349 63.9079 83.0177 63.7199 82.9271 63.5188L82.9271 63.5187ZM88.3643 59.8167L95.0563 61.3534C93.9545 64.065 92.0589 66.3785 89.6191 67.9892L86.9702 61.563C87.4932 61.0301 87.9603 60.445 88.3643 59.8167ZM68.2188 61.2836L74.9107 59.7468C75.3205 60.4115 75.8123 61.0217 76.3746 61.563L76.1655 61.9821L73.7257 67.9892C71.2446 66.3757 69.3214 64.0338 68.2188 61.2836H68.2188ZM123.009 73.0883C119.802 77.0697 118.339 78.9557 115.132 82.9372C111.507 87.4774 108.58 91.1795 104.955 95.7198C102.376 99.0027 100.493 99.0726 96.2413 99.0726H66.964C61.3874 99.0726 60.9692 99.0726 57.5535 94.7419C54.1378 90.481 51.4889 87.1282 48.1429 82.8673C45.4941 79.5145 44.797 78.6763 42.1481 75.3235C38.0353 70.1545 37.3383 68.2686 43.7514 66.8716L63.5484 62.4012C65.0869 66.6043 68.014 70.1537 71.8436 72.4596L70.9374 74.5551C70.8308 74.8237 70.6334 75.0462 70.3797 75.1838C69.7673 75.5067 69.2775 76.022 68.9856 76.6507C68.717 77.1968 68.6759 77.8274 68.8712 78.4039C69.0666 78.9803 69.4824 79.4555 70.0273 79.7248C70.5722 79.9941 71.2015 80.0355 71.7769 79.84C72.3523 79.6444 72.8266 79.2279 73.0955 78.682L73.0983 78.6763C73.2873 78.281 73.4053 77.8554 73.4469 77.419C73.4583 77.1378 73.4349 76.8562 73.3771 76.5808C73.3556 76.3394 73.404 76.0968 73.5166 75.8823L74.6319 73.8566C76.8375 74.6903 79.1757 75.1163 81.533 75.1139C83.9203 75.1267 86.2875 74.676 88.5037 73.7868L89.619 75.8124C89.7713 76.0635 89.8212 76.3637 89.7585 76.6507C89.6392 77.3157 89.737 78.0015 90.0373 78.6065C90.3043 79.1535 90.7772 79.5719 91.352 79.7695C91.9268 79.9671 92.5565 79.9278 93.1024 79.6603C93.6483 79.3928 94.0658 78.9189 94.263 78.3429C94.4603 77.7669 94.4211 77.136 94.1541 76.589L94.1501 76.5808C93.9763 76.1782 93.7142 75.8201 93.3833 75.533C93.1679 75.347 92.9344 75.1832 92.6862 75.0441C92.5816 74.9851 92.4905 74.9049 92.4185 74.8087C92.3465 74.7125 92.2952 74.6024 92.2679 74.4853L91.3617 72.2501C95.19 69.9608 98.0996 66.4028 99.5872 62.1916L121.406 67.151C125.797 68.3384 125.518 69.8751 123.009 73.0883" fill="black"/>
<path d="M84.1122 48.4313V41.5859C86.911 42.0916 89.5025 43.4021 91.5709 45.3579L86.2034 49.1996C86.1337 49.2695 86.064 49.3393 85.9943 49.3393C85.4107 48.9529 84.7776 48.6474 84.1122 48.4313V48.4313ZM96.1019 56.4641L89.41 54.9273C89.3404 54.2029 89.152 53.4948 88.8523 52.8318C88.922 52.762 88.9917 52.6921 89.0614 52.6921L94.0107 48.2916C95.4172 50.5815 96.165 53.2163 96.1716 55.9053C96.1098 56.0846 96.086 56.275 96.1019 56.4641V56.4641ZM87.3885 19.5132C91.0133 21.2595 93.5924 22.5168 97.2172 24.263C102.236 26.7078 107.255 29.1526 112.344 31.5275C113.599 36.9758 114.853 42.4241 116.038 47.8725C116.805 51.1554 117.154 52.9017 117.92 56.1148C119.105 61.2139 118.966 61.633 113.738 60.4455L100.842 57.5118C100.9 56.955 100.923 56.3951 100.912 55.8354C100.939 51.9668 99.7706 48.1845 97.5658 45.0086L99.3782 43.3322C99.5967 43.1469 99.8621 43.026 100.145 42.9829C100.825 42.931 101.477 42.689 102.027 42.2844C102.261 42.0965 102.455 41.8642 102.599 41.6009C102.743 41.3376 102.834 41.0485 102.867 40.75C102.899 40.4515 102.873 40.1495 102.789 39.8612C102.705 39.573 102.565 39.3042 102.377 39.0702C102.189 38.8362 101.957 38.6415 101.694 38.4974C101.432 38.3532 101.143 38.2623 100.845 38.23C100.547 38.1977 100.246 38.2245 99.9582 38.3089C99.6706 38.3933 99.4025 38.5337 99.1691 38.722C98.8193 38.9796 98.5331 39.3142 98.3326 39.7C98.1932 39.9794 98.1235 40.1889 97.9841 40.4683C97.9098 40.6956 97.7628 40.8921 97.5658 41.0271L95.4746 42.494C92.447 39.2956 88.4073 37.2469 84.0425 36.6964V21.9579C84.1122 18.5353 84.391 18.1162 87.3885 19.5132V19.5132ZM88.3644 59.8169L95.0563 61.3536C93.9546 64.0651 92.0589 66.3787 89.6191 67.9893L86.9702 61.5631C87.4932 61.0303 87.9604 60.4451 88.3644 59.8169ZM81.6027 70.3643V63.6586C82.0472 63.6467 82.49 63.6 82.9272 63.5189C82.9932 63.6959 83.0873 63.8611 83.206 64.0079L86.2732 69.5959C84.7658 70.0941 83.19 70.3534 81.6027 70.3643L81.6027 70.3643ZM123.009 73.0884C119.803 77.0699 118.339 78.9559 115.132 82.9373C111.507 87.4776 108.58 91.1797 104.955 95.72C102.376 99.0029 100.494 99.0728 96.2413 99.0728H81.6724V75.1141C84.0597 75.1269 86.4269 74.6762 88.6432 73.787L89.7585 75.8126C89.9108 76.0637 89.9607 76.3639 89.8979 76.6508C89.7787 77.3159 89.8764 78.0017 90.1768 78.6066C90.4456 79.1519 90.9193 79.5679 91.494 79.7636C92.0686 79.9592 92.6972 79.9184 93.2419 79.6502C93.7865 79.3819 94.2027 78.9081 94.3991 78.3327C94.5955 77.7573 94.5561 77.1273 94.2895 76.581C94.1158 76.1784 93.8537 75.8203 93.5228 75.5332C93.3074 75.3472 93.0738 75.1834 92.8257 75.0443C92.7211 74.9853 92.6299 74.9051 92.5579 74.8089C92.4859 74.7127 92.4347 74.6026 92.4074 74.4855L91.5012 72.2503C95.3295 69.961 98.2391 66.403 99.7267 62.1918L121.545 67.1512C125.797 68.3386 125.519 69.8753 123.009 73.0885" fill="black"/>
<path d="M284.731 72.2501H273.159V99.3521H300.136V87.7569H284.731V72.2501ZM342.658 72.32V87.7569H327.322L327.183 87.6172V99.3521H354.229V72.2501H342.588L342.658 72.32ZM273.159 45.1482H284.801L284.731 45.0783V29.6414H300.067L300.136 29.7811V18.0463H273.159V45.1482ZM327.183 18.0463V29.6414H342.658V45.1482H354.229V18.0463L327.183 18.0463Z" fill="black"/>
<path opacity="0.8" d="M325.789 45.1483L310.314 29.6415H327.183V18.0464H300.136V29.7812L315.542 45.1483H325.789ZM311.847 72.2502H301.6L314.426 85.1027L317.075 87.757H300.136V99.3522H327.183V87.6173L319.515 79.9338L311.847 72.2502ZM342.658 45.1483V62.0521L340.009 59.3978L327.183 46.6152V56.8832L334.92 64.5667L342.588 72.2503H354.229V45.1483H342.658ZM300.136 60.5154L284.8 45.1483H273.09V72.2503H284.731V55.3465L300.136 70.7834L300.136 60.5154Z" fill="black"/>
<path d="M216.557 128.899L213.629 132.391C213.024 131.628 212.263 131.003 211.397 130.557C210.532 130.112 209.582 129.856 208.61 129.807C207.875 129.809 207.147 129.957 206.469 130.241C205.791 130.525 205.175 130.94 204.657 131.463C204.139 131.985 203.729 132.605 203.449 133.287C203.17 133.968 203.028 134.698 203.03 135.435C203.031 135.491 203.032 135.548 203.033 135.604C203.033 138.957 205.404 141.472 208.61 141.472C210.528 141.366 212.329 140.514 213.629 139.097L216.626 142.24C214.446 144.456 211.504 145.754 208.401 145.872C202.406 145.872 197.945 141.472 197.945 135.604C197.945 129.807 202.546 125.476 208.61 125.476C211.592 125.587 214.425 126.808 216.557 128.899L216.557 128.899ZM218.997 145.663V124.498H223.946V145.663H218.997ZM243.534 137.979C243.534 142.729 240.188 145.872 235.169 145.872C230.15 145.872 226.734 142.729 226.734 137.979C226.734 133.23 230.08 130.156 235.169 130.156C240.188 130.156 243.534 133.23 243.534 137.979H243.534ZM231.683 138.049C231.683 140.424 233.078 142.031 235.099 142.031C237.121 142.031 238.515 140.424 238.515 138.049C238.515 135.674 237.121 134.068 235.099 134.068C233.078 134.068 231.683 135.674 231.683 138.049H231.683ZM261.17 145.663H256.22V143.148C255.718 144.024 254.983 144.743 254.097 145.224C253.21 145.705 252.208 145.929 251.201 145.872C247.856 145.872 245.695 143.567 245.695 140.005V130.296H250.644V138.608C250.644 140.424 251.62 141.542 253.223 141.542C255.105 141.542 256.22 140.005 256.22 137.91V130.296H261.17V145.663ZM280.548 145.663H275.599V143.637C275.06 144.344 274.363 144.914 273.564 145.303C272.765 145.691 271.886 145.886 270.998 145.872C266.677 145.872 263.819 142.659 263.819 137.91C263.819 133.23 266.607 130.086 270.859 130.086C271.77 130.049 272.677 130.233 273.502 130.622C274.328 131.011 275.047 131.594 275.599 132.322V124.498H280.548V145.663ZM275.599 138.049C275.599 135.674 274.205 134.068 272.184 134.068C270.162 134.068 268.768 135.674 268.768 138.049C268.768 140.424 270.162 142.101 272.184 142.101C274.275 142.031 275.599 140.424 275.599 138.049ZM298.603 145.663L289.401 133.369V145.663H284.661V125.686H289.122L298.324 138.049V125.686H303.064V145.663L298.603 145.663ZM320.63 135.604V145.663H315.821V143.917C314.845 145.244 313.172 145.942 311.15 145.942C307.874 145.942 305.852 143.917 305.852 141.123C305.852 138.189 307.944 136.513 311.777 136.443H315.821V136.233C315.821 134.696 314.845 133.788 312.823 133.788C311.22 133.888 309.654 134.316 308.222 135.046L306.828 131.763C309.031 130.637 311.465 130.039 313.938 130.016C318.191 130.086 320.63 132.182 320.63 135.604V135.604ZM315.821 140.494V139.097H312.684C311.22 139.097 310.453 139.586 310.453 140.773C310.453 141.891 311.22 142.589 312.614 142.589C313.303 142.635 313.988 142.456 314.566 142.078C315.145 141.7 315.585 141.144 315.821 140.494V140.494ZM333.945 144.895C332.68 145.576 331.268 145.936 329.832 145.942C326.834 145.942 324.743 144.266 324.743 141.053V134.277H322.582V131.064H324.743V126.803H329.623V131.064H333.666V134.347H329.623V140.354C329.623 141.542 330.111 142.101 331.017 142.031C331.667 141.976 332.304 141.81 332.899 141.542L333.945 144.895ZM341.473 125.895C341.486 126.23 341.434 126.565 341.318 126.879C341.203 127.194 341.026 127.482 340.799 127.729C340.572 127.975 340.299 128.174 339.996 128.315C339.692 128.455 339.363 128.534 339.029 128.548C338.984 128.55 338.939 128.55 338.894 128.55C338.206 128.541 337.55 128.261 337.067 127.771C336.584 127.28 336.313 126.619 336.313 125.93C336.313 125.241 336.584 124.58 337.067 124.09C337.55 123.6 338.206 123.32 338.894 123.311C339.237 123.292 339.581 123.346 339.902 123.47C340.224 123.593 340.515 123.783 340.759 124.027C341.002 124.27 341.191 124.563 341.314 124.885C341.437 125.207 341.491 125.551 341.473 125.895V125.895ZM336.384 145.663V130.296H341.264V145.663H336.384ZM348.932 145.663L343.146 130.296H348.235L351.511 141.193L354.857 130.296H359.736L353.951 145.663H348.932ZM376.048 139.307H365.243C365.414 140.135 365.872 140.877 366.535 141.401C367.198 141.924 368.024 142.197 368.868 142.17C370.249 142.143 371.568 141.594 372.563 140.634L375.142 143.148C374.286 144.056 373.246 144.769 372.091 145.239C370.937 145.709 369.695 145.925 368.45 145.872C363.431 145.872 360.294 142.729 360.294 138.049C360.294 133.299 363.57 130.156 368.31 130.156C373.678 130.156 376.327 133.719 376.048 139.307V139.307ZM371.308 136.652C371.343 136.243 371.29 135.83 371.154 135.442C371.018 135.054 370.801 134.7 370.517 134.403C370.234 134.105 369.89 133.872 369.51 133.718C369.129 133.564 368.72 133.493 368.31 133.509C366.568 133.509 365.452 134.766 365.104 136.652H371.308ZM396.124 128.899L393.196 132.391C392.59 131.628 391.83 131.003 390.964 130.557C390.099 130.112 389.149 129.856 388.177 129.807C387.442 129.809 386.714 129.957 386.036 130.241C385.358 130.525 384.742 130.94 384.224 131.463C383.706 131.985 383.296 132.605 383.016 133.287C382.737 133.968 382.595 134.698 382.597 135.435C382.598 135.491 382.599 135.548 382.6 135.604C382.6 138.957 384.971 141.472 388.177 141.472C390.095 141.366 391.896 140.514 393.196 139.097L396.193 142.24C394.013 144.456 391.071 145.754 387.968 145.872C381.973 145.872 377.512 141.472 377.512 135.604C377.512 129.807 382.112 125.476 388.177 125.476C391.155 125.601 393.984 126.819 396.124 128.899ZM413.342 137.979C413.342 142.729 409.996 145.872 404.977 145.872C399.958 145.872 396.542 142.729 396.542 137.979C396.542 133.23 399.888 130.156 404.977 130.156C409.996 130.156 413.342 133.23 413.342 137.979ZM401.561 138.049C401.561 140.424 402.955 142.031 404.977 142.031C406.998 142.031 408.392 140.424 408.392 138.049C408.392 135.674 406.998 134.068 404.977 134.068C402.955 134.068 401.561 135.674 401.561 138.049H401.561ZM431.675 135.954V145.663H426.795V137.351C426.795 135.535 425.75 134.417 424.077 134.417C422.264 134.417 421.149 135.674 420.94 137.56V145.733H415.99V130.366H420.94V132.88C421.472 132 422.233 131.281 423.142 130.801C424.05 130.321 425.072 130.098 426.098 130.156C429.444 130.086 431.675 132.391 431.675 135.954V135.954Z" fill="black"/>
<path d="M171.595 9.03577H172.292V151.181H171.595V9.03577Z" fill="black"/>
<path d="M171.595 9.03564H172.292V151.181H171.595V9.03564Z" fill="black"/>
<path d="M171.595 9.03564H172.292V151.181H171.595V9.03564Z" fill="black"/>
<path d="M171.595 9.03577H172.292V151.181H171.595V9.03577Z" fill="black"/>
<path d="M127.525 187.084H123.342L116.581 175.349H116.511C116.651 177.445 116.72 178.912 116.72 179.82V187.154H113.793V171.577H117.975L124.737 183.242H124.806C124.667 181.217 124.667 179.82 124.667 178.982V171.647H127.595V187.084H127.525ZM141.954 181.147C142.062 182.804 141.511 184.436 140.421 185.687C139.868 186.245 139.203 186.677 138.469 186.954C137.735 187.231 136.951 187.347 136.169 187.294C135.12 187.305 134.086 187.04 133.171 186.525C132.298 186.021 131.594 185.267 131.15 184.36C130.651 183.34 130.412 182.212 130.453 181.077C130.345 179.42 130.896 177.788 131.986 176.537C132.548 175.993 133.215 175.569 133.947 175.293C134.678 175.017 135.458 174.893 136.238 174.93C137.287 174.919 138.321 175.184 139.236 175.699C140.11 176.203 140.813 176.957 141.257 177.864C141.756 178.884 141.995 180.012 141.954 181.147V181.147ZM133.799 181.147C133.746 182.066 133.938 182.982 134.356 183.801C134.568 184.1 134.851 184.339 135.181 184.498C135.51 184.657 135.874 184.73 136.238 184.709C136.604 184.737 136.971 184.668 137.301 184.508C137.632 184.349 137.914 184.105 138.12 183.801C138.488 182.965 138.678 182.061 138.678 181.147C138.678 180.233 138.488 179.329 138.12 178.493C137.895 178.209 137.609 177.981 137.283 177.823C136.957 177.666 136.6 177.585 136.238 177.585C135.877 177.585 135.52 177.666 135.194 177.823C134.868 177.981 134.582 178.209 134.356 178.493C133.906 179.3 133.711 180.226 133.799 181.147H133.799ZM151.295 175C151.668 174.984 152.042 175.007 152.411 175.07L152.132 178.143C151.814 178.053 151.486 178.006 151.156 178.004C150.278 177.968 149.416 178.24 148.716 178.772C148.429 179.066 148.206 179.416 148.062 179.801C147.918 180.186 147.856 180.597 147.88 181.007V187.084H144.673V175.21H147.113L147.601 177.235H147.74C148.074 176.577 148.58 176.021 149.204 175.629C149.822 175.213 150.551 174.993 151.295 175V175ZM159.521 184.709C160.207 184.678 160.886 184.561 161.542 184.36V186.805C160.591 187.19 159.571 187.38 158.545 187.364C158.027 187.404 157.507 187.338 157.015 187.17C156.524 187.001 156.072 186.735 155.687 186.386C155.037 185.552 154.714 184.508 154.781 183.452V177.724H153.247V176.327L155.059 175.21L155.966 172.695H158.057V175.21H161.403V177.654H158.057V183.382C158.045 183.577 158.076 183.772 158.148 183.953C158.221 184.134 158.332 184.297 158.475 184.43C158.783 184.636 159.151 184.734 159.521 184.709H159.521ZM174.926 187.084H171.72V180.169C171.72 178.423 171.092 177.585 169.837 177.585C169.461 177.549 169.082 177.614 168.739 177.774C168.396 177.933 168.101 178.181 167.886 178.493C167.396 179.414 167.179 180.456 167.258 181.496V187.084H164.052V170.53H167.258V173.883C167.258 174.162 167.258 174.791 167.189 175.699L167.049 176.746H167.189C167.543 176.169 168.049 175.7 168.651 175.392C169.254 175.084 169.93 174.948 170.604 175C171.187 174.958 171.771 175.035 172.323 175.227C172.874 175.419 173.381 175.722 173.811 176.118C174.58 177.006 174.979 178.156 174.926 179.331V187.084ZM193.608 187.084L192.492 183.382H186.846L185.731 187.084H182.176L187.683 171.508H191.726L197.233 187.084H193.608ZM191.726 180.588C190.68 177.235 190.122 175.349 189.983 174.93C189.844 174.511 189.774 174.162 189.704 173.883C189.495 174.791 188.798 177.026 187.683 180.588H191.726ZM209.501 187.084H206.295V180.169C206.328 179.492 206.184 178.817 205.876 178.213C205.726 178.006 205.525 177.84 205.294 177.73C205.063 177.62 204.807 177.57 204.552 177.585C204.196 177.557 203.839 177.627 203.52 177.787C203.201 177.947 202.931 178.191 202.739 178.493C202.312 179.433 202.121 180.464 202.182 181.496V187.084H198.975V175.21H201.415L201.833 176.746H202.042C202.364 176.191 202.852 175.751 203.437 175.489C204.091 175.18 204.804 175.013 205.528 175C207.271 175 208.525 175.559 209.153 176.746H209.431C209.753 176.191 210.241 175.751 210.826 175.489C211.48 175.18 212.193 175.013 212.917 175C213.472 174.962 214.029 175.035 214.556 175.215C215.082 175.395 215.568 175.678 215.984 176.048C216.681 176.746 217.03 177.864 217.03 179.401V187.154H213.753V180.239C213.787 179.562 213.643 178.887 213.335 178.283C213.184 178.076 212.984 177.909 212.753 177.8C212.521 177.69 212.266 177.64 212.011 177.654C211.672 177.63 211.334 177.694 211.028 177.841C210.722 177.988 210.46 178.213 210.268 178.493C209.81 179.323 209.615 180.273 209.71 181.217V187.084H209.501ZM225.534 187.294C224.718 187.372 223.895 187.269 223.124 186.991C222.353 186.713 221.652 186.268 221.073 185.687C220.493 185.107 220.049 184.405 219.772 183.632C219.495 182.859 219.391 182.034 219.469 181.217C219.469 179.191 219.957 177.654 220.933 176.607C221.458 176.051 222.098 175.619 222.81 175.341C223.521 175.063 224.285 174.947 225.046 175C225.763 174.955 226.481 175.063 227.154 175.315C227.827 175.568 228.439 175.961 228.95 176.467C229.911 177.563 230.411 178.99 230.344 180.448V182.055H222.676C222.673 182.856 222.972 183.629 223.512 184.22C224.104 184.751 224.88 185.027 225.673 184.989C226.353 184.992 227.03 184.922 227.695 184.779C228.386 184.598 229.061 184.365 229.716 184.081V186.595C229.14 186.877 228.531 187.088 227.904 187.224C227.277 187.224 226.51 187.294 225.534 187.294ZM225.116 177.305C224.819 177.284 224.52 177.329 224.243 177.438C223.966 177.547 223.716 177.716 223.512 177.934C223.064 178.46 222.817 179.128 222.815 179.82H227.346C227.375 179.135 227.152 178.464 226.719 177.934C226.515 177.716 226.266 177.547 225.988 177.438C225.711 177.329 225.413 177.284 225.116 177.305H225.116ZM239.685 175C240.058 174.984 240.432 175.007 240.8 175.07L240.521 178.143C240.204 178.053 239.875 178.006 239.545 178.004C238.667 177.968 237.805 178.24 237.105 178.772C236.818 179.066 236.595 179.416 236.451 179.801C236.307 180.186 236.245 180.597 236.269 181.007V187.084H233.062V175.21H235.502L235.99 177.235H236.13C236.463 176.577 236.969 176.021 237.593 175.629C238.211 175.213 238.94 174.993 239.685 175H239.685ZM242.752 172.136C242.752 171.088 243.309 170.53 244.494 170.53C245.679 170.53 246.237 171.088 246.237 172.136C246.249 172.352 246.218 172.568 246.146 172.772C246.074 172.975 245.963 173.163 245.819 173.324C245.447 173.627 244.973 173.777 244.494 173.743C243.379 173.743 242.752 173.184 242.752 172.136L242.752 172.136ZM246.167 187.084H242.961V175.21H246.167V187.084ZM254.323 187.294C250.629 187.294 248.816 185.268 248.816 181.217C248.816 179.191 249.304 177.654 250.35 176.607C250.918 176.051 251.596 175.621 252.341 175.344C253.085 175.067 253.879 174.95 254.672 175C255.952 174.979 257.219 175.267 258.366 175.838L257.39 178.353C256.902 178.143 256.414 178.004 255.996 177.864C255.568 177.726 255.121 177.656 254.672 177.654C252.999 177.654 252.162 178.842 252.162 181.217C252.162 183.522 252.999 184.709 254.672 184.709C255.265 184.725 255.856 184.63 256.414 184.43C256.986 184.261 257.527 184.001 258.018 183.661V186.456C257.525 186.775 256.983 187.011 256.414 187.154C255.721 187.245 255.023 187.292 254.323 187.294L254.323 187.294ZM268.265 187.084L267.637 185.478H267.568C267.141 186.081 266.564 186.563 265.895 186.875C265.192 187.181 264.43 187.324 263.664 187.294C262.667 187.325 261.695 186.976 260.945 186.316C260.264 185.55 259.913 184.546 259.969 183.522C259.929 182.981 260.03 182.439 260.263 181.949C260.495 181.459 260.85 181.038 261.294 180.728C262.2 180.099 263.525 179.82 265.267 179.75L267.359 179.68V179.191C267.39 178.945 267.364 178.695 267.284 178.461C267.204 178.226 267.072 178.013 266.897 177.838C266.722 177.662 266.509 177.53 266.275 177.449C266.041 177.369 265.792 177.344 265.546 177.375C264.385 177.42 263.246 177.705 262.2 178.213L261.155 176.048C262.56 175.341 264.113 174.982 265.686 175C267 174.921 268.302 175.29 269.38 176.048C269.814 176.442 270.152 176.93 270.37 177.474C270.587 178.019 270.678 178.606 270.635 179.191V187.084H268.265L268.265 187.084ZM267.289 181.566L266.034 181.636C265.306 181.605 264.583 181.774 263.943 182.125C263.708 182.269 263.518 182.477 263.395 182.724C263.272 182.97 263.22 183.247 263.246 183.522C263.246 184.43 263.803 184.919 264.849 184.919C265.511 184.948 266.159 184.723 266.661 184.29C266.891 184.063 267.071 183.79 267.191 183.49C267.311 183.189 267.368 182.867 267.359 182.544V181.566L267.289 181.566ZM289.561 186.956H278.812V184.69L282.672 180.78C283.815 179.606 284.562 178.793 284.913 178.34C285.222 177.957 285.476 177.533 285.67 177.08C285.823 176.699 285.902 176.291 285.901 175.879C285.921 175.626 285.886 175.371 285.798 175.133C285.71 174.894 285.571 174.678 285.391 174.499C285.01 174.182 284.524 174.02 284.029 174.046C283.427 174.047 282.833 174.188 282.294 174.456C281.664 174.776 281.075 175.168 280.537 175.626L278.77 173.529C279.35 173.01 279.981 172.551 280.653 172.159C281.168 171.886 281.716 171.678 282.283 171.542C282.931 171.392 283.595 171.319 284.26 171.327C285.137 171.309 286.007 171.489 286.806 171.853C287.505 172.173 288.099 172.684 288.52 173.329C288.931 173.977 289.143 174.732 289.13 175.5C289.135 176.184 289.008 176.862 288.757 177.497C288.466 178.188 288.076 178.832 287.599 179.41C286.745 180.404 285.823 181.337 284.839 182.203L282.861 184.068V184.215H289.561L289.561 186.956ZM301.772 179.252C301.772 181.943 301.332 183.935 300.452 185.227C299.998 185.874 299.386 186.392 298.674 186.732C297.962 187.072 297.174 187.221 296.387 187.167C295.602 187.211 294.82 187.049 294.116 186.698C293.413 186.347 292.813 185.818 292.375 185.164C291.474 183.83 291.023 181.859 291.023 179.252C291.023 176.533 291.461 174.529 292.338 173.239C292.823 172.629 293.44 172.137 294.144 171.802C294.847 171.467 295.617 171.297 296.396 171.306C297.174 171.314 297.941 171.501 298.636 171.852C299.332 172.202 299.939 172.708 300.41 173.329C301.318 174.678 301.772 176.652 301.772 179.252ZM294.252 179.252C294.181 180.624 294.347 181.998 294.741 183.315C294.844 183.671 295.06 183.985 295.357 184.207C295.655 184.428 296.016 184.546 296.387 184.542C296.758 184.541 297.119 184.419 297.415 184.195C297.711 183.971 297.926 183.656 298.028 183.299C298.703 180.634 298.701 177.842 298.022 175.179C297.921 174.822 297.706 174.508 297.41 174.284C297.115 174.061 296.755 173.94 296.384 173.94C296.014 173.94 295.654 174.061 295.358 174.284C295.063 174.508 294.848 174.822 294.747 175.179C294.348 176.498 294.181 177.876 294.252 179.252ZM314.151 186.956H303.402V184.69L307.262 180.78C308.405 179.606 309.152 178.793 309.502 178.34C309.811 177.957 310.066 177.533 310.259 177.08C310.413 176.699 310.491 176.291 310.491 175.879C310.511 175.626 310.475 175.371 310.387 175.133C310.299 174.894 310.161 174.678 309.981 174.499C309.599 174.182 309.113 174.02 308.619 174.046C308.016 174.047 307.423 174.188 306.883 174.456C306.254 174.776 305.665 175.168 305.127 175.626L303.36 173.529C303.94 173.01 304.571 172.551 305.243 172.159C305.758 171.886 306.306 171.678 306.872 171.542C307.521 171.392 308.185 171.319 308.85 171.327C309.727 171.309 310.597 171.489 311.395 171.853C312.095 172.173 312.689 172.684 313.109 173.329C313.521 173.977 313.733 174.732 313.719 175.5C313.724 176.184 313.597 176.862 313.346 177.497C313.056 178.188 312.666 178.832 312.189 179.41C311.335 180.404 310.412 181.337 309.429 182.203L307.451 184.068V184.215H314.151L314.151 186.956ZM326.361 179.252C326.361 181.943 325.921 183.935 325.041 185.227C324.588 185.874 323.975 186.392 323.263 186.732C322.551 187.072 321.764 187.221 320.977 187.167C320.192 187.211 319.409 187.049 318.706 186.698C318.002 186.347 317.402 185.818 316.964 185.164C316.063 183.83 315.613 181.859 315.613 179.252C315.613 176.533 316.051 174.529 316.928 173.239C317.412 172.629 318.03 172.137 318.733 171.802C319.436 171.467 320.207 171.297 320.985 171.306C321.764 171.314 322.53 171.501 323.226 171.852C323.922 172.202 324.528 172.708 324.999 173.329C325.907 174.678 326.361 176.652 326.361 179.252ZM318.841 179.252C318.771 180.624 318.936 181.998 319.331 183.315C319.433 183.671 319.65 183.985 319.947 184.207C320.244 184.428 320.606 184.546 320.977 184.542C321.348 184.541 321.708 184.419 322.004 184.195C322.3 183.971 322.515 183.656 322.617 183.299C323.293 180.634 323.291 177.842 322.612 175.179C322.51 174.822 322.296 174.508 322 174.284C321.705 174.061 321.344 173.94 320.974 173.94C320.604 173.94 320.244 174.061 319.948 174.284C319.652 174.508 319.438 174.822 319.336 175.179C318.938 176.498 318.771 177.876 318.841 179.252Z" fill="black"/>
<path d="M343.495 178.597H431.675V179.296H343.495V178.597Z" fill="black"/>
<path d="M343.495 178.597H431.675V179.296H343.495V178.597Z" fill="black"/>
<path d="M343.495 178.597H431.675V179.296H343.495V178.597Z" fill="black"/>
<path d="M343.495 178.597H431.675V179.296H343.495V178.597Z" fill="black"/>
</svg>
