<svg width="288" height="252" viewBox="0 0 288 252" fill="none" xmlns="http://www.w3.org/2000/svg">
<path fill-rule="evenodd" clip-rule="evenodd" d="M84.1958 0C51.5844 0 24.6822 26.8642 24.3919 59.8942L24.391 60L24.3919 60.1058C24.5515 78.2638 32.7536 94.5583 45.5255 105.551C18.8484 119.584 0.469727 147.642 0.469727 180V204H24.3915V180C24.3915 146.897 51.4458 120 84.1958 120H89.1721C92.814 128.363 98.301 135.732 105.117 141.589C78.457 155.64 60.2741 183.689 60.2741 216V252H84.1958V216C84.1958 182.863 110.971 156 144 156C177.029 156 203.805 182.863 203.805 216V252H227.726V216C227.726 183.689 209.543 155.64 182.883 141.589C189.699 135.732 195.186 128.363 198.828 120H203.805C236.555 120 263.609 146.897 263.609 180V204H287.531V180C287.531 147.642 269.152 119.584 242.475 105.551C255.247 94.5583 263.449 78.2638 263.608 60.1058L263.609 60L263.608 59.8942C263.318 26.8642 236.416 0 203.805 0C178.277 0 156.504 15.1361 147.387 36.0946C146.266 36.0318 145.137 36 144 36C142.863 36 141.734 36.0318 140.613 36.0946C131.496 15.1361 109.724 0 84.1958 0ZM117.035 42.4305C110.978 31.9054 98.8798 24 84.1958 24C64.8782 24 48.5462 40.0596 48.3138 60C48.5462 79.9404 64.8782 96 84.1958 96C84.1958 72.5957 97.5524 52.3213 117.035 42.4305ZM203.805 96C203.805 72.5957 190.448 52.3213 170.965 42.4305C177.023 31.9054 189.121 24 203.805 24C223.122 24 239.454 40.0596 239.686 60C239.454 79.9404 223.122 96 203.805 96ZM144 132C163.818 132 179.883 115.882 179.883 96C179.883 76.1177 163.818 60 144 60C124.183 60 108.118 76.1177 108.118 96C108.118 115.882 124.183 132 144 132Z" fill="#FFD63E"/>
</svg>
