<svg width="144" height="144" viewBox="0 0 144 144" fill="none" xmlns="http://www.w3.org/2000/svg">
<g clip-path="url(#clip0)">
<path fill-rule="evenodd" clip-rule="evenodd" d="M131.635 144L125.663 144L18.1655 144L12.1934 144L12.1934 138L12.1934 5.99999L12.1934 -1.04419e-05L18.1655 -9.91984e-06L125.663 -5.22097e-07L131.635 0L131.635 6L131.635 138L131.635 144ZM119.691 62.2326L119.691 42L24.1376 42L24.1376 62.2325L119.691 62.2326ZM119.691 12L119.691 32.2326L24.1376 32.2325L24.1376 12L119.691 12ZM119.691 72L24.1376 72L24.1376 92.2325L119.691 92.2326L119.691 72ZM119.691 102L119.691 132L24.1376 132L24.1376 102L119.691 102ZM113.719 126L107.747 126L101.775 126L95.8027 126L95.8027 120L95.8027 114L95.8027 108L101.775 108L107.747 108L113.719 108L113.719 114L113.719 120L113.719 126Z" fill="#FFD63E"/>
<path d="M53.1327 116.357L104.558 64.9319L101.103 61.4774L97.6487 58.023L46.2237 109.448L49.6782 112.902L53.1327 116.357Z" stroke="white" stroke-width="9.77073"/>
<path fill-rule="evenodd" clip-rule="evenodd" d="M81.0474 61.4774L101.103 81.5332L81.0474 61.4774Z" stroke="#444444" stroke-width="6.68524"/>
<path fill-rule="evenodd" clip-rule="evenodd" d="M108.767 65.8C110.072 67.1054 110.072 69.2218 108.767 70.5272L64.3339 114.96L40.9355 121.645L47.6208 98.2472L92.0539 53.8141C93.3592 52.5087 95.4757 52.5087 96.781 53.8141L108.767 65.8Z" stroke="#444444" stroke-width="6.68524"/>
<path d="M44.2778 111.616L50.9631 118.301" stroke="#444444" stroke-width="6.68524"/>
<path d="M57.6484 104.93L84.3894 78.1892" stroke="#444444" stroke-width="6.68524"/>
</g>
<defs>
<clipPath id="clip0">
<rect width="144" height="144" fill="white"/>
</clipPath>
</defs>
</svg>
