<svg width="248" height="248" viewBox="0 0 248 248" fill="none" xmlns="http://www.w3.org/2000/svg">
<g clip-path="url(#clip0)">
<path fill-rule="evenodd" clip-rule="evenodd" d="M226.705 248L216.42 248L31.2849 248L20.9996 248L20.9996 237.667L20.9997 10.3333L20.9997 -1.79833e-05L31.2849 -1.70842e-05L216.42 -8.99167e-07L226.705 0L226.705 10.3333L226.705 237.667L226.705 248ZM206.135 107.178L206.135 72.3333L41.5702 72.3333L41.5702 107.178L206.135 107.178ZM206.135 20.6667L206.135 55.5116L41.5702 55.5116L41.5702 20.6667L206.135 20.6667ZM206.135 124L41.5702 124L41.5702 158.845L206.135 158.845L206.135 124ZM206.135 175.667L206.135 227.333L41.5702 227.333L41.5702 175.667L206.135 175.667ZM195.849 217L185.564 217L175.279 217L164.993 217L164.993 206.667L164.993 196.333L164.993 186L175.279 186L185.564 186L195.849 186L195.849 196.333L195.849 206.667L195.849 217Z" fill="#FFD63E"/>
<path d="M91.505 200.393L180.07 111.828L174.121 105.879L168.171 99.9295L79.6063 188.495L85.5557 194.444L91.505 200.393Z" stroke="white" stroke-width="16.8274"/>
<path fill-rule="evenodd" clip-rule="evenodd" d="M139.581 105.879L174.121 140.419L139.581 105.879Z" stroke="#444444" stroke-width="11.5135"/>
<path fill-rule="evenodd" clip-rule="evenodd" d="M187.321 113.323C189.569 115.571 189.569 119.216 187.321 121.464L110.797 197.988L70.5 209.502L82.0135 169.204L158.537 92.6807C160.785 90.4326 164.43 90.4326 166.678 92.6807L187.321 113.323Z" stroke="#444444" stroke-width="11.5135"/>
<path d="M76.2568 192.229L87.7703 203.742" stroke="#444444" stroke-width="11.5135"/>
<path d="M99.2832 180.714L145.337 134.66" stroke="#444444" stroke-width="11.5135"/>
</g>
<defs>
<clipPath id="clip0">
<rect width="248" height="248" fill="white"/>
</clipPath>
</defs>
</svg>
