<svg width="224" height="248" viewBox="0 0 224 248" fill="none" xmlns="http://www.w3.org/2000/svg">
<path fill-rule="evenodd" clip-rule="evenodd" d="M223.614 75.9514C223.614 66.154 218.37 57.1061 209.868 52.2363L124.987 3.61513C116.536 -1.2255 106.148 -1.20359 97.7183 3.67264L13.7374 52.2499C5.29218 57.1348 0.0914307 66.1512 0.0914307 75.9075V172.093C0.0914307 181.849 5.29218 190.865 13.7374 195.75L97.7183 244.327C106.148 249.204 116.536 249.226 124.987 244.385L209.868 195.764C218.37 190.894 223.614 181.846 223.614 172.049V75.9514ZM103.583 13.8116C108.4 11.0252 114.336 11.0127 119.165 13.7787L204.046 62.3999C208.904 65.1826 211.901 70.3529 211.901 75.9514V172.049C211.901 177.647 208.904 182.817 204.046 185.6L119.165 234.221C114.336 236.987 108.4 236.975 103.583 234.188L19.6021 185.611C14.7762 182.82 11.8044 177.667 11.8044 172.092V75.9075C11.8044 70.3325 14.7762 65.1802 19.6021 62.3888L103.583 13.8116Z" fill="black"/>
<path fill-rule="evenodd" clip-rule="evenodd" d="M86.25 66.75C73.2991 66.75 62.6155 77.3837 62.5002 90.4581L62.4998 90.5L62.5002 90.5419C62.5636 97.7294 65.8209 104.179 70.8929 108.53C60.2987 114.085 53 125.192 53 138V147.5H62.5V138C62.5 124.897 73.244 114.25 86.25 114.25H88.2262C89.6725 117.56 91.8516 120.477 94.5584 122.795C83.971 128.357 76.75 139.46 76.75 152.25V166.5H86.25V152.25C86.25 139.133 96.8832 128.5 110 128.5C123.117 128.5 133.75 139.133 133.75 152.25V166.5H143.25V152.25C143.25 139.46 136.029 128.357 125.442 122.795C128.148 120.477 130.327 117.56 131.774 114.25H133.75C146.756 114.25 157.5 124.897 157.5 138V147.5H167V138C167 125.192 159.701 114.085 149.107 108.53C154.179 104.179 157.436 97.7294 157.5 90.5419L157.5 90.5L157.5 90.4581C157.385 77.3837 146.701 66.75 133.75 66.75C123.612 66.75 114.966 72.7414 111.345 81.0375C110.9 81.0126 110.451 81 110 81C109.549 81 109.1 81.0126 108.655 81.0375C105.034 72.7414 96.3878 66.75 86.25 66.75ZM99.2915 83.5454C96.8858 79.3792 92.0814 76.25 86.25 76.25C78.5784 76.25 72.0925 82.6069 72.0002 90.5C72.0925 98.3931 78.5784 104.75 86.25 104.75C86.25 95.4858 91.5543 87.4605 99.2915 83.5454ZM133.75 104.75C133.75 95.4858 128.446 87.4605 120.708 83.5454C123.114 79.3792 127.919 76.25 133.75 76.25C141.422 76.25 147.907 82.6069 148 90.5C147.907 98.3931 141.422 104.75 133.75 104.75ZM110 119C117.87 119 124.25 112.62 124.25 104.75C124.25 96.8799 117.87 90.5 110 90.5C102.13 90.5 95.75 96.8799 95.75 104.75C95.75 112.62 102.13 119 110 119Z" fill="black"/>
<path d="M153.529 151.713H188.668C191.902 151.713 194.524 149.091 194.524 145.856C194.524 142.622 191.902 140 188.668 140H153.529C150.294 140 147.672 142.622 147.672 145.856C147.672 149.091 150.294 151.713 153.529 151.713Z" fill="black"/>
<path d="M73.871 173.77H144.149C147.383 173.77 150.005 171.148 150.005 167.914C150.005 164.679 147.383 162.057 144.149 162.057H73.871C70.6366 162.057 68.0145 164.679 68.0145 167.914C68.0145 171.148 70.6366 173.77 73.871 173.77Z" fill="black"/>
<path d="M136.772 197.053H158.191C161.148 197.053 163.545 194.656 163.545 191.699C163.545 188.741 161.148 186.344 158.191 186.344H136.772C133.815 186.344 131.418 188.741 131.418 191.699C131.418 194.656 133.815 197.053 136.772 197.053Z" fill="#7630EA"/>
<path d="M61.8093 197.053H115.354C118.312 197.053 120.709 194.656 120.709 191.699C120.709 188.741 118.312 186.344 115.354 186.344H61.8093C58.8521 186.344 56.4548 188.741 56.4548 191.699C56.4548 194.656 58.8521 197.053 61.8093 197.053Z" fill="#FF8300"/>
<path d="M37.232 151.713H64.7174C68.5123 151.713 71.5888 149.091 71.5888 145.856C71.5888 142.622 68.5123 140 64.7174 140H37.232C33.437 140 30.3606 142.622 30.3606 145.856C30.3606 149.091 33.437 151.713 37.232 151.713Z" fill="black"/>
</svg>
