<svg width="72" height="72" viewBox="0 0 72 72" fill="none" xmlns="http://www.w3.org/2000/svg">
<path d="M62.0737 19.7205V67.3616C62.0737 69.9237 59.9956 71.9999 57.4355 71.9999H14.565C12.0029 71.9999 9.92676 69.9237 9.92676 67.3616V4.63823C9.92662 2.07619 12.0028 0 14.565 0H42.3532L62.0737 19.7205Z" fill="#518EF8"/>
<path d="M49.3322 36.1484H22.666V39.1115H49.3322V36.1484Z" fill="white"/>
<path d="M49.3322 42.7656H22.666V45.7287H49.3322V42.7656Z" fill="white"/>
<path d="M49.3322 49.3828H22.666V52.3459H49.3322V49.3828Z" fill="white"/>
<path d="M41.63 56H22.666V58.9631H41.63V56Z" fill="white"/>
<path d="M45.0439 19.2935L62.0739 26.3094V19.722L52.4185 16.8711L45.0439 19.2935Z" fill="#3A5BBC"/>
<path d="M62.0741 19.7205H46.9917C44.4296 19.7205 42.3535 17.6444 42.3535 15.0823V0L62.0741 19.7205Z" fill="#ACD1FC"/>
</svg>
