<svg width="72" height="72" viewBox="0 0 72 72" fill="none" xmlns="http://www.w3.org/2000/svg">
<path d="M63.384 9H23.616C22.1715 9 21 10.1715 21 11.616V22.5045H66V11.616C66 10.1715 64.8285 9 63.384 9Z" fill="#2D92D4"/>
<path d="M21 49.582V60.385C21 61.8295 22.1715 63.001 23.6145 63.001H63.384C64.8285 63.001 66 61.8295 66 60.385V49.582H21Z" fill="#2150A9"/>
<path d="M21 22.5059H66V36.0089H21V22.5059Z" fill="#2D83D4"/>
<path d="M21 36.0078H66V49.5828H21V36.0078Z" fill="#2E70C9"/>
<path d="M33.4785 51H8.5215C7.1295 51 6 49.8705 6 48.4785V23.5215C6 22.1295 7.1295 21 8.5215 21H33.4785C34.8705 21 36 22.1295 36 23.5215V48.4785C36 49.8705 34.8705 51 33.4785 51Z" fill="#00488D"/>
<path d="M27.6049 28.5L25.2859 39.396L22.7164 28.5H19.4359L16.7854 39.7335L14.3959 28.5H11.4619L14.9779 43.5H18.5059L21.0754 31.9665L23.6464 43.5H27.0229L30.5389 28.5H27.6049Z" fill="white"/>
</svg>
