<svg width="144" height="144" viewBox="0 0 144 144" fill="none" xmlns="http://www.w3.org/2000/svg">
<path fill-rule="evenodd" clip-rule="evenodd" d="M44.2404 84.6882C44.2414 86.0136 43.9813 87.3262 43.4748 88.5509C42.9684 89.7755 42.2256 90.8882 41.289 91.8252C40.3523 92.7623 39.2402 93.5052 38.0163 94.0116C36.7925 94.5179 35.4808 94.7777 34.1565 94.7762C32.8328 94.7767 31.522 94.5161 30.299 94.0093C29.0761 93.5024 27.9649 92.7593 27.0291 91.8224C26.0933 90.8855 25.3513 89.7732 24.8453 88.549C24.3394 87.3249 24.0795 86.0129 24.0806 84.6882C24.0795 83.3631 24.3395 82.0509 24.8457 80.8265C25.3519 79.6021 26.0943 78.4896 27.0306 77.5526C27.9668 76.6156 29.0784 75.8726 30.3018 75.366C31.5252 74.8594 32.8365 74.5992 34.1605 74.6003H44.2444V84.6882H44.2404ZM49.2803 84.6882C49.2792 83.3631 49.5393 82.0509 50.0454 80.8265C50.5516 79.6021 51.2941 78.4896 52.2303 77.5526C53.1665 76.6156 54.2781 75.8726 55.5015 75.366C56.725 74.8594 58.0362 74.5992 59.3602 74.6003C60.6842 74.5992 61.9954 74.8594 63.2188 75.366C64.4423 75.8726 65.5539 76.6156 66.4901 77.5526C67.4263 78.4896 68.1688 79.6021 68.675 80.8265C69.1811 82.0509 69.4411 83.3631 69.4401 84.6882V109.912C69.4411 111.237 69.1811 112.549 68.675 113.774C68.1688 114.998 67.4263 116.111 66.4901 117.048C65.5539 117.985 64.4423 118.728 63.2188 119.234C61.9954 119.741 60.6842 120.001 59.3602 120C58.0362 120.001 56.725 119.741 55.5015 119.234C54.2781 118.728 53.1665 117.985 52.2303 117.048C51.2941 116.111 50.5516 114.998 50.0454 113.774C49.5393 112.549 49.2792 111.237 49.2803 109.912V84.6882Z" fill="#E01E5A"/>
<path fill-rule="evenodd" clip-rule="evenodd" d="M59.3598 44.1799C58.0355 44.181 56.7239 43.9206 55.5002 43.4138C54.2766 42.9069 53.1648 42.1636 52.2285 41.2262C51.2922 40.2888 50.5499 39.1758 50.0439 37.9509C49.538 36.7261 49.2783 35.4134 49.2799 34.088C49.2789 32.7629 49.5389 31.4506 50.0451 30.2262C50.5513 29.0018 51.2937 27.8893 52.2299 26.9523C53.1661 26.0154 54.2777 25.2723 55.5012 24.7658C56.7246 24.2592 58.0358 23.9989 59.3598 24C60.6838 23.9989 61.9951 24.2592 63.2185 24.7658C64.4419 25.2723 65.5535 26.0154 66.4897 26.9523C67.426 27.8893 68.1684 29.0018 68.6746 30.2262C69.1808 31.4506 69.4408 32.7629 69.4397 34.088V44.1839H59.3638L59.3598 44.1799ZM59.3598 49.3001C60.6838 49.2991 61.9951 49.5593 63.2185 50.0659C64.4419 50.5725 65.5535 51.3155 66.4897 52.2525C67.426 53.1894 68.1684 54.302 68.6746 55.5264C69.1808 56.7508 69.4408 58.063 69.4397 59.3881C69.4408 60.7132 69.1808 62.0254 68.6746 63.2498C68.1684 64.4742 67.426 65.5867 66.4897 66.5237C65.5535 67.4607 64.4419 68.2037 63.2185 68.7103C61.9951 69.2169 60.6838 69.4771 59.3598 69.476H34.0799C32.7562 69.4771 31.4453 69.217 30.2222 68.7107C28.999 68.2043 27.8876 67.4617 26.9514 66.5251C26.0152 65.5886 25.2727 64.4766 24.7663 63.2526C24.2599 62.0287 23.9995 60.7168 24 59.3921C23.9989 58.067 24.259 56.7548 24.7651 55.5304C25.2713 54.306 26.0138 53.1935 26.95 52.2565C27.8862 51.3195 28.9978 50.5765 30.2212 50.0699C31.4447 49.5633 32.7559 49.3031 34.0799 49.3042H59.3638L59.3598 49.3001Z" fill="#36C5F0"/>
<path fill-rule="evenodd" clip-rule="evenodd" d="M99.7589 59.3881C99.7579 58.0627 100.018 56.7501 100.524 55.5254C101.031 54.3008 101.774 53.1881 102.71 52.2511C103.647 51.314 104.759 50.5711 105.983 50.0647C107.207 49.5584 108.518 49.2986 109.843 49.3001C111.167 49.2991 112.478 49.5593 113.701 50.0659C114.925 50.5725 116.037 51.3155 116.973 52.2525C117.909 53.1894 118.651 54.302 119.158 55.5264C119.664 56.7508 119.924 58.063 119.923 59.3881C119.924 60.7132 119.664 62.0254 119.158 63.2498C118.651 64.4742 117.909 65.5867 116.973 66.5237C116.037 67.4607 114.925 68.2037 113.701 68.7103C112.478 69.2169 111.167 69.4771 109.843 69.4761H99.7589V59.3921V59.3881ZM94.719 59.3881C94.72 60.7132 94.46 62.0254 93.9538 63.2498C93.4477 64.4742 92.7052 65.5867 91.769 66.5237C90.8328 67.4607 89.7212 68.2037 88.4977 68.7103C87.2743 69.2169 85.9631 69.4771 84.6391 69.4761C83.3147 69.4776 82.0031 69.2178 80.7792 68.7115C79.5553 68.2051 78.4432 67.4622 77.5066 66.5251C76.5699 65.5881 75.8271 64.4754 75.3207 63.2508C74.8143 62.0261 74.5541 60.7135 74.5552 59.3881V34.088C74.5541 32.7626 74.8143 31.45 75.3207 30.2253C75.8271 29.0006 76.5699 27.8879 77.5066 26.9509C78.4432 26.0139 79.5553 25.271 80.7792 24.7646C82.0031 24.2582 83.3147 23.9984 84.6391 24C85.9631 23.999 87.2743 24.2592 88.4977 24.7658C89.7212 25.2724 90.8328 26.0154 91.769 26.9523C92.7052 27.8893 93.4477 29.0018 93.9538 30.2262C94.46 31.4506 94.72 32.7629 94.719 34.088V59.3921V59.3881Z" fill="#2EB67D"/>
<path fill-rule="evenodd" clip-rule="evenodd" d="M84.64 99.8201C85.964 99.8191 87.2752 100.079 88.4986 100.586C89.722 101.092 90.8337 101.836 91.7699 102.772C92.7061 103.709 93.4485 104.822 93.9547 106.046C94.4609 107.271 94.7209 108.583 94.7199 109.908C94.7214 111.233 94.4618 112.546 93.9559 113.771C93.4499 114.996 92.7076 116.109 91.7713 117.046C90.835 117.984 89.7232 118.727 88.4995 119.234C87.2759 119.741 85.9643 120.001 84.64 120C83.3156 120.001 82.0041 119.741 80.7804 119.234C79.5567 118.727 78.4449 117.984 77.5086 117.046C76.5724 116.109 75.83 114.996 75.3241 113.771C74.8181 112.546 74.5585 111.233 74.5601 109.908V99.8201H84.64ZM84.64 94.7762C83.316 94.7772 82.0047 94.517 80.7813 94.0104C79.5579 93.5038 78.4463 92.7608 77.51 91.8238C76.5738 90.8869 75.8314 89.7744 75.3252 88.55C74.819 87.3255 74.559 86.0133 74.5601 84.6882C74.559 83.3631 74.819 82.0509 75.3252 80.8265C75.8314 79.6021 76.5738 78.4896 77.51 77.5526C78.4463 76.6156 79.5579 75.8726 80.7813 75.366C82.0047 74.8594 83.316 74.5992 84.64 74.6003H109.92C111.244 74.5992 112.555 74.8594 113.779 75.366C115.002 75.8726 116.114 76.6156 117.05 77.5526C117.986 78.4896 118.728 79.6021 119.235 80.8265C119.741 82.0509 120.001 83.3631 120 84.6882C120.001 86.0133 119.741 87.3255 119.235 88.55C118.728 89.7744 117.986 90.8869 117.05 91.8238C116.114 92.7608 115.002 93.5038 113.779 94.0104C112.555 94.517 111.244 94.7772 109.92 94.7762H84.64Z" fill="#ECB22E"/>
</svg>
