<svg width="96" height="96" viewBox="0 0 96 96" fill="none" xmlns="http://www.w3.org/2000/svg">
<path fill-rule="evenodd" clip-rule="evenodd" d="M20.2404 60.6881C20.2414 62.0135 19.9813 63.3261 19.4748 64.5507C18.9684 65.7754 18.2256 66.8881 17.289 67.8251C16.3523 68.7621 15.2402 69.5051 14.0163 70.0114C12.7925 70.5178 11.4808 70.7776 10.1565 70.776C8.83278 70.7765 7.52199 70.5159 6.29903 70.0091C5.07607 69.5023 3.96492 68.7592 3.02913 67.8222C2.09334 66.8853 1.35126 65.773 0.845325 64.5489C0.339387 63.3247 0.0795156 62.0128 0.0805696 60.6881C0.079515 59.363 0.339519 58.0507 0.845708 56.8263C1.3519 55.6019 2.09434 54.4894 3.03055 53.5524C3.96676 52.6155 5.07838 51.8724 6.30181 51.3659C7.52523 50.8593 8.83646 50.599 10.1605 50.6001H20.2444V60.6881H20.2404ZM25.2803 60.6881C25.2792 59.363 25.5393 58.0507 26.0454 56.8263C26.5516 55.6019 27.2941 54.4894 28.2303 53.5524C29.1665 52.6155 30.2781 51.8724 31.5015 51.3659C32.725 50.8593 34.0362 50.599 35.3602 50.6001C36.6842 50.599 37.9954 50.8593 39.2188 51.3659C40.4423 51.8724 41.5539 52.6155 42.4901 53.5524C43.4263 54.4894 44.1688 55.6019 44.675 56.8263C45.1811 58.0507 45.4411 59.363 45.4401 60.6881V85.9119C45.4411 87.237 45.1811 88.5493 44.675 89.7737C44.1688 90.9981 43.4263 92.1106 42.4901 93.0476C41.5539 93.9845 40.4423 94.7276 39.2188 95.2342C37.9954 95.7407 36.6842 96.001 35.3602 95.9999C34.0362 96.001 32.725 95.7407 31.5015 95.2342C30.2781 94.7276 29.1665 93.9845 28.2303 93.0476C27.2941 92.1106 26.5516 90.9981 26.0454 89.7737C25.5393 88.5493 25.2792 87.237 25.2803 85.9119V60.6881Z" fill="#E01E5A"/>
<path fill-rule="evenodd" clip-rule="evenodd" d="M35.3598 20.1799C34.0355 20.181 32.7239 19.9206 31.5002 19.4138C30.2766 18.9069 29.1648 18.1636 28.2285 17.2262C27.2922 16.2888 26.5499 15.1758 26.0439 13.9509C25.538 12.7261 25.2783 11.4134 25.2799 10.088C25.2789 8.76289 25.5389 7.45062 26.0451 6.22622C26.5513 5.00181 27.2937 3.88931 28.2299 2.95234C29.1661 2.01538 30.2777 1.27235 31.5012 0.765753C32.7246 0.25916 34.0358 -0.00105221 35.3598 3.19767e-06C36.6838 -0.00105221 37.9951 0.25916 39.2185 0.765753C40.4419 1.27235 41.5535 2.01538 42.4897 2.95234C43.426 3.88931 44.1684 5.00181 44.6746 6.22622C45.1808 7.45062 45.4408 8.76289 45.4397 10.088V20.1839H35.3638L35.3598 20.1799ZM35.3598 25.3001C36.6838 25.2991 37.9951 25.5593 39.2185 26.0659C40.4419 26.5725 41.5535 27.3155 42.4897 28.2525C43.426 29.1894 44.1684 30.302 44.6746 31.5264C45.1808 32.7508 45.4408 34.063 45.4397 35.3881C45.4408 36.7132 45.1808 38.0254 44.6746 39.2498C44.1684 40.4742 43.426 41.5867 42.4897 42.5237C41.5535 43.4607 40.4419 44.2037 39.2185 44.7103C37.9951 45.2169 36.6838 45.4771 35.3598 45.476H10.0799C8.75623 45.4771 7.44533 45.217 6.22217 44.7107C4.99901 44.2043 3.88757 43.4617 2.9514 42.5251C2.01524 41.5886 1.27272 40.4766 0.766294 39.2526C0.259869 38.0287 -0.000524163 36.7168 3.19512e-06 35.3921C-0.00105137 34.067 0.258953 32.7548 0.765142 31.5304C1.27133 30.306 2.01377 29.1935 2.94998 28.2565C3.8862 27.3195 4.99782 26.5765 6.22124 26.0699C7.44467 25.5633 8.75589 25.3031 10.0799 25.3042H35.3638L35.3598 25.3001Z" fill="#36C5F0"/>
<path fill-rule="evenodd" clip-rule="evenodd" d="M75.7589 35.3881C75.7579 34.0627 76.018 32.7501 76.5245 31.5254C77.0309 30.3008 77.7737 29.1881 78.7103 28.2511C79.647 27.314 80.7591 26.5711 81.9829 26.0647C83.2068 25.5584 84.5185 25.2986 85.8428 25.3001C87.1668 25.2991 88.4781 25.5593 89.7015 26.0659C90.9249 26.5725 92.0365 27.3155 92.9728 28.2525C93.909 29.1894 94.6514 30.302 95.1576 31.5264C95.6638 32.7508 95.9238 34.063 95.9227 35.3881C95.9238 36.7132 95.6638 38.0254 95.1576 39.2498C94.6514 40.4742 93.909 41.5867 92.9728 42.5237C92.0365 43.4607 90.9249 44.2037 89.7015 44.7103C88.4781 45.2169 87.1668 45.4771 85.8428 45.4761H75.7589V35.3921V35.3881ZM70.719 35.3881C70.72 36.7132 70.46 38.0254 69.9538 39.2498C69.4477 40.4742 68.7052 41.5867 67.769 42.5237C66.8328 43.4607 65.7212 44.2037 64.4977 44.7103C63.2743 45.2169 61.9631 45.4771 60.6391 45.4761C59.3147 45.4776 58.0031 45.2178 56.7792 44.7115C55.5553 44.2051 54.4432 43.4622 53.5066 42.5251C52.5699 41.5881 51.8271 40.4754 51.3207 39.2508C50.8143 38.0261 50.5541 36.7135 50.5552 35.3881V10.088C50.5541 8.76256 50.8143 7.44996 51.3207 6.22529C51.8271 5.00063 52.5699 3.88794 53.5066 2.95093C54.4432 2.01391 55.5553 1.27096 56.7792 0.764604C58.0031 0.258247 59.3147 -0.00157612 60.6391 7.19285e-06C61.9631 -0.00104822 63.2743 0.259164 64.4977 0.765757C65.7212 1.27235 66.8328 2.01538 67.769 2.95235C68.7052 3.88931 69.4477 5.00182 69.9538 6.22622C70.46 7.45062 70.72 8.76289 70.719 10.088V35.3921V35.3881Z" fill="#2EB67D"/>
<path fill-rule="evenodd" clip-rule="evenodd" d="M60.64 75.82C61.964 75.8189 63.2752 76.0791 64.4986 76.5857C65.722 77.0923 66.8337 77.8354 67.7699 78.7723C68.7061 79.7093 69.4485 80.8218 69.9547 82.0462C70.4609 83.2706 70.7209 84.5829 70.7199 85.9079C70.7214 87.2333 70.4618 88.546 69.9559 89.7709C69.4499 90.9958 68.7076 92.1088 67.7713 93.0461C66.835 93.9835 65.7232 94.7269 64.4995 95.2338C63.2759 95.7406 61.9643 96.001 60.64 95.9999C59.3156 96.001 58.0041 95.7406 56.7804 95.2338C55.5567 94.7269 54.4449 93.9835 53.5086 93.0461C52.5724 92.1088 51.83 90.9958 51.3241 89.7709C50.8181 88.546 50.5585 87.2333 50.5601 85.9079V75.82H60.64ZM60.64 70.776C59.316 70.7771 58.0047 70.5168 56.7813 70.0103C55.5579 69.5037 54.4463 68.7606 53.51 67.8237C52.5738 66.8867 51.8314 65.7742 51.3252 64.5498C50.819 63.3254 50.559 62.0131 50.5601 60.6881C50.559 59.363 50.819 58.0507 51.3252 56.8263C51.8314 55.6019 52.5738 54.4894 53.51 53.5524C54.4463 52.6155 55.5579 51.8724 56.7813 51.3659C58.0047 50.8593 59.316 50.599 60.64 50.6001H85.9199C87.2439 50.599 88.5551 50.8593 89.7785 51.3659C91.002 51.8724 92.1136 52.6155 93.0498 53.5524C93.986 54.4894 94.7285 55.6019 95.2346 56.8263C95.7408 58.0507 96.0008 59.363 95.9998 60.6881C96.0008 62.0131 95.7408 63.3254 95.2346 64.5498C94.7285 65.7742 93.986 66.8867 93.0498 67.8237C92.1136 68.7606 91.002 69.5037 89.7785 70.0103C88.5551 70.5168 87.2439 70.7771 85.9199 70.776H60.64Z" fill="#ECB22E"/>
</svg>
