<svg width="144" height="144" viewBox="0 0 144 144" fill="none" xmlns="http://www.w3.org/2000/svg">
<path d="M131 35.3643C126.658 37.2917 121.992 38.5943 117.095 39.1803C122.094 36.181 125.932 31.4314 127.74 25.7724C122.988 28.5954 117.789 30.5844 112.367 31.6534C107.951 26.9435 101.659 24 94.6961 24C81.3261 24 70.4863 34.8511 70.4863 48.2346C70.4863 50.1344 70.7006 51.9838 71.1132 53.758C50.9932 52.747 33.155 43.0989 21.2144 28.4362C19.1309 32.0156 17.9371 36.1792 17.9371 40.62C17.9371 49.0283 22.2114 56.4459 28.7069 60.7922C24.8625 60.6716 21.1026 59.6322 17.7412 57.7605C17.7398 57.8621 17.7398 57.9636 17.7398 58.0655C17.7398 69.8077 26.0846 79.6031 37.1591 81.8295C33.5942 82.8001 29.8548 82.9422 26.2266 82.2448C29.307 91.8731 38.2479 98.8796 48.8411 99.0757C40.5558 105.576 30.1169 109.45 18.7751 109.45C16.8207 109.45 14.894 109.335 13 109.111C23.7136 115.988 36.4387 120 50.1101 120C94.6399 120 118.99 83.0708 118.99 51.0452C118.99 49.9941 118.967 48.9489 118.92 47.9098C123.659 44.4799 127.75 40.2316 131 35.3643Z" fill="#55ACEE"/>
</svg>
