<svg width="118" height="96" viewBox="0 0 118 96" fill="none" xmlns="http://www.w3.org/2000/svg">
<path d="M118 11.3643C113.658 13.2917 108.992 14.5943 104.095 15.1803C109.094 12.181 112.932 7.43143 114.74 1.77238C109.988 4.59538 104.789 6.58436 99.3671 7.65338C94.9508 2.9435 88.6595 0 81.6961 0C68.3261 0 57.4863 10.8511 57.4863 24.2346C57.4863 26.1344 57.7006 27.9838 58.1132 29.758C37.9932 28.747 20.155 19.0989 8.21437 4.43625C6.13093 8.01561 4.9371 12.1792 4.9371 16.62C4.9371 25.0283 9.21138 32.4459 15.7069 36.7922C11.8625 36.6716 8.10258 35.6322 4.7412 33.7605C4.73982 33.862 4.73982 33.9636 4.73982 34.0655C4.73982 45.8077 13.0846 55.6031 24.1591 57.8295C20.5942 58.8001 16.8548 58.9422 13.2266 58.2448C16.307 67.8731 25.2479 74.8796 35.8411 75.0757C27.5558 81.5755 17.1169 85.4502 5.77509 85.4502C3.82071 85.4502 1.89399 85.3353 0 85.1115C10.7136 91.9878 23.4387 96 37.1101 96C81.6399 96 105.99 59.0708 105.99 27.0452C105.99 25.9941 105.967 24.9489 105.92 23.9098C110.659 20.4799 114.75 16.2316 118 11.3643Z" fill="#55ACEE"/>
</svg>
